<svg id="Слой_1" data-name="Слой 1" xmlns="http://www.w3.org/2000/svg" viewBox="0 0 166.94 49.59">
  <defs>
    <style>
      .cls-1 {
        fill: #262626;
      }

      .cls-2 {
        fill: #8e0807;
      }
    </style>
  </defs>
  <title>logo_-point</title>
  <path class="cls-1" d="M3.31,23.8A42.37,42.37,0,0,1,13.08,20V16.48a4.68,4.68,0,0,0-.9-3.16,4.13,4.13,0,0,0-3.2-1,4.21,4.21,0,0,0-2.12.48A1.41,1.41,0,0,0,6,14a1.06,1.06,0,0,0,.09.47,2.26,2.26,0,0,0,.28.4l.29.33a3.52,3.52,0,0,1,.52.88,2.51,2.51,0,0,1,.2,1,2.55,2.55,0,0,1-.9,2.09,3.23,3.23,0,0,1-2.1.74,3.51,3.51,0,0,1-2.35-.82,2.9,2.9,0,0,1-1-2.36,4.93,4.93,0,0,1,2.61-4.37,11.93,11.93,0,0,1,6.39-1.61,13.49,13.49,0,0,1,6.82,1.57c1.82,1.06,2.72,3,2.72,5.86V29.81a1.42,1.42,0,0,0,.27.88.76.76,0,0,0,.6.36A1.12,1.12,0,0,0,21,31a3.11,3.11,0,0,0,.7-.58l.72,1a7.78,7.78,0,0,1-3.11,2.3A6.23,6.23,0,0,1,17,34.1a3.74,3.74,0,0,1-3.12-1.24,4.92,4.92,0,0,1-.82-2.09,11.06,11.06,0,0,1-4.5,2.81,9.11,9.11,0,0,1-3,.52A6.11,6.11,0,0,1,1.9,32.84a4.51,4.51,0,0,1-1.71-3.9A5.78,5.78,0,0,1,3.31,23.8ZM11.68,30A9.34,9.34,0,0,0,13,28.66v-7a10.22,10.22,0,0,0-3.37,1.48,5.15,5.15,0,0,0-2.46,4.37,3.55,3.55,0,0,0,.71,2.39,2.11,2.11,0,0,0,1.61.81A3.73,3.73,0,0,0,11.68,30Z"/>
  <path class="cls-1" d="M23.84,32.27a3.59,3.59,0,0,0,1.92-.65,2.67,2.67,0,0,0,.59-1.9l0-1.41v-13a3.06,3.06,0,0,0-.52-2.06,3.4,3.4,0,0,0-2-.73V11.32h9.1v3.77a16.78,16.78,0,0,1,3-3.16,5.49,5.49,0,0,1,3.47-1.17,4.12,4.12,0,0,1,2.67,1,3.33,3.33,0,0,1,1.19,2.77,3.29,3.29,0,0,1-.84,2.32,2.8,2.8,0,0,1-2.17.92,3.28,3.28,0,0,1-2.64-1.43c-.75-.95-1.27-1.43-1.57-1.43A2.65,2.65,0,0,0,34.14,16a5.21,5.21,0,0,0-1,3.39v9.09q0,2.39.69,3a5.15,5.15,0,0,0,2.76.78v1.15H23.84Z"/>
  <path class="cls-1" d="M45.05,13.43V12.09c.42-.39,1-.85,1.57-1.38.83-.77,1.61-1.55,2.35-2.37a39.78,39.78,0,0,0,4-5.13h1.22v8.11h4.57v2.11H54.15V27.87a4.14,4.14,0,0,0,.3,1.68A1.59,1.59,0,0,0,56,30.61a2.06,2.06,0,0,0,1.57-.67,8.59,8.59,0,0,0,1.26-1.84l1.15.56a10.63,10.63,0,0,1-2,3.21,6.65,6.65,0,0,1-5,2.18,6.57,6.57,0,0,1-3-.63A4.53,4.53,0,0,1,47.54,29V13.43Z"/>
  <path class="cls-2" d="M61.13,42.16a3.59,3.59,0,0,0,2.11-.71,2.9,2.9,0,0,0,.56-2.08V15.26a3,3,0,0,0-.52-2,3.69,3.69,0,0,0-2-.74V11.32h9.16v3.16a9.71,9.71,0,0,1,1.92-2.41,6.67,6.67,0,0,1,4.32-1.36,8,8,0,0,1,6.27,2.84q2.49,2.83,2.49,8.46a13.64,13.64,0,0,1-2.68,8.66A8,8,0,0,1,76.2,34.1,6.7,6.7,0,0,1,72.47,33a9.86,9.86,0,0,1-1.94-1.73v4.05c0,2.16,0,3.37,0,3.64a3.82,3.82,0,0,0,1,2.6,4.57,4.57,0,0,0,2.71.82v1H61.13ZM77.82,28a22.93,22.93,0,0,0,.49-5.46A23.15,23.15,0,0,0,77.56,16a3,3,0,0,0-3-2.45,3.62,3.62,0,0,0-2.76,1.36c-.81.9-1.22,1.56-1.22,2V28.5c0,.47.39,1.07,1.16,1.82a3.67,3.67,0,0,0,2.61,1.11Q76.91,31.43,77.82,28Z"/>
  <path class="cls-2" d="M91.1,14.06a10.61,10.61,0,0,1,15.54.07,12.08,12.08,0,0,1,3,8.3,12.18,12.18,0,0,1-3,8.26,9.86,9.86,0,0,1-7.83,3.46,10,10,0,0,1-7.76-3.37A11.94,11.94,0,0,1,88,22.43,11.9,11.9,0,0,1,91.1,14.06Zm4.48,15.42q.83,3.12,3.26,3.12a3,3,0,0,0,3-2.39,29.68,29.68,0,0,0,.73-7.78,28.07,28.07,0,0,0-.77-7.77,3,3,0,0,0-3-2.4q-2.45,0-3.26,3.11a31.85,31.85,0,0,0-.54,7.06A32.92,32.92,0,0,0,95.58,29.48Z"/>
  <path class="cls-2" d="M125.07,32.27a3.6,3.6,0,0,0,1.93-.71,2.89,2.89,0,0,0,.62-2.19V15.26a3.1,3.1,0,0,0-.5-2,3.34,3.34,0,0,0-2.05-.75V11.32h9.09v3.44a10,10,0,0,1,2.92-2.87A7.18,7.18,0,0,1,141,10.76a6.74,6.74,0,0,1,4.79,1.59q1.69,1.59,1.7,5.6v11.6a2.78,2.78,0,0,0,.55,2.09,3.61,3.61,0,0,0,1.84.63v1.15H138.62V32.27a3.63,3.63,0,0,0,1.75-.7,2.91,2.91,0,0,0,.47-2V17.93a6.94,6.94,0,0,0-.33-2.46A2.15,2.15,0,0,0,138.29,14a3.44,3.44,0,0,0-2.29.9,8.16,8.16,0,0,0-1.6,1.82V29.55a2.91,2.91,0,0,0,.47,2,3.59,3.59,0,0,0,1.75.7v1.15H125.07Z"/>
  <path class="cls-2" d="M151.76,13.43V12.09c.43-.39,1-.85,1.57-1.38.83-.77,1.61-1.55,2.35-2.37a39.78,39.78,0,0,0,4-5.13h1.22v8.11h4.57v2.11h-4.57V27.87a4.14,4.14,0,0,0,.3,1.68,1.59,1.59,0,0,0,1.55,1.06,2.06,2.06,0,0,0,1.57-.67,9,9,0,0,0,1.27-1.84l1.14.56a10.63,10.63,0,0,1-2,3.21,6.63,6.63,0,0,1-5,2.18,6.51,6.51,0,0,1-3-.63A4.52,4.52,0,0,1,154.25,29V13.43Z"/>
  <g>
    <path class="cls-1" d="M76.94,40.53l-2,1.56a4.79,4.79,0,0,1-2.36,1.09c-.07,0-.11,0-.11-.12s.08-.19.23-.22a6.81,6.81,0,0,0,2.4-1.32l2.64-2.11c1.45-1.19,2.57-1.78,3.35-1.78.41,0,.61.16.61.48.15,0,.22.06.22.19s-.08.16-.24.17A3.91,3.91,0,0,1,81,39.81a1.69,1.69,0,0,1-1.21.8c-.23,0-.34-.1-.34-.31s.25-.69.74-1.17a4,4,0,0,1,1.18-.85l0-.11c0-.09,0-.13-.13-.13-.41,0-1.17.57-2.28,1.7s-1.65,1.93-1.65,2.38a.62.62,0,0,0,.36.6,2.69,2.69,0,0,0,.69.13c.24,0,.37.08.37.16s-.23.2-.67.2q-1.5,0-1.5-1.35A3.28,3.28,0,0,1,76.94,40.53Zm4.24-1.82a3.31,3.31,0,0,0-.78.62c-.36.35-.54.6-.54.74l.08.07c.17,0,.4-.19.71-.58A3.83,3.83,0,0,0,81.18,38.71Z"/>
    <path class="cls-1" d="M82.77,40.64l-2,1.49a4.7,4.7,0,0,1-2.25,1c-.07,0-.11,0-.11-.12a.2.2,0,0,1,.19-.22,3.2,3.2,0,0,0,1-.33A19.38,19.38,0,0,0,82,40.84l2.52-2.06c.48-.42.77-.64.88-.64a.82.82,0,0,1,.53.27,1.69,1.69,0,0,1,1-.42c.43,0,.64.23.64.7,0,.69-.55,1.63-1.65,2.83s-2,1.8-2.73,1.8a.88.88,0,0,1-1-1A4.11,4.11,0,0,1,82.77,40.64Zm2.3-1.17c-1.3,1.13-1.95,2.05-1.95,2.77a.4.4,0,0,0,.44.46c.48,0,1.22-.58,2.23-1.74a1,1,0,0,1-.8-1A1.6,1.6,0,0,1,85.07,39.47ZM86,40.66a4.49,4.49,0,0,0,.7-.91,2.28,2.28,0,0,0,.39-1c0-.24-.1-.37-.31-.37a1.3,1.3,0,0,0-.94.59A1.83,1.83,0,0,0,85.37,40C85.37,40.35,85.58,40.57,86,40.66Z"/>
    <path class="cls-1" d="M91.77,40.3c1.74-1.48,3-2.22,3.67-2.22.46,0,.68.21.68.64s-.51,1.05-1.53,2-1.54,1.57-1.54,1.77.12.32.35.33.35.07.35.17-.23.19-.69.19-.8-.24-.8-.71A2.61,2.61,0,0,1,93,41a17.11,17.11,0,0,1,1.41-1.44c.5-.49.76-.78.76-.88s-.06-.13-.17-.13A6.19,6.19,0,0,0,92.66,40a24.24,24.24,0,0,0-2.24,2c-.62.65-1,1-1.14,1a.34.34,0,0,1-.27-.15.47.47,0,0,1-.12-.31,7.75,7.75,0,0,1,1.31-1.77l1.57-1.85-2.44,2-1.8,1.38a4.32,4.32,0,0,1-2.1.93c-.08,0-.13,0-.13-.11s.09-.19.27-.23a4.07,4.07,0,0,0,.85-.29,17.88,17.88,0,0,0,2.84-2c1.28-1.05,2.2-1.84,2.77-2.39a2.78,2.78,0,0,1,.44-.35.91.91,0,0,1,.33-.05.57.57,0,0,1,.33.11.3.3,0,0,1,.16.26A14.79,14.79,0,0,1,91.77,40.3Z"/>
    <path class="cls-1" d="M97.94,40.53l-2,1.56a4.77,4.77,0,0,1-2.35,1.09.11.11,0,0,1-.12-.12c0-.11.08-.19.23-.22a6.81,6.81,0,0,0,2.4-1.32l2.65-2.11c1.45-1.19,2.56-1.78,3.34-1.78.41,0,.62.16.62.48.14,0,.21.06.21.19s-.08.16-.24.17a3.88,3.88,0,0,1-.71,1.34,1.71,1.71,0,0,1-1.21.8c-.23,0-.35-.1-.35-.31s.25-.69.75-1.17a3.89,3.89,0,0,1,1.18-.85l0-.11c0-.09-.05-.13-.14-.13-.41,0-1.17.57-2.27,1.7s-1.66,1.93-1.66,2.38a.61.61,0,0,0,.37.6,2.59,2.59,0,0,0,.68.13c.25,0,.37.08.37.16s-.22.2-.67.2c-1,0-1.49-.45-1.49-1.35A3.24,3.24,0,0,1,97.94,40.53Zm4.25-1.82a3,3,0,0,0-.78.62c-.37.35-.55.6-.55.74l.08.07c.17,0,.41-.19.71-.58A4.38,4.38,0,0,0,102.19,38.71Z"/>
    <path class="cls-1" d="M103.12,41.64a9,9,0,0,0-1.79.87,4,4,0,0,1-1.76.67c-.08,0-.12,0-.12-.13s.09-.19.25-.21a5.34,5.34,0,0,0,1.64-.71,7.38,7.38,0,0,1,1.89-.83A6.18,6.18,0,0,1,105,39.08a4.2,4.2,0,0,1,2.49-1.25c.5,0,.76.22.76.65s-.54,1.18-1.61,1.84a11.21,11.21,0,0,1-2.42,1.17,1.51,1.51,0,0,0-.13.63.62.62,0,0,0,.34.64,2.13,2.13,0,0,0,.66.09c.23,0,.34.06.34.16s-.39.25-1.17.25-1.25-.36-1.25-1.08A2.22,2.22,0,0,1,103.12,41.64Zm1.26-.53a11.6,11.6,0,0,0,1.84-1.17c.87-.64,1.3-1.14,1.3-1.52,0-.15-.07-.23-.21-.23-.41,0-1,.38-1.69,1.14A6.42,6.42,0,0,0,104.38,41.11Z"/>
    <path class="cls-1" d="M110.7,39c0-.21,0-.33,0-.38s.2-.44.61-.8.69-.55.85-.55.22.07.22.2a1.42,1.42,0,0,1-.24.57c.71,0,1.07.29,1.07.86S112.7,40,111.78,41a7.92,7.92,0,0,0-1.39,1.66c0,.11.06.17.18.19h.31c.09,0,.13,0,.13.15s-.18.2-.55.2-.7-.21-.7-.63a2.76,2.76,0,0,1,.7-1.54,13.06,13.06,0,0,1,1.3-1.44,5.29,5.29,0,0,0,.7-.76c0-.1,0-.14-.16-.14a2.07,2.07,0,0,0-.54.11,1.75,1.75,0,0,0-.47.17q-4.42,4.2-6,4.2c-.08,0-.12,0-.12-.13s.09-.18.26-.21a3.72,3.72,0,0,0,.83-.3,11.45,11.45,0,0,0,2.3-1.62A20.69,20.69,0,0,0,110.7,39Z"/>
    <path class="cls-1" d="M118.48,37l-3.43.14c-.19,0-.29-.05-.29-.15s.16-.15.47-.2,1-.13,1.85-.18,1.5-.09,1.85-.14l1.37-1.63q1.1-1.29,1.32-1.29c.19,0,.28.12.28.36a9.17,9.17,0,0,1-1.73,2.56c.67,0,1.22-.07,1.66-.07s.44.06.44.18-.36.21-1.06.25l-1.45.05-2.12,2.65c-1.34,1.75-2,2.78-2,3.12,0,.16.11.24.32.24s.33.06.33.16-.14.19-.42.19c-.57,0-.85-.23-.85-.69a3.79,3.79,0,0,1,.55-1.55l.83-1.39-2.82,2.22a5.14,5.14,0,0,1-2.71,1.39c-.08,0-.11,0-.11-.13s.06-.18.19-.21a8.54,8.54,0,0,0,1-.33,28.31,28.31,0,0,0,2.83-2.06c1.09-.84,1.77-1.39,2-1.64A16.36,16.36,0,0,0,118.48,37Z"/>
    <path class="cls-1" d="M124.5,41.18c-1.69,1.33-2.86,2-3.5,2-.08,0-.11,0-.11-.13s.07-.19.22-.21a6.37,6.37,0,0,0,2.48-1.38l1.23-1,2-1.57A4.28,4.28,0,0,1,129.1,38a.73.73,0,0,1,.8.72c.25-.24.42-.36.52-.36s.31.09.31.26a6.93,6.93,0,0,1-1.46,2,7.75,7.75,0,0,0-1.46,2c0,.13.1.2.31.21s.32.06.32.16-.22.2-.65.2-.64-.19-.64-.56a2.7,2.7,0,0,1,.52-1.28l-1.19,1a2.59,2.59,0,0,1-1.38.65.73.73,0,0,1-.82-.83A2.88,2.88,0,0,1,124.5,41.18Zm4.74-2.8c-.38,0-1.15.56-2.33,1.68s-1.76,1.87-1.76,2.24c0,.18.08.26.25.26.36,0,1.14-.55,2.33-1.64s1.78-1.84,1.78-2.22C129.51,38.49,129.42,38.38,129.24,38.38Z"/>
    <path class="cls-1" d="M132,41c-.9.7-1.47,1.13-1.72,1.29a4,4,0,0,1-2,.85.11.11,0,0,1-.12-.12c0-.11.08-.18.23-.22a7.19,7.19,0,0,0,2.5-1.4l2.67-2.12a5.84,5.84,0,0,1,2.9-1.4c.54,0,.81.3.79.9.3-.34.51-.51.64-.51s.28.1.28.31a32.06,32.06,0,0,1-3.2,4.27l.22,0h.21q.12,0,.12.15c0,.12-.12.18-.37.21l-.5,0Q130,49,127.85,49q-.9,0-.9-.75c0-.8.59-1.74,1.78-2.83a11,11,0,0,1,5-2.37A15.79,15.79,0,0,0,135,41.38c-.65.57-1.06.91-1.23,1a2.65,2.65,0,0,1-1.45.63c-.46,0-.7-.28-.7-.84A2.54,2.54,0,0,1,132,41Zm1.38,2.47a10.29,10.29,0,0,0-4.09,2.14c-1.32,1.08-2,1.94-2,2.57,0,.27.12.4.36.4.53,0,1.52-.71,3-2.13A34.77,34.77,0,0,0,133.35,43.51Zm3.56-4.84c0-.23-.1-.34-.31-.34-.41,0-1.19.55-2.35,1.66s-1.74,1.89-1.74,2.33q0,.24.18.24c.36,0,1.14-.53,2.35-1.6S136.91,39.09,136.91,38.67Z"/>
    <path class="cls-1" d="M138.93,41.64a9,9,0,0,0-1.79.87,4,4,0,0,1-1.76.67c-.08,0-.12,0-.12-.13s.09-.19.25-.21a5.34,5.34,0,0,0,1.64-.71A7.38,7.38,0,0,1,139,41.3a6.29,6.29,0,0,1,1.81-2.22,4.2,4.2,0,0,1,2.49-1.25c.5,0,.76.22.76.65s-.54,1.18-1.61,1.84a11.21,11.21,0,0,1-2.42,1.17,1.51,1.51,0,0,0-.13.63.62.62,0,0,0,.34.64,2.13,2.13,0,0,0,.66.09c.23,0,.34.06.34.16s-.39.25-1.17.25-1.25-.36-1.25-1.08A2.86,2.86,0,0,1,138.93,41.64Zm1.26-.53A11.6,11.6,0,0,0,142,39.94c.87-.64,1.3-1.14,1.3-1.52,0-.15-.07-.23-.21-.23-.41,0-1,.38-1.69,1.14A6.42,6.42,0,0,0,140.19,41.11Z"/>
    <path class="cls-1" d="M147.48,40.3c1.74-1.48,3-2.22,3.67-2.22.46,0,.68.21.68.64s-.51,1.05-1.53,2-1.54,1.57-1.54,1.77.12.32.35.33.35.07.35.17-.23.19-.69.19-.8-.24-.8-.71a2.61,2.61,0,0,1,.77-1.49,17.11,17.11,0,0,1,1.41-1.44c.5-.49.76-.78.76-.88s-.06-.13-.17-.13A6.19,6.19,0,0,0,148.37,40a24.24,24.24,0,0,0-2.24,2c-.62.65-1,1-1.14,1a.34.34,0,0,1-.27-.15.48.48,0,0,1-.13-.31,8,8,0,0,1,1.32-1.77l1.57-1.85-2.44,2-1.8,1.38a4.32,4.32,0,0,1-2.1.93c-.08,0-.13,0-.13-.11s.09-.19.27-.23a4.07,4.07,0,0,0,.85-.29,17.88,17.88,0,0,0,2.84-2c1.28-1.05,2.2-1.84,2.77-2.39a2.78,2.78,0,0,1,.44-.35.91.91,0,0,1,.33-.05.57.57,0,0,1,.33.11.3.3,0,0,1,.16.26A14.79,14.79,0,0,1,147.48,40.3Z"/>
    <path class="cls-1" d="M153.65,40.53l-2,1.56a4.77,4.77,0,0,1-2.35,1.09.11.11,0,0,1-.12-.12c0-.11.08-.19.23-.22a6.81,6.81,0,0,0,2.4-1.32l2.65-2.11c1.45-1.19,2.56-1.78,3.34-1.78.41,0,.62.16.62.48.14,0,.21.06.21.19s-.08.16-.24.17a3.88,3.88,0,0,1-.71,1.34,1.71,1.71,0,0,1-1.21.8c-.23,0-.35-.1-.35-.31s.25-.69.75-1.17a3.89,3.89,0,0,1,1.18-.85l0-.11c0-.09-.05-.13-.14-.13-.41,0-1.17.57-2.27,1.7S154,41.67,154,42.12a.61.61,0,0,0,.37.6,2.59,2.59,0,0,0,.68.13c.25,0,.37.08.37.16s-.22.2-.67.2c-1,0-1.49-.45-1.49-1.35A3.24,3.24,0,0,1,153.65,40.53Zm4.25-1.82a3,3,0,0,0-.78.62c-.37.35-.55.6-.55.74l.08.07c.17,0,.41-.19.71-.58A4.38,4.38,0,0,0,157.9,38.71Z"/>
    <path class="cls-1" d="M162.72,42.88l.6,0c.08,0,.13,0,.13.15s-.15.19-.45.22l-.6,0-2.65,3.28q-2.38,2.73-3.39,2.73c-.31,0-.47-.22-.47-.64,0-1,.62-2.05,1.87-3.29A8.07,8.07,0,0,1,161.6,43l2-2.53L162,41.89a4.59,4.59,0,0,1-1.94,1.18c-.4,0-.6-.29-.6-.85a3.16,3.16,0,0,1,.69-1.72L161.33,39q-1.12,1-2.58,2.16c-.79.63-1.33,1-1.61,1.22a3.71,3.71,0,0,1-1.86.77c-.08,0-.12,0-.12-.13a.21.21,0,0,1,.19-.21,9.79,9.79,0,0,0,3.32-2l1.66-1.36,1.08-1a4.66,4.66,0,0,1,1-.78.78.78,0,0,1,.47.16.49.49,0,0,1,.22.41L161.62,40a5.8,5.8,0,0,0-1.51,2.38c0,.11.07.17.19.17.38,0,1.32-.7,2.79-2.12,1.09-1,2-2,2.71-2.77.14-.17.25-.25.31-.25a.67.67,0,0,1,.38.13.34.34,0,0,1,.19.3.39.39,0,0,1-.12.23A51.53,51.53,0,0,0,162.72,42.88Zm-1.45.57a8.19,8.19,0,0,0-3.47,2.26,4.52,4.52,0,0,0-1.56,2.7c0,.21.07.32.23.32Q157.39,48.73,161.27,43.45Z"/>
  </g>
  <path class="cls-1" d="M117.67,7.71a3.56,3.56,0,0,0,2.62-1.09A3.63,3.63,0,0,0,121.38,4a3.59,3.59,0,0,0-1.09-2.63,3.71,3.71,0,0,0-5.25,0A3.56,3.56,0,0,0,114,4,3.59,3.59,0,0,0,115,6.62,3.56,3.56,0,0,0,117.67,7.71Z"/>
  <path class="cls-2" d="M120.94,29.55V11.32h-9.21v1.15a3.58,3.58,0,0,1,2,.79,3,3,0,0,1,.49,2V29.37a3,3,0,0,1-.7,2.27,3.6,3.6,0,0,1-1.74.63v1.15h11.44V32.27a3.63,3.63,0,0,1-1.76-.7A3,3,0,0,1,120.94,29.55Z"/>
</svg>
