<?xml version="1.0" encoding="UTF-8"?>
<svg width="18px" height="18px" viewBox="0 0 18 18" version="1.1" xmlns="http://www.w3.org/2000/svg" xmlns:xlink="http://www.w3.org/1999/xlink">
    <!-- Generator: Sketch 58 (84663) - https://sketch.com -->
    <title>Group 3</title>
    <desc>Created with Sketch.</desc>
    <g id="Page-1" stroke="none" stroke-width="1" fill="none" fill-rule="evenodd">
        <g id="Меню-XS-" transform="translate(-16.000000, -25.000000)" fill="#C1C1C1" fill-rule="nonzero">
            <g id="Group-3" transform="translate(15.000000, 24.000000)">
                <g id="Group">
                    <path d="M-1.71171171,10.7932946 C-1.80780829,10.6817113 -1.87987964,10.5661446 -1.92792793,10.446591 C-1.97597622,10.3270374 -2,10.1875604 -2,10.0281556 C-2,9.8846913 -1.97597622,9.74919929 -1.92792793,9.62167547 C-1.87987964,9.49415166 -1.80780829,9.38257 -1.71171171,9.28692714 C-1.61561514,9.19128428 -1.50350414,9.11955321 -1.37537538,9.07173179 C-1.24724661,9.02391036 -1.11111183,9 -0.966966967,9 L20.966967,9 C21.1111118,9 21.2472466,9.02391036 21.3753754,9.07173179 C21.5035041,9.11955321 21.6156151,9.19128428 21.7117117,9.28692714 C21.8078083,9.38257 21.8798796,9.49415166 21.9279279,9.62167547 C21.9759762,9.74919929 22,9.8846913 22,10.0281556 C22,10.1875604 21.9759762,10.3270374 21.9279279,10.446591 C21.8798796,10.5661446 21.8078083,10.6817113 21.7117117,10.7932946 C21.6156151,10.8889375 21.5035041,10.9606686 21.3753754,11.00849 C21.2472466,11.0563114 21.1111118,11.0802218 20.966967,11.0802218 L-0.966966967,11.0802218 C-1.11111183,11.0802218 -1.24724661,11.0563114 -1.37537538,11.00849 C-1.50350414,10.9606686 -1.61561514,10.8889375 -1.71171171,10.7932946 Z" id="Path-Copy" transform="translate(10.000000, 10.040111) rotate(-45.000000) translate(-10.000000, -10.040111) "></path>
                    <path d="M21.7117117,9.28692714 C21.8078083,9.38257 21.8798796,9.49415166 21.9279279,9.62167547 C21.9759762,9.74919929 22,9.8846913 22,10.0281556 C22,10.1716199 21.9759762,10.3071119 21.9279279,10.4346357 C21.8798796,10.5621595 21.8078083,10.6737412 21.7117117,10.769384 C21.6156151,10.8650269 21.5035041,10.936758 21.3753754,10.9845794 C21.2472466,11.0324008 21.1111118,11.0563112 20.966967,11.0563112 L-0.966966967,11.0563112 C-1.11111183,11.0563112 -1.24724661,11.0324008 -1.37537538,10.9845794 C-1.50350414,10.936758 -1.61561514,10.8650269 -1.71171171,10.769384 C-1.80780829,10.6737412 -1.87987964,10.5621595 -1.92792793,10.4346357 C-1.97597622,10.3071119 -2,10.1716199 -2,10.0281556 C-2,9.8846913 -1.97597622,9.74919929 -1.92792793,9.62167547 C-1.87987964,9.49415166 -1.80780829,9.38257 -1.71171171,9.28692714 C-1.61561514,9.19128428 -1.50350414,9.11955321 -1.37537538,9.07173179 C-1.24724661,9.02391036 -1.11111183,9 -0.966966967,9 L20.966967,9 C21.1111118,9 21.2472466,9.02391036 21.3753754,9.07173179 C21.5035041,9.11955321 21.6156151,9.19128428 21.7117117,9.28692714 Z" id="Path-Copy-2" transform="translate(10.000000, 10.028156) rotate(45.000000) translate(-10.000000, -10.028156) "></path>
                </g>
            </g>
        </g>
    </g>
</svg>