<?xml version="1.0" encoding="UTF-8"?>
<svg width="126px" height="220px" viewBox="0 0 126 220" version="1.1" xmlns="http://www.w3.org/2000/svg" xmlns:xlink="http://www.w3.org/1999/xlink">
    <!-- Generator: Sketch 58 (84663) - https://sketch.com -->
    <title>Group Copy 8</title>
    <desc>Created with Sketch.</desc>
    <g id="Page-1" stroke="none" stroke-width="1" fill="none" fill-rule="evenodd" opacity="0.229999989">
        <g id="Главная-XS-" transform="translate(-240.000000, -519.000000)" fill="#000000" fill-rule="nonzero">
            <g id="Group-11" transform="translate(-224.000000, 25.000000)">
                <g id="Group-2" opacity="0.200000003">
                    <g id="Group-Copy-8" transform="translate(461.249989, 475.087489)">
                        <g id="tickets" transform="translate(82.468455, 34.960564) rotate(-36.000000) translate(-82.468455, -34.960564) translate(63.968455, 18.960564)">
                            <path d="M35.8279928,21.1357805 C36.1619659,21.1357805 36.4327427,20.8656088 36.4327427,20.5323819 L36.4327427,15.7051925 C36.4327427,15.3719656 36.1619659,15.1017939 35.8279928,15.1017939 L28.2166099,15.1017939 L32.0223014,11.3046061 C32.2583806,11.0689789 32.2583806,10.6870275 32.0223014,10.4514003 L28.7179476,7.15443002 C28.4817928,6.91887827 28.0989861,6.91887827 27.8628312,7.15443002 C26.917985,8.09716501 25.3860022,8.09716501 24.441156,7.15443002 C23.4963098,6.21169503 23.4963098,4.68313536 24.441156,3.74040036 C24.6772352,3.50477318 24.6772352,3.12282183 24.441156,2.88719465 L21.7415522,0.193623001 C21.5053974,-0.0419287541 21.1225906,-0.0419287541 20.8864358,0.193623001 L5.94487877,15.1017939 L0.752495696,15.1017939 C0.418522536,15.1017939 0.147745746,15.3719656 0.147745746,15.7051925 L0.147745746,20.5323819 C0.147745746,20.8656088 0.418522536,21.1357805 0.752495696,21.1357805 C2.08846393,21.1357805 3.1714955,22.2163921 3.1714955,23.5493752 C3.1714955,24.8823583 2.08846393,25.9629699 0.752495696,25.9629699 C0.418522536,25.9629699 0.147745746,26.2331416 0.147745746,26.5663685 L0.147745746,31.3935579 C0.147745746,31.7267848 0.418522536,31.9969565 0.752495696,31.9969565 L35.8279928,31.9969565 C36.1619659,31.9969565 36.4327427,31.7267848 36.4327427,31.3935579 L36.4327427,26.5663685 C36.4327427,26.2331416 36.1619659,25.9629699 35.8279928,25.9629699 C34.4920246,25.9629699 33.408993,24.8823583 33.408993,23.5493752 C33.408993,22.2163921 34.4920246,21.1357805 35.8279928,21.1357805 Z M21.313994,1.47343157 L23.1935568,3.34879463 C22.0285817,4.97570829 22.4060212,7.23686936 24.0365783,8.39924147 C25.2983134,9.29875803 26.9935787,9.29875803 28.2553139,8.39924147 L30.7396267,10.8780032 L26.5063771,15.1017939 L24.5881102,15.1017939 L25.9748019,13.7182007 C26.2108811,13.4825735 26.2108811,13.1006222 25.9748019,12.864995 L19.3225524,6.22760967 C19.0863976,5.99205791 18.7035908,5.99205791 18.467436,6.22760967 L9.57337846,15.1017939 L7.65511162,15.1017939 L21.313994,1.47343157 Z M22.8778774,15.1017939 L11.2836113,15.1017939 L18.8949942,7.50741824 L24.6921272,13.2915979 L22.8778774,15.1017939 Z M32.2463612,24.1494552 C32.5027752,25.6713775 33.6979123,26.8638441 35.2232428,27.1196851 L35.2232428,30.7901592 L30.3852432,30.7901592 L30.3852432,28.3765645 L29.1757433,28.3765645 L29.1757433,30.7901592 L7.40474514,30.7901592 L7.40474514,30.1867605 L6.19524524,30.1867605 L6.19524524,30.7901592 L1.35724565,30.7901592 L1.35724565,27.1196851 C3.33349289,26.7882684 4.66628618,24.9211266 4.33412727,22.9492952 C4.0777133,21.4273729 2.8826518,20.2349063 1.35724565,19.9790653 L1.35724565,16.3085912 L6.19524524,16.3085912 L6.19524524,18.1187872 L7.40474514,18.1187872 L7.40474514,16.3085912 L35.2232428,16.3085912 L35.2232428,19.9790653 C33.2469956,20.310482 31.9142023,22.1776992 32.2463612,24.1494552 Z" id="Shape"></path>
                            <rect id="Rectangle" x="29.0934482" y="17.3714056" width="1.2299999" height="2.4599998"></rect>
                            <rect id="Rectangle" x="29.0274177" y="21.1243403" width="1.2299999" height="2.4599998"></rect>
                            <rect id="Rectangle" x="29.142131" y="24.6285023" width="1.2299999" height="2.4599998"></rect>
                            <rect id="Rectangle" x="5.80817777" y="19.0781191" width="1.2299999" height="2.4599998"></rect>
                            <rect id="Rectangle" x="5.99091991" y="23.0117977" width="1.2299999" height="2.4599998"></rect>
                            <rect id="Rectangle" x="5.92488935" y="26.7647324" width="1.2299999" height="2.4599998"></rect>
                            <path d="M26.6586968,19.5302109 C25.9906749,19.5302109 25.4491969,18.9933217 25.4491969,18.330961 C25.4491969,17.9998182 25.1784201,17.7313361 24.8444469,17.7313361 L11.539948,17.7313361 C11.2059749,17.7313361 10.9351981,17.9998182 10.9351981,18.330961 C10.9351981,18.9933217 10.3937201,19.5302109 9.72569819,19.5302109 C9.39172503,19.5302109 9.12094824,19.798693 9.12094824,20.1298359 L9.12094824,27.3253353 C9.12094824,27.6564782 9.39172503,27.9249602 9.72569819,27.9249602 C10.3937201,27.9249602 10.9351981,28.4618494 10.9351981,29.1242101 C10.9351981,29.455353 11.2059749,29.7238351 11.539948,29.7238351 L24.8444469,29.7238351 C25.1784201,29.7238351 25.4491969,29.455353 25.4491969,29.1242101 C25.4491969,28.4618494 25.9906749,27.9249602 26.6586968,27.9249602 C26.9926699,27.9249602 27.2634467,27.6564782 27.2634467,27.3253353 L27.2634467,20.1298359 C27.2634467,19.798693 26.9926699,19.5302109 26.6586968,19.5302109 Z M26.0539468,26.8012631 C25.2025345,27.0211755 24.5376875,27.6803882 24.3158955,28.5245852 L12.0684995,28.5245852 C11.8467075,27.6803882 11.1818605,27.0211755 10.3304481,26.8012631 L10.3304481,20.6539081 C11.1818605,20.4339956 11.8467075,19.774783 12.0684995,18.930586 L24.3158955,18.930586 C24.5376875,19.774783 25.2025345,20.4339956 26.0539468,20.6539081 L26.0539468,26.8012631 Z" id="Shape"></path>
                        </g>
                        <g id="tickets-copy" transform="translate(105.999485, 227.434835) rotate(55.000000) translate(-105.999485, -227.434835) translate(96.499485, 218.934835)">
                            <path d="M18.092281,10.607519 C18.2592676,10.607519 18.394656,10.4724331 18.394656,10.3058196 L18.394656,7.89222495 C18.394656,7.7256115 18.2592676,7.59052562 18.092281,7.59052562 L14.2865896,7.59052562 L16.1894353,5.69193171 C16.3074749,5.57411812 16.3074749,5.38314245 16.1894353,5.26532886 L14.5372585,3.6168437 C14.419181,3.49906782 14.2277777,3.49906782 14.1097002,3.6168437 C13.6372771,4.08821119 12.8712857,4.08821119 12.3988626,3.6168437 C11.9264395,3.1454762 11.9264395,2.38119637 12.3988626,1.90982887 C12.5169023,1.79201528 12.5169023,1.6010396 12.3988626,1.48322601 L11.0490607,0.136440187 C10.9309833,0.0186643102 10.73958,0.0186643102 10.6215025,0.136440187 L3.15072402,7.59052562 L0.554532489,7.59052562 C0.387545909,7.59052562 0.252157514,7.7256115 0.252157514,7.89222495 L0.252157514,10.3058196 C0.252157514,10.4724331 0.387545909,10.607519 0.554532489,10.607519 C1.22251661,10.607519 1.76403239,11.1478247 1.76403239,11.8143163 C1.76403239,12.4808078 1.22251661,13.0211136 0.554532489,13.0211136 C0.387545909,13.0211136 0.252157514,13.1561995 0.252157514,13.322813 L0.252157514,15.7364076 C0.252157514,15.9030211 0.387545909,16.038107 0.554532489,16.038107 L18.092281,16.038107 C18.2592676,16.038107 18.394656,15.9030211 18.394656,15.7364076 L18.394656,13.322813 C18.394656,13.1561995 18.2592676,13.0211136 18.092281,13.0211136 C17.4242969,13.0211136 16.8827811,12.4808078 16.8827811,11.8143163 C16.8827811,11.1478247 17.4242969,10.607519 18.092281,10.607519 Z M10.8352816,0.776344474 L11.7750631,1.714026 C11.1925755,2.52748283 11.3812952,3.65806337 12.1965738,4.23924942 C12.8274414,4.6890077 13.675074,4.6890077 14.3059416,4.23924942 L15.548098,5.47863028 L13.4314732,7.59052562 L12.4723398,7.59052562 L13.1656856,6.89872905 C13.2837252,6.78091546 13.2837252,6.58993978 13.1656856,6.47212619 L9.83956084,3.15343352 C9.72148342,3.03565764 9.53008006,3.03565764 9.41200263,3.15343352 L4.96497387,7.59052562 L4.00584045,7.59052562 L10.8352816,0.776344474 Z M11.6172233,7.59052562 L5.8200903,7.59052562 L9.62578174,3.79333781 L12.5243482,6.68542762 L11.6172233,7.59052562 Z M16.3014652,12.1143563 C16.4296722,12.8753174 17.0272408,13.4715507 17.7899061,13.5994712 L17.7899061,15.4347083 L15.3709063,15.4347083 L15.3709063,14.227911 L14.7661563,14.227911 L14.7661563,15.4347083 L3.88065721,15.4347083 L3.88065721,15.133009 L3.27590726,15.133009 L3.27590726,15.4347083 L0.856907464,15.4347083 L0.856907464,13.5994712 C1.84503108,13.4337629 2.51142773,12.500192 2.34534828,11.5142763 C2.21714129,10.7533152 1.61961054,10.1570818 0.856907464,10.0291613 L0.856907464,8.19392429 L3.27590726,8.19392429 L3.27590726,9.09902229 L3.88065721,9.09902229 L3.88065721,8.19392429 L17.7899061,8.19392429 L17.7899061,10.0291613 C16.8017824,10.1948697 16.1353858,11.1284783 16.3014652,12.1143563 Z" id="Shape"></path>
                            <rect id="Rectangle" x="14.6208343" y="8.53730899" width="1" height="1.2299999"></rect>
                            <rect id="Rectangle" x="14.7465175" y="10.5022541" width="1" height="1.2299999"></rect>
                            <rect id="Rectangle" x="14.6203115" y="12.2908245" width="1" height="1.2299999"></rect>
                            <rect id="Rectangle" x="3.08305279" y="9.46778313" width="1" height="1.2299999"></rect>
                            <rect id="Rectangle" x="3.20873603" y="11.4327283" width="1" height="1.2299999"></rect>
                            <rect id="Rectangle" x="3.33441926" y="13.3976734" width="1" height="1.2299999"></rect>
                            <path d="M13.358439,9.66356092 C13.0300893,9.66356092 12.7639391,9.40199952 12.7639391,9.07931097 C12.7639391,8.91798495 12.6308454,8.78718599 12.4666891,8.78718599 L5.92718965,8.78718599 C5.76303335,8.78718599 5.62993967,8.91798495 5.62993967,9.07931097 C5.62993967,9.40199952 5.36378948,9.66356092 5.03543972,9.66356092 C4.87128343,9.66356092 4.73818975,9.79435988 4.73818975,9.9556859 L4.73818975,13.4611856 C4.73818975,13.6225116 4.87128343,13.7533106 5.03543972,13.7533106 C5.36378948,13.7533106 5.62993967,14.014872 5.62993967,14.3375605 C5.62993967,14.4988866 5.76303335,14.6296855 5.92718965,14.6296855 L12.4666891,14.6296855 C12.6308454,14.6296855 12.7639391,14.4988866 12.7639391,14.3375605 C12.7639391,14.014872 13.0300893,13.7533106 13.358439,13.7533106 C13.5225953,13.7533106 13.655689,13.6225116 13.655689,13.4611856 L13.655689,9.9556859 C13.655689,9.79435988 13.5225953,9.66356092 13.358439,9.66356092 Z M13.0611891,13.2058684 C12.6426983,13.3130052 12.3159091,13.6341601 12.2068926,14.0454356 L6.18698613,14.0454356 C6.0779697,13.6341601 5.75118051,13.3130052 5.3326897,13.2058684 L5.3326897,10.2110031 C5.75118051,10.1038663 6.0779697,9.7827114 6.18698613,9.37143595 L12.2068926,9.37143595 C12.3159091,9.7827114 12.6426983,10.1038663 13.0611891,10.2110031 L13.0611891,13.2058684 Z" id="Shape"></path>
                        </g>
                        <g id="microphone-copy" transform="translate(25.450690, 218.360377) scale(-1, 1) rotate(48.000000) translate(-25.450690, -218.360377) translate(17.450690, 208.860377)">
                            <path d="M7.43520768,14.1135121 L7.15039331,12.9410793 C7.10668109,12.7611295 6.9330776,12.6527655 6.76258751,12.6987381 C6.59197287,12.744842 6.48910596,12.9279443 6.53281815,13.1078942 L6.81750798,14.2803269 C6.85437071,14.4321678 6.98401291,14.5331762 7.12610877,14.5331762 C7.15226136,14.5331762 7.17891213,14.5297611 7.20543834,14.5226682 C7.37605296,14.4765643 7.4789199,14.2933306 7.43520768,14.1135121 L7.43520768,14.1135121 Z" id="Path"></path>
                            <path d="M6.65636962,11.6322812 C6.7770328,11.5821116 6.85390598,11.4583119 6.84572542,11.3280154 C6.83754486,11.1974783 6.74419028,11.0846269 6.61823377,11.050579 C6.50142027,11.0190575 6.37233588,11.0616475 6.29738758,11.1565727 C6.21726623,11.2578743 6.20944659,11.4008034 6.27705646,11.5105268 C6.35501235,11.6369733 6.5194656,11.6894288 6.65636962,11.6322812 Z" id="Path"></path>
                            <path d="M15.3961308,8.74131224 L14.9596058,7.48116645 C14.5320953,6.24755432 13.2462859,5.53441059 11.9683984,5.822199 C11.2723622,5.97895183 10.6888719,6.40240219 10.3256929,7.01444577 C9.96251389,7.62648939 9.87141182,8.33990524 10.06905,9.02311356 L11.6497461,14.4864668 C11.9756374,15.6128556 11.3627814,16.8037417 10.2545322,17.1976648 C9.67705166,17.4028586 9.05695662,17.3658475 8.50815884,17.093299 C8.04882411,16.8652454 7.69206462,16.4974477 7.48049473,16.0417487 C8.36078385,15.8032177 8.89004997,14.9008004 8.6622265,14.0179772 L7.46369482,9.37322209 C7.46342164,9.37199746 7.46314845,9.37077281 7.4628753,9.36954818 L6.84715097,6.98369393 C7.08289634,6.74870075 7.29077844,6.48281963 7.46492408,6.18931629 C8.00702918,5.275333 8.1595944,4.20568544 7.89421014,3.17740322 C7.89421014,3.17713106 7.89407353,3.1768589 7.89407353,3.17672284 C7.89366377,3.17509 7.89325404,3.17345715 7.8927077,3.17196041 C7.62650392,2.14612743 6.97581385,1.28439508 6.06001271,0.745149009 C5.14270912,0.205086498 4.06901594,0.0530961328 3.03684454,0.317480472 C1.05991598,0.823797547 -0.191200874,2.72932414 0.0762322013,4.69730694 C0.0765053535,4.69962012 0.0767785406,4.70220547 0.0771883037,4.70465475 C0.0979491948,4.85514833 0.127178327,5.00605014 0.166104989,5.15667982 C0.529966922,6.56691101 1.61390397,7.60594279 2.92525472,7.98489819 L4.7410132,15.022175 C4.93510021,15.7740987 5.61679501,16.2747009 6.36254807,16.2747009 C6.4999524,16.2747009 6.63981525,16.2576921 6.77899514,16.2220417 L6.79483898,16.2179596 C7.06404765,16.8709603 7.55384076,17.3976879 8.19619913,17.7167724 C8.60977794,17.9221023 9.05422493,18.0256517 9.501267,18.0256517 C9.83303149,18.0256517 10.166435,17.9685023 10.4894581,17.8537951 C11.9449058,17.3365924 12.7496635,15.772738 12.3217433,14.2935192 L10.7409107,8.83016605 C10.5970869,8.33310175 10.6634671,7.81426622 10.9276222,7.36890854 C11.1917772,6.92368696 11.6162828,6.61562411 12.1226027,6.50159733 C13.0521989,6.2923214 13.9876683,6.8110209 14.2985353,7.70853967 L14.7350603,8.96854943 C14.7980259,9.15047524 14.9971666,9.24681291 15.1796439,9.18422064 C15.3622578,9.1213562 15.4590964,8.92310198 15.3961308,8.74131224 L15.3961308,8.74131224 Z M3.21085357,0.992252428 C3.48456953,0.922040223 3.75924159,0.888566945 4.02967951,0.888566945 C5.41287389,0.888566945 6.68406869,1.76567525 7.14326684,3.10664673 C5.42380068,4.12309084 3.75596356,4.40638894 2.63992907,4.46136126 C1.76223509,4.50449552 1.08354518,4.41768274 0.745224583,4.35930865 C0.654259117,2.82566181 1.66266478,1.38862481 3.21085357,0.992252428 Z M0.871292371,5.08442655 C1.1858472,5.127969 1.62646978,5.16974255 2.16160908,5.16974255 C2.31540356,5.16974255 2.47711997,5.16634081 2.64566565,5.15844872 C3.80609019,5.10456493 5.51995638,4.82221937 7.30266132,3.8195183 C7.37887563,4.51796645 7.228086,5.21927209 6.86299481,5.83485352 C6.68939551,6.12740439 6.47509395,6.38648198 6.22869495,6.60732384 C6.04389572,6.76638988 5.84994529,6.91048816 5.63632664,7.02927741 C5.41738118,7.15106022 5.1842309,7.24658149 4.94356849,7.3166576 C4.80438856,7.35720652 4.66247693,7.3887748 4.51878971,7.40891319 C2.90626946,7.6515263 1.33349537,6.66624224 0.871292371,5.08442655 Z M4.03077219,8.1421953 C4.64731601,8.14205923 5.26372328,7.99646418 5.81566249,7.72269097 C5.96590578,7.64826062 6.11136859,7.56416924 6.25095829,7.4712333 L6.71971735,9.28777002 C6.34888959,9.49010637 5.98639352,9.62495191 5.47256145,9.75653173 C5.03904128,9.86756499 4.59514063,9.92784408 4.15096683,9.93750507 L3.68384678,8.12709153 C3.79926093,8.13675249 3.91494827,8.1421953 4.03077219,8.1421953 L4.03077219,8.1421953 Z M5.41833729,14.8486855 L4.32920999,10.6280611 C4.77242773,10.6073785 5.21427956,10.5419287 5.64657051,10.4313037 C6.1448319,10.3036699 6.52767909,10.1674636 6.89864344,9.98104752 L7.98503903,14.1914666 L7.98503903,14.1913305 C8.11889215,14.709894 7.80433732,15.2402954 7.2838126,15.3735081 L6.60498611,15.5474058 C6.08446139,15.6806185 5.55205379,15.3672489 5.41833729,14.8486855 L5.41833729,14.8486855 Z" id="Shape"></path>
                            <path d="M15.9147963,9.94140553 C15.8888104,9.81499777 15.7848665,9.71553133 15.6567412,9.69688889 C15.5278941,9.67824647 15.3985657,9.7455998 15.3391348,9.86106264 C15.2803055,9.97532273 15.3001559,10.118208 15.3880992,10.2121418 C15.4748394,10.3047527 15.6133109,10.3340995 15.7303681,10.2858697 C15.8645087,10.230664 15.9431884,10.0835691 15.9147963,9.94140553 Z" id="Path"></path>
                        </g>
                        <g id="popcorn" transform="translate(16.566165, 107.219510) rotate(-24.000000) translate(-16.566165, -107.219510) translate(4.566165, 94.219510)">
                            <path d="M4.50126801,7.11965031 C4.50126801,6.34915684 3.85130672,5.72232795 3.05249197,5.72232795 C2.70201023,5.72232795 2.37274985,5.84098189 2.11348453,6.05494001 C1.96356749,6.00560263 1.80534423,5.98010352 1.64504441,5.98010352 C0.846179022,5.98010352 0.196268371,6.60693241 0.196268371,7.37742588 C0.196268371,7.9722099 0.593700484,8.49699348 1.156953,8.6928775 C1.32677458,9.28629376 1.89397761,9.71982762 2.55366326,9.71982762 C3.35252865,9.71982762 4.0024393,9.09299872 4.0024393,8.32250526 C4.0024393,8.27492644 3.99995757,8.22754302 3.9949941,8.1805504 C4.31245357,7.91774339 4.50126801,7.53105562 4.50126801,7.11965031 Z M3.38929885,7.69934003 L3.12228443,7.84412812 L3.2123866,8.12647468 C3.23254437,8.18968514 3.24282584,8.25563113 3.24282584,8.32240756 C3.24282584,8.6888719 2.93367258,8.98699664 2.55376456,8.98699664 C2.19421689,8.98699664 1.89245819,8.71637382 1.86683047,8.3709145 L1.84500134,8.07757695 L1.54334393,8.03463878 C1.20856296,7.98701111 0.956084423,7.70442031 0.956084423,7.37732818 C0.956084423,7.01086384 1.26523768,6.7127391 1.64514571,6.7127391 C1.77196742,6.7127391 1.89575028,6.74615173 2.00317395,6.80936219 L2.29596802,6.98165221 L2.50347144,6.71825902 C2.63530727,6.55090274 2.83541614,6.45496353 3.05259327,6.45496353 C3.43255194,6.45496353 3.74165455,6.75313712 3.74165455,7.11955261 C3.7416039,7.35935179 3.60662792,7.58151652 3.38929885,7.69934003 Z" id="Shape"></path>
                            <path d="M8.68818939,2.23011194 C8.68818939,1.47153484 8.07629049,0.854452894 7.32414858,0.854452894 C7.0022165,0.854452894 6.6993496,0.965590345 6.45818548,1.16654692 C6.32374491,1.1229175 6.18272477,1.10039741 6.03983957,1.10039741 C5.28769765,1.10039741 4.67579875,1.7175316 4.67579875,2.47605646 C4.67579875,2.52287317 4.6781819,2.56963764 4.6829482,2.6161931 C4.49043136,2.85858456 4.38318975,3.16169145 4.38318975,3.47629351 C4.38318975,4.23487062 4.99508865,4.85195256 5.74723056,4.85195256 C5.98243681,4.85195256 6.21266954,4.79029662 6.41554788,4.67529261 C6.560609,4.72686415 6.71401113,4.75356431 6.8689675,4.75356431 C7.62110942,4.75356431 8.23300831,4.13643011 8.23300831,3.37790526 C8.23300831,3.3384559 8.23135047,3.2991633 8.22803479,3.2600797 C8.51696546,3.00175175 8.68818939,2.62774053 8.68818939,2.23011194 Z M7.61105875,2.74645435 L7.33787757,2.90132571 L7.430095,3.20338759 C7.44729511,3.25960945 7.45599877,3.31833935 7.45599877,3.37790526 C7.45599877,3.70426375 7.19271284,3.96980231 6.86907111,3.96980231 C6.76504157,3.96980231 6.66282528,3.94190039 6.57340546,3.88912708 L6.33597149,3.74888593 L6.12599551,3.92815843 C6.01870209,4.01975408 5.88773262,4.06819057 5.74723056,4.06819057 C5.42358884,4.06819057 5.1603029,3.80265201 5.1603029,3.47629351 C5.16035471,3.30731443 5.23247081,3.14585946 5.35815591,3.03341574 L5.53968954,2.87102025 L5.47467108,2.63521239 C5.46032039,2.5831706 5.45301552,2.52961353 5.45301552,2.47610871 C5.45301552,2.14975021 5.71630146,1.88421165 6.03994318,1.88421165 C6.14796191,1.88421165 6.25339026,1.91394236 6.34488239,1.97021647 L6.6443818,2.15445279 L6.85658549,1.87266422 C6.96880063,1.72364494 7.13929926,1.63821489 7.32425219,1.63821489 C7.64789392,1.63821489 7.91117985,1.90375345 7.91117985,2.23011194 C7.91117985,2.44366096 7.79616711,2.64148249 7.61105875,2.74645435 Z" id="Shape"></path>
                            <path d="M23.5479058,5.14347704 C23.5479058,4.38489994 22.9360143,3.76781799 22.1838814,3.76781799 C21.862005,3.76781799 21.5591418,3.87895544 21.3179287,4.07996427 C21.1835416,4.0362826 21.0424195,4.01376251 20.8995361,4.01376251 C20.1474032,4.01376251 19.5355117,4.6308967 19.5355117,5.38942156 C19.5355117,5.43623827 19.5378948,5.48300274 19.542661,5.52961045 C19.3501465,5.77200191 19.2429062,6.07505655 19.2429062,6.38965861 C19.2429062,7.14823572 19.8547977,7.76531766 20.6069306,7.76531766 C20.842134,7.76531766 21.0723639,7.70366172 21.2752398,7.58865771 C21.4202992,7.64022925 21.5736995,7.66692941 21.728654,7.66692941 C22.4807869,7.66692941 23.0926784,7.04979521 23.0926784,6.29127036 C23.0926784,6.25187325 23.0910206,6.2125284 23.0877049,6.17349706 C23.3766839,5.91522135 23.5479058,5.54115788 23.5479058,5.14347704 Z M22.4706845,5.6598717 L22.1974548,5.81479532 L22.2897229,6.11685719 C22.306871,6.1730268 22.3155746,6.23170445 22.3155746,6.29127036 C22.3155746,6.61762885 22.0522918,6.88316741 21.728654,6.88316741 C21.6246257,6.88316741 21.5224107,6.85526549 21.4329919,6.80249218 L21.1955608,6.66225103 L20.9855873,6.84152353 C20.8782952,6.93311918 20.7473273,6.98155567 20.606827,6.98155567 C20.2831891,6.98155567 20.0199064,6.71601711 20.0199064,6.38965861 C20.0199064,6.22073178 20.0920216,6.05927681 20.2177052,5.94678084 L20.3991848,5.7844376 L20.3342189,5.54868199 C20.3198166,5.4965357 20.3125636,5.44297863 20.3125636,5.38942156 C20.3125636,5.06306306 20.5758464,4.7975245 20.8994842,4.7975245 C21.0075017,4.7975245 21.1129288,4.82725521 21.2043162,4.88352932 L21.5038638,5.06787014 L21.7161167,4.78602932 C21.8283823,4.63695779 21.9988271,4.55152774 22.1837778,4.55152774 C22.5074156,4.55152774 22.7706985,4.8170663 22.7706985,5.14342479 C22.770802,5.35707831 22.6557906,5.55489984 22.4706845,5.6598717 Z" id="Shape"></path>
                            <path d="M19.7662724,1.88285724 C19.5647352,1.58569811 19.271265,1.37750505 18.9344712,1.28552846 C18.8915623,1.12887759 18.8230013,0.979597297 18.7308092,0.843708632 C18.5082839,0.515665713 18.171542,0.294029121 17.7825631,0.219700409 C17.3935325,0.145371697 16.9990086,0.22722671 16.6715429,0.450057129 C16.1496396,0.805246638 15.9176308,1.45551906 16.0696777,2.04994113 C15.6465997,2.54823417 15.5923416,3.28793981 15.9716815,3.84716994 C16.1942069,4.17521286 16.5309488,4.39684945 16.9199276,4.47117816 C17.0136225,4.48908557 17.1075765,4.49796141 17.2009086,4.49796141 C17.4950007,4.49790951 17.7823559,4.41003345 18.0309997,4.24076954 C18.0726649,4.21242912 18.1127754,4.18206439 18.1511758,4.14977915 C18.5644594,4.26194699 19.0122048,4.19109595 19.3733032,3.94537519 L19.3732514,3.94537519 C20.0493263,3.48528462 20.2256779,2.56006863 19.7662724,1.88285724 Z M19.2327609,2.84964956 C19.1974699,3.03490038 19.0922186,3.19534035 18.9364405,3.30138334 L18.9363887,3.30138334 C18.7259898,3.44459069 18.453404,3.46280952 18.2250745,3.3489288 L17.9445081,3.20914722 L17.7485677,3.4540894 C17.7046741,3.50895354 17.6526962,3.55696615 17.5941369,3.5968815 C17.4383588,3.70287258 17.2507099,3.74185363 17.065704,3.70640215 C16.8806981,3.67100259 16.7205669,3.56563437 16.6146937,3.40960636 C16.4079224,3.10481712 16.4718712,2.68744479 16.7602628,2.45937191 L17.0051236,2.2657124 L16.8692972,1.98438445 C16.7185458,1.67212081 16.8213614,1.28931757 17.1084057,1.09399707 C17.2266644,1.01354351 17.3632682,0.971759562 17.5031886,0.971759562 C17.5475486,0.971759562 17.5922713,0.97596391 17.6368386,0.984476416 C17.8218445,1.01987598 17.9819757,1.1252442 18.0878488,1.28127221 C18.1607629,1.38876855 18.2026354,1.51370515 18.2089578,1.64248276 L18.2261628,1.99362364 L18.5766376,2.01215391 C18.7992148,2.02398837 18.9985237,2.13636383 19.1233639,2.32036892 C19.2291852,2.47639692 19.268052,2.66439874 19.2327609,2.84964956 Z" id="Shape"></path>
                            <path d="M19.6745223,10.8842422 C19.6745223,10.684685 19.6277699,10.4875548 19.5401965,10.30989 C19.6286173,10.1321757 19.6745223,9.9368781 19.6745223,9.7336557 C19.6745223,9.10264098 19.2212536,8.57509485 18.6212982,8.45528131 C18.6902803,8.29554642 18.7275128,8.12149731 18.7275128,7.94239611 C18.7275128,7.22326718 18.1387719,6.63826602 17.4151569,6.63826602 C17.2178799,6.63826602 17.0255373,6.6821993 16.8506894,6.76516239 C16.534139,6.46401879 16.1104768,6.29155464 15.6621924,6.29155464 C15.547056,6.29155464 15.433365,6.30279799 15.3220665,6.32513611 C15.2205869,6.22468887 15.1036562,6.14177532 14.9759096,6.07936727 C15.236088,5.81769924 15.3881079,5.46098276 15.3881079,5.08356266 C15.3881079,4.3022238 14.7484279,3.66650372 13.9621109,3.66650372 C13.6174991,3.66650372 13.2935222,3.78686209 13.0382284,4.00385389 C12.8907441,3.95387792 12.7350856,3.92807269 12.5774335,3.92807269 C12.297318,3.92807269 12.0296632,4.00831161 11.8017828,4.15561441 C11.3260351,3.70929781 10.5846762,3.63401191 10.0217039,4.01410664 C9.5402742,4.33922285 9.31538435,4.92362965 9.42688226,5.47158222 C8.86924318,5.57445644 8.43431659,6.02899506 8.36453694,6.59408508 C8.2039939,6.54797247 8.02137058,6.52340549 7.81861086,6.54069153 C7.50908827,6.56684348 7.23505361,6.66971769 7.02162757,6.83663446 C6.89103994,6.7943852 6.7537734,6.77264144 6.61471252,6.77264144 C5.89104771,6.77264144 5.30235668,7.35769213 5.30235668,8.07677154 C5.30235668,8.12115059 5.3045996,8.16533153 5.30913527,8.20926482 C5.12396999,8.4390354 5.02074595,8.72640961 5.02074595,9.02477951 C5.02074595,9.24008728 5.07308068,9.44519183 5.16763211,9.62647235 C4.41979363,9.66926644 3.82452338,10.2872052 3.82452338,11.0406585 C3.82452338,11.3948985 3.95790219,11.7302179 4.18887283,11.9864872 C3.8250218,12.4313674 3.64479093,13.0037879 3.6918922,13.5780905 L5.72542073,25.8065019 L17.4245273,25.8065019 L19.4543177,13.6085516 L19.4581057,13.5781401 C19.4939425,13.1411351 19.398145,12.7052199 19.1900023,12.325769 C19.2204561,12.2077881 19.2362064,12.0879746 19.2362064,11.9719253 C19.2362064,11.9346291 19.2346114,11.8974814 19.2314714,11.8605319 C19.5097426,11.6156051 19.6745223,11.2610184 19.6745223,10.8842422 Z M6.35981743,25.0632517 L6.35981743,25.0632517 L4.43609217,13.5030028 C4.40598723,13.0881874 4.54544685,12.6918467 4.82959955,12.3855025 C5.11704186,12.075592 5.50890444,11.9049605 5.93306503,11.9049605 L5.94866577,11.9049605 C6.7584586,11.9049605 7.4171785,12.5348855 7.44833013,13.3389588 L7.44862919,13.3464378 L7.45216801,13.3913122 C7.45211817,13.4215751 7.45266644,13.4518876 7.45386266,13.4822991 L8.37939003,25.0632517 L6.35981743,25.0632517 Z M9.12947143,25.0632517 L8.20005633,13.3655565 C8.20723367,12.9893746 8.35421952,12.6358281 8.61913297,12.3622233 C8.90468127,12.06737 9.2887684,11.9049605 9.70056802,11.9049605 C10.5281048,11.9049605 11.2013289,12.5740144 11.2013289,13.3963147 L11.2013289,25.0632517 L9.12947143,25.0632517 Z M11.9490179,25.0633013 L11.9490179,25.0633013 L11.9490179,13.3963643 C11.9490179,12.5740144 12.6222918,11.90501 13.4498286,11.90501 C13.8616282,11.90501 14.2457154,12.0674195 14.5312637,12.3622728 C14.796227,12.6358776 14.9432128,12.9893746 14.9503403,13.365606 L14.0208754,25.0633013 L11.9490179,25.0633013 Z M18.7142546,13.5030028 L16.7905294,25.0632517 L14.7710066,25.0632517 L15.6956368,13.4974059 L15.696534,13.4822496 C15.6977302,13.4517885 15.6982785,13.421377 15.6982286,13.3910645 L15.7011693,13.3538673 L15.7020665,13.3389092 C15.7332181,12.534836 16.391938,11.904911 17.2017309,11.904911 L17.2173316,11.904911 C17.6414424,11.904911 18.0333548,12.0755425 18.3207971,12.3854529 C18.6049,12.6918467 18.7443596,13.0881874 18.7142546,13.5030028 Z M18.6378958,11.3735015 L18.4083207,11.5018837 C18.0540395,11.2823164 17.6410935,11.1621066 17.2172818,11.1621066 L17.201681,11.1621066 C16.4169092,11.1621066 15.7268383,11.5570108 15.3247081,12.1619727 C15.2502433,12.0509755 15.1651619,11.9456248 15.0698629,11.8472083 C14.6420638,11.4053989 14.0666807,11.1621066 13.4496791,11.1621066 C12.6678978,11.1621066 11.9780761,11.5606266 11.5750986,12.1640034 C11.1720713,11.5606761 10.4822496,11.1621066 9.70046834,11.1621066 C9.08351654,11.1621066 8.50813349,11.4053989 8.08033439,11.8472083 C7.98503532,11.9456248 7.89995399,12.050926 7.82548914,12.1619727 C7.42330914,11.5570108 6.73328809,11.1621066 5.94851624,11.1621066 L5.9329155,11.1621066 C5.51269248,11.1621066 5.10318562,11.2802856 4.75094791,11.4962373 C4.63775535,11.3734519 4.57221233,11.2115873 4.57221233,11.04051 C4.57221233,10.669083 4.87650144,10.3668993 5.25057021,10.3668993 C5.37532625,10.3668993 5.49719143,10.4007284 5.6029076,10.4647214 L5.89074866,10.6389686 L6.09485413,10.3723971 C6.13976232,10.3137038 6.19438982,10.2625391 6.25714166,10.2203889 L6.89522672,9.79111072 L6.16099527,9.5588141 C5.92623659,9.4845188 5.76848474,9.26985493 5.76848474,9.02468045 C5.76848474,8.8643512 5.83781581,8.71130289 5.95873397,8.60471391 L6.13358184,8.45062547 L6.07068047,8.22684804 C6.05702359,8.17825891 6.05009547,8.12773811 6.05009547,8.07672201 C6.05009547,7.76730687 6.30344544,7.51554487 6.61481221,7.51554487 C6.71893342,7.51554487 6.82031328,7.5436285 6.90798643,7.59687346 L7.19622622,7.77176458 L7.40048123,7.50445011 C7.52389152,7.34298167 7.73053897,7.29379818 7.88216018,7.28092033 C8.21376305,7.25318342 8.45594828,7.44838193 8.60049184,7.56532272 C8.6452505,7.60143024 8.68387852,7.63268379 8.72599552,7.65804325 L9.01667761,7.83278579 L9.21749347,7.56448071 L9.40061521,7.32515079 L9.22257742,7.09959028 C9.14397563,6.99993552 9.10240689,6.88036962 9.10240689,6.75377044 C9.10240689,6.44638604 9.35236757,6.19591183 9.66094315,6.19264284 L9.87157801,6.20457961 L9.99189806,6.04895573 C10.026738,6.00393278 10.0655654,5.96445722 10.1072339,5.93171776 L10.342491,5.74697012 L10.212003,5.47866504 C10.066961,5.18044372 10.1657989,4.81505946 10.4418771,4.6286278 C10.7511505,4.41965989 11.1738158,4.49999787 11.383703,4.8070851 C11.3961637,4.82531221 11.4085246,4.84621395 11.4205866,4.86914643 L11.6872943,5.37707861 L12.0451144,4.92783972 C12.1750541,4.76468725 12.3690914,4.67107518 12.5773836,4.67107518 C12.7021397,4.67107518 12.8240048,4.7049043 12.929721,4.76889732 L13.2174624,4.94309502 L13.4215679,4.67667209 C13.5516072,4.5069321 13.748635,4.40955573 13.9620112,4.40955573 C14.3360302,4.40955573 14.6403691,4.71193759 14.6403691,5.08366172 C14.6403691,5.32675593 14.5075884,5.55182114 14.2939132,5.67104033 L14.0317411,5.81725347 L14.1192647,6.10309224 C14.1385039,6.16599559 14.148622,6.2306325 14.1493696,6.29551705 C14.1487715,6.30542309 14.1484226,6.31547772 14.1484226,6.32582954 L14.1484226,6.65099528 L14.4727983,6.69398749 C14.6371294,6.71578078 14.7830685,6.8086499 14.873184,6.94882036 L15.0366179,7.20300933 L15.3204715,7.09627175 C15.4292779,7.05535981 15.5442648,7.03460666 15.6621426,7.03460666 C15.9868672,7.03460666 16.288714,7.19468826 16.4696427,7.46284474 L16.7119774,7.82203773 L17.0327644,7.52980957 C17.1378825,7.43401817 17.2737036,7.38131804 17.4151569,7.38131804 C17.7265735,7.38131804 17.9798737,7.63308003 17.9798737,7.94249517 C17.9798737,8.1447765 17.8691234,8.33234736 17.6908862,8.43205164 L17.4266706,8.57980022 L17.5175835,8.86722396 C17.5263059,8.89476275 17.5327356,8.92611536 17.5367729,8.96053885 L17.6011695,9.51215665 L18.0896271,9.24246473 C18.1721166,9.19694648 18.2663191,9.1728748 18.3621166,9.1728748 C18.6735332,9.1728748 18.9268832,9.42438914 18.9268832,9.73355664 C18.9268832,9.86050253 18.8852646,9.98021702 18.8066628,10.0798718 L18.6254351,10.3094938 L18.8070616,10.5386205 C18.885464,10.6376313 18.9268832,10.7569991 18.9268832,10.883945 C18.9268832,11.0862263 18.8161329,11.2737972 18.6378958,11.3735015 Z" id="Shape"></path>
                            <path d="M12.8843836,7.37453465 C12.771561,7.37453465 12.6613775,7.39067225 12.5561677,7.42211105 C12.2911386,7.14408187 11.9163827,6.98093469 11.5140682,6.98093469 C10.8343918,6.98093469 10.2646451,7.44592385 10.1254819,8.064909 C9.37383854,8.09993939 8.77343737,8.70372174 8.77343737,9.44093448 L9.53472372,9.44093448 C9.53472372,9.08826891 9.83071185,8.80133454 10.1945052,8.80133454 C10.2542916,8.80133454 10.3153467,8.80984613 10.3759959,8.82667253 L10.922295,8.97806092 L10.8589052,8.43071097 C10.8558093,8.40389697 10.8542867,8.38033017 10.8542867,8.35853457 C10.8542867,8.005869 11.1502748,7.71893462 11.5140682,7.71893462 C11.7601667,7.71893462 11.9842387,7.85083981 12.0987361,8.0630886 L12.3089527,8.45280176 L12.6683306,8.18441579 C12.7122314,8.15159939 12.7853657,8.11253459 12.8843836,8.11253459 C13.080288,8.11253459 13.2396506,8.26707178 13.2396506,8.45693456 L14.0009369,8.45693456 C14.0009369,7.86008941 13.5000613,7.37453465 12.8843836,7.37453465 Z" id="Path"></path>
                            <path d="M15.5038224,8.80258513 C15.1325609,8.80258513 14.782299,8.95184089 14.5365793,9.20077395 C14.4014739,9.15649395 14.2586772,9.13373895 14.1122877,9.13373895 C13.4007834,9.13373895 12.8219555,9.6748916 12.8219555,10.340085 L13.5809745,10.340085 C13.5809745,10.0661735 13.8193064,9.84335428 14.1122877,9.84335428 C14.2271526,9.84335428 14.3370585,9.87784158 14.4300636,9.9431735 L14.8021853,10.2044066 L15.0010989,9.81109044 C15.0928896,9.62952353 15.2902345,9.51220046 15.5038224,9.51220046 C15.8107191,9.51220046 16.0604363,9.7456639 16.0604363,10.032585 L16.8194552,10.032585 C16.8194046,9.3543347 16.2292927,8.80258513 15.5038224,8.80258513 Z" id="Path"></path>
                            <polygon id="Rectangle" transform="translate(5.927032, 14.754932) rotate(-9.392619) translate(-5.927032, -14.754932) " points="5.55423179 13.2868119 6.30009915 13.2867441 6.29983252 16.2230513 5.55396516 16.2231191"></polygon>
                            <polygon id="Rectangle" transform="translate(7.014732, 21.336657) rotate(-9.386967) translate(-7.014732, -21.336657) " points="6.64188707 20.4205399 7.38774224 20.4204722 7.38757596 22.2527736 6.64172078 22.2528413"></polygon>
                            <polygon id="Rectangle" transform="translate(13.225222, 22.356885) rotate(-85.457604) translate(-13.225222, -22.356885) " points="12.7396459 21.9839647 13.7108308 21.9839214 13.7107976 22.7298058 12.7396126 22.729849"></polygon>
                            <polygon id="Rectangle" transform="translate(13.609073, 17.519892) rotate(-85.457604) translate(-13.609073, -17.519892) " points="12.1865921 17.1470135 15.0315869 17.1468869 15.0315537 17.8927712 12.1865589 17.8928979"></polygon>
                            <polygon id="Rectangle" transform="translate(13.877711, 14.133359) rotate(-85.457604) translate(-13.877711, -14.133359) " points="13.0503048 13.7604535 14.7051502 13.7603798 14.705117 14.5062641 13.0502716 14.5063378"></polygon>
                        </g>
                        <g id="bass" transform="translate(68.674998, 123.512497)">
                            <path d="M27.265598,28.1294594 C27.072291,27.8261256 26.6689735,27.7364096 26.3648325,27.9292903 C25.4860773,28.4864146 24.3452005,29.2578509 23.3135048,30.2857674 C21.4392445,32.1521902 21.0203546,33.8466429 20.650705,35.3415339 C20.3069804,36.7319586 19.9822211,38.0452483 18.5151061,39.5037843 C15.0688126,42.929652 8.90952213,42.3814646 4.78500113,38.2818592 C2.57336703,36.0832962 1.30495286,33.1794993 1.30495286,30.3150075 C1.30495286,28.0659467 2.08418371,26.1025195 3.55834545,24.6368687 C4.27432958,23.9251274 4.99962238,23.4320364 5.84122998,23.0850593 C6.17425395,22.9477955 6.33267522,22.5670664 6.1950462,22.2348395 C6.05741717,21.9026994 5.67584895,21.7447853 5.34282498,21.8819623 C4.33792429,22.2963566 3.47813435,22.8787298 2.63713573,23.7148067 C0.936608164,25.4055285 0,27.7495112 0,30.3150075 C0,33.5230058 1.40839212,36.762934 3.86387841,39.2039211 C6.41984607,41.7445156 9.69153688,43.0499964 12.7758365,43.0499964 C15.2814329,43.0499964 17.6637549,42.187803 19.4362288,40.4259331 C21.1618985,38.7104831 21.5460766,37.1562442 21.9177272,35.653284 C22.2784162,34.1944877 22.6190959,32.8167308 24.2355845,31.2069617 C25.1775864,30.2684142 26.242428,29.5494713 27.0649832,29.0279211 C27.3690373,28.8351271 27.458905,28.43288 27.265598,28.1294594 Z" id="Path"></path>
                            <path d="M18.2548597,30.7830404 L12.063495,24.7879957 C11.8046664,24.5373321 11.3857284,24.5373321 11.1268998,24.7879957 L8.80513803,27.0361482 C8.68023508,27.1571404 8.60999929,27.3214423 8.60999929,27.4927907 C8.60999929,27.664225 8.68023508,27.828441 8.80513803,27.9494333 L14.9965028,33.944478 C15.1259171,34.0697668 15.295403,34.1324972 15.4648004,34.1324972 C15.6341978,34.1324972 15.8036836,34.0697668 15.933098,33.944478 L18.2548597,31.6963255 C18.3797627,31.5753333 18.4499985,31.4110313 18.4499985,31.2396829 C18.4499985,31.0683346 18.3797627,30.9040326 18.2548597,30.7830404 Z M15.4648004,32.5778158 L10.2133038,27.4927907 L11.5951974,26.1546579 L16.846694,31.2396829 L15.4648004,32.5778158 Z" id="Shape"></path>
                            <path d="M13.814386,37.6533424 C13.7280689,37.0434893 13.4095134,36.5037562 12.9173664,36.1334944 C12.4252195,35.7632327 11.8184761,35.606985 11.2084262,35.6931126 C10.5986373,35.7793272 10.0588941,36.0978254 9.68865275,36.5900578 C9.31841137,37.0822902 9.16196155,37.6891854 9.24810466,38.2990385 C9.3343348,38.9088917 9.65289031,39.4487117 10.1451243,39.8188865 C10.5488657,40.1226821 11.029875,40.2824967 11.5263726,40.2824967 C11.6350522,40.2824967 11.7445148,40.2748409 11.8540645,40.2593553 C12.4638534,40.1731407 13.0035966,39.8546425 13.3739249,39.3624101 C13.7441663,38.8700907 13.9005291,38.2631955 13.814386,37.6533424 Z M12.3308971,38.5777788 C12.1701836,38.7913579 11.936031,38.9295971 11.6713367,38.9670061 C11.4068164,39.004589 11.1435143,38.9365569 10.9298098,38.7757853 C10.7161922,38.6151878 10.5779282,38.3809903 10.5405125,38.1162566 C10.5030968,37.8516099 10.5710541,37.5882682 10.7315936,37.3747761 C10.892307,37.161197 11.1264597,37.0229578 11.391154,36.9854619 C11.4386632,36.9787631 11.4861725,36.9754571 11.5333337,36.9754571 C11.7487785,36.9754571 11.9574362,37.0447942 12.1326809,37.1765956 C12.1326809,37.1765956 12.1326809,37.1765956 12.1326809,37.1766826 C12.3462985,37.3372801 12.4845625,37.5714777 12.5219782,37.8362113 C12.5593939,38.100858 12.4914366,38.3642867 12.3308971,38.5777788 Z" id="Shape"></path>
                            <path d="M17.7758169,36.3165092 C17.0301868,35.7559914 15.9675753,35.9061618 15.4066185,36.6514332 C14.8459156,37.3967892 14.9961583,38.4593125 15.7416191,39.0199994 C16.0379592,39.2427184 16.3908941,39.3599967 16.7551649,39.3599967 C16.8348545,39.3599967 16.9152207,39.3544161 16.9955024,39.3430011 C17.4430158,39.2797537 17.8390947,39.0460425 18.1108174,38.6850754 C18.6716049,37.9397195 18.5213623,36.8771116 17.7758169,36.3165092 Z M17.0966794,37.9224702 C16.9566728,38.1088303 16.6908719,38.1463729 16.5045067,38.00618 C16.3181415,37.8659872 16.2806654,37.6003986 16.4207566,37.4140385 C16.5037453,37.3036937 16.6307241,37.2455195 16.7593101,37.2455195 C16.8477977,37.2455195 16.9370465,37.2731692 17.0130138,37.3303286 C17.199379,37.4705215 17.2369397,37.73611 17.0966794,37.9224702 Z" id="Shape"></path>
                            <path d="M43.6511438,0.930584213 C42.5042403,-0.213894415 40.731508,-0.313887263 39.6638002,0.692568165 L39.2161835,0.985932735 L38.4835145,0.254566421 C38.2284538,0 37.8156103,0.000537593031 37.5615059,0.256045863 C37.3072277,0.51138008 37.3079231,0.924753472 37.5629838,1.17930446 L38.1014451,1.71677689 L37.1673529,2.32909167 L36.4076477,1.5707473 C36.1525871,1.31619632 35.7397436,1.31671847 35.4856392,1.57222674 C35.2313609,1.82756096 35.2320564,2.24084733 35.487117,2.49548534 L36.0525275,3.0598488 L35.1183484,3.6722506 L34.3351714,2.89040922 C34.0801108,2.63594526 33.6674411,2.63638039 33.4131628,2.89188866 C33.1589715,3.14713586 33.15958,3.56050925 33.4146407,3.81514726 L34.003523,4.40309476 L32.53549,5.36507991 C32.2707798,5.53373626 32.0991746,5.81169723 32.0649231,6.12777558 C32.0278897,6.46769905 32.150291,6.80596902 32.4006573,7.05573358 C32.3988317,7.05756112 32.4163921,7.06434915 32.4145665,7.06617669 C32.4128279,7.06791721 32.4145665,7.06617669 32.4128279,7.06791721 L21.4287901,18.0284039 C21.126612,16.4047603 21.4593035,14.5594614 21.7367059,13.0238011 C22.0381017,11.3557741 22.2371776,10.2538512 21.6196944,9.64606179 C21.4175758,9.44703338 21.0467208,9.23547323 20.428716,9.35835391 C16.6129775,10.1167853 14.7318401,13.7848432 13.3583899,16.4632417 C12.8400969,17.4738744 12.3924803,18.346745 11.9958062,18.742365 C10.5701094,20.1653268 9.32697133,20.5763505 8.17589502,20.8753718 C7.82738169,20.9658788 7.6181346,21.3222501 7.70854464,21.6713113 C7.78478465,21.9653721 8.04932096,22.1603103 8.33924162,22.1603103 C8.39340071,22.1603103 8.44851607,22.1535223 8.50345755,22.13925 C9.76963281,21.8102918 11.259399,21.3207707 12.91625,19.6673642 C13.4584495,19.1264977 13.9262345,18.2144655 14.5184203,17.0597178 C15.7704255,14.618378 17.4850867,11.274753 20.6826465,10.6391152 C20.6916006,10.6372877 20.6999461,10.6358082 20.7077701,10.6345028 C20.7760992,11.0059297 20.591541,12.0274406 20.4535787,12.7914417 C20.1284503,14.5907038 19.690744,17.0133329 20.3546493,19.1003029 L18.7231827,20.7282108 L17.4337095,19.4415318 C17.1793443,19.187677 16.7676309,19.187677 16.5132657,19.4415318 L14.2316292,21.7182183 C14.1088802,21.8407509 14.0398556,22.0070576 14.0398556,22.1806744 C14.0398556,22.3542042 14.1088802,22.5205979 14.2316292,22.6431304 L20.3161381,28.7145848 C20.4434076,28.8414686 20.6097969,28.9049976 20.77636,28.9049976 C20.9428362,28.9049976 21.1093993,28.8414686 21.2365819,28.7145848 L23.5183053,26.4378111 C23.6410543,26.3152786 23.7100789,26.1488849 23.7100789,25.9753551 C23.7100789,25.8017383 23.6410543,25.6354316 23.5183053,25.5128991 L22.2323094,24.229701 L23.6752189,22.7899433 C25.2886035,23.6354006 26.9313713,23.807364 28.1589485,23.9355532 C28.8797077,24.0107437 29.7765927,24.1043836 29.9310722,24.3365689 C29.9562827,24.3745993 30.026959,24.537686 29.8753483,25.0433939 C29.7671171,25.4047258 29.4074764,25.7929487 28.7437449,26.2651516 C28.4501731,26.474014 28.3813224,26.8816436 28.5897871,27.1754433 C28.7169697,27.3546298 28.9178712,27.4502714 29.1219023,27.4502714 C29.2524753,27.4502714 29.3844392,27.4111097 29.4989296,27.3295663 C30.1218896,26.886343 30.869598,26.2687197 31.124224,25.4186499 C31.3527701,24.6561283 31.3173885,24.065396 31.0161666,23.6125998 C30.5216932,22.869398 29.5386579,22.7667943 28.2940419,22.6368646 C27.2199011,22.524601 25.9261681,22.3878832 24.6535599,21.8137729 L36.1890119,10.3037171 C36.3507937,10.3398329 36.5157051,10.3590656 36.6809643,10.3590656 C36.6946996,10.3590656 36.708435,10.3588916 36.7222573,10.3586305 C37.2843644,10.3481004 37.7970936,10.1249657 38.1671663,9.73012889 L38.5911372,9.29482495 C38.8426336,9.0367059 38.8374176,8.62333251 38.5795751,8.37165338 C38.3217327,8.11971318 37.908976,8.12502176 37.6576535,8.38322783 L37.2287274,8.82357928 C37.2251632,8.82723437 37.2216859,8.83088946 37.2182085,8.83463158 C37.0549489,9.01033703 36.8450063,9.050456 36.6977423,9.05324083 C36.4178189,9.057157 36.1342443,8.93662602 35.9159562,8.71871298 L33.490446,6.29973891 L40.4297645,1.75115215 C40.4669717,1.72678488 40.501484,1.69867549 40.5329536,1.66734614 C41.0870629,1.11438308 42.072967,1.1988853 42.7308739,1.8554963 C43.0821691,2.20603694 43.2835922,2.66779677 43.2835922,3.12242048 C43.2835922,3.48227289 43.1544971,3.80922949 42.9201265,4.04315532 C42.6543731,4.30832347 42.2794322,4.43468519 41.8669364,4.40144127 C41.6742066,4.38586362 41.4826068,4.45687681 41.3468179,4.5962054 L39.6164218,6.37249263 C39.3650124,6.63061168 39.3701414,7.04398507 39.627897,7.29575122 C39.8857394,7.54743035 40.298583,7.54220879 40.5499055,7.28426379 L42.0826165,5.71092115 C42.7531287,5.68933871 43.3806961,5.42704241 43.8406572,4.96806741 C44.3221776,4.48724888 44.5874963,3.83176922 44.5874963,3.12233345 C44.5874963,2.3231739 44.2461984,1.52427543 43.6511438,0.930584213 Z M20.7765338,27.3304366 L15.6156852,22.1805874 L16.9736614,20.8255059 L22.134597,25.9752681 L20.7765338,27.3304366 Z M21.308736,23.3078348 L19.6469299,21.6497289 L22.8497057,18.4537869 L24.5087299,20.1149388 L21.308736,23.3078348 Z M25.4323902,19.1932466 L23.7733659,17.5320948 L25.4353459,15.8736407 L27.0943702,17.5348796 L25.4323902,19.1932466 Z M28.0182044,16.6131875 L26.3590931,14.9519486 L28.0211601,13.2934946 L29.6802713,14.9547334 L28.0182044,16.6131875 Z M30.6040185,14.0331283 L28.9448204,12.3718024 L30.6068003,10.7133484 L32.2659985,12.3746743 L30.6040185,14.0331283 Z M34.9954255,9.64362506 C34.9967295,9.64493045 34.9981204,9.64606179 34.9994244,9.64736718 L33.1898326,11.4529822 L31.5305476,9.79156923 L33.336662,7.98926124 L34.9954255,9.64362506 Z" id="Shape"></path>
                        </g>
                        <g id="maloik-copy" transform="translate(19.193031, 163.792701) rotate(-46.000000) translate(-19.193031, -163.792701) translate(14.193031, 157.292701)">
                            <path d="M0.0482590589,8.30001163 C0.0482590589,10.8502589 2.11660533,12.9250813 4.65889236,12.9250813 C7.20117942,12.9250813 9.26952569,10.8502589 9.26952569,8.30001163 L9.26952569,1.35289861 C9.26952569,0.612516955 8.66897151,0.0100824018 7.93080264,0.0100824018 C7.19273197,0.0100824018 6.59217781,0.612516955 6.59217781,1.35289861 L6.59217781,3.42269586 C6.36232882,3.23981746 6.07157966,3.13024807 5.75548817,3.13024807 C5.32437397,3.13024807 4.94021182,3.33401563 4.69386084,3.64991441 C4.39220861,3.22217996 3.93761835,3.13024807 3.4493366,3.13024807 C3.18275104,3.13024807 2.93600716,3.21656355 2.73493842,3.36239331 L2.73493842,1.23584066 C2.73493842,0.559900014 2.18673873,0.0100824018 1.51300616,0.0100824018 L1.26645872,0.0100824018 C0.592627905,0.0100824018 0.0445264558,0.559900014 0.0445264558,1.23584066 L0.0482590589,8.30001163 Z M5.75548817,3.63927277 C6.20369371,3.63927277 6.5706663,3.99143195 6.59217781,4.43217284 L6.59217781,6.55271492 C6.36537383,6.37239838 6.07933953,6.26470113 5.76884691,6.26470113 L4.91781627,6.26470113 L4.91781627,4.4730643 C4.91781627,4.01340493 5.29362922,3.63927277 5.75548817,3.63927277 L5.75548817,3.63927277 Z M3.4493366,3.63927277 L3.69588401,3.63927277 C4.4076301,3.63927277 4.41028221,4.3766984 4.41028221,4.89626619 L4.41028221,6.26470113 L2.73493842,6.26470113 C2.73493842,5.65802963 2.69103136,5.03391765 2.74711843,4.42911829 C2.78660532,4.00296038 2.97244904,3.63927277 3.4493366,3.63927277 Z M0.552060546,1.23584066 C0.552060546,0.84072085 0.872572207,0.519205634 1.26645872,0.519205634 L1.51300616,0.519205634 C1.90689267,0.519205634 2.22740433,0.84072085 2.22740433,1.23584066 L2.22740433,6.26470113 L0.552060546,6.26470113 L0.552060546,1.23584066 Z M7.09971188,1.35289861 C7.09971188,0.893239264 7.47257805,0.519205634 7.93080264,0.519205634 C8.38912545,0.519205634 8.7619916,0.893239264 8.7619916,1.35289861 L8.7619916,8.30001163 C8.7619916,10.5695366 6.92143158,12.4159581 4.65889236,12.4159581 C2.39645139,12.4159581 0.555891369,10.5695366 0.555891369,8.30001163 L0.552060546,6.77382436 L5.76884691,6.77382436 C6.20939081,6.77382436 6.57037161,7.12519525 6.59217781,7.5654435 L6.59217781,7.5675127 C6.59217781,7.57450857 6.5924725,7.58140593 6.59296362,7.58820475 C6.59316006,7.59460945 6.5932583,7.60111266 6.5932583,7.60761586 C6.5932583,8.06737376 6.22343715,8.44140739 5.76884691,8.44140739 L3.66543394,8.44140739 C3.33961806,8.44140739 3.33912694,8.95053062 3.66543394,8.95053062 L5.76884691,8.95053062 C6.5032832,8.95053062 7.10079237,8.34809604 7.10079237,7.60761586 L7.09971188,1.35289861 Z" id="Shape"></path>
                            <path d="M2.65846606,8.51735317 C2.49392522,8.51735317 2.35333281,8.65539731 2.35118817,8.82014424 C2.34904352,8.99097084 2.4889211,9.1321144 2.65918092,9.13235312 C2.82908332,9.13259123 2.9695566,8.98799062 2.96610137,8.81799846 C2.96264614,8.65456283 2.82169625,8.51735317 2.65846606,8.51735317 L2.65846606,8.51735317 Z" id="Path"></path>
                        </g>
                        <path d="M49.1999989,88.0234304 C49.1999989,87.2454026 48.617245,86.612498 47.9009279,86.612498 C47.594379,86.612498 47.3059377,86.7264851 47.076211,86.932648 C46.9482233,86.8878463 46.8138213,86.8647488 46.6777418,86.8647488 C45.9614247,86.8647488 45.3786709,87.497707 45.3786709,88.2756812 C45.3786709,88.3236984 45.3809405,88.3716619 45.3854798,88.4194647 C45.2021326,88.6680714 45.099999,88.9788966 45.099999,89.3015654 C45.099999,90.0795933 45.6827528,90.7124979 46.3990699,90.7124979 C46.6230732,90.7124979 46.8423398,90.649261 47.0355549,90.5313082 C47.1737067,90.5842021 47.3198023,90.6115869 47.467378,90.6115869 C48.183695,90.6115869 48.7664489,89.9786287 48.7664489,89.2006544 C48.7664489,89.1602471 48.76487,89.1198934 48.7617123,89.0798613 C49.0369304,88.8149631 49.1999989,88.4313082 49.1999989,88.0234304 Z M48.1740738,88.553066 L47.913855,88.711962 L48.0017294,89.0217691 C48.0180609,89.079379 48.02635,89.1395612 48.02635,89.2006544 C48.02635,89.5353811 47.7756045,89.8077284 47.467378,89.8077284 C47.3683034,89.8077284 47.2709557,89.779111 47.185795,89.7249845 L46.9596701,89.5811474 L46.7596954,89.7650167 C46.6575124,89.8589609 46.5327811,89.9086394 46.3989712,89.9086394 C46.0907447,89.9086394 45.8399992,89.6362921 45.8399992,89.3015654 C45.8399992,89.1283071 45.9086804,88.9627123 46.028379,88.8473318 L46.2012168,88.6808259 L46.1393445,88.4390253 C46.125628,88.3855419 46.1187204,88.3306116 46.1187204,88.2756812 C46.1187204,87.9409545 46.3694659,87.6686073 46.6776925,87.6686073 C46.7805662,87.6686073 46.880973,87.6991003 46.9680086,87.7568174 L47.253292,87.9458849 L47.4554377,87.6568174 C47.5623573,87.5039235 47.7246857,87.4163029 47.9008292,87.4163029 C48.2090558,87.4163029 48.4598013,87.6886502 48.4598013,88.0233768 C48.4599,88.2425087 48.3503653,88.4454026 48.1740738,88.553066 Z" id="Shape"></path>
                        <path d="M46.6374989,132.098429 C46.6374989,131.320402 46.054745,130.687497 45.338428,130.687497 C45.031879,130.687497 44.7434378,130.801484 44.5137111,131.007647 C44.3857233,130.962845 44.2513214,130.939748 44.1152419,130.939748 C43.3989248,130.939748 42.8161709,131.572706 42.8161709,132.35068 C42.8161709,132.398697 42.8184406,132.446661 42.8229798,132.494464 C42.6396327,132.74307 42.537499,133.053896 42.537499,133.376564 C42.537499,134.154592 43.1202529,134.787497 43.8365699,134.787497 C44.0605732,134.787497 44.2798398,134.72426 44.473055,134.606307 C44.6112068,134.659201 44.7573023,134.686586 44.904878,134.686586 C45.6211951,134.686586 46.203949,134.053628 46.203949,133.275653 C46.203949,133.235246 46.2023701,133.194892 46.1992123,133.15486 C46.4744305,132.889962 46.6374989,132.506307 46.6374989,132.098429 Z M45.6115738,132.628065 L45.351355,132.786961 L45.4392295,133.096768 C45.455561,133.154378 45.4638501,133.21456 45.4638501,133.275653 C45.4638501,133.61038 45.2131046,133.882727 44.904878,133.882727 C44.8058035,133.882727 44.7084558,133.85411 44.6232951,133.799983 L44.3971702,133.656146 L44.1971955,133.840016 C44.0950125,133.93396 43.9702811,133.983638 43.8364713,133.983638 C43.5282447,133.983638 43.2774992,133.711291 43.2774992,133.376564 C43.2774992,133.203306 43.3461804,133.037711 43.4658791,132.922331 L43.6387168,132.755825 L43.5768446,132.514024 C43.5631281,132.460541 43.5562205,132.405611 43.5562205,132.35068 C43.5562205,132.015954 43.806966,131.743606 44.1151925,131.743606 C44.2180663,131.743606 44.318473,131.774099 44.4055086,131.831816 L44.6907921,132.020884 L44.8929378,131.731816 C44.9998574,131.578922 45.1621858,131.491302 45.3383293,131.491302 C45.6465558,131.491302 45.8973014,131.763649 45.8973014,132.098376 C45.8974,132.317508 45.7878654,132.520402 45.6115738,132.628065 Z" id="Shape" transform="translate(44.587499, 132.737497) rotate(55.000000) translate(-44.587499, -132.737497) "></path>
                        <path d="M125.049997,193.085928 C125.049997,192.3079 124.467243,191.674996 123.750926,191.674996 C123.444377,191.674996 123.155936,191.788983 122.926209,191.995146 C122.798222,191.950344 122.66382,191.927246 122.52774,191.927246 C121.811423,191.927246 121.228669,192.560205 121.228669,193.338179 C121.228669,193.386196 121.230939,193.434159 121.235478,193.481962 C121.052131,193.730569 120.949997,194.041394 120.949997,194.364063 C120.949997,195.142091 121.532751,195.774995 122.249068,195.774995 C122.473071,195.774995 122.692338,195.711759 122.885553,195.593806 C123.023705,195.6467 123.1698,195.674084 123.317376,195.674084 C124.033693,195.674084 124.616447,195.041126 124.616447,194.263152 C124.616447,194.222745 124.614868,194.182391 124.611711,194.142359 C124.886929,193.877461 125.049997,193.493806 125.049997,193.085928 Z M124.024072,193.615564 L123.763853,193.77446 L123.851728,194.084267 C123.868059,194.141877 123.876348,194.202059 123.876348,194.263152 C123.876348,194.597879 123.625603,194.870226 123.317376,194.870226 C123.218302,194.870226 123.120954,194.841609 123.035793,194.787482 L122.809668,194.643645 L122.609694,194.827514 C122.507511,194.921458 122.382779,194.971137 122.248969,194.971137 C121.940743,194.971137 121.689997,194.69879 121.689997,194.364063 C121.689997,194.190805 121.758679,194.02521 121.878377,193.909829 L122.051215,193.743323 L121.989343,193.501523 C121.975626,193.448039 121.968719,193.393109 121.968719,193.338179 C121.968719,193.003452 122.219464,192.731105 122.527691,192.731105 C122.630564,192.731105 122.730971,192.761598 122.818007,192.819315 L123.10329,193.008382 L123.305436,192.719315 C123.412356,192.566421 123.574684,192.4788 123.750827,192.4788 C124.059054,192.4788 124.3098,192.751148 124.3098,193.085874 C124.309898,193.305006 124.200364,193.5079 124.024072,193.615564 Z" id="Shape-Copy-7" transform="translate(122.999997, 193.724995) rotate(55.000000) translate(-122.999997, -193.724995) "></path>
                        <path d="M113.262497,95.5843627 C113.262497,94.028307 112.024145,92.7624978 110.501972,92.7624978 C109.850555,92.7624978 109.237617,92.9904721 108.749448,93.4027979 C108.477474,93.3131945 108.19187,93.2669994 107.902701,93.2669994 C106.380527,93.2669994 105.142175,94.5329158 105.142175,96.0888643 C105.142175,96.1848986 105.146998,96.2808257 105.156644,96.3764313 C104.767032,96.8736446 104.549998,97.4952952 104.549998,98.1406328 C104.549998,99.6966885 105.78835,100.962498 107.310523,100.962498 C107.78653,100.962498 108.252472,100.836024 108.663054,100.600118 C108.956627,100.705906 109.26708,100.760676 109.580678,100.760676 C111.102852,100.760676 112.341204,99.4947592 112.341204,97.9388107 C112.341204,97.8579961 112.337849,97.7772887 112.331138,97.6972244 C112.915977,97.1674281 113.262497,96.4001183 113.262497,95.5843627 Z M111.095835,96.6409887 L110.539511,96.9627004 L110.727379,97.5899568 C110.762294,97.7065976 110.780015,97.8284466 110.780015,97.9521401 C110.780015,98.6298505 110.243945,99.1812633 109.584985,99.1812633 C109.373173,99.1812633 109.165053,99.1233226 108.982987,99.0137345 L108.499553,98.7225122 L108.072026,99.0947863 C107.853568,99.2849922 107.586904,99.3855746 107.300831,99.3855746 C106.641872,99.3855746 106.105801,98.8341619 106.105801,98.1564515 C106.105801,97.805661 106.252635,97.4703864 106.50854,97.2367792 L106.878051,96.8996601 L106.745774,96.4100941 C106.716449,96.301808 106.701681,96.1905923 106.701681,96.0793766 C106.701681,95.4016662 107.237752,94.8502535 107.896711,94.8502535 C108.116646,94.8502535 108.331306,94.9119917 108.51738,95.0288496 L109.127289,95.4116485 L109.559458,94.8263828 C109.788042,94.5168235 110.135085,94.3394209 110.511664,94.3394209 C111.170623,94.3394209 111.706694,94.8908336 111.706694,95.568544 C111.706905,96.0122132 111.47273,96.4230059 111.095835,96.6409887 Z" id="Shape"></path>
                        <path d="M38.9499991,39.721864 C38.9499991,38.1658083 37.7116471,36.8999991 36.1894734,36.8999991 C35.5380568,36.8999991 34.9251192,37.1279734 34.43695,37.5402992 C34.164976,37.4506958 33.8793718,37.4045007 33.5902028,37.4045007 C32.0680291,37.4045007 30.8296771,38.6704171 30.8296771,40.2263656 C30.8296771,40.3223999 30.8345001,40.418327 30.844146,40.5139326 C30.4545333,41.0111459 30.2374993,41.6327965 30.2374993,42.2781341 C30.2374993,43.8341898 31.4758513,45.099999 32.998025,45.099999 C33.474032,45.099999 33.9399736,44.9735252 34.3505558,44.7376195 C34.6441283,44.8434073 34.9545813,44.8981769 35.2681797,44.8981769 C36.7903535,44.8981769 38.0287055,43.6322605 38.0287055,42.076312 C38.0287055,41.9954974 38.0253504,41.91479 38.0186401,41.8347257 C38.6034786,41.3049294 38.9499991,40.5376196 38.9499991,39.721864 Z M36.7833366,40.77849 L36.2270132,41.1002017 L36.4148805,41.7274581 C36.4497957,41.8440989 36.467517,41.9659479 36.467517,42.0896414 C36.467517,42.7673518 35.9314465,43.3187646 35.272487,43.3187646 C35.0606748,43.3187646 34.8525545,43.2608239 34.6704889,43.1512358 L34.1870549,42.8600135 L33.7595276,43.2322876 C33.5410699,43.4224935 33.274406,43.5230759 32.9883329,43.5230759 C32.3293733,43.5230759 31.7933028,42.9716632 31.7933028,42.2939528 C31.7933028,41.9431623 31.9401368,41.6078877 32.1960414,41.3742805 L32.5655524,41.0371614 L32.4332752,40.5475954 C32.4039506,40.4393093 32.3891829,40.3280936 32.3891829,40.2168779 C32.3891829,39.5391675 32.9252534,38.9877548 33.5842129,38.9877548 C33.8041474,38.9877548 34.0188077,39.049493 34.2048818,39.1663509 L34.8147912,39.5491498 L35.2469598,38.9638841 C35.475544,38.6543248 35.8225869,38.4769222 36.1991653,38.4769222 C36.8581249,38.4769222 37.3941956,39.0283349 37.3941956,39.7060453 C37.3944064,40.1497145 37.1602315,40.5605072 36.7833366,40.77849 Z" id="Shape-Copy-3" transform="translate(34.593749, 40.999999) rotate(64.000000) translate(-34.593749, -40.999999) "></path>
                        <path d="M67.1374984,189.371861 C67.1374984,187.815805 65.8991465,186.549996 64.3769727,186.549996 C63.7255561,186.549996 63.1126186,186.77797 62.6244493,187.190296 C62.3524753,187.100692 62.0668712,187.054497 61.7777022,187.054497 C60.2555284,187.054497 59.0171764,188.320414 59.0171764,189.876362 C59.0171764,189.972396 59.0219994,190.068324 59.0316454,190.163929 C58.6420326,190.661142 58.4249986,191.282793 58.4249986,191.928131 C58.4249986,193.484186 59.6633506,194.749995 61.1855244,194.749995 C61.6615313,194.749995 62.1274729,194.623522 62.5380551,194.387616 C62.8316277,194.493404 63.1420807,194.548173 63.4556791,194.548173 C64.9778528,194.548173 66.2162048,193.282257 66.2162048,191.726309 C66.2162048,191.645494 66.2128497,191.564787 66.2061395,191.484722 C66.790978,190.954926 67.1374984,190.187616 67.1374984,189.371861 Z M64.970836,190.428486 L64.4145125,190.750198 L64.6023798,191.377455 C64.6372951,191.494095 64.6550164,191.615944 64.6550164,191.739638 C64.6550164,192.417348 64.1189459,192.968761 63.4599863,192.968761 C63.2481741,192.968761 63.0400539,192.91082 62.8579882,192.801232 L62.3745543,192.51001 L61.947027,192.882284 C61.7285693,193.07249 61.4619053,193.173072 61.1758323,193.173072 C60.5168727,193.173072 59.9808022,192.62166 59.9808022,191.943949 C59.9808022,191.593159 60.1276361,191.257884 60.3835407,191.024277 L60.7530517,190.687158 L60.6207746,190.197592 C60.59145,190.089306 60.5766822,189.97809 60.5766822,189.866874 C60.5766822,189.189164 61.1127527,188.637751 61.7717123,188.637751 C61.9916468,188.637751 62.206307,188.69949 62.3923811,188.816347 L63.0022905,189.199146 L63.4344591,188.613881 C63.6630433,188.304321 64.0100862,188.126919 64.3866647,188.126919 C65.0456242,188.126919 65.5816949,188.678331 65.5816949,189.356042 C65.5819057,189.799711 65.3477309,190.210504 64.970836,190.428486 Z" id="Shape-Copy-4" transform="translate(62.781249, 190.649996) rotate(-79.000000) translate(-62.781249, -190.649996) "></path>
                        <path d="M76.8749981,107.145697 C76.8749981,106.562176 76.3650885,106.087498 75.7383111,106.087498 C75.4700807,106.087498 75.2176947,106.172988 75.0166838,106.32761 C74.9046945,106.294009 74.7870928,106.276686 74.6680232,106.276686 C74.0412458,106.276686 73.5313361,106.751404 73.5313361,107.334885 C73.5313361,107.370898 73.5333221,107.40687 73.5372939,107.442723 C73.3768652,107.629178 73.2874982,107.862296 73.2874982,108.104298 C73.2874982,108.687819 73.7974078,109.162497 74.4241853,109.162497 C74.6201881,109.162497 74.8120464,109.11507 74.9811097,109.026605 C75.1019925,109.066275 75.2298261,109.086814 75.3589549,109.086814 C75.9857323,109.086814 76.4956419,108.612095 76.4956419,108.028615 C76.4956419,107.998309 76.4942604,107.968044 76.4914974,107.93802 C76.7323132,107.739346 76.8749981,107.451605 76.8749981,107.145697 Z M75.973736,107.544008 L75.7469755,107.661634 L75.8235512,107.890975 C75.8377829,107.933621 75.8450062,107.978173 75.8450062,108.023398 C75.8450062,108.271186 75.6265009,108.472796 75.3579054,108.472796 C75.2715696,108.472796 75.1867386,108.451612 75.1125277,108.411543 L74.9154774,108.305065 L74.7412149,108.441178 C74.6521703,108.510722 74.5434767,108.547497 74.4268717,108.547497 C74.1582762,108.547497 73.9397709,108.345887 73.9397709,108.098099 C73.9397709,107.969841 73.9996212,107.847257 74.1039293,107.761844 L74.2545441,107.638585 L74.2006272,107.459587 C74.1886743,107.419995 74.1826549,107.379332 74.1826549,107.338669 C74.1826549,107.090881 74.4011602,106.889271 74.6697557,106.889271 C74.7594022,106.889271 74.8468989,106.911844 74.9227437,106.95457 L75.1713461,107.094531 L75.3475004,106.880543 C75.4406725,106.76736 75.5821291,106.702498 75.7356246,106.702498 C76.0042201,106.702498 76.2227254,106.904108 76.2227254,107.151896 C76.2228113,107.314112 76.1273604,107.464308 75.973736,107.544008 Z" id="Shape" transform="translate(75.081248, 107.624997) rotate(-73.000000) translate(-75.081248, -107.624997) "></path>
                        <path d="M86.612498,75.7234307 C86.612498,74.9454029 86.0297441,74.3124983 85.3134271,74.3124983 C85.0068781,74.3124983 84.7184369,74.4264854 84.4887102,74.6326483 C84.3607224,74.5878466 84.2263204,74.5647491 84.0902409,74.5647491 C83.3739239,74.5647491 82.79117,75.1977073 82.79117,75.9756815 C82.79117,76.0236987 82.7934396,76.0716622 82.7979789,76.119465 C82.6146317,76.3680716 82.5124981,76.6788969 82.5124981,77.0015657 C82.5124981,77.7795936 83.095252,78.4124982 83.811569,78.4124982 C84.0355723,78.4124982 84.2548389,78.3492613 84.4480541,78.2313085 C84.5862059,78.2842024 84.7323014,78.3115871 84.8798771,78.3115871 C85.5961942,78.3115871 86.178948,77.678629 86.178948,76.9006547 C86.178948,76.8602474 86.1773692,76.8198937 86.1742114,76.7798616 C86.4494295,76.5149634 86.612498,76.1313085 86.612498,75.7234307 Z M85.5865729,76.2530663 L85.3263541,76.4119623 L85.4142285,76.7217694 C85.43056,76.7793792 85.4388491,76.8395614 85.4388491,76.9006547 C85.4388491,77.2353814 85.1881036,77.5077286 84.8798771,77.5077286 C84.7808025,77.5077286 84.6834549,77.4791113 84.5982942,77.4249848 L84.3721693,77.2811477 L84.1721945,77.465017 C84.0700116,77.5589612 83.9452802,77.6086397 83.8114703,77.6086397 C83.5032438,77.6086397 83.2524983,77.3362924 83.2524983,77.0015657 C83.2524983,76.8283074 83.3211795,76.6627126 83.4408781,76.5473321 L83.6137159,76.3808262 L83.5518436,76.1390256 C83.5381271,76.0855422 83.5312196,76.0306118 83.5312196,75.9756815 C83.5312196,75.6409548 83.7819651,75.3686076 84.0901916,75.3686076 C84.1930653,75.3686076 84.2934721,75.3991006 84.3805077,75.4568176 L84.6657912,75.6458852 L84.8679369,75.3568176 C84.9748565,75.2039238 85.1371848,75.1163032 85.3133284,75.1163032 C85.6215549,75.1163032 85.8723005,75.3886504 85.8723005,75.7233771 C85.8723991,75.942509 85.7628644,76.1454028 85.5865729,76.2530663 Z" id="Shape" transform="translate(84.562498, 76.362498) rotate(59.000000) translate(-84.562498, -76.362498) "></path>
                        <path d="M128.637497,146.431829 C128.637497,145.945562 128.273276,145.549997 127.825578,145.549997 C127.633985,145.549997 127.453709,145.621239 127.31013,145.75009 C127.230137,145.722089 127.146136,145.707653 127.061086,145.707653 C126.613388,145.707653 126.249167,146.103252 126.249167,146.589486 C126.249167,146.619497 126.250586,146.649474 126.253423,146.679351 C126.138831,146.83473 126.074997,147.028996 126.074997,147.230664 C126.074997,147.716931 126.439218,148.112497 126.886916,148.112497 C127.026918,148.112497 127.16396,148.072974 127.28472,147.999253 C127.371064,148.032312 127.462374,148.049427 127.554609,148.049427 C128.002307,148.049427 128.366528,147.653828 128.366528,147.167594 C128.366528,147.14234 128.365541,147.117119 128.363568,147.092099 C128.535579,146.926537 128.637497,146.686753 128.637497,146.431829 Z M127.996294,146.762852 L127.833657,146.862162 L127.888579,147.055791 C127.898786,147.091797 127.903966,147.129411 127.903966,147.167594 C127.903966,147.376799 127.747251,147.547016 127.554609,147.547016 C127.492687,147.547016 127.431845,147.52913 127.37862,147.495301 L127.237292,147.405403 L127.112307,147.520321 C127.048443,147.579036 126.970486,147.610085 126.886855,147.610085 C126.694213,147.610085 126.537497,147.439868 126.537497,147.230664 C126.537497,147.122377 126.580423,147.018881 126.655235,146.946768 L126.763258,146.842702 L126.724588,146.691576 C126.716015,146.658149 126.711698,146.623818 126.711698,146.589486 C126.711698,146.380282 126.868414,146.210065 127.061056,146.210065 C127.125352,146.210065 127.188106,146.229123 127.242503,146.265196 L127.420805,146.383363 L127.547146,146.202696 C127.613971,146.107138 127.715426,146.052375 127.825516,146.052375 C128.018158,146.052375 128.174874,146.222592 128.174874,146.431796 C128.174935,146.568753 128.106476,146.695562 127.996294,146.762852 Z" id="Shape-Copy" transform="translate(127.356247, 146.831247) rotate(23.000000) translate(-127.356247, -146.831247) "></path>
                        <path d="M118.387497,19.8443323 C118.387497,19.3580649 118.023276,18.9624996 117.575578,18.9624996 C117.383985,18.9624996 117.203709,19.0337415 117.06013,19.1625933 C116.980138,19.1345923 116.896136,19.1201563 116.811087,19.1201563 C116.363388,19.1201563 115.999167,19.5157552 115.999167,20.0019891 C115.999167,20.0319998 116.000586,20.061977 116.003423,20.0918538 C115.888831,20.2472329 115.824997,20.4414987 115.824997,20.6431667 C115.824997,21.1294341 116.189218,21.5249995 116.636917,21.5249995 C116.776919,21.5249995 116.91396,21.4854765 117.03472,21.4117559 C117.121065,21.4448146 117.212374,21.4619301 117.304609,21.4619301 C117.752307,21.4619301 118.116529,21.0663312 118.116529,20.5800973 C118.116529,20.5548428 118.115542,20.5296217 118.113568,20.5046016 C118.285579,20.3390403 118.387497,20.099256 118.387497,19.8443323 Z M117.746294,20.1753546 L117.583657,20.2746646 L117.638579,20.468294 C117.648786,20.5043002 117.653967,20.541914 117.653967,20.5800973 C117.653967,20.7893015 117.497251,20.9595185 117.304609,20.9595185 C117.242688,20.9595185 117.181845,20.9416327 117.12862,20.9078036 L116.987292,20.8179055 L116.862308,20.9328237 C116.798443,20.9915389 116.720486,21.0225879 116.636855,21.0225879 C116.444213,21.0225879 116.287497,20.8523709 116.287497,20.6431667 C116.287497,20.5348803 116.330423,20.4313835 116.405235,20.3592707 L116.513258,20.2552045 L116.474588,20.1040791 C116.466015,20.070652 116.461698,20.0363205 116.461698,20.0019891 C116.461698,19.7927849 116.618414,19.6225679 116.811056,19.6225679 C116.875352,19.6225679 116.938106,19.641626 116.992503,19.6776992 L117.170805,19.7958664 L117.297147,19.6151992 C117.363971,19.5196405 117.465427,19.4648776 117.575516,19.4648776 C117.768158,19.4648776 117.924874,19.6350947 117.924874,19.8442988 C117.924935,19.9812562 117.856476,20.1080649 117.746294,20.1753546 Z" id="Shape-Copy-12" transform="translate(117.106247, 20.243750) rotate(23.000000) translate(-117.106247, -20.243750) "></path>
                    </g>
                </g>
            </g>
        </g>
    </g>
</svg>