<?xml version="1.0" encoding="UTF-8"?>
<svg width="15px" height="21px" viewBox="0 0 15 21" version="1.1" xmlns="http://www.w3.org/2000/svg" xmlns:xlink="http://www.w3.org/1999/xlink">
    <!-- Generator: Sketch 58 (84663) - https://sketch.com -->
    <title></title>
    <desc>Created with Sketch.</desc>
    <g id="Page-1" stroke="none" stroke-width="1" fill="none" fill-rule="evenodd">
        <g id="Мероприятие-XL" transform="translate(-736.000000, -319.000000)" fill="#8E0807" fill-rule="nonzero">
            <g id="Group-4" transform="translate(735.000000, 198.000000)">
                <g id="Group" transform="translate(1.000000, 116.000000)">
                    <path d="M7.5,14.9447115 C7.98110206,14.9447115 8.42783299,14.8269243 8.84020619,14.5913462 C9.25257938,14.3557681 9.5790366,14.0402664 9.81958763,13.6448317 C10.0601387,13.2493971 10.1804124,12.8161081 10.1804124,12.3449519 C10.1804124,11.8737957 10.0601387,11.4363001 9.81958763,11.0324519 C9.5790366,10.6286038 9.25257938,10.3088954 8.84020619,10.0733173 C8.42783299,9.83773921 7.98110206,9.71995192 7.5,9.71995192 C7.01889794,9.71995192 6.5764625,9.83773921 6.17268041,10.0733173 C5.76889832,10.3088954 5.4467366,10.6286038 5.20618557,11.0324519 C4.96563454,11.4363001 4.84536082,11.8737957 4.84536082,12.3449519 C4.84536082,13.0685132 5.10309021,13.6826898 5.6185567,14.1875 C6.1340232,14.6923102 6.76116469,14.9447115 7.5,14.9447115 Z M7.5,5 C8.87457732,5 10.1374513,5.32812172 11.2886598,5.984375 C12.4226861,6.64062828 13.3247389,7.52403846 13.9948454,8.63461538 C14.6649518,9.76202487 15,10.9987913 15,12.3449519 C15,13.3713994 14.7422706,14.5492722 14.2268041,15.8786058 C13.7800665,17.0060153 13.161516,18.225955 12.371134,19.5384615 C11.7182098,20.581736 10.9707946,21.6670617 10.128866,22.7944712 C9.54467062,23.5853405 8.9261201,24.3593712 8.27319588,25.1165865 L7.5,26 L6.72680412,25.1165865 C6.0738799,24.3593712 5.45532938,23.5853405 4.87113402,22.7944712 C4.02920541,21.6670617 3.28179021,20.581736 2.62886598,19.5384615 C1.83848402,18.225955 1.21993351,17.0060153 0.773195876,15.8786058 C0.257729381,14.5492722 0,13.3713994 0,12.3449519 C0,10.9987913 0.335048196,9.76202487 1.00515464,8.63461538 C1.67526108,7.52403846 2.57731959,6.64062828 3.71134021,5.984375 C4.86254871,5.32812172 6.12542268,5 7.5,5 Z" id=""></path>
                </g>
            </g>
        </g>
    </g>
</svg>