<?xml version="1.0" encoding="UTF-8"?>
<svg width="16px" height="14px" viewBox="0 0 16 14" version="1.1" xmlns="http://www.w3.org/2000/svg" xmlns:xlink="http://www.w3.org/1999/xlink">
    <!-- Generator: Sketch 58 (84663) - https://sketch.com -->
    <title></title>
    <desc>Created with Sketch.</desc>
    <g id="Symbols" stroke="none" stroke-width="1" fill="none" fill-rule="evenodd" opacity="0.699999988">
        <g id="Футер" transform="translate(-1084.000000, -75.000000)" fill="#312C4C" fill-rule="nonzero">
            <g id="Group-18" transform="translate(1082.000000, 35.000000)">
                <g id="Group" transform="translate(2.000000, 36.000000)">
                    <g id="Group-5">
                        <g id="Group-3">
                            <path d="M14.7157191,4.00071925 L1.28428094,4.00071925 C0.927534448,4.00071925 0.624304482,4.12557865 0.37458194,4.37530119 C0.124859398,4.62502373 0,4.9282537 0,5.28500019 L0,16.4511094 C0,16.8078559 0.124859398,17.1110859 0.37458194,17.3608084 C0.624304482,17.610531 0.927534448,17.7353904 1.28428094,17.7353904 L14.7157191,17.7353904 C15.0724656,17.7353904 15.3756955,17.610531 15.6254181,17.3608084 C15.8751406,17.1110859 16,16.8078559 16,16.4511094 L16,5.28500019 C16,4.9282537 15.8751406,4.62502373 15.6254181,4.37530119 C15.3756955,4.12557865 15.0724656,4.00071925 14.7157191,4.00071925 Z M13.342252,5.28500019 L8.56187291,9.28054088 L8.52619844,9.29837811 L8.5083612,9.33405258 C8.40371557,9.43869822 8.28385023,9.50148497 8.14876282,9.52241385 L8.02675585,9.53026217 C7.84838261,9.53026217 7.69974047,9.46485963 7.58082497,9.33405258 L7.5451505,9.31621535 L2.65774805,5.28500019 L13.342252,5.28500019 Z M14.7157191,16.4511094 L1.28428094,16.4511094 L1.28428094,5.80228001 L6.68896321,10.2615888 C7.05760125,10.6302269 7.50947336,10.8145431 8.04459309,10.8145431 C8.57971282,10.8145431 9.03158493,10.6242812 9.40022297,10.2437516 L14.7157191,5.80228001 L14.7157191,16.4511094 Z" id=""></path>
                        </g>
                    </g>
                </g>
            </g>
        </g>
    </g>
</svg>