<?xml version="1.0" encoding="UTF-8"?>
<svg width="18px" height="18px" viewBox="0 0 18 18" version="1.1" xmlns="http://www.w3.org/2000/svg" xmlns:xlink="http://www.w3.org/1999/xlink">
    <!-- Generator: Sketch 58 (84663) - https://sketch.com -->
    <title></title>
    <desc>Created with Sketch.</desc>
    <g id="Symbols" stroke="none" stroke-width="1" fill="none" fill-rule="evenodd" opacity="0.699999988">
        <g id="Футер" transform="translate(-1115.000000, -125.000000)" fill="#312C4C" fill-rule="nonzero" stroke="#312C4C" stroke-width="0.5">
            <g id="Group-18" transform="translate(1082.000000, 35.000000)">
                <g id="Group" transform="translate(2.000000, 36.000000)">
                    <g id="Group-4" transform="translate(32.000000, 53.000000)">
                        <path d="M3.15112539,2 C3.32261607,2 3.47534766,2.02947452 3.60932475,2.08842444 C3.74330184,2.14737436 3.85852041,2.24115691 3.95498391,2.36977492 L4.32926057,2.89967859 C4.45873508,3.08574459 4.59292543,3.28124236 4.73183224,3.4861728 L4.94372989,3.80064308 C5.30278849,4.33655144 5.69131622,4.9314008 6.10932474,5.58520899 C6.21650641,5.75669967 6.26205794,5.94962378 6.24598069,6.16398713 C6.23311889,6.3354778 6.18081498,6.51725571 6.08906777,6.70932438 L5.87588443,7.11768452 L5.24115754,8.28617362 C5.46623905,8.60771863 5.75294572,8.96677185 6.10128616,9.36334403 C6.44962659,9.75991622 6.85423133,10.1886365 7.31511252,10.6495177 L7.86173677,11.1858526 C8.12540182,11.4392283 8.37459688,11.6704169 8.60932474,11.8794212 C9.00053784,12.2277616 9.35155255,12.5144683 9.6623794,12.7395498 L10.4186492,12.3022509 L10.932476,12.0192925 L11.0932476,11.9356913 C11.2218656,11.8606641 11.3531611,11.8043946 11.4871382,11.766881 C11.6211153,11.7293674 11.7470519,11.7106109 11.8649517,11.7106109 C11.9614152,11.7106109 12.0498388,11.7213289 12.130225,11.7427652 C12.2106113,11.7642016 12.2883168,11.7963556 12.363344,11.8392283 C12.8456615,12.1286188 13.3547668,12.4528385 13.8906752,12.8118971 L14.7226686,13.3766076 C15.0093775,13.5735524 15.3054647,13.7792058 15.6109324,13.9935691 C15.7181141,14.0685963 15.8038582,14.1650583 15.8681672,14.2829582 C15.9324762,14.400858 15.9753482,14.5294741 15.9967845,14.6688103 C16.0075027,14.8188646 15.9914257,14.9715962 15.948553,15.1270096 C15.9199712,15.2306186 15.8770991,15.3354174 15.8199358,15.4414074 L15.7234726,15.6012861 C15.6806,15.6763133 15.6162919,15.7674164 15.5305466,15.874598 L15.3376207,16.1103963 C15.3018937,16.1532687 15.2643803,16.1979276 15.2250803,16.244373 C15.1178987,16.3837091 14.9785646,16.5417997 14.8070739,16.7186495 C14.6784559,16.8512868 14.5317527,16.9944732 14.3669618,17.148211 L14.1961414,17.3054662 C13.9710599,17.5198295 13.7647383,17.6805996 13.5771704,17.7877813 C13.3896025,17.894963 13.2261529,17.948553 13.0868167,17.948553 L13.0546623,17.948553 C12.4973177,17.9271167 11.9131863,17.8065391 11.3022508,17.5868167 C10.6913152,17.3670943 10.0482349,17.0535926 9.37299033,16.6463022 C8.6977458,16.2390119 7.99035737,15.7299066 7.25080384,15.118971 C6.5112503,14.5080355 5.73955384,13.8060061 4.93569131,13.0128617 C4.13182877,12.2089992 3.42711985,11.4373027 2.8215434,10.6977492 C2.21596696,9.95819564 1.70686165,9.25080722 1.29421222,8.57556268 C0.881562779,7.90031815 0.568061092,7.25455827 0.353697748,6.63826365 C0.139334405,6.02196904 0.0214363344,5.44051719 0,4.89389067 C0,4.74383633 0.053590032,4.57502773 0.160771704,4.3874598 C0.267953376,4.19989188 0.428723472,3.98821125 0.643086815,3.75241157 C0.857450159,3.51661189 1.05037427,3.31564927 1.22186495,3.14951768 C1.39335562,2.98338609 1.54876672,2.84673151 1.68810289,2.73954984 L2.36334405,2.24115756 C2.48124388,2.15541222 2.60450096,2.09378368 2.73311896,2.0562701 C2.86173697,2.01875651 3.00107105,2 3.15112539,2 Z M3.18327973,2.96463022 L3.08882635,2.9686495 L3.03054662,2.98070739 C2.99303303,2.99142556 2.95819951,3.00750257 2.92604501,3.0289389 C2.71168167,3.17899324 2.50268054,3.34244284 2.29903536,3.5192926 C2.09539019,3.69614236 1.89710707,3.88102797 1.70418006,4.07395498 C1.51125305,4.26688199 1.35852146,4.43301109 1.2459807,4.57234726 C1.13343995,4.71168343 1.06109341,4.8295815 1.0289389,4.92604501 C1.05037524,5.40836253 1.16291431,5.92282684 1.36655948,6.46945336 C1.57020466,7.01607989 1.86494983,7.59753174 2.25080385,8.21382635 C2.63665787,8.83012096 3.11360916,9.47856035 3.68167202,10.159164 C4.24973488,10.8397676 4.90889227,11.5551945 5.65916397,12.3054662 C6.40943567,13.0557379 7.1248626,13.7148953 7.80546622,14.2829582 C8.48606983,14.851021 9.13450922,15.3279723 9.75080383,15.7138263 C10.3670984,16.0996803 10.9512298,16.3944255 11.5032154,16.5980707 C12.055201,16.8017159 12.5723448,16.9196139 13.0546623,16.9517685 C13.1296895,16.9196139 13.2368696,16.8445879 13.3762058,16.7266881 C13.5155419,16.6087882 13.681671,16.4533771 13.874598,16.2604501 C14.067525,16.0675231 14.2497312,15.8665605 14.4212218,15.6575562 C14.5927125,15.448552 14.7588416,15.2368713 14.9196141,15.022508 C14.9517686,14.9796353 14.9732046,14.9394428 14.9839228,14.9019292 C14.994641,14.8644156 14.994641,14.8295821 14.9839228,14.7974276 C14.3622691,14.3579828 13.7915353,13.9667755 13.2717041,13.6237942 L13.2717041,13.6237942 L12.9659156,13.4225075 L11.8649517,12.7073955 C11.8220791,12.7073955 11.773848,12.715434 11.7202572,12.7315112 C11.6666664,12.7475885 11.6077173,12.771704 11.5434083,12.8038585 C11.4919611,12.836013 11.413505,12.8816719 11.3080389,12.9408358 L11.3080389,12.9408358 L10.1446945,13.5755627 L9.61414789,13.8971061 L9.08360126,13.5434083 C8.74061991,13.3076087 8.36281019,13.004825 7.95016075,12.6350482 C7.53751132,12.2652714 7.08467554,11.8338717 6.59163985,11.340836 C6.10932233,10.8478003 5.68596108,10.3949645 5.32154339,9.98231509 C4.95712571,9.56966566 4.65702153,9.19185593 4.42122185,8.84887458 L4.42122185,8.84887458 L4.03536976,8.3504823 L4.35691317,7.78778134 C4.47910028,7.56269982 4.5877816,7.3636651 4.6829582,7.19067519 L4.6829582,7.19067519 L5.12861735,6.38906751 C5.16077185,6.32475851 5.18488737,6.26580947 5.20096462,6.21221864 C5.21704187,6.1586278 5.22508037,6.11039677 5.22508037,6.06752411 C4.84994452,5.47802491 4.49357081,4.92604758 4.15594854,4.41157556 L4.15594854,4.41157556 L3.90524467,4.03175164 C3.65705348,3.65795759 3.41639987,3.30225249 3.18327973,2.96463022 L3.18327973,2.96463022 Z" id=""></path>
                    </g>
                </g>
            </g>
        </g>
    </g>
</svg>