<?xml version="1.0" encoding="UTF-8"?>
<svg width="32px" height="24px" viewBox="0 0 32 24" version="1.1" xmlns="http://www.w3.org/2000/svg" xmlns:xlink="http://www.w3.org/1999/xlink">
    <!-- Generator: Sketch 58 (84663) - https://sketch.com -->
    <title></title>
    <desc>Created with Sketch.</desc>
    <g id="Symbols" stroke="none" stroke-width="1" fill="none" fill-rule="evenodd">
        <g id="Футер" transform="translate(-1191.000000, -260.000000)" fill="#C1C1C1" fill-rule="nonzero">
            <g id="Group-18" transform="translate(1082.000000, 35.000000)">
                <g id="Group-16" transform="translate(0.000000, 189.000000)">
                    <g id="Group-14" transform="translate(4.000000, 36.000000)">
                        <path d="M121.5625,0 C125.604187,0 129.145818,0.0833325 132.1875,0.25 C133.479173,0.25 134.572912,0.739578438 135.46875,1.71875 C136.364588,2.69792156 136.8125,3.89582625 136.8125,5.3125 C136.937501,7.56251125 137,9.79165562 137,12 C137,14.2083444 136.937501,16.4374887 136.8125,18.6875 C136.8125,20.1041737 136.364588,21.3020784 135.46875,22.28125 C134.572912,23.2604216 133.479173,23.75 132.1875,23.75 C128.979151,23.9166675 125.250021,24 121,24 L119.327772,23.9955556 C115.764803,23.9762965 112.593069,23.8944452 109.8125,23.75 C108.520827,23.75 107.427088,23.2604216 106.53125,22.28125 C105.635412,21.3020784 105.1875,20.1041737 105.1875,18.6875 C105.0875,16.887491 105.0275,15.1008368 105.0075,13.3275032 L105,12 C105,10.5416594 105.083332,8.312515 105.25,5.3125 C105.25,3.89582625 105.687496,2.69792156 106.5625,1.71875 C107.437504,0.739578438 108.520827,0.25 109.8125,0.25 C112.651403,0.0944436667 115.925818,0.0114813778 119.63583,0.00111110074 L121.5625,0 Z M117.9375,5.8125 L117.9375,18.125 L127,12 L117.9375,5.8125 Z" id=""></path>
                    </g>
                </g>
            </g>
        </g>
    </g>
</svg>