<?xml version="1.0" encoding="UTF-8"?>
<svg width="50px" height="50px" viewBox="0 0 50 50" version="1.1" xmlns="http://www.w3.org/2000/svg" xmlns:xlink="http://www.w3.org/1999/xlink">
    <!-- Generator: Sketch 58 (84663) - https://sketch.com -->
    <title></title>
    <desc>Created with Sketch.</desc>
    <g id="Page-1" stroke="none" stroke-width="1" fill="none" fill-rule="evenodd" opacity="0.900000036">
        <g id="Мероприятие-XL" transform="translate(-695.000000, -2158.000000)" fill="#ECECEC" fill-rule="nonzero">
            <g id="Group-17" transform="translate(355.000000, 1917.000000)">
                <g id="Group" transform="translate(0.000000, 60.000000)">
                    <path d="M359.951923,217.237981 L374.975962,206 L359.951923,194.701923 L359.951923,217.237981 Z M365,181 C369.567331,181 373.794051,182.141816 377.680288,184.425481 C381.446333,186.588953 384.411047,189.553667 386.574519,193.319712 C388.858184,197.205949 390,201.432669 390,206 C390,210.567331 388.858184,214.794051 386.574519,218.680288 C384.411047,222.446333 381.446333,225.411047 377.680288,227.574519 C373.794051,229.858184 369.567331,231 365,231 C360.432669,231 356.205949,229.858184 352.319712,227.574519 C348.553667,225.370983 345.588953,222.386237 343.425481,218.620192 C341.141816,214.733955 340,210.527266 340,206 C340,201.472734 341.141816,197.266045 343.425481,193.379808 C345.629017,189.613763 348.613763,186.629017 352.379808,184.425481 C356.266045,182.141816 360.472734,181 365,181 Z" id=""></path>
                </g>
            </g>
        </g>
    </g>
</svg>