<svg height="512pt" viewBox="-72 0 511 512" width="512pt" xmlns="http://www.w3.org/2000/svg"><path d="m.648438 328.644531c0 101.101563 82.253906 183.355469 183.355468 183.355469 101.101563 0 183.355469-82.253906 183.355469-183.355469v-275.410156c0-29.351563-23.882813-53.234375-53.238281-53.234375-29.351563 0-53.234375 23.882812-53.234375 53.234375v82.054687c-9.140625-7.25-20.703125-11.59375-33.273438-11.59375-17.144531 0-32.421875 8.078126-42.21875 20.601563-11.996093-16.957031-30.074219-20.601563-49.492187-20.601563-10.601563 0-20.414063 3.421876-28.410156 9.203126v-84.304688c0-26.796875-21.800782-48.59375-48.59375-48.59375h-9.804688c-26.796875 0-48.59375 21.796875-48.59375 48.59375zm226.964843-184.769531c17.824219 0 32.417969 13.960938 33.273438 31.433594v84.066406c-9.019531-7.148438-20.394531-11.417969-32.742188-11.417969h-33.84375v-71.027343c0-18.222657 14.945313-33.054688 33.3125-33.054688zm-91.710937 0h9.804687c28.304688 0 28.410157 29.234375 28.410157 49.832031v54.25h-66.625c0-24.050781-1.746094-48.792969.484374-72.769531 1.570313-16.894531 8.960938-31.3125 27.925782-31.3125zm-115.21875-95.28125c0-15.664062 12.746094-28.410156 28.410156-28.410156h9.804688c15.664062 0 28.410156 12.746094 28.410156 28.410156v199.363281h-66.625zm260.386718 4.640625c0-18.222656 14.828126-33.050781 33.050782-33.050781 18.226562 0 33.054687 14.828125 33.054687 33.050781v275.410156c0 89.972657-73.195312 163.171875-163.171875 163.171875-89.972656 0-163.167968-73.199218-163.167968-163.171875l-.152344-60.503906h207.460937c17.519531 0 31.875 13.929687 32.742188 31.382813v.082031c0 .277343.011719.550781.03125.820312.007812.253907.011719.511719.011719.769531 0 18.226563-14.707032 33.054688-32.785157 33.054688h-83.648437c-12.957032 0-12.976563 20.183594 0 20.183594h83.648437c29.207031 0 52.96875-23.882813 52.96875-53.238282zm0 0"/><path d="m103.121094 333.6875c-5.394532 0-10.003906 4.523438-10.074219 9.921875-.070313 5.597656 4.515625 10.222656 10.097656 10.230469 5.570313.007812 10.175781-4.730469 10.0625-10.300782-.113281-5.355468-4.734375-9.851562-10.085937-9.851562zm0 0"/></svg>