<?xml version="1.0" encoding="UTF-8"?>
<svg width="75px" height="100px" viewBox="0 0 75 100" version="1.1" xmlns="http://www.w3.org/2000/svg" xmlns:xlink="http://www.w3.org/1999/xlink">
    <!-- Generator: Sketch 60.1 (88133) - https://sketch.com -->
    <title>3</title>
    <desc>Created with Sketch.</desc>
    <g id="Дизайн" stroke="none" stroke-width="1" fill="none" fill-rule="evenodd" opacity="0.1">
        <g id="Kit" transform="translate(-1259.000000, -2615.000000)" fill="#FFFFFF" fill-rule="nonzero">
            <path d="M1296.42775,2715 C1279.37572,2715 1266.22543,2708.61393 1259,2699.76052 L1274.46243,2682.0537 C1280.09827,2687.71408 1288.19075,2690.76197 1295.27168,2690.76197 C1303.65318,2690.76197 1307.12139,2687.13353 1307.12139,2683.35994 C1307.12139,2678.49194 1303.32439,2676.59001 1294.7593,2676.5395 L1291.05569,2676.54228 C1288.23382,2676.55129 1285.26152,2676.58161 1284.14451,2676.6836 L1284.14451,2652.30044 L1284.42545,2652.32331 C1285.81057,2652.4168 1289.29786,2652.4388 1291.83875,2652.44398 L1293.82659,2652.44557 C1301.77457,2652.44557 1305.82081,2650.26851 1305.82081,2646.20464 C1305.82081,2641.41509 1301.19653,2639.23803 1294.11561,2639.23803 C1287.46821,2639.23803 1279.95376,2641.70537 1275.04046,2647.07547 L1260.30058,2630.96517 C1268.39306,2620.80552 1280.6763,2615 1296.42775,2615 C1318.9711,2615 1332.55491,2624.72424 1332.55491,2641.70537 C1332.55491,2651.86502 1324.31792,2661.44412 1313.33526,2663.33091 C1324.31792,2664.92743 1334,2673.78084 1334,2686.11756 C1334,2703.53411 1318.68208,2715 1296.42775,2715 Z" id="3"></path>
        </g>
    </g>
</svg>