<svg xmlns="http://www.w3.org/2000/svg" width="215" height="349" viewBox="0 0 215 349"><defs><clipPath id="m22xa"><path d="M0 1.76h214.627v347.218H0z"/></clipPath><clipPath id="m22xb"><path d="M0 348.98h214.627V.31H0z"/></clipPath></defs><g><g><g><g><path fill="none" stroke="#fff" stroke-miterlimit="50" d="M.66 348.151v0h213.298v0V216.55v0H.66v0z"/></g><g><path fill="none" stroke="#fff" stroke-miterlimit="50" d="M132.15 348.151v0h81.81v0V216.55v0h-81.81v0z"/></g><g><path fill="none" stroke="#fff" stroke-miterlimit="50" d="M132.15 267.124v0h81.81v0-50.574 0h-81.81v0z"/></g></g><g><path fill="none" stroke="#fff" stroke-miterlimit="50" d="M132.15 267.124v0h31.789v0-50.574 0H132.15v0z"/></g><g><path fill="none" stroke="#fff" stroke-miterlimit="50" d="M132.15 267.129v0h31.789v0-20.649 0H132.15v0z"/></g><g><path fill="none" stroke="#fff" stroke-miterlimit="50" d="M151.72 267.129v0h12.225v0-20.649 0H151.72v0z"/></g><g><path fill="none" stroke="#fff" stroke-miterlimit="50" d="M151.72 254.755v0h12.225v0-8.275 0H151.72v0z"/></g><g><path fill="none" stroke="#fff" stroke-miterlimit="50" d="M151.72 254.755v0h4.541v0-8.275 0h-4.541v0z"/></g><g><g><g/><g clip-path="url(#m22xa)"><path fill="#fff" d="M214.627 2.427a.667.667 0 0 0-.664-.667c-57.155 0-110.892 22.297-151.304 62.8C22.269 105.086 0 158.922 0 216.206c0 73.214 59.425 132.772 132.474 132.772 45.274 0 82.13-36.917 82.13-82.316 0-28.182-22.89-51.123-51.007-51.123h-.666c-17.224.345-31.123 14.505-31.123 31.837 0 10.989 8.922 19.93 19.886 19.93 6.925 0 12.545-5.632 12.545-12.574 0-4.415-3.601-8.022-8.004-8.022-2.868 0-4.037 2.345-4.037 5.218 0 .367.298.667.664.667.368 0 .666-.3.666-.667 0-2.138.596-3.886 2.73-3.886 3.692 0 6.696 3.012 6.696 6.713 0 6.206-5.045 11.264-11.238 11.264-10.251 0-18.578-8.345-18.578-18.62 0-8.16 3.165-15.814 8.922-21.584 5.757-5.77 13.394-8.942 21.537-8.942h.435c27.2.23 49.265 22.48 49.265 49.812 0 44.664-36.26 81.006-80.823 81.006-72.338 0-131.167-58.985-131.167-131.462 0-117.532 95.41-213.16 212.656-213.16a.661.661 0 0 0 .664-.642"/></g></g><g/><g clip-path="url(#m22xb)"><path fill="none" stroke="#fff" stroke-miterlimit="50" d="M.66 348.156v0h213.298v0V.96v0H.66v0z"/></g></g></g></g></svg>