<?xml version="1.0" encoding="UTF-8"?>
<svg width="64px" height="64px" viewBox="0 0 64 64" version="1.1" xmlns="http://www.w3.org/2000/svg" xmlns:xlink="http://www.w3.org/1999/xlink">
    <!-- Generator: Sketch 60.1 (88133) - https://sketch.com -->
    <title>advantage_2</title>
    <desc>Created with Sketch.</desc>
    <g id="Дизайн" stroke="none" stroke-width="1" fill="none" fill-rule="evenodd">
        <g id="Kit" transform="translate(-652.000000, -2633.000000)" fill="#F37920" fill-rule="nonzero">
            <g id="advantage_2" transform="translate(652.000000, 2633.000000)">
                <path d="M63.3291015,39.5400488 C62.9223633,39.3784278 62.4580078,39.479502 62.1557618,39.7959083 L57.6000976,44.5844824 L57.6000976,16.1416113 L57.6054688,16.1416113 L61.9521485,11.448252 C62.3520508,11.016123 62.3256836,10.34083 61.8930664,9.9409278 C61.8930664,9.9409278 61.8925781,9.94043955 61.8920899,9.93995117 L60.3276368,8.48389655 L62.5014649,6.1372168 C62.9008789,5.70459967 62.8740235,5.02979492 62.4414062,4.63038092 L57.7480469,0.283701172 C57.315918,-0.116201203 56.6411133,-0.0903222032 56.241211,0.342294922 L48.6572265,8.5312598 L11.7333985,8.5312598 C11.7299805,5.5869238 9.34423825,3.20118167 6.39990237,3.19776367 L5.33349612,3.19776367 C2.38916013,3.20118167 0.003417975,5.5869238 0,8.5312598 L0,54.397959 C0,54.9868262 0.477539,55.4643653 1.0668945,55.4643653 L17.2138672,55.4643653 L14.9736328,58.1543067 C14.597168,58.6074317 14.6586914,59.2797949 15.1113281,59.6562598 L20.0297851,63.7514747 C20.4824219,64.1284278 21.1552735,64.0669043 21.5322265,63.6142675 C21.5322265,63.6142675 21.5327149,63.6137793 21.5327149,63.6137793 L26.9921875,57.0546973 C27.3691406,56.6005958 27.6118164,56.0493262 27.6918945,55.4643653 L47.2373047,55.4643653 L40.8266601,62.1962988 C40.4208985,62.6230567 40.4379883,63.2983497 40.8647461,63.7041113 C41.0629883,63.8925879 41.3261719,63.9984203 41.6000976,63.9975684 L62.9331055,63.9975684 C63.522461,63.9975684 64,63.5200293 64,62.9311622 L64,40.5312598 C64,40.0947363 63.734375,39.7021583 63.3291015,39.5400488 L63.3291015,39.5400488 Z M59.6621094,10.7710059 L57.6000976,13.0014747 L57.6000976,11.432627 L58.8798828,10.0459083 L59.6621094,10.7710059 Z M55.4667969,10.5810645 L55.4667969,10.5962012 L46.4458008,20.3457129 L43.3129883,17.4472754 L54.1801758,5.7031348 L57.3129883,8.6015723 L55.4794923,10.5810645 L55.4667969,10.5810645 Z M44.3969726,21.354502 L41.9433594,22.0703223 L42.4672851,19.5678809 L44.3969726,21.354502 Z M57.0786133,2.57178717 L60.209961,5.4687598 L58.7607423,7.03760742 L55.6289063,4.13770505 L57.0786133,2.57178717 Z M5.33349613,5.33106455 L6.39990238,5.33106455 C8.1674805,5.33106455 9.60009763,6.76368167 9.60009763,8.5312598 L9.60009763,49.0922949 C8.68212888,48.3862403 7.55761725,48.0014747 6.39990238,47.9975684 L5.33349613,47.9975684 C4.175293,48.0014747 3.0512695,48.3862403 2.13330075,49.0922949 L2.13330075,8.5312598 C2.13330075,6.76368167 3.565918,5.33106455 5.33349613,5.33106455 Z M5.33349613,50.1308692 L6.39990238,50.1308692 C8.1674805,50.1308692 9.60009763,51.5639747 9.60009763,53.3310645 L2.13330075,53.3310645 C2.13330075,51.5639747 3.565918,50.1308692 5.33349613,50.1308692 Z M25.3535156,55.6904395 L24.6708985,56.5097754 L21.3920899,53.7802833 L22.0737305,52.9599708 C22.4506836,52.507334 23.1230469,52.4458105 23.5756836,52.8227637 C23.5761719,52.8227637 23.5761719,52.823252 23.5766601,52.823252 L25.2158203,54.18458 C25.6689453,54.5610449 25.730957,55.2334083 25.3544923,55.6865333 C25.3540039,55.6870215 25.3540039,55.6870215 25.3535156,55.6875098 L25.3535156,55.6904395 Z M20.5761719,61.429209 L17.296875,58.6997168 L20.0268555,55.4194434 L23.305664,58.1494238 L20.5761719,61.429209 Z M27.2436524,53.3310645 C27.0664063,53.0356543 26.8422851,52.7714942 26.5800781,52.5483497 L24.940918,51.1840918 C23.5825195,50.0532324 21.5649414,50.2373145 20.434082,51.5957129 L18.9868164,53.3310645 L11.7333985,53.3310645 L11.7333985,10.6645605 L46.6835938,10.6645605 L41.0229493,16.781748 C40.9418945,16.8730567 40.8774414,16.9785254 40.8330078,17.0922949 C40.8203125,17.1230567 40.8105469,17.1518653 40.7998048,17.1840918 C40.7895508,17.21583 40.7734375,17.2480567 40.765625,17.2822363 L39.4921875,23.3706153 C39.3720703,23.9472754 39.7421875,24.5122168 40.3188476,24.632334 C40.4902344,24.6679785 40.6674805,24.6611425 40.834961,24.6123145 L46.8085938,22.8715918 C46.8364258,22.8628028 46.8598633,22.8466895 46.8862305,22.8374122 C46.913086,22.8276465 46.940918,22.8139747 46.9697265,22.7998145 C47.0893555,22.7456153 47.1977539,22.668955 47.2895508,22.5747168 L55.4667969,13.7373145 L55.4667969,46.8242285 L49.2695313,53.3310645 L27.2436524,53.3310645 Z M61.8666992,61.8642675 L44.0883789,61.8642675 L61.8666992,43.1977637 L61.8666992,61.8642675 Z" id="Shape"></path>
                <path d="M50.2143555,59.0727539 C50.3793945,59.4711914 50.7685547,59.730957 51.2001952,59.730957 L58.6665039,59.730957 C59.2558594,59.730957 59.7333985,59.253418 59.7333985,58.6645507 L59.7333985,51.1977539 C59.7333985,50.6083985 59.2553711,50.1313476 58.6665039,50.1313476 C58.383789,50.1313476 58.1123047,50.2436524 57.9125976,50.4438476 L50.4458007,57.9101562 C50.140625,58.215332 50.0493164,58.6743164 50.2143555,59.0727539 L50.2143555,59.0727539 Z M57.6000976,53.772461 L57.6000976,57.5976562 L53.7749024,57.5976562 L57.6000976,53.772461 Z" id="Shape"></path>
                <path d="M46.9331055,40.53125 L39.4667969,40.53125 L39.4667969,28.7978515 C39.465332,28.5146485 39.352539,28.243164 39.152832,28.0424805 L32.7529297,21.6425781 C32.3364257,21.2260742 31.6611327,21.2260742 31.2446289,21.6425781 L24.8447265,28.0424805 C24.6459961,28.2436524 24.5341797,28.5151367 24.5332031,28.7978515 L24.5332031,40.53125 L17.0668945,40.53125 C16.477539,40.53125 16,41.008789 16,41.5976562 C16,42.1870117 16.477539,42.6645507 17.0668945,42.6645507 L46.9335937,42.6645507 C47.522461,42.6645507 48,42.1870117 48,41.5976562 C48,41.008789 47.522461,40.53125 46.9331055,40.53125 L46.9331055,40.53125 Z M32,23.9057617 L35.8251953,27.730957 L28.1748047,27.730957 L32,23.9057617 Z M26.6665039,29.8642578 L37.3334961,29.8642578 L37.3334961,40.53125 L26.6665039,40.53125 L26.6665039,29.8642578 Z" id="Shape"></path>
                <polygon id="Path" points="30.9331055 17.0644531 33.0668945 17.0644531 33.0668945 19.1977539 30.9331055 19.1977539"></polygon>
                <polygon id="Path" points="30.9331055 44.7978515 33.0668945 44.7978515 33.0668945 46.9311524 30.9331055 46.9311524"></polygon>
            </g>
        </g>
    </g>
</svg>