<?xml version="1.0" encoding="UTF-8"?>
<svg width="64px" height="64px" viewBox="0 0 64 64" version="1.1" xmlns="http://www.w3.org/2000/svg" xmlns:xlink="http://www.w3.org/1999/xlink">
    <!-- Generator: Sketch 60.1 (88133) - https://sketch.com -->
    <title>advantage_3</title>
    <desc>Created with Sketch.</desc>
    <g id="Дизайн" stroke="none" stroke-width="1" fill="none" fill-rule="evenodd">
        <g id="Kit" transform="translate(-766.000000, -2633.000000)" fill="#F37920" fill-rule="nonzero">
            <g id="advantage_3" transform="translate(766.000000, 2633.000000)">
                <path d="M6.25,56.4990235 C5.55957025,56.4990235 5,57.0585938 5,57.7490235 L5,57.75 C5,58.4399414 5.55957025,58.9995117 6.25,58.9995117 C6.94042975,58.9995117 7.5,58.4394531 7.5,57.7490235 C7.5,57.0585937 6.94042975,56.4990235 6.25,56.4990235 L6.25,56.4990235 Z" id="Path"></path>
                <path d="M62.75,0 L52.75,0 C52.0595703,0 51.5,0.55957025 51.5,1.25 L51.5,2.5546875 L49.8320312,2.54443362 C49.8295899,2.54443362 49.8266601,2.54443362 49.8242187,2.54443362 C49.1376952,2.54443362 48.5786132,3.09863275 48.5742187,3.78613275 C48.5698243,4.4765625 49.1259765,5.040039 49.8164062,5.04443362 L51.5,5.0546875 L51.5,18.0234375 C48.2270507,20.084961 45.2729492,18.8979492 42.1547851,17.6420899 C40.1000976,16.8144531 37.9746094,15.9589844 35.8540039,16.2250976 C35.1850586,16.309082 33.3793945,16.571289 31.4682617,16.8486328 C29.6572265,17.1113281 27.7841797,17.3833008 27.1401367,17.4643555 C26.8125,17.5053711 26.4858399,17.4140625 26.2202149,17.2075195 C25.9492188,16.9960938 25.7763672,16.6928711 25.734375,16.3530274 C25.7070312,16.131836 25.6342774,15.543457 27.2006836,14.8164062 C30.5166015,13.2788086 34.050293,11.9624024 36.8959961,11.2050781 C37.5629883,11.0273438 37.959961,10.3427735 37.7822265,9.675293 C37.6049805,9.00830075 36.9204101,8.61181638 36.2529297,8.7890625 C33.2734375,9.58203125 29.590332,10.9526367 26.1489257,12.5488281 C24.9516601,13.1040039 24.2158202,13.75 23.7822265,14.4013672 L11.25,17.8188476 C9.93164062,18.1503906 9.25537112,17.6254883 9.0615235,17.0234375 C8.87109375,16.430664 9.10107425,15.6665039 10.0439452,15.2944336 C11.0249024,14.9208985 13.366211,13.8901367 16.3291015,12.5864258 C20.2558594,10.8583985 25.1420899,8.7075195 29.0385742,7.12695312 C33.6689452,5.24853513 35.0800781,4.965332 39.8208007,4.98242188 L39.824707,4.98242188 C40.5131836,4.98242188 41.0722656,4.425293 41.074707,3.73632812 C41.0766601,3.0458985 40.5185547,2.484375 39.828125,2.48242188 C34.7714844,2.465332 33.0170899,2.81542975 28.0991211,4.81054688 C24.168457,6.40478513 19.2636719,8.5634765 15.3222656,10.2978515 C12.5014649,11.5395508 10.0649414,12.6118164 9.14794925,12.9604492 C9.144043,12.961914 9.14013675,12.9633789 9.1362305,12.9648438 C6.80078125,13.8808594 6.133789,16.084961 6.68164062,17.7885742 C7.22119137,19.4672851 9.07666012,20.9501953 11.875,20.2397461 C11.8823242,20.237793 11.8891601,20.2363281 11.8964844,20.2338867 L23.3374024,17.1142578 C23.5405274,17.9316406 24.0083007,18.6538086 24.6845702,19.1801758 C25.4780274,19.7978515 26.4609375,20.069336 27.4516601,19.9448242 C28.1196289,19.8608399 29.9204101,19.5991211 31.8271485,19.3227539 C33.6430664,19.059082 35.5200195,18.7866211 36.1655274,18.7055664 C37.6425781,18.5200195 39.3808594,19.2197265 41.2207031,19.9609375 C43.1704101,20.7460938 45.3916015,21.6411133 47.7954101,21.640625 C48.9887695,21.640625 50.227539,21.4179688 51.5,20.8535156 L51.5,21.25 C51.5,21.9404297 52.0595703,22.5 52.75,22.5 L62.75,22.5 C63.4404297,22.5 64,21.9404297 64,21.25 L64,1.25 C64,0.55957025 63.4404297,0 62.75,0 Z M61.5,20 L54,20 L54,3.82177737 L54,3.82080075 C54,3.82080075 54,3.81982425 54,3.819336 L54,2.5 L61.5,2.5 L61.5,20 Z" id="Shape"></path>
                <path d="M57.75,7.5009765 C58.4404297,7.5009765 59,6.94140625 59,6.2509765 L59,6.25 C59,5.56005862 58.4404297,5.00048825 57.75,5.00048825 C57.0595703,5.00048825 56.5,5.56054688 56.5,6.2509765 C56.5,6.94140625 57.0595703,7.5009765 57.75,7.5009765 Z" id="Path"></path>
                <path d="M23.25,40.75 C26.2163086,40.75 28.8413086,39.2646485 30.4243164,37 L35.0424805,37 C35.3740235,37 35.6918945,36.868164 35.9262695,36.633789 L38.0600586,34.5 L39.5249024,34.5 L41.6586914,36.633789 C41.8930664,36.868164 42.2109375,37 42.5424805,37 L44.5,37 C44.831543,37 45.149414,36.868164 45.383789,36.633789 L49.133789,32.883789 C49.368164,32.649414 49.5,32.331543 49.5,32 L49.5,28.25 C49.5,27.5600586 48.9404297,27 48.25,27 L30.4248047,27 C28.8413086,24.7353515 26.2167969,23.25 23.25,23.25 C18.425293,23.25 14.5,27.175293 14.5,32 C14.5,36.824707 18.425293,40.75 23.25,40.75 Z M47,29.5 L47,31.4824219 L43.9824219,34.5 L43.0605469,34.5 L40.9262695,32.366211 C40.6918945,32.131836 40.3740235,32 40.0424805,32 L37.5424805,32 C37.2109375,32 36.8930664,32.131836 36.6586914,32.366211 L34.5249024,34.5 L31.6342774,34.5 C31.8710938,33.7075195 32,32.8686524 32,32 C32,31.1313476 31.8710937,30.2924805 31.6342774,29.5 L47,29.5 Z M23.25,25.75 C26.696289,25.75 29.5,28.553711 29.5,32 C29.5,35.446289 26.696289,38.25 23.25,38.25 C19.803711,38.25 17,35.446289 17,32 C17,28.553711 19.803711,25.75 23.25,25.75 Z" id="Shape"></path>
                <path d="M20.75,33.25 C21.4404297,33.25 22,32.6899414 22,31.9995118 C22,31.309082 21.4404297,30.7495117 20.75,30.7495117 C20.0595703,30.7495117 19.5,31.309082 19.5,31.9995118 L19.5,32.0004882 C19.5,32.690918 20.0595703,33.25 20.75,33.25 Z" id="Path"></path>
                <path d="M44.8242188,5.01318362 L44.824707,5.01318362 C45.5151367,5.01318362 46.0742188,4.453125 46.0742188,3.76318362 C46.0742188,3.07275388 45.5141601,2.51318362 44.8242188,2.51318362 C44.133789,2.51318362 43.5742188,3.07275388 43.5742188,3.76318362 C43.5742188,4.453125 44.133789,5.01318362 44.8242188,5.01318362 Z" id="Path"></path>
                <path d="M52.125,43.7602539 C52.1176758,43.762207 52.1108399,43.7636719 52.1035156,43.7661132 L40.6625976,46.8857422 C40.4594726,46.0683594 39.9916993,45.3461914 39.3154298,44.8198242 C38.5219726,44.2021485 37.5390625,43.930664 36.5483399,44.0551757 C35.8803711,44.1391601 34.0795899,44.4008789 32.1728515,44.6772461 C30.3569336,44.940918 28.4799805,45.2133789 27.8344726,45.2944336 C26.3579101,45.4794922 24.6191406,44.7802735 22.7792969,44.0390625 C19.8613281,42.8642577 16.3344726,41.444336 12.5,43.1450195 L12.5,42.7504882 C12.5,42.0600586 11.9404298,41.5004882 11.25,41.5004882 L1.25,41.5004882 C0.55957025,41.5004882 5.68434189e-14,42.0600586 5.68434189e-14,42.7504882 L5.68434189e-14,62.75 C5.68434189e-14,63.4404297 0.55957025,64 1.25,64 L11.25,64 C11.9404298,64 12.5,63.4404297 12.5,62.75 L12.5,61.4453125 L14.1679688,61.4555664 L14.1757813,61.4555664 C14.8623048,61.4555664 15.4213868,60.9013672 15.4257813,60.2133789 C15.4301758,59.5234375 14.8740235,58.959961 14.1835938,58.9555664 L12.5,58.9453125 L12.5,45.9765625 C15.7729493,43.915039 18.7270508,45.1020507 21.8452149,46.3574219 C23.9003906,47.1855469 26.0263673,48.0410156 28.1459961,47.774414 C28.8154298,47.6904297 30.6206055,47.428711 32.5317383,47.1513672 C34.3427735,46.8881836 36.2158203,46.6166992 36.8598633,46.5356445 C37.1875,46.4946289 37.5141601,46.5854492 37.7797851,46.7924805 C38.0512695,47.0039062 38.2236328,47.3071289 38.265625,47.6469726 C38.2929688,47.868164 38.366211,48.456543 36.7993164,49.1831055 C33.4833985,50.7211914 29.9501953,52.0375976 27.1044923,52.7949219 C26.4375,52.9726562 26.0405274,53.6572265 26.2177735,54.3242187 C26.3955078,54.9916992 27.0805664,55.3876952 27.7470703,55.2109375 C30.7265625,54.4179687 34.409668,53.0473632 37.8515625,51.4511719 C39.0483399,50.8959961 39.7841798,50.25 40.2182618,49.5986327 L52.75,46.1811524 C54.0678711,45.8491211 54.7446289,46.3745117 54.9384765,46.9765625 C55.1289063,47.569336 54.8989258,48.3334961 53.956543,48.7055664 C52.9760743,49.0791015 50.633789,50.1098632 47.6704101,51.4140625 C43.7441406,53.1420899 38.8579101,55.2924805 34.9614258,56.8730469 C30.3310548,58.7514649 28.9169923,59.0356445 24.1791993,59.0175781 C24.1782226,59.0175781 24.1767578,59.0175781 24.175293,59.0175781 C23.4868164,59.0175781 22.9277344,59.574707 22.925293,60.2636719 C22.9233399,60.9541015 23.4814453,61.515625 24.171875,61.5175781 C24.2739258,61.5180664 24.3745118,61.5180664 24.4741211,61.5180664 C29.3012695,61.5180664 31.0825195,61.1445312 35.9008789,59.1894531 C39.8310548,57.5952149 44.7363281,55.4365235 48.6772461,53.7021485 C51.4985351,52.4604492 53.9350586,51.3881836 54.8515625,51.0395507 C54.8554688,51.038086 54.859375,51.0366211 54.8637695,51.0351562 C57.1992188,50.1191406 57.866211,47.915039 57.3183594,46.2114257 C56.7788086,44.5332031 54.9233399,43.050293 52.125,43.7602539 L52.125,43.7602539 Z M2.5,61.5 L2.5,44 L10,44 L10,60.1796875 L10,60.1811524 L10,61.5 L2.5,61.5 Z" id="Shape"></path>
                <path d="M19.1762695,58.9868164 L19.175293,58.9868164 C18.4848633,58.9868164 17.9257812,59.546875 17.9257812,60.2368164 C17.9257812,60.9272461 18.4858399,61.4868164 19.1762695,61.4868164 C19.8666992,61.4868164 20.4262695,60.9272461 20.4262695,60.2368164 C20.4262695,59.546875 19.8666992,58.9868164 19.1762695,58.9868164 Z" id="Path"></path>
            </g>
        </g>
    </g>
</svg>