<?xml version="1.0" encoding="UTF-8"?>
<svg width="61px" height="64px" viewBox="0 0 61 64" version="1.1" xmlns="http://www.w3.org/2000/svg" xmlns:xlink="http://www.w3.org/1999/xlink">
    <!-- Generator: Sketch 60.1 (88133) - https://sketch.com -->
    <title>advantage_1</title>
    <desc>Created with Sketch.</desc>
    <g id="Дизайн" stroke="none" stroke-width="1" fill="none" fill-rule="evenodd">
        <g id="Kit" transform="translate(-541.000000, -2633.000000)" fill="#F37920" fill-rule="nonzero">
            <g id="advantage_1" transform="translate(571.500000, 2665.000000) rotate(-360.000000) translate(-571.500000, -2665.000000) translate(541.000000, 2633.000000)">
                <path d="M32.3022599,40.4589409 C33.4045556,40.3731739 34.4094342,39.8109235 35.0617052,38.9140759 L44.9760132,25.2082962 C45.2799122,24.787932 45.2343803,24.2076811 44.8658895,23.8392006 C44.4973988,23.471779 43.9171317,23.4262484 43.4967557,23.72908 L29.7884751,33.6462874 C28.894779,34.2964225 28.3325129,35.301273 28.2467435,36.4035379 C28.1609741,37.5058028 28.5601725,38.5847729 29.3405682,39.3651468 C30.0510777,40.0766953 31.0093655,40.4705882 32.005773,40.4705882 C32.104249,40.4705882 32.202725,40.4663528 32.3022599,40.4589409 Z M30.3581533,36.5687188 C30.3952142,36.0848234 30.6429925,35.6432822 31.0326609,35.3595099 L39.3946485,29.3102887 L33.347376,37.6699248 C33.061478,38.0627589 32.6199244,38.3094714 32.1360155,38.3475901 C31.6542244,38.3793556 31.1809043,38.212057 30.8367678,37.8679301 C30.495808,37.525921 30.3200336,37.0515553 30.3581533,36.5687188 Z" id="Shape"></path>
                <path d="M55.7835348,20.8682667 C55.7728694,20.8458667 55.7728694,20.8224 55.7611374,20.8 C55.7483388,20.7786667 55.7280745,20.7669333 55.7142094,20.7466667 C54.6359323,18.8970667 53.3603443,17.1765333 51.9119761,15.6170667 L54.202915,13.3269333 L55.7110098,14.8352 L60.2352941,10.3093333 L55.7110098,5.78453333 L51.1856588,10.3093333 L52.6948202,11.8186667 L50.4038813,14.1088 C48.8445923,12.6602667 47.1253216,11.3834667 45.2748658,10.3050667 C45.2546015,10.2912 45.2428695,10.2709333 45.2215386,10.2581333 C45.1991411,10.2453333 45.1756771,10.2464 45.1532797,10.2346667 C41.8544557,8.33386667 38.1482114,7.06773333 34.1966618,6.60373333 L34.1966618,5.33333333 L35.7964794,5.33333333 C37.2672451,5.33333333 38.4628422,4.1376 38.4628422,2.66666667 C38.4628422,1.19573333 37.2661786,-4.54747351e-13 35.7954129,-4.54747351e-13 L26.1965069,-4.54747351e-13 C24.7257412,-4.54747351e-13 23.5301441,1.19573333 23.5301441,2.66666667 C23.5301441,4.1376 24.7257412,5.33333333 26.1965069,5.33333333 L27.7963245,5.33333333 L27.7963245,6.5664 C26.6444558,6.68906667 25.4947202,6.8768 24.3577831,7.13706667 C23.7839818,7.26826667 23.4245561,7.84106667 23.5568077,8.41493333 C23.6879928,8.9888 24.2607275,9.34933333 24.8345288,9.216 C25.8157503,8.99093333 26.8065707,8.82133333 27.7995242,8.7072 L28.9439271,8.61866667 C29.2937539,8.592 29.6158505,8.5728 29.9294148,8.55786667 L29.9294148,10.6666667 C29.9294148,11.2565333 30.4061604,11.7333333 30.9959599,11.7333333 C31.5857593,11.7333333 32.062505,11.2565333 32.062505,10.6666667 L32.062505,8.56533333 C36.0737812,8.74986667 39.853617,9.8272 43.2143007,11.6 L42.1626872,13.4208 C41.8683207,13.9317333 42.0432341,14.5834667 42.5530427,14.8778667 C42.7204903,14.9749333 42.9039361,15.0208 43.0852487,15.0208 C43.4542733,15.0208 43.8126325,14.8298667 44.0099433,14.4874667 L45.0583572,12.6709333 C48.3955768,14.7882667 51.2304537,17.6234667 53.3475458,20.9610667 L51.5312195,22.0096 C51.0224774,22.304 50.847564,22.9557333 51.142997,23.4666667 C51.3413744,23.8090667 51.698667,24 52.0676917,24 C52.2490043,24 52.4324501,23.9541333 52.5998977,23.8570667 L54.4204902,22.8053333 C56.2176187,26.2144 57.2980289,30.0565333 57.4590772,34.1322667 L55.3526506,34.1322667 C54.7628511,34.1322667 54.2861055,34.6090667 54.2861055,35.1989333 C54.2861055,35.7888 54.7628511,36.2656 55.3526506,36.2656 L57.4590772,36.2656 C57.2980289,40.3413333 56.2176187,44.1834667 54.4204902,47.5925333 L52.5998977,46.5408 C52.0900891,46.2464 51.4373635,46.4192 51.142997,46.9312 C50.8486306,47.4421333 51.023544,48.0938667 51.5333526,48.3882667 L53.3496789,49.4368 C51.2325868,52.7744 48.3977099,55.6096 45.0604903,57.7269333 L44.0120764,55.9104 C43.7166434,55.3984 43.0628513,55.2245333 42.5551758,55.52 C42.0443007,55.8144 41.8693873,56.4672 42.1648203,56.9770667 L43.2164338,58.7978667 C39.8557501,60.5706667 36.0759142,61.648 32.0646381,61.8325333 L32.0646381,59.7333333 C32.0646381,59.1434667 31.5878924,58.6666667 30.998093,58.6666667 C30.4082935,58.6666667 29.9315479,59.1434667 29.9315479,59.7333333 L29.9315479,61.8410667 C28.2282753,61.7824 26.51967,61.5690667 24.8377284,61.1829333 C24.2639271,61.0453333 23.6911924,61.4101333 23.5600074,61.984 C23.4277558,62.5578667 23.7871815,63.1306667 24.3609827,63.2618667 C26.4898068,63.7525333 28.6644923,64 30.822113,64 C30.8743737,64 30.9245014,63.9968 30.9767621,63.9957333 C30.9842279,63.9957333 30.9895606,64 30.9959599,64 C31.0044922,64 31.0119581,63.9946667 31.0204904,63.9946667 C36.1473728,63.9594667 40.9574912,62.5749333 45.1191502,60.1834667 C45.1522131,60.1685333 45.1874091,60.1610667 45.2194055,60.1418667 C45.2407364,60.1290667 45.2524684,60.1088 45.2727327,60.0949333 C49.5805085,57.584 53.1800982,53.9882667 55.6960781,49.6832 C55.7163425,49.6544 55.7419396,49.632 55.7600708,49.6 C55.7728694,49.5776 55.7718028,49.5541333 55.7824683,49.5317333 C58.2184573,45.3077333 59.618831,40.416 59.618831,35.2 C59.618831,29.984 58.2184573,25.0922667 55.7835348,20.8682667 Z M55.7099432,8.80106667 L57.218038,10.3093333 L55.7099432,11.8186667 L54.2007819,10.3093333 L55.7099432,8.80106667 Z M29.9294148,6.4224 L29.9294148,3.2 L26.1965069,3.2 C25.903207,3.2 25.6632343,2.96 25.6632343,2.66666667 C25.6632343,2.37333333 25.903207,2.13333333 26.1965069,2.13333333 L35.7954129,2.13333333 C36.0887128,2.13333333 36.3286854,2.37333333 36.3286854,2.66666667 C36.3286854,2.96 36.0887128,3.2 35.7954129,3.2 L32.062505,3.2 L32.062505,6.4224 C31.6913473,6.40746667 31.3372543,6.4 30.9959599,6.4 C30.9660966,6.4 30.9319672,6.40213333 30.9021039,6.40213333 C30.8754403,6.40213333 30.8487767,6.4 30.822113,6.4 C30.6471996,6.4 30.4722862,6.41173333 30.2973728,6.41493333 C30.1736536,6.41813333 30.0574002,6.41706667 29.9294148,6.4224 Z" id="Shape"></path>
                <path d="M21.512605,15.0588235 L16.1344538,15.0588235 C15.5396303,15.0588235 15.0588235,15.4795294 15.0588235,16 C15.0588235,16.5204706 15.5396303,16.9411765 16.1344538,16.9411765 L21.512605,16.9411765 C22.1074286,16.9411765 22.5882353,16.5204706 22.5882353,16 C22.5882353,15.4795294 22.1074286,15.0588235 21.512605,15.0588235 Z" id="Path"></path>
                <path d="M21.4901961,22.5882353 L10.5098039,22.5882353 C9.90258824,22.5882353 9.41176471,23.0089412 9.41176471,23.5294118 C9.41176471,24.0498824 9.90258824,24.4705882 10.5098039,24.4705882 L21.4901961,24.4705882 C22.0974118,24.4705882 22.5882353,24.0498824 22.5882353,23.5294118 C22.5882353,23.0089412 22.0974118,22.5882353 21.4901961,22.5882353 Z" id="Path"></path>
                <path d="M21.5363322,30.1176471 L5.75778547,30.1176471 C5.17608304,30.1176471 4.70588235,30.5383529 4.70588235,31.0588235 C4.70588235,31.5792941 5.17608304,32 5.75778547,32 L21.5363322,32 C22.1180346,32 22.5882353,31.5792941 22.5882353,31.0588235 C22.5882353,30.5383529 22.1180346,30.1176471 21.5363322,30.1176471 Z" id="Path"></path>
                <path d="M21.512605,37.6470588 L1.07563025,37.6470588 C0.480806723,37.6470588 -2.27373675e-13,38.0677647 -2.27373675e-13,38.5882353 C-2.27373675e-13,39.1087059 0.480806723,39.5294118 1.07563025,39.5294118 L21.512605,39.5294118 C22.1074286,39.5294118 22.5882353,39.1087059 22.5882353,38.5882353 C22.5882353,38.0677647 22.1074286,37.6470588 21.512605,37.6470588 Z" id="Path"></path>
                <path d="M21.5215686,45.1764706 L7.65490196,45.1764706 C7.06503529,45.1764706 6.58823529,45.5971765 6.58823529,46.1176471 C6.58823529,46.6381176 7.06503529,47.0588235 7.65490196,47.0588235 L21.5215686,47.0588235 C22.1114353,47.0588235 22.5882353,46.6381176 22.5882353,46.1176471 C22.5882353,45.5971765 22.1114353,45.1764706 21.5215686,45.1764706 Z" id="Path"></path>
                <path d="M21.5424837,52.7058824 L14.2222222,52.7058824 C13.6439216,52.7058824 13.1764706,53.1265882 13.1764706,53.6470588 C13.1764706,54.1675294 13.6439216,54.5882353 14.2222222,54.5882353 L21.5424837,54.5882353 C22.1207843,54.5882353 22.5882353,54.1675294 22.5882353,53.6470588 C22.5882353,53.1265882 22.1207843,52.7058824 21.5424837,52.7058824 Z" id="Path"></path>
            </g>
        </g>
    </g>
</svg>