<?xml version="1.0" encoding="UTF-8"?>
<svg width="64px" height="64px" viewBox="0 0 64 64" version="1.1" xmlns="http://www.w3.org/2000/svg" xmlns:xlink="http://www.w3.org/1999/xlink">
    <!-- Generator: Sketch 60.1 (88133) - https://sketch.com -->
    <title>advantage_4</title>
    <desc>Created with Sketch.</desc>
    <g id="Дизайн" stroke="none" stroke-width="1" fill="none" fill-rule="evenodd">
        <g id="Kit" transform="translate(-880.000000, -2633.000000)" fill="#F37920" fill-rule="nonzero">
            <g id="advantage_4" transform="translate(880.000000, 2633.000000)">
                <path d="M62.9333333,57.6 L59.7333333,57.6 L59.7333333,37.3333333 C59.7329333,36.7442667 59.2549333,36.2670667 58.6658667,36.2674664 C58.3182667,36.2674664 57.9925333,36.4373333 57.7930667,36.7221333 L42.8597333,58.0554667 C42.5221333,58.5382667 42.6398667,59.2033333 43.1226667,59.5408 C43.3017333,59.666 43.5148,59.7332 43.7333333,59.7333333 L57.6,59.7333333 L57.6,62.9333333 C57.6,63.5224 58.0776,64 58.6666667,64 C59.2557333,64 59.7333333,63.5224 59.7333333,62.9333333 L59.7333333,59.7333333 L62.9333333,59.7333333 C63.5224,59.7333333 64,59.2557333 64,58.6666667 C64,58.0776 63.5224,57.6 62.9333333,57.6 Z M57.6,57.6 L45.7813333,57.6 L57.6,40.7168 L57.6,57.6 Z" id="Shape"></path>
                <path d="M43.7333332,61.8666667 L31.1050667,61.8666667 L42.8458667,48.0416 C42.8725333,48.0098667 42.8974667,47.9768 42.9205333,47.9424 C45.1293333,44.6733333 44.3936,40.2473333 41.2458667,37.8688 C37.4185333,35.1188 32.0865333,35.9922667 29.3366667,39.8196 C28.2938667,41.2709333 27.7330667,43.0129333 27.7333332,44.8 C27.7333332,45.3890667 28.2109333,45.8666667 28.8,45.8666667 C29.3890667,45.8666667 29.8666667,45.3890667 29.8666667,44.8 C29.8662667,41.2653333 32.7314667,38.3997333 36.266,38.3993333 C37.6057333,38.3992 38.9117333,38.8194667 40,39.6010667 C42.2049333,41.2905333 42.7184,44.402 41.1733333,46.7104 L27.9872,62.2432 C27.606,62.6924 27.6612,63.3654667 28.1104,63.7466667 C28.3030667,63.9101333 28.5473333,64 28.8,64 L43.7333332,64 C44.3224,64 44.8,63.5224 44.8,62.9333333 C44.8,62.3442667 44.3224,61.8666667 43.7333332,61.8666667 Z" id="Path"></path>
                <path d="M28.8234667,56.5536 C28.8457333,55.9649333 28.3864,55.4697333 27.7977333,55.4474667 C27.7976,55.4474667 27.7974667,55.4474667 27.7973333,55.4474667 C13.8813333,54.9309333 2.71213333,43.7817333 2.17066667,29.8666667 L6.4,29.8666667 C6.98906667,29.8666667 7.46666667,29.3890667 7.46666667,28.8 C7.46666667,28.2109333 6.98906667,27.7333333 6.4,27.7333333 L2.17066667,27.7333333 C2.7044,13.8428 13.8426667,2.70493333 27.7333333,2.17173333 L27.7333333,5.33333333 C27.7333333,5.9224 28.2109333,6.4 28.8,6.4 C29.3890667,6.4 29.8666667,5.9224 29.8666667,5.33333333 L29.8666667,2.17173333 C43.5672,2.7016 54.6248,13.5504 55.4154667,27.2384 L51.2554667,23.0784 C50.8317333,22.6690667 50.1565333,22.6808 49.7472,23.1045333 C49.348,23.5178667 49.348,24.1732 49.7472,24.5866667 L55.7013333,30.5408 C55.8134667,30.6765333 55.958,30.7817333 56.1216,30.8469333 C56.1633333,30.8594667 56.2057333,30.8698667 56.2485333,30.8778667 C56.3217333,30.9042667 56.3974667,30.9225333 56.4746667,30.9322667 C56.4853333,30.9322667 56.4949333,30.9322667 56.5056,30.9322667 C56.5162667,30.9322667 56.5258667,30.9322667 56.5354667,30.9322667 C56.6166667,30.9261333 56.6969333,30.9104 56.7744,30.8853333 C56.8182667,30.88 56.8617333,30.8718667 56.9045333,30.8608 C57.0489333,30.8094667 57.1804,30.7272 57.2896,30.6197333 L63.3248,24.5866667 C63.734,24.1629333 63.7224,23.4877333 63.2986667,23.0784 C62.8853333,22.6792 62.23,22.6792 61.8165333,23.0784 L57.5530667,27.3386667 C56.7910667,12.0493333 44.184,0.0374666667 28.8757333,0.0149333333 C28.8490667,0.0138666667 28.8266667,0 28.8,0 C28.7733333,0 28.7509333,0.0138666667 28.7242667,0.0149333333 C12.8776,0.0366666667 0.0366666667,12.8776 0.0149333333,28.7242667 C0.0149333333,28.7509333 0,28.7733333 0,28.8 C0,28.8266667 0.0138666667,28.8490667 0.0149333333,28.8757333 C0.0414666667,44.3313333 12.2734667,57.0050667 27.7184,57.5797333 L27.7578667,57.5797333 C28.3310667,57.5797333 28.8017333,57.1264 28.8234667,56.5536 Z" id="Path"></path>
                <path d="M43.1306667,14.4693333 C42.7141333,14.0529333 42.0389333,14.0529333 41.6224,14.4693333 L30.16,25.9306667 C29.294,25.5445333 28.3048,25.5445333 27.4389333,25.9306667 L22.0117333,20.5034667 C21.588,20.0942667 20.9126667,20.106 20.5034667,20.5297333 C20.1042667,20.9430667 20.1042667,21.5984 20.5034667,22.0117333 L25.92,27.4282667 C25.1594667,29.0202667 25.8336,30.9274667 27.4257333,31.6878667 C28.6477333,32.2716 30.1050667,32.0213333 31.0624,31.0634667 C32.0249333,30.1090667 32.2728,28.6477333 31.6789333,27.4293333 L43.1306667,15.9776 C43.5470667,15.5610667 43.5470667,14.8858667 43.1306667,14.4693333 Z M29.5544,29.5538667 C29.5542667,29.554 29.5542667,29.554 29.5541333,29.5541333 C29.1322667,29.9574667 28.4677333,29.9574667 28.0458667,29.5541333 C27.6292,29.1376 27.6292,28.4622667 28.0456,28.0456 C28.4621333,27.6289333 29.1374667,27.6289333 29.5541333,28.0453333 C29.9708,28.4618667 29.9708,29.1373333 29.5544,29.5538667 Z" id="Shape"></path>
            </g>
        </g>
    </g>
</svg>