<?xml version="1.0" encoding="UTF-8"?>
<svg width="6px" height="12px" viewBox="0 0 6 12" version="1.1" xmlns="http://www.w3.org/2000/svg" xmlns:xlink="http://www.w3.org/1999/xlink">
    <!-- Generator: Sketch 60.1 (88133) - https://sketch.com -->
    <title>arrow_left</title>
    <desc>Created with Sketch.</desc>
    <g id="Дизайн" stroke="none" stroke-width="1" fill="none" fill-rule="evenodd">
        <g id="Kit" transform="translate(-2167.000000, -2659.000000)" fill="#222222" fill-rule="nonzero">
            <path d="M2167.38251,2670.18033 C2167.33151,2670.18033 2167.28233,2670.17122 2167.23497,2670.15301 C2167.18761,2670.13479 2167.14572,2670.10747 2167.10929,2670.07104 C2167.03643,2669.99818 2167,2669.91075 2167,2669.80874 C2167,2669.70674 2167.03643,2669.61931 2167.10929,2669.54645 L2172.10383,2664.55191 L2167.18579,2659.64481 C2167.11293,2659.57195 2167.0765,2659.4827 2167.0765,2659.37705 C2167.0765,2659.2714 2167.11293,2659.18215 2167.18579,2659.10929 C2167.25865,2659.03643 2167.3479,2659 2167.45355,2659 C2167.5592,2659 2167.64845,2659.03643 2167.72131,2659.10929 L2172.89071,2664.28962 C2172.96357,2664.36248 2173,2664.44991 2173,2664.55191 C2173,2664.65392 2172.96357,2664.74135 2172.89071,2664.81421 L2167.64481,2670.07104 C2167.60838,2670.10747 2167.56648,2670.13479 2167.51913,2670.15301 C2167.47177,2670.17122 2167.42623,2670.18033 2167.38251,2670.18033 Z" id="arrow_left" transform="translate(2170.000000, 2664.590164) scale(-1, 1) translate(-2170.000000, -2664.590164) "></path>
        </g>
    </g>
</svg>