<?xml version="1.0" encoding="UTF-8"?>
<svg width="6px" height="12px" viewBox="0 0 6 12" version="1.1" xmlns="http://www.w3.org/2000/svg" xmlns:xlink="http://www.w3.org/1999/xlink">
    <!-- Generator: Sketch 60.1 (88133) - https://sketch.com -->
    <title>arrow_right</title>
    <desc>Created with Sketch.</desc>
    <g id="Дизайн" stroke="none" stroke-width="1" fill="none" fill-rule="evenodd">
        <g id="Kit" transform="translate(-2233.000000, -2659.000000)" fill="#222222" fill-rule="nonzero">
            <path d="M2233.38251,2670.18033 C2233.33151,2670.18033 2233.28233,2670.17122 2233.23497,2670.15301 C2233.18761,2670.13479 2233.14572,2670.10747 2233.10929,2670.07104 C2233.03643,2669.99818 2233,2669.91075 2233,2669.80874 C2233,2669.70674 2233.03643,2669.61931 2233.10929,2669.54645 L2238.10383,2664.55191 L2233.18579,2659.64481 C2233.11293,2659.57195 2233.0765,2659.4827 2233.0765,2659.37705 C2233.0765,2659.2714 2233.11293,2659.18215 2233.18579,2659.10929 C2233.25865,2659.03643 2233.3479,2659 2233.45355,2659 C2233.5592,2659 2233.64845,2659.03643 2233.72131,2659.10929 L2238.89071,2664.28962 C2238.96357,2664.36248 2239,2664.44991 2239,2664.55191 C2239,2664.65392 2238.96357,2664.74135 2238.89071,2664.81421 L2233.64481,2670.07104 C2233.60838,2670.10747 2233.56648,2670.13479 2233.51913,2670.15301 C2233.47177,2670.17122 2233.42623,2670.18033 2233.38251,2670.18033 Z" id="arrow_right"></path>
        </g>
    </g>
</svg>