<?xml version="1.0" encoding="UTF-8"?>
<svg width="13px" height="8px" viewBox="0 0 13 8" version="1.1" xmlns="http://www.w3.org/2000/svg" xmlns:xlink="http://www.w3.org/1999/xlink">
    <!-- Generator: Sketch 60.1 (88133) - https://sketch.com -->
    <title>arrow_down</title>
    <desc>Created with Sketch.</desc>
    <g id="Дизайн" stroke="none" stroke-width="1" fill="none" fill-rule="evenodd">
        <g id="Kit" transform="translate(-2664.000000, -2661.000000)" fill="#F37920" fill-rule="nonzero">
            <path d="M2667.69627,2671 C2667.74727,2671 2667.8004,2670.99022 2667.85565,2670.97067 C2667.9109,2670.95112 2667.95978,2670.9218 2668.00228,2670.8827 L2668.00228,2670.8827 L2674.1225,2665.24047 C2674.2075,2665.16227 2674.25,2665.06843 2674.25,2664.95894 C2674.25,2664.84946 2674.2075,2664.75562 2674.1225,2664.67742 L2674.1225,2664.67742 L2668.09153,2659.1173 C2668.00653,2659.0391 2667.9024,2659 2667.77915,2659 C2667.65589,2659 2667.55176,2659.0391 2667.46676,2659.1173 C2667.38176,2659.1955 2667.33925,2659.2913 2667.33925,2659.40469 C2667.33925,2659.51808 2667.38176,2659.61388 2667.46676,2659.69208 L2667.46676,2659.69208 L2673.20446,2664.95894 L2667.37751,2670.31965 C2667.2925,2670.39785 2667.25,2670.49169 2667.25,2670.60117 C2667.25,2670.71065 2667.2925,2670.8045 2667.37751,2670.8827 C2667.42001,2670.9218 2667.46888,2670.95112 2667.52414,2670.97067 C2667.57939,2670.99022 2667.63677,2671 2667.69627,2671 Z" id="arrow_down" transform="translate(2670.750002, 2665.000000) rotate(-270.000000) translate(-2670.750002, -2665.000000) "></path>
        </g>
    </g>
</svg>