<?xml version="1.0" encoding="UTF-8"?>
<svg width="25px" height="25px" viewBox="0 0 25 25" version="1.1" xmlns="http://www.w3.org/2000/svg" xmlns:xlink="http://www.w3.org/1999/xlink">
    <!-- Generator: Sketch 60.1 (88133) - https://sketch.com -->
    <title>facebook</title>
    <desc>Created with Sketch.</desc>
    <g id="Дизайн" stroke="none" stroke-width="1" fill="none" fill-rule="evenodd">
        <g id="Kit" transform="translate(-1774.000000, -2653.000000)" fill="#FFFFFF" fill-rule="nonzero">
            <path d="M1777.66211,2678 L1785.81641,2678 L1785.81641,2669.11328 L1782.88672,2669.11328 L1782.88672,2666.18359 L1785.81641,2666.18359 L1785.81641,2662.52148 C1785.81641,2660.50217 1787.45921,2658.85938 1789.47852,2658.85938 L1793.14062,2658.85938 L1793.14062,2661.78906 L1790.21094,2661.78906 C1789.40318,2661.78906 1788.74609,2662.44614 1788.74609,2663.25391 L1788.74609,2666.18359 L1793.00845,2666.18359 L1792.52016,2669.11328 L1788.74609,2669.11328 L1788.74609,2678 L1795.33789,2678 C1797.3572,2678 1799,2676.3572 1799,2674.33789 L1799,2656.66211 C1799,2654.6428 1797.3572,2653 1795.33789,2653 L1777.66211,2653 C1775.6428,2653 1774,2654.6428 1774,2656.66211 L1774,2674.33789 C1774,2676.3572 1775.6428,2678 1777.66211,2678 Z M1775.46484,2656.66211 C1775.46484,2655.45056 1776.45056,2654.46484 1777.66211,2654.46484 L1795.33789,2654.46484 C1796.54944,2654.46484 1797.53516,2655.45056 1797.53516,2656.66211 L1797.53516,2674.33789 C1797.53516,2675.54944 1796.54944,2676.53516 1795.33789,2676.53516 L1790.21094,2676.53516 L1790.21094,2670.57812 L1793.76109,2670.57812 L1794.73765,2664.71875 L1790.21094,2664.71875 L1790.21094,2663.25391 L1794.60547,2663.25391 L1794.60547,2657.39453 L1789.47852,2657.39453 C1786.65144,2657.39453 1784.35156,2659.69441 1784.35156,2662.52148 L1784.35156,2664.71875 L1781.42188,2664.71875 L1781.42188,2670.57812 L1784.35156,2670.57812 L1784.35156,2676.53516 L1777.66211,2676.53516 C1776.45056,2676.53516 1775.46484,2675.54944 1775.46484,2674.33789 L1775.46484,2656.66211 Z" id="facebook"></path>
        </g>
    </g>
</svg>