<svg xmlns="http://www.w3.org/2000/svg" width="30" height="30" viewBox="0 0 30 30"><defs><clipPath id="v6fma"><path fill="#fff" d="M25.944 0H4.04A4.04 4.04 0 0 0 0 4.04v21.904a4.04 4.04 0 0 0 4.04 4.04h10.803l.018-10.714h-2.783a.657.657 0 0 1-.657-.655l-.013-3.454a.657.657 0 0 1 .656-.659h2.78v-3.337c0-3.873 2.364-5.982 5.82-5.982h2.834c.363 0 .657.294.657.657v2.912a.657.657 0 0 1-.656.657h-1.74c-1.88 0-2.243.894-2.243 2.204v2.89h4.129c.393 0 .698.343.652.733l-.41 3.454c-.039.33-.319.58-.652.58h-3.7l-.019 10.714h6.428a4.04 4.04 0 0 0 4.04-4.04V4.04A4.04 4.04 0 0 0 25.944 0z"/></clipPath></defs><g><g><g><path fill="none" stroke="#d8d8d8" stroke-miterlimit="50" stroke-width="3" d="M25.944 0H4.04A4.04 4.04 0 0 0 0 4.04v21.904a4.04 4.04 0 0 0 4.04 4.04h10.803v0l.018-10.714v0h-2.783a.657.657 0 0 1-.657-.655l-.013-3.454a.657.657 0 0 1 .656-.659h2.78v0-3.337c0-3.873 2.364-5.982 5.82-5.982h2.834c.363 0 .657.294.657.657v2.912a.657.657 0 0 1-.656.657h-1.74c-1.88 0-2.243.894-2.243 2.204v2.89h4.129c.393 0 .698.343.652.733l-.41 3.454c-.039.33-.319.58-.652.58h-3.7v0l-.019 10.714v0h6.428a4.04 4.04 0 0 0 4.04-4.04V4.04A4.04 4.04 0 0 0 25.944 0z" clip-path="url(&quot;#v6fma&quot;)"/></g></g></g></svg>