<svg xmlns="http://www.w3.org/2000/svg" width="81" height="50" viewBox="0 0 81 50"><defs><clipPath id="lpsia"><path d="M.5 50.002h80.19V.49H.5z"/></clipPath></defs><g><g><g><path fill="#fff" d="M.5 16.88v18.831h11.039v-3.98h-6.59v-3.586h6.398v-3.98H4.948V20.86h6.591V16.88z"/></g><g><path fill="#fff" d="M25.768 35.599H14.14V16.88h4.606v14.762h5.515V16.88h4.606v14.762h1.507v6.667h-4.606z"/></g><g><path fill="#fff" d="M41.438 35.711l-3.598-6.889-1.136 1.976v4.913H32.32V16.88h4.384v7.962l4.463-7.962h5.087l-5.655 8.809 6.007 10.022z"/></g><g><path fill="#fff" d="M.5 10.39v3.247h1.948v-.326h-1.36v-1.173h1.305v-.326H1.088v-1.096h1.36v-.326z"/></g><g><g><path fill="#fff" d="M2.4 13.28c.253-.04.406-.122.484-1.303l.113-1.787H4.23v3.054h.308v.967h-.39v-.625H2.785v.625H2.4zm1.445-.036v-2.713h-.483l-.098 1.481c-.046.667-.16 1.034-.329 1.232z"/></g><g><path fill="#fff" d="M4.97 13.585V10.19h.39v2.398l.818-2.398h.386v3.395h-.386v-2.443l-.838 2.443z"/></g><g><path fill="#fff" d="M8.418 13.585v-1.573h-.823v1.573H7.21V10.19h.385v1.476h.823V10.19h.385v3.395z"/></g><g/><g clip-path="url(#lpsia)"><path fill="#fff" d="M9.836 10.19v1.37h.318c.566 0 .817.468.817 1.013 0 .544-.251 1.013-.817 1.013H9.45V10.19zm0 1.711v1.343h.278c.3 0 .447-.28.447-.671 0-.392-.148-.672-.447-.672zm1.473-1.711h.38v3.395h-.38z"/></g><g clip-path="url(#lpsia)"><path fill="#fff" d="M12.34 13.573v-3.385h.391v2.39l.817-2.39h.386v3.385h-.386v-2.436l-.838 2.436zm.18-3.96l.185-.143a.535.535 0 0 0 .427.224.52.52 0 0 0 .427-.224l.185.143a.757.757 0 0 1-1.224 0z"/></g><g clip-path="url(#lpsia)"><path fill="#fff" d="M16.982 13.585H15.47V10.19h.386v3.054h.822V10.19h.386v3.054h.308v.967h-.39z"/></g><g clip-path="url(#lpsia)"><path fill="#fff" d="M17.81 13.585V10.19h1.275v.34h-.89v1.147h.854v.34h-.853v1.227h.889v.341z"/></g><g clip-path="url(#lpsia)"><path fill="#fff" d="M20.828 13.585v-1.573h-.822v1.573h-.386V10.19h.386v1.476h.822V10.19h.385v3.395z"/></g><g clip-path="url(#lpsia)"><path fill="#fff" d="M22.17 13.585v-3.054h-.54v-.341h1.47v.34h-.54v3.055z"/></g><g clip-path="url(#lpsia)"><path fill="#fff" d="M23.51 13.585V10.19h.704c.566 0 .818.468.818 1.013 0 .544-.252 1.013-.818 1.013h-.318v1.37zm.664-3.054h-.278v1.344h.278c.3 0 .447-.28.447-.672s-.147-.672-.447-.672z"/></g><g clip-path="url(#lpsia)"><path fill="#fff" d="M27.702 13.585l-.705-1.471-.231.438v1.033h-.386V10.19h.386v1.766l.879-1.766h.437l-.869 1.613.936 1.782z"/></g><g clip-path="url(#lpsia)"><path fill="#fff" d="M29.644 13.585l-.139-.779h-.73l-.139.78h-.396l.674-3.396h.447l.679 3.395zm-.504-2.937l-.319 1.817h.638z"/></g><g clip-path="url(#lpsia)"><path fill="#fff" d="M30.17 13.28c.253-.04.407-.122.484-1.303l.113-1.787h1.234v3.054h.308v.967h-.39v-.625h-1.363v.625h-.386zm1.445-.036v-2.713h-.483l-.098 1.481c-.046.667-.16 1.034-.329 1.232z"/></g><g clip-path="url(#lpsia)"><path fill="#fff" d="M33.854 13.585l-.139-.779h-.73l-.139.78h-.396l.674-3.396h.447l.679 3.395zm-.504-2.937l-.32 1.817h.639z"/></g><g clip-path="url(#lpsia)"><path fill="#fff" d="M34.51 11.887c0-.988.253-1.757.895-1.757.437 0 .612.336.71.652l-.32.122c-.082-.265-.174-.428-.39-.428-.36 0-.493.611-.493 1.41 0 .8.133 1.41.493 1.41.242 0 .34-.223.4-.514l.325.118c-.087.366-.273.743-.725.743-.643 0-.895-.768-.895-1.756"/></g><g clip-path="url(#lpsia)"><path fill="#fff" d="M36.92 13.585v-3.054h-.54v-.341h1.47v.34h-.54v3.055z"/></g><g clip-path="url(#lpsia)"><path fill="#fff" d="M38.27 13.585V10.19h.704c.566 0 .818.468.818 1.013 0 .544-.252 1.013-.818 1.013h-.318v1.37zm.664-3.054h-.278v1.344h.278c.3 0 .447-.28.447-.672s-.147-.672-.447-.672z"/></g><g clip-path="url(#lpsia)"><path fill="#fff" d="M40.16 11.887c0-.967.241-1.757.895-1.757.647 0 .894.79.894 1.757 0 .967-.247 1.756-.894 1.756-.654 0-.895-.79-.895-1.756m1.388 0c0-.77-.129-1.41-.493-1.41-.37 0-.494.64-.494 1.41 0 .758.123 1.41.494 1.41.364 0 .493-.652.493-1.41"/></g><g clip-path="url(#lpsia)"><path fill="#fff" d="M42.49 13.585V10.19h.74c.484 0 .74.346.74.865 0 .428-.174.683-.447.779.298.051.494.433.494.835 0 .555-.232.916-.756.916zm.663-3.054h-.277v1.146h.277c.314 0 .417-.245.417-.57 0-.322-.103-.576-.417-.576zm.02 1.486h-.297v1.217h.298c.313 0 .442-.232.442-.606 0-.323-.129-.61-.442-.61z"/></g><g clip-path="url(#lpsia)"><path fill="#fff" d="M44.946 10.19v1.37h.319c.565 0 .817.468.817 1.013 0 .544-.252 1.013-.817 1.013h-.705V10.19zm0 1.711v1.343h.278c.3 0 .447-.28.447-.671 0-.392-.147-.672-.447-.672zm1.473-1.711h.38v3.395h-.38z"/></g><g clip-path="url(#lpsia)"><path fill="#fff" d="M48.574 13.585l-.498-1.364-.5 1.364h-.426l.705-1.725-.669-1.67h.432l.458 1.308.457-1.308h.433l-.67 1.665.71 1.73z"/></g><g clip-path="url(#lpsia)"><path fill="#fff" d="M50.23 13.585V10.19h.704c.566 0 .818.468.818 1.013 0 .544-.252 1.013-.818 1.013h-.318v1.37zm.664-3.054h-.278v1.344h.278c.3 0 .447-.28.447-.672s-.147-.672-.447-.672z"/></g><g clip-path="url(#lpsia)"><path fill="#fff" d="M53.334 13.585l-.14-.779h-.73l-.138.78h-.396l.673-3.396h.448l.679 3.395zm-.504-2.937l-.32 1.817h.639z"/></g><g clip-path="url(#lpsia)"><path fill="#fff" d="M55.437 10.19v.34h-.961v1.029h.319c.565 0 .817.468.817 1.013 0 .545-.252 1.013-.817 1.013h-.705V10.19zm-.961 1.71v1.344h.278c.3 0 .447-.28.447-.672s-.147-.672-.447-.672z"/></g><g clip-path="url(#lpsia)"><path fill="#fff" d="M55.97 11.887c0-.967.241-1.757.895-1.757.647 0 .894.79.894 1.757 0 .967-.247 1.756-.894 1.756-.654 0-.895-.79-.895-1.756m1.388 0c0-.77-.129-1.41-.493-1.41-.37 0-.494.64-.494 1.41 0 .758.123 1.41.494 1.41.364 0 .493-.652.493-1.41"/></g><g clip-path="url(#lpsia)"><path fill="#fff" d="M58.62 13.585v-3.054h-.54v-.341h1.47v.34h-.54v3.055z"/></g><g clip-path="url(#lpsia)"><path fill="#fff" d="M64.28 8.891h6.297V7.85H64.28z"/></g><g clip-path="url(#lpsia)"><path fill="#fff" d="M64.28 6.516h6.297V4.14H64.28z"/></g><g clip-path="url(#lpsia)"><path fill="#fff" d="M64.95 10.071h4.955V9.03H64.95z"/></g><g clip-path="url(#lpsia)"><path fill="#fff" d="M65.63 11.498h3.601V10.21H65.63z"/></g><g clip-path="url(#lpsia)"><path fill="#fff" d="M65.63 31.968h3.601V30.68H65.63z"/></g><g clip-path="url(#lpsia)"><path fill="#fff" d="M66.62 30.536h1.613V21.91H66.62z"/></g><g clip-path="url(#lpsia)"><path fill="#fff" d="M66.33 42.858h2.191V32.11H66.33z"/></g><g clip-path="url(#lpsia)"><path fill="#fff" d="M66.633 43.693L66.33 43h2.191l-.302.693z"/></g><g clip-path="url(#lpsia)"><path fill="#fff" d="M64.95 7.701h4.955V6.66H64.95z"/></g><g clip-path="url(#lpsia)"><path fill="#fff" d="M67.432 1.15c-.751 0-1.362.574-1.362 1.28 0 .705.61 1.28 1.362 1.28.75 0 1.361-.575 1.361-1.28 0-.706-.61-1.28-1.361-1.28"/></g><g clip-path="url(#lpsia)"><path fill="#fff" d="M69.46 3.756c0 .215.186.39.415.39H64.99c.23 0 .414-.175.414-.39v-1.28c0-1.044.856-1.953 1.966-1.985 1.149-.032 2.09.833 2.09 1.905v1.36m-2.028.085c.835 0 1.514-.636 1.514-1.418 0-.781-.68-1.417-1.514-1.417-.833 0-1.513.636-1.513 1.417 0 .782.68 1.418 1.513 1.418"/></g><g clip-path="url(#lpsia)"><path fill="#fff" d="M63.818 5.522h-.169a.317.317 0 0 1-.319-.315v-.752c0-.174.143-.315.319-.315h.169c.176 0 .318.141.318.315v.752a.316.316 0 0 1-.318.315"/></g><g clip-path="url(#lpsia)"><path fill="#fff" d="M71.218 5.522h-.169a.317.317 0 0 1-.319-.315v-.752c0-.174.143-.315.319-.315h.169c.176 0 .318.141.318.315v.752a.316.316 0 0 1-.318.315"/></g><g clip-path="url(#lpsia)"><path fill="#fff" d="M69.874 3.172h-.291V2.22h.291c.143 0 .259.11.259.243v.466c0 .134-.116.243-.259.243"/></g><g clip-path="url(#lpsia)"><path fill="#fff" d="M65.71 30.531h.756V11.64h-.756z"/></g><g clip-path="url(#lpsia)"><path fill="#fff" d="M68.38 30.531h.756V11.64h-.756z"/></g><g clip-path="url(#lpsia)"><path fill="#fff" d="M69.655 31.697h-.094a.177.177 0 0 1-.177-.175v-.407c0-.096.08-.175.177-.175h.094c.098 0 .177.079.177.175v.407c0 .097-.08.175-.177.175"/></g><g clip-path="url(#lpsia)"><path fill="#fff" d="M66.35 45.407h2.179v-.524H66.35z"/></g><g clip-path="url(#lpsia)"><path fill="#fff" d="M54.18 40.294h2.179v-.378H54.18z"/></g><g clip-path="url(#lpsia)"><path fill="#fff" d="M65.48 10.21h-.806l-.554 1.288h1.36z"/></g><g clip-path="url(#lpsia)"><path fill="#fff" d="M65.557 11.73L60 28.494l.806-.076 4.751-14.013z"/></g><g clip-path="url(#lpsia)"><path fill="#fff" d="M64.081 11.64h.868l-5.734 16.916-.915.086z"/></g><g clip-path="url(#lpsia)"><path fill="#fff" d="M58.244 28.807l2.56-.237-.44 1.366-2.624.283z"/></g><g clip-path="url(#lpsia)"><path fill="#fff" d="M58.015 30.336l-2.955 8.38v1.058h1.285l3.484-9.634z"/></g><g clip-path="url(#lpsia)"><path fill="#fff" d="M54.859 40.44l-.689 1.956.344 2.415 1.58-4.371z"/></g><g clip-path="url(#lpsia)"><path fill="#fff" d="M61.934 21.01h.41l-2.504 7.484-.48.075z"/></g><g clip-path="url(#lpsia)"><path fill="#fff" d="M78.51 40.294h2.179v-.378H78.51z"/></g><g clip-path="url(#lpsia)"><path fill="#fff" d="M69.38 10.21h.806l.554 1.288h-1.36z"/></g><g clip-path="url(#lpsia)"><path fill="#fff" d="M69.31 11.73l5.557 16.764-.805-.076-4.752-14.013z"/></g><g clip-path="url(#lpsia)"><path fill="#fff" d="M70.778 11.64h-.868l5.734 16.916.915.086z"/></g><g clip-path="url(#lpsia)"><path fill="#fff" d="M76.62 28.807l-2.56-.237.44 1.366 2.624.283z"/></g><g clip-path="url(#lpsia)"><path fill="#fff" d="M76.844 30.336l2.955 8.38v1.058h-1.285L75.03 30.14z"/></g><g clip-path="url(#lpsia)"><path fill="#fff" d="M80.006 40.44l.689 1.956-.345 2.415-1.58-4.371z"/></g><g clip-path="url(#lpsia)"><path fill="#fff" d="M72.92 21.01h-.41l2.505 7.484.48.075z"/></g><g clip-path="url(#lpsia)"><path fill="#fff" d="M66.79 44.737h1.28v-.907h-1.28z"/></g><g clip-path="url(#lpsia)"><path fill="#fff" d="M66.79 45.55v2.182L67.43 50l.64-2.267V45.55z"/></g><g clip-path="url(#lpsia)"><path fill="#fff" d="M64.846 3.187h.405v-.701c0-.448.153-.87.412-1.216h-.817c-.351 0-.636.267-.636.597v.723c0 .33.285.597.636.597"/></g><g clip-path="url(#lpsia)"><path fill="#fff" d="M58.146 28.154c-.804.373-1.755.59-2.867.59h-2.945v6.303H47.83V16.69h7.45c2.92 0 4.768 1.477 5.57 3.523zm-3.422-3.29c1.195 0 2.03-.798 2.03-2.147 0-1.348-.835-2.147-2.03-2.147h-2.39v4.294z"/></g></g></g></g></svg>