<svg xmlns="http://www.w3.org/2000/svg" width="64" height="35" viewBox="0 0 64 35"><g><g><g><path fill="#252525" d="M8.121 27.991a1.12 1.12 0 0 0-.321.792c0 .315.11.579.321.79.226.227.496.342.811.342.302 0 .565-.115.791-.341.213-.212.322-.476.322-.791 0-.302-.11-.566-.322-.792a1.109 1.109 0 0 0-.79-.301c-.33 0-.6.103-.812.301z"/></g><g><path fill="#e2a917" d="M12.475.315h18.1v29.497h-18.1zM30.892.01H12.17v30.118h18.722z"/></g><g><g><path fill="#00000b" d="M12.338 29.96V18.62h11.34v11.34zm-.028.028h11.398V18.59H12.31z"/></g><g><path fill="#e2a917" d="M12.416 18.698h11.195v11.193H12.416zm11.369 11.369V18.52H12.24v11.547z"/></g></g><g><g><path fill="#00000b" d="M26.43 22.905v-4.287h4.297v4.287zm-.03.04h4.355V18.59H26.4z"/></g><g><path fill="#e2a917" d="M26.506 18.695h4.15v4.148h-4.15zm4.325-.175H26.33v4.501h4.501z"/></g></g><g><g><path fill="#00000b" d="M23.738 22.905v-4.287h6.988v4.287zm-.028.04h7.044V18.59H23.71z"/></g><g><path fill="#e2a917" d="M23.815 18.695h6.85v4.148h-6.85zm7.015-.175h-7.19v4.501h7.19z"/></g></g><g><g><path fill="#00000b" d="M23.738 22.904v-1.596h2.633v1.596zm-.028.04h2.69V21.28h-2.69z"/></g><g><path fill="#e2a917" d="M23.814 21.383h2.487v1.459h-2.486zm2.664-.173H23.64v1.81h2.838z"/></g></g><g><g><path fill="#00000b" d="M25.398 22.917v-.971h.971v.971zm-.028.03h1.027V21.92H25.37z"/></g><g><path fill="#e2a917" d="M25.475 22.02h.835v.836h-.835zm.999-.17H25.3v1.174h1.174z"/></g></g><g><g><path fill="#00000b" d="M25.824 22.266v-.922h.922v.922zm-.044.034h1v-1h-1z"/></g><g><path fill="#e2a917" d="M25.913 21.43h.564v.554h-.564zm.777-.22h-1v1h1z"/></g></g><g><g><path fill="#00000b" d="M25.51 22.266v-.922h.854v.922zm-.07.034h1v-1h-1z"/></g><g><path fill="#e2a917" d="M25.634 21.43h.349v.554h-.35zm.676-.22h-1v1h1z"/></g></g><g><path fill="#e2a917" d="M30.655 29.913a.048.048 0 0 1-.025.042c-.024.013-.053.007-.066-.015l-.002-.005c-.014-.024-.007-.053.015-.066.025-.014.053-.007.067.015l.004.005a.045.045 0 0 1 .007.024zm-.15-.248c0 .02-.007.035-.02.042a.05.05 0 0 1-.07-.016l-.004-.005c-.014-.023-.005-.05.018-.065.023-.014.055-.005.069.019a.048.048 0 0 1 .007.025zm-.154-.25a.057.057 0 0 1-.022.042c-.024.014-.053.007-.066-.015l-.005-.005c-.013-.024-.006-.053.016-.066.024-.013.053-.007.066.016l.005.004a.045.045 0 0 1 .006.024zm-.15-.247c0 .016-.009.035-.02.042a.05.05 0 0 1-.069-.017l-.004-.004c-.014-.024-.005-.052.018-.066.023-.014.055-.004.068.019a.048.048 0 0 1 .007.026zm-.153-.252a.047.047 0 0 1-.024.042c-.025.013-.054.006-.067-.016l-.002-.004c-.013-.025-.007-.053.015-.067.025-.013.054-.006.067.016l.004.004a.045.045 0 0 1 .007.025zm-.15-.246c0 .016-.01.033-.02.042a.05.05 0 0 1-.07-.016l-.004-.005c-.013-.023-.004-.051.019-.065.022-.014.054-.005.068.018a.048.048 0 0 1 .007.026zm-.153-.248a.05.05 0 0 1-.02.042.05.05 0 0 1-.069-.016l-.004-.005c-.014-.023-.005-.051.018-.065.023-.014.055-.005.068.018a.048.048 0 0 1 .007.026zm-.153-.252c0 .017-.006.035-.02.042a.05.05 0 0 1-.069-.016l-.004-.005c-.014-.023-.005-.051.018-.065.023-.014.055-.005.069.019a.048.048 0 0 1 .006.025zm-.152-.248a.05.05 0 0 1-.02.042c-.026.014-.056.007-.07-.016l-.004-.005c-.014-.023-.004-.05.018-.065.023-.014.055-.005.069.019a.048.048 0 0 1 .007.025zm-.151-.25c0 .02-.01.035-.023.042a.05.05 0 0 1-.068-.016l-.003-.005c-.013-.023-.004-.05.019-.065.023-.014.055-.004.068.019a.048.048 0 0 1 .007.026zm-.153-.247c0 .016-.009.032-.02.042-.025.014-.055.007-.069-.017l-.004-.004c-.014-.024-.005-.052.018-.066.023-.014.055-.004.068.019a.048.048 0 0 1 .007.026zm-.155-.252c0 .015-.007.033-.022.042-.024.013-.053.006-.067-.016l-.004-.004c-.013-.025-.007-.053.016-.067.024-.013.053-.006.066.016l.005.004a.045.045 0 0 1 .006.025zm-.148-.248c0 .019-.01.035-.02.042-.026.014-.055.007-.069-.016l-.005-.005c-.013-.023-.004-.051.019-.065.022-.014.054-.005.068.018a.048.048 0 0 1 .007.026zm-.153-.25c0 .015-.01.03-.02.042-.026.013-.055.007-.069-.016l-.004-.004c-.014-.024-.007-.053.016-.066.025-.014.054-.007.068.015l.002.004a.044.044 0 0 1 .007.025zm-.152-.246a.047.047 0 0 1-.023.042.048.048 0 0 1-.066-.016l-.005-.005c-.014-.023-.005-.051.018-.065.023-.014.055-.005.069.019a.048.048 0 0 1 .007.025zm-.156-.253c0 .018-.006.036-.022.041-.024.014-.053.007-.066-.016l-.005-.004a.048.048 0 0 1 .016-.066c.024-.014.053-.007.066.016l.005.004a.046.046 0 0 1 .006.025zm-.148-.247c0 .017-.009.033-.023.042a.05.05 0 0 1-.068-.016l-.002-.005c-.014-.023-.005-.05.018-.065.023-.014.055-.005.068.019a.048.048 0 0 1 .007.025zm-.153-.248c0 .016-.009.032-.022.042-.025.014-.055.007-.069-.016l-.002-.005c-.014-.023-.005-.05.018-.065.023-.016.055-.004.069.019a.047.047 0 0 1 .006.025zm-.152-.25c0 .017-.01.033-.02.043-.026.014-.056.007-.07-.017l-.004-.004c-.013-.024-.004-.052.018-.066.023-.014.055-.004.069.02a.048.048 0 0 1 .007.025zm-.15-.25c0 .017-.01.036-.024.043-.025.014-.055.007-.068-.016l-.002-.005c-.014-.023-.005-.051.018-.065.023-.014.055-.005.068.018a.048.048 0 0 1 .007.026zm-.156-.251a.047.047 0 0 1-.025.042.047.047 0 0 1-.064-.016l-.004-.004c-.014-.024-.007-.053.015-.067.025-.013.053-.006.067.016l.004.004a.045.045 0 0 1 .007.025zm-.15-.246a.05.05 0 0 1-.02.042c-.026.014-.056.007-.07-.016l-.004-.005c-.014-.023-.004-.051.018-.065.023-.014.055-.005.069.018a.048.048 0 0 1 .007.026zm-.155-.25a.048.048 0 0 1-.025.042c-.024.013-.053.007-.066-.015l-.003-.005c-.013-.024-.006-.053.016-.066.024-.014.053-.007.066.015l.005.005a.045.045 0 0 1 .007.024zm-.15-.25c0 .021-.008.038-.021.042-.025.014-.055.007-.069-.016l-.004-.005c-.014-.023-.005-.05.018-.065.023-.014.055-.005.068.019a.048.048 0 0 1 .007.025zm-.154-.25a.057.057 0 0 1-.022.042c-.024.014-.053.007-.067-.015l-.004-.005c-.013-.024-.007-.053.015-.066.025-.013.054-.007.067.015l.004.005a.045.045 0 0 1 .007.024zm-.15-.245c0 .016-.01.032-.02.042-.026.014-.055.007-.07-.017l-.004-.004c-.013-.024-.004-.052.019-.066.022-.014.054-.004.068.019a.048.048 0 0 1 .007.026zm-.153-.25c0 .016-.009.032-.02.042a.05.05 0 0 1-.069-.017l-.004-.004c-.014-.024-.005-.052.018-.065.023-.014.055-.005.068.018a.048.048 0 0 1 .007.026zm-.15-.25c0 .019-.01.035-.021.042a.05.05 0 0 1-.068-.016l-.005-.005c-.014-.023-.005-.051.018-.065.023-.014.055-.005.069.018a.048.048 0 0 1 .007.026zm-.153-.248a.05.05 0 0 1-.02.042.05.05 0 0 1-.07-.016l-.004-.005c-.013-.023-.004-.051.019-.065.022-.014.054-.005.068.018a.048.048 0 0 1 .007.026zm-.153-.25a.05.05 0 0 1-.02.042.05.05 0 0 1-.069-.016l-.004-.005c-.014-.023-.005-.051.018-.065.023-.014.055-.005.068.019a.048.048 0 0 1 .007.025zm-.153-.248a.05.05 0 0 1-.02.042c-.025.014-.055.007-.069-.016L26 22.464c-.014-.023-.005-.051.018-.065.023-.014.055-.005.069.019a.048.048 0 0 1 .006.025zm-.153-.254c0 .02-.009.036-.022.042-.024.014-.053.007-.066-.015l-.005-.005c-.013-.024-.007-.053.016-.066.024-.013.053-.007.066.015l.005.005a.045.045 0 0 1 .006.024zm-.15-.245c0 .016-.01.032-.02.042a.05.05 0 0 1-.069-.017l-.005-.004c-.013-.024-.004-.052.019-.066.023-.014.054-.004.068.019a.048.048 0 0 1 .007.026zm-.153-.25c0 .015-.01.03-.023.042-.025.013-.054.006-.068-.016l-.002-.004c-.014-.025-.007-.054.016-.067a.049.049 0 0 1 .066.016l.004.004a.044.044 0 0 1 .007.024zm-.15-.248c0 .019-.01.035-.02.042-.026.014-.056.007-.07-.016l-.004-.005c-.014-.023-.004-.051.018-.065.023-.014.055-.005.069.018a.048.048 0 0 1 .007.026zm-.156-.252c0 .017-.006.033-.022.042-.024.013-.053.006-.066-.016l-.005-.004c-.013-.024-.006-.053.016-.067.024-.013.053-.006.066.016l.005.004a.045.045 0 0 1 .006.025zm-.15-.246a.05.05 0 0 1-.02.042c-.025.014-.055.007-.069-.016l-.004-.005c-.014-.023-.005-.051.018-.065.023-.014.055-.005.068.019a.048.048 0 0 1 .007.025zm-.152-.25a.05.05 0 0 1-.021.042.05.05 0 0 1-.068-.016l-.005-.005c-.014-.023-.005-.051.018-.065.023-.014.055-.005.069.019a.048.048 0 0 1 .007.025zm-.151-.248c0 .017-.01.033-.02.042a.05.05 0 0 1-.07-.016l-.004-.005c-.013-.023-.004-.05.019-.065.022-.014.054-.005.068.019a.048.048 0 0 1 .007.025zm-.153-.251c0 .02-.009.037-.02.042a.05.05 0 0 1-.069-.017l-.004-.004c-.014-.024-.005-.052.018-.066.023-.014.055-.004.068.019a.048.048 0 0 1 .007.026zm-.153-.248c0 .016-.009.032-.02.042-.025.014-.055.007-.069-.017l-.004-.004c-.014-.024-.005-.052.018-.066.023-.014.055-.004.069.019a.048.048 0 0 1 .006.026zm-.152-.248c0 .016-.01.032-.02.042-.026.014-.056.007-.07-.017l-.004-.004c-.013-.024-.004-.051.018-.065.023-.014.055-.005.069.018a.048.048 0 0 1 .007.026zm-.15-.251c0 .018-.009.034-.023.04a.05.05 0 0 1-.067-.015l-.002-.005a.047.047 0 0 1 .016-.065.05.05 0 0 1 .067.015l.003.005a.045.045 0 0 1 .007.025zm-.154-.249c0 .019-.006.035-.02.042-.025.014-.055.007-.069-.016l-.004-.005c-.014-.023-.005-.051.018-.065.023-.014.055-.005.069.018a.048.048 0 0 1 .006.026zm-.155-.249a.046.046 0 0 1-.022.04c-.024.014-.053.008-.067-.015l-.004-.004a.048.048 0 0 1 .016-.066c.024-.014.053-.007.066.016l.005.004a.046.046 0 0 1 .006.025zm-.148-.249c0 .017-.01.033-.02.042a.05.05 0 0 1-.069-.016l-.005-.005c-.013-.023-.004-.05.019-.065.023-.014.054-.005.068.019a.048.048 0 0 1 .007.025zm-.153-.25c0 .016-.01.031-.023.042a.048.048 0 0 1-.066-.015l-.004-.005c-.014-.024-.007-.053.016-.066.025-.013.054-.007.068.015l.002.005a.044.044 0 0 1 .007.024zm-.152-.245c0 .016-.01.032-.02.042a.05.05 0 0 1-.07-.017l-.004-.004c-.014-.024-.005-.052.018-.066.023-.014.055-.004.069.019a.048.048 0 0 1 .007.026zm-.153-.252c0 .016-.01.032-.02.042a.05.05 0 0 1-.07-.017l-.004-.004c-.013-.024-.004-.052.019-.066.022-.014.054-.004.068.02a.048.048 0 0 1 .007.025zm-.15-.248c0 .016-.01.033-.021.042a.05.05 0 0 1-.069-.016l-.004-.005c-.014-.023-.005-.051.018-.065.023-.014.055-.005.068.018a.048.048 0 0 1 .007.026zm-.153-.25c0 .019-.007.035-.023.042a.05.05 0 0 1-.069-.016l-.002-.005c-.014-.023-.005-.051.018-.065.023-.014.055-.005.069.018a.048.048 0 0 1 .007.026zm-.156-.25a.048.048 0 0 1-.024.042c-.024.013-.053.007-.067-.016l-.002-.004c-.013-.024-.006-.053.016-.066.024-.014.053-.007.066.015l.005.005a.045.045 0 0 1 .006.024zm-.148-.248c0 .017-.009.033-.023.042a.05.05 0 0 1-.068-.016l-.002-.005c-.014-.023-.005-.051.018-.065.023-.014.055-.005.068.019a.048.048 0 0 1 .007.025zm-.155-.252a.05.05 0 0 1-.022.042c-.025.014-.053.007-.067-.015l-.004-.005c-.014-.024-.007-.053.015-.066.025-.013.054-.007.067.015l.004.005a.045.045 0 0 1 .007.024zm-.15-.245c0 .016-.01.032-.02.042-.026.014-.056.007-.07-.017l-.004-.004c-.014-.024-.004-.052.018-.066.023-.014.055-.004.069.019a.048.048 0 0 1 .007.026zm-.155-.25a.053.053 0 0 1-.025.042c-.024.013-.053.006-.066-.016l-.003-.004c-.013-.025-.006-.054.016-.067.024-.013.053-.006.066.016l.005.004a.045.045 0 0 1 .007.024zm-.15-.25c0 .016-.01.032-.021.042a.05.05 0 0 1-.069-.016l-.004-.005c-.014-.023-.005-.051.018-.065.023-.014.055-.005.068.018a.048.048 0 0 1 .007.026zm-.151-.248a.05.05 0 0 1-.02.042.05.05 0 0 1-.07-.016l-.004-.005c-.014-.023-.004-.051.018-.065.023-.014.055-.005.069.018a.048.048 0 0 1 .007.026zm-.153-.248a.05.05 0 0 1-.02.042.05.05 0 0 1-.069-.016l-.005-.005c-.013-.023-.004-.051.019-.065.022-.014.054-.005.068.018a.048.048 0 0 1 .007.026zm-.15-.25c0 .017-.01.033-.021.042a.05.05 0 0 1-.069-.016l-.004-.005c-.014-.023-.005-.051.018-.065.023-.014.055-.005.068.019a.048.048 0 0 1 .007.025zm-.156-.252a.057.057 0 0 1-.022.042c-.025.014-.053.007-.067-.015l-.004-.005c-.013-.024-.007-.053.015-.066.025-.013.054-.007.067.015l.004.005a.045.045 0 0 1 .007.024zm-.15-.247c0 .018-.01.035-.02.041a.05.05 0 0 1-.07-.016l-.004-.004c-.013-.024-.004-.052.019-.066.022-.014.054-.004.068.019a.048.048 0 0 1 .007.026zm-.155-.25a.057.057 0 0 1-.023.041c-.024.014-.053.007-.066-.015l-.004-.004c-.014-.025-.007-.054.015-.067.024-.013.053-.007.067.016l.004.004a.045.045 0 0 1 .007.024zm-.15-.246c0 .016-.01.032-.021.042-.025.014-.055.007-.069-.017l-.004-.004c-.014-.024-.005-.052.018-.066.023-.014.055-.004.069.02a.048.048 0 0 1 .006.025zm-.156-.254c0 .017-.006.033-.024.042a.047.047 0 0 1-.064-.016l-.005-.004c-.013-.025-.007-.053.016-.067.024-.013.053-.006.066.016l.005.004a.045.045 0 0 1 .006.025zm-.148-.246a.047.047 0 0 1-.023.042.048.048 0 0 1-.066-.016l-.004-.005c-.014-.023-.005-.051.018-.065.023-.014.055-.005.068.018a.048.048 0 0 1 .007.026zm-.15-.248c0 .017-.01.033-.023.042a.05.05 0 0 1-.069-.016l-.002-.005c-.014-.023-.005-.051.018-.065.023-.014.055-.005.069.019a.048.048 0 0 1 .006.025zm-.153-.25c0 .017-.01.033-.02.042a.05.05 0 0 1-.07-.016l-.004-.005c-.014-.023-.004-.051.018-.065.023-.014.055-.005.069.019a.048.048 0 0 1 .007.025zm-.153-.25c0 .017-.01.033-.02.042a.05.05 0 0 1-.069-.016l-.005-.005c-.013-.023-.004-.05.019-.065.023-.014.054-.004.068.019a.048.048 0 0 1 .007.025zm-.151-.249a.05.05 0 0 1-.023.041.05.05 0 0 1-.068-.016l-.002-.004a.047.047 0 0 1 .016-.066.05.05 0 0 1 .067.016l.003.005a.045.045 0 0 1 .007.024zm-.154-.248c0 .016-.01.032-.023.042a.05.05 0 0 1-.069-.017l-.002-.004c-.014-.024-.005-.052.018-.066.023-.014.055-.004.069.02a.048.048 0 0 1 .007.025zm-.154-.25a.054.054 0 0 1-.02.042c-.025.013-.054.006-.068-.016l-.005-.004c-.013-.025-.006-.053.016-.067a.049.049 0 0 1 .066.016l.005.004a.044.044 0 0 1 .006.025zm-.15-.25c0 .019-.007.035-.02.042-.025.014-.055.007-.069-.016L19.61 12c-.014-.023-.005-.051.018-.065.023-.014.055-.005.068.018a.048.048 0 0 1 .007.026zm-.152-.248a.05.05 0 0 1-.021.042c-.025.014-.055.007-.068-.016l-.005-.005c-.014-.023-.005-.051.018-.065.023-.014.055-.005.069.019a.048.048 0 0 1 .007.025zm-.151-.248c0 .017-.01.033-.02.042-.026.014-.056.007-.07-.016l-.004-.005c-.013-.023-.004-.051.018-.065.023-.014.055-.005.069.019a.048.048 0 0 1 .007.025zm-.153-.25c0 .02-.009.033-.02.042-.026.014-.055.007-.069-.016l-.004-.005c-.014-.023-.005-.05.018-.065.023-.014.055-.005.068.019a.048.048 0 0 1 .007.025zm-.153-.25a.05.05 0 0 1-.023.04c-.025.014-.054.007-.068-.016l-.002-.004a.048.048 0 0 1 .016-.066c.025-.013.054-.007.068.016l.002.005a.046.046 0 0 1 .007.024zm-.152-.247c0 .016-.01.032-.02.042-.026.014-.056.007-.07-.017l-.004-.004c-.014-.024-.004-.052.018-.066.023-.014.055-.004.069.019a.048.048 0 0 1 .007.026zm-.155-.252a.046.046 0 0 1-.025.042.047.047 0 0 1-.064-.016l-.005-.004c-.013-.025-.006-.053.016-.067.024-.013.053-.006.066.016l.005.004a.045.045 0 0 1 .007.025zm-.15-.246a.05.05 0 0 1-.021.042.05.05 0 0 1-.069-.016l-.004-.005c-.014-.023-.005-.051.018-.065.023-.014.055-.005.068.018a.048.048 0 0 1 .007.026zm-.151-.252c0 .019-.007.035-.02.042-.026.014-.056.007-.07-.016l-.004-.005c-.014-.023-.004-.051.018-.065.023-.014.055-.005.069.018a.048.048 0 0 1 .007.026zm-.151-.248c0 .017-.01.033-.02.042-.026.014-.055.007-.07-.016l-.004-.005c-.013-.023-.004-.051.019-.065.022-.014.054-.005.068.019a.048.048 0 0 1 .007.025zm-.153-.248c0 .017-.009.033-.02.042-.025.014-.055.007-.069-.016l-.004-.005c-.014-.023-.005-.051.018-.065.023-.014.055-.005.068.019a.048.048 0 0 1 .007.025zm-.152-.25c0 .02-.01.035-.021.042a.05.05 0 0 1-.068-.016l-.005-.005c-.014-.023-.005-.05.018-.065.023-.014.055-.004.069.019a.048.048 0 0 1 .007.025zm-.153-.25c0 .017-.01.033-.023.043-.025.014-.055.007-.068-.017l-.003-.004c-.013-.024-.004-.052.019-.066.022-.014.054-.004.068.019a.048.048 0 0 1 .007.026zm-.153-.25a.054.054 0 0 1-.02.043c-.026.013-.055.006-.069-.016l-.004-.004c-.014-.025-.007-.053.016-.067a.049.049 0 0 1 .065.016l.005.004a.044.044 0 0 1 .007.025zm-.153-.247a.05.05 0 0 1-.02.042c-.025.014-.055.007-.069-.016l-.004-.005c-.014-.023-.005-.051.018-.065.023-.014.055-.005.069.018a.048.048 0 0 1 .006.026zm-.153-.25a.05.05 0 0 1-.022.042c-.024.013-.053.007-.066-.016l-.005-.004c-.013-.024-.007-.053.016-.067.024-.013.053-.006.066.016l.005.004a.045.045 0 0 1 .006.025zm-.148-.248c0 .016-.01.035-.02.042-.026.014-.055.007-.069-.016l-.005-.005c-.013-.023-.004-.051.019-.065.023-.014.055-.005.068.019a.048.048 0 0 1 .007.025zm-.153-.252c0 .016-.01.031-.02.042-.026.013-.055.007-.069-.015l-.004-.005c-.014-.024-.007-.053.016-.066a.049.049 0 0 1 .066.015l.004.005a.044.044 0 0 1 .007.024zm-.155-.247a.05.05 0 0 1-.022.041c-.024.014-.053.007-.067-.016l-.004-.004a.048.048 0 0 1 .016-.066c.024-.014.053-.007.066.016l.005.004a.046.046 0 0 1 .006.025zm-.15-.25c0 .017-.01.033-.021.041-.025.014-.054.007-.068-.015l-.005-.005c-.013-.024-.006-.053.016-.066a.049.049 0 0 1 .066.016l.005.004a.044.044 0 0 1 .006.024zm-.153-.248c0 .016-.007.035-.02.042-.025.014-.055.007-.069-.017l-.004-.004c-.014-.024-.005-.052.018-.066.023-.014.055-.004.068.02a.048.048 0 0 1 .007.025zm-.152-.248a.05.05 0 0 1-.02.042c-.026.014-.056.007-.07-.017l-.004-.004c-.014-.023-.005-.051.018-.065.023-.014.055-.005.069.018a.048.048 0 0 1 .007.026zm-.153-.25c0 .019-.007.035-.023.042a.048.048 0 0 1-.066-.016l-.005-.005c-.013-.023-.004-.051.019-.065.022-.014.054-.005.068.018a.048.048 0 0 1 .007.026zm-.151-.25a.057.057 0 0 1-.022.042c-.025.013-.054.007-.067-.016l-.004-.004c-.014-.024-.007-.053.015-.066.024-.014.053-.007.067.015l.004.004a.045.045 0 0 1 .007.025zM16.05 6a.053.053 0 0 1-.022.042c-.025.013-.053.007-.067-.015l-.004-.005c-.013-.024-.007-.053.015-.066.025-.014.054-.007.067.015l.004.005A.045.045 0 0 1 16.05 6zm-.15-.25c0 .016-.01.031-.021.042-.025.014-.055.007-.068-.015l-.005-.005c-.013-.024-.007-.053.016-.066a.049.049 0 0 1 .066.015l.004.005a.044.044 0 0 1 .007.024zm-.153-.248c0 .016-.01.031-.023.042-.025.014-.055.007-.068-.015l-.002-.005c-.014-.024-.007-.053.015-.066.025-.013.055-.007.069.015l.002.005a.044.044 0 0 1 .007.024zm-.153-.245c0 .016-.009.032-.02.042-.025.014-.055.007-.069-.017l-.004-.004c-.014-.024-.005-.052.018-.066.023-.014.055-.004.069.019a.048.048 0 0 1 .006.026zm-.152-.252c0 .016-.007.035-.02.042a.05.05 0 0 1-.07-.017l-.004-.004c-.014-.024-.004-.051.018-.065.023-.014.055-.005.069.018a.048.048 0 0 1 .007.026zm-.153-.248a.047.047 0 0 1-.023.042.048.048 0 0 1-.066-.016l-.005-.005c-.013-.023-.004-.051.019-.065.023-.014.055-.005.068.018a.048.048 0 0 1 .007.026zm-.15-.25c0 .019-.008.035-.021.042-.025.014-.055.007-.069-.016l-.004-.005c-.014-.023-.005-.051.018-.065.023-.014.055-.005.068.018a.048.048 0 0 1 .007.026zm-.152-.25c0 .015-.009.031-.02.042-.025.013-.055.007-.068-.015l-.005-.005c-.014-.024-.007-.053.016-.066a.049.049 0 0 1 .066.015l.004.005a.044.044 0 0 1 .007.024zm-.155-.25a.05.05 0 0 1-.024.042c-.024.013-.053.007-.067-.015l-.002-.005c-.013-.024-.006-.053.016-.066.024-.013.053-.007.066.015l.005.005a.045.045 0 0 1 .006.024zm-.152-.25a.05.05 0 0 1-.022.042c-.025.014-.054.007-.067-.015l-.004-.005c-.014-.024-.007-.053.015-.066.025-.013.053-.007.067.015l.004.005a.045.045 0 0 1 .007.024zm-.153-.248a.053.053 0 0 1-.024.042c-.025.014-.054.007-.067-.015l-.002-.005c-.013-.024-.007-.053.015-.066.025-.013.054-.007.067.016l.004.004a.045.045 0 0 1 .007.024zm-.15-.245a.05.05 0 0 1-.02.042c-.026.014-.055.007-.07-.017l-.004-.004c-.013-.024-.004-.052.019-.066.022-.014.054-.004.068.02a.048.048 0 0 1 .007.025zm-.153-.252c0 .016-.007.035-.023.042a.048.048 0 0 1-.066-.016l-.004-.005c-.014-.023-.005-.051.018-.065.023-.014.055-.005.068.018a.048.048 0 0 1 .007.026zm-.153-.248a.05.05 0 0 1-.02.042c-.025.014-.055.007-.069-.016l-.004-.005c-.014-.023-.005-.051.018-.065.023-.014.055-.005.069.018a.048.048 0 0 1 .006.026zm-.148-.248c0 .016-.01.033-.02.042-.026.014-.056.007-.07-.016l-.004-.005c-.014-.023-.004-.051.018-.065.023-.014.055-.005.069.018a.048.048 0 0 1 .007.026zm-.155-.252a.057.057 0 0 1-.023.042c-.024.013-.053.007-.066-.015l-.005-.005c-.013-.024-.006-.053.016-.066.024-.014.053-.007.066.015l.005.005a.045.045 0 0 1 .007.024zm-.151-.25a.05.05 0 0 1-.023.042c-.025.014-.054.007-.068-.015l-.002-.005c-.014-.024-.007-.053.016-.066a.049.049 0 0 1 .066.015l.004.005a.044.044 0 0 1 .007.024zm-.155-.25a.05.05 0 0 1-.022.042c-.024.014-.053.007-.067-.015l-.004-.005c-.013-.024-.007-.053.016-.066.024-.013.053-.007.066.016l.005.004a.045.045 0 0 1 .006.024zm-.15-.248a.054.054 0 0 1-.02.043c-.026.013-.055.006-.069-.016l-.005-.004c-.013-.025-.006-.054.016-.067a.049.049 0 0 1 .066.016l.005.004a.044.044 0 0 1 .006.024zm-.153-.245a.047.047 0 0 1-.023.042.048.048 0 0 1-.066-.017l-.004-.004c-.014-.024-.005-.051.018-.065.023-.014.055-.005.068.018a.048.048 0 0 1 .007.026zm-.152-.252c0 .019-.007.037-.02.042-.026.014-.056.007-.07-.016l-.004-.005c-.014-.023-.005-.051.018-.065.023-.014.055-.005.069.018a.048.048 0 0 1 .007.026zm-.151-.248c0 .016-.01.033-.02.042-.026.014-.055.007-.07-.016l-.004-.005c-.013-.023-.004-.051.019-.065.022-.014.054-.005.068.018a.048.048 0 0 1 .007.026zm-.15-.248c0 .017-.01.033-.021.042-.025.014-.055.007-.069-.016l-.004-.005c-.014-.023-.005-.051.018-.065.023-.014.055-.005.068.019a.048.048 0 0 1 .007.025zM12.55.271a.057.057 0 0 1-.022.042c-.025.013-.053.007-.067-.015l-.004-.005c-.013-.024-.007-.053.015-.066.025-.013.054-.007.067.015l.004.005a.045.045 0 0 1 .007.024z"/></g><g><path fill="#e2a917" d="M30.759 18.748a.043.043 0 0 1-.028.041l-.005.005a.054.054 0 0 1-.07-.019c-.015-.022-.005-.054.02-.068.028-.014.06-.007.075.016a.043.043 0 0 1 .008.025zm-.245.15c0 .017-.013.033-.028.044l-.005.002a.054.054 0 0 1-.07-.018c-.015-.023-.005-.055.02-.068.025-.014.06-.007.075.016a.043.043 0 0 1 .008.025zm-.248.151c0 .016-.01.032-.025.044l-.005.002a.055.055 0 0 1-.071-.018c-.018-.023-.006-.055.02-.069.025-.013.058-.006.074.016a.042.042 0 0 1 .007.025zm-.249.15c0 .015-.01.031-.027.04l-.005.005a.054.054 0 0 1-.07-.019c-.015-.022-.005-.054.02-.068.025-.014.06-.007.075.016a.043.043 0 0 1 .007.025zm-.247.15c0 .016-.01.03-.028.04l-.005.005a.054.054 0 0 1-.07-.018c-.015-.023-.005-.054.02-.068.025-.014.06-.007.075.016a.043.043 0 0 1 .008.025zm-.245.15c0 .014-.01.03-.028.042l-.005.004a.054.054 0 0 1-.07-.018c-.015-.023-.005-.055.02-.068.025-.014.06-.007.075.016a.043.043 0 0 1 .008.025zm-.25.15a.043.043 0 0 1-.028.04l-.005.005a.054.054 0 0 1-.07-.018c-.015-.023-.005-.055.02-.069.025-.013.06-.007.075.016a.043.043 0 0 1 .008.025zm-.249.148a.043.043 0 0 1-.027.041l-.005.005a.054.054 0 0 1-.07-.019c-.016-.022-.006-.054.02-.068.027-.014.06-.007.075.016a.043.043 0 0 1 .007.025zm-.247.15a.043.043 0 0 1-.028.042l-.005.004a.054.054 0 0 1-.07-.018c-.015-.023-.005-.055.02-.068.028-.014.06-.007.075.016a.043.043 0 0 1 .008.025zm-.246.15c0 .018-.01.034-.028.04l-.005.005a.053.053 0 0 1-.07-.018c-.017-.023-.004-.055.02-.069.028-.013.06-.006.075.016a.043.043 0 0 1 .008.025zm-.247.15c0 .016-.01.032-.028.041l-.005.005a.054.054 0 0 1-.07-.018c-.015-.023-.005-.055.02-.069.025-.014.06-.007.075.016a.043.043 0 0 1 .008.025zm-.249.15c0 .017-.01.033-.027.042l-.005.004a.054.054 0 0 1-.07-.018c-.015-.023-.005-.054.02-.068.025-.014.06-.007.075.016a.043.043 0 0 1 .007.025zm-.245.152c0 .016-.012.031-.028.04l-.005.005a.054.054 0 0 1-.07-.018c-.015-.023-.005-.055.02-.068.025-.014.06-.007.076.016a.043.043 0 0 1 .007.025zm-.247.148c0 .016-.01.032-.028.041l-.005.005a.054.054 0 0 1-.07-.018c-.015-.023-.005-.055.02-.069.025-.013.06-.007.075.016a.043.043 0 0 1 .008.025zm-.249.151c0 .016-.01.032-.027.041l-.005.005a.053.053 0 0 1-.07-.019c-.017-.022-.005-.054.02-.068.027-.014.06-.007.075.016a.043.043 0 0 1 .007.025zm-.249.15a.043.043 0 0 1-.027.042l-.005.004a.054.054 0 0 1-.07-.018c-.016-.023-.006-.055.02-.068.027-.014.06-.007.075.016a.043.043 0 0 1 .007.025zm-.246.15c0 .018-.008.034-.028.04l-.005.005a.054.054 0 0 1-.07-.018c-.015-.023-.005-.055.02-.069.025-.013.06-.006.075.016a.043.043 0 0 1 .008.025zm-.248.15c0 .016-.007.032-.027.043l-.005.003a.054.054 0 0 1-.07-.019c-.015-.022-.005-.054.02-.068.025-.014.06-.007.075.016a.043.043 0 0 1 .007.025zm-.247.15c0 .017-.01.03-.028.042l-.005.004a.054.054 0 0 1-.07-.018c-.015-.023-.005-.054.02-.068.025-.014.06-.007.075.016a.043.043 0 0 1 .008.025zm-.247.152c0 .013-.01.03-.026.04l-.005.005a.055.055 0 0 1-.071-.018c-.018-.023-.005-.055.02-.068.026-.014.059-.007.074.016a.042.042 0 0 1 .008.025zm-.247.148c0 .014-.01.03-.028.041l-.005.005a.054.054 0 0 1-.07-.018c-.015-.023-.005-.055.02-.069.025-.013.06-.007.076.016a.043.043 0 0 1 .007.025zm-.248.149c0 .016-.01.032-.027.041l-.005.005a.054.054 0 0 1-.07-.019c-.015-.022-.005-.054.02-.068.025-.014.06-.007.075.016a.043.043 0 0 1 .008.025zm-.247.15c0 .017-.01.033-.028.042l-.005.004a.054.054 0 0 1-.07-.018c-.015-.023-.005-.055.02-.068.028-.014.06-.007.075.016a.043.043 0 0 1 .008.025zm-.246.15c0 .018-.01.034-.028.04l-.005.005a.054.054 0 0 1-.07-.018c-.015-.023-.005-.055.02-.069.025-.013.06-.006.075.016a.043.043 0 0 1 .008.025zm-.251.15a.043.043 0 0 1-.027.041l-.005.005a.053.053 0 0 1-.07-.019c-.017-.022-.005-.054.02-.068.027-.014.06-.007.074.016a.043.043 0 0 1 .008.025zm-.247.15a.043.043 0 0 1-.027.042l-.005.004a.054.054 0 0 1-.07-.018c-.016-.023-.005-.054.02-.068.027-.014.06-.007.075.016a.043.043 0 0 1 .007.025zm-.247.15c0 .018-.008.034-.028.04l-.005.005a.054.054 0 0 1-.07-.018c-.015-.023-.005-.055.02-.068.025-.014.06-.007.075.016a.043.043 0 0 1 .008.025zm-.246.15c0 .016-.01.032-.028.041l-.005.005a.054.054 0 0 1-.07-.018c-.015-.023-.005-.055.02-.069.025-.013.06-.007.075.016a.043.043 0 0 1 .008.025zm-.248.151c0 .016-.01.032-.028.041l-.005.005a.054.054 0 0 1-.07-.019c-.015-.022-.005-.054.02-.068.025-.014.06-.007.075.016a.043.043 0 0 1 .008.025zm-.246.15a.05.05 0 0 1-.026.042l-.005.004a.055.055 0 0 1-.071-.018c-.018-.023-.005-.055.02-.068.026-.014.059-.007.074.016a.042.042 0 0 1 .008.025zm-.25.15c0 .015-.01.031-.027.04l-.005.005a.054.054 0 0 1-.07-.018c-.015-.023-.005-.055.02-.069.028-.013.06-.006.075.016a.043.043 0 0 1 .008.025zm-.247.15a.05.05 0 0 1-.025.04l-.004.005c-.027.014-.059.007-.074-.016-.014-.025-.007-.054.017-.068l.005-.002c.027-.013.059-.007.073.016a.043.043 0 0 1 .008.025zm-.246.15c0 .017-.01.03-.028.042l-.005.004a.054.054 0 0 1-.07-.018c-.015-.023-.005-.054.02-.068.028-.014.06-.007.076.016a.043.043 0 0 1 .007.025zm-.25.15a.043.043 0 0 1-.027.04l-.005.005a.054.054 0 0 1-.07-.018c-.016-.023-.006-.055.02-.068.027-.014.06-.007.075.016a.043.043 0 0 1 .007.025zm-.245.15c0 .014-.008.03-.028.041l-.005.005a.054.054 0 0 1-.07-.018c-.015-.023-.005-.055.02-.069.025-.013.06-.007.075.016a.043.043 0 0 1 .008.025zm-.249.149a.043.043 0 0 1-.027.041l-.005.005a.054.054 0 0 1-.07-.019c-.015-.022-.005-.054.02-.068.025-.014.06-.007.075.016a.043.043 0 0 1 .007.025zm-.248.15c0 .017-.01.033-.027.044l-.005.002a.053.053 0 0 1-.07-.018c-.017-.023-.005-.055.02-.068.027-.014.06-.007.075.016a.043.043 0 0 1 .007.025zm-.247.15c0 .015-.01.031-.027.04l-.005.005a.054.054 0 0 1-.07-.018c-.016-.023-.005-.055.02-.069.027-.013.06-.006.075.016a.043.043 0 0 1 .007.025zm-.248.149c0 .015-.01.03-.024.042l-.005.004c-.027.014-.058.007-.073-.015a.046.046 0 0 1 .017-.067l.005-.004c.027-.013.058-.007.073.015a.042.042 0 0 1 .007.025zm-.245.152c0 .016-.01.032-.028.04l-.005.005a.054.054 0 0 1-.07-.018c-.015-.023-.005-.054.02-.068.025-.014.06-.007.075.016a.043.043 0 0 1 .008.025zm-.248.149c0 .018-.01.034-.028.04l-.005.005a.054.054 0 0 1-.07-.018c-.015-.023-.005-.055.02-.068.028-.014.06-.007.075.016a.043.043 0 0 1 .008.025zm-.248.15a.05.05 0 0 1-.026.044l-.005.002a.055.055 0 0 1-.071-.018c-.018-.023-.005-.055.02-.069.026-.013.059-.007.074.016a.042.042 0 0 1 .008.025zm-.247.151a.043.043 0 0 1-.028.041l-.005.005a.054.054 0 0 1-.07-.019c-.015-.022-.005-.054.02-.068.025-.014.06-.007.075.016a.043.043 0 0 1 .008.025zm-.248.15a.043.043 0 0 1-.027.042l-.005.004a.054.054 0 0 1-.07-.018c-.016-.023-.005-.055.02-.068.025-.014.06-.007.075.016a.043.043 0 0 1 .007.025zm-.248.15a.043.043 0 0 1-.028.04l-.005.005a.054.054 0 0 1-.07-.018c-.015-.023-.005-.055.02-.069.028-.013.06-.006.075.016a.043.043 0 0 1 .008.025zm-.245.15c0 .016-.01.032-.028.041l-.005.005a.054.054 0 0 1-.07-.019c-.015-.022-.005-.054.02-.068.025-.014.06-.007.075.016a.043.043 0 0 1 .008.025zm-.246.15c0 .017-.01.03-.025.044l-.006.002a.056.056 0 0 1-.072-.018c-.015-.023-.005-.054.021-.068.026-.014.06-.007.074.016a.042.042 0 0 1 .008.025zm-.25.15c0 .016-.01.031-.027.04l-.005.005a.054.054 0 0 1-.07-.018c-.015-.023-.005-.055.02-.068.025-.014.06-.007.075.016a.043.043 0 0 1 .007.025zm-.25.149c0 .013-.01.029-.027.042l-.005.004c-.024.014-.056.007-.07-.015a.046.046 0 0 1 .017-.066l.005-.005c.027-.013.058-.007.073.016a.042.042 0 0 1 .007.024zm-.243.15c0 .016-.01.032-.028.041l-.005.005a.054.054 0 0 1-.07-.019c-.015-.022-.005-.054.02-.068.027-.014.06-.007.075.016a.043.043 0 0 1 .008.025zm-.25.149c0 .018-.008.034-.028.04l-.005.005a.054.054 0 0 1-.07-.018c-.015-.023-.005-.055.02-.068.028-.014.06-.007.075.016a.043.043 0 0 1 .008.025zm-.246.15a.05.05 0 0 1-.026.044l-.005.002a.056.056 0 0 1-.072-.018c-.016-.023-.005-.055.02-.069.026-.013.06-.006.075.016a.042.042 0 0 1 .008.025zm-.25.151a.043.043 0 0 1-.028.041l-.005.005a.054.054 0 0 1-.07-.018c-.015-.023-.005-.055.02-.069.028-.014.06-.007.075.016a.043.043 0 0 1 .008.025zm-.246.15c0 .017-.01.033-.027.042l-.005.004a.054.054 0 0 1-.07-.018c-.015-.023-.005-.054.02-.068.027-.014.06-.007.075.016a.043.043 0 0 1 .008.025zm-.247.15c0 .016-.01.031-.028.04l-.005.005a.054.054 0 0 1-.07-.018c-.015-.023-.005-.055.02-.068.025-.014.06-.007.075.016a.043.043 0 0 1 .008.025zm-.25.149c0 .015-.01.031-.027.042l-.005.004c-.024.014-.056.007-.07-.015a.046.046 0 0 1 .016-.066l.005-.005c.027-.013.059-.007.073.016a.042.042 0 0 1 .008.024zm-.243.152c0 .016-.01.032-.025.043l-.005.003a.055.055 0 0 1-.071-.019c-.018-.022-.005-.054.02-.068.025-.014.058-.007.074.016a.042.042 0 0 1 .007.025zm-.248.149c0 .018-.01.034-.028.04l-.005.005a.054.054 0 0 1-.07-.018c-.015-.023-.005-.055.02-.068.027-.014.06-.007.075.016a.043.043 0 0 1 .008.025zm-.248.15c0 .016-.01.032-.028.041l-.005.005a.054.054 0 0 1-.07-.018c-.015-.023-.005-.055.02-.069.028-.013.06-.006.076.016a.043.043 0 0 1 .007.025zm-.25.151a.043.043 0 0 1-.027.041l-.005.005a.054.054 0 0 1-.07-.019c-.016-.022-.006-.054.02-.068.027-.014.06-.007.075.016a.043.043 0 0 1 .007.025zm-.246.15c0 .017-.008.03-.028.042l-.005.004a.054.054 0 0 1-.07-.018c-.015-.023-.005-.054.02-.068.028-.014.06-.007.075.016a.043.043 0 0 1 .008.025zm-.248.15c0 .016-.007.03-.027.04l-.005.005a.054.054 0 0 1-.07-.018c-.015-.023-.005-.055.02-.068.027-.014.06-.007.075.016a.043.043 0 0 1 .007.025zm-.25.149c0 .013-.01.029-.024.042l-.005.004c-.027.014-.059.007-.073-.015a.046.046 0 0 1 .017-.066l.005-.005c.027-.013.058-.007.073.016a.042.042 0 0 1 .007.024zm-.243.15c0 .016-.01.032-.026.043l-.005.003a.055.055 0 0 1-.071-.019c-.018-.022-.005-.054.02-.068.026-.014.059-.007.074.016a.042.042 0 0 1 .008.025zm-.248.149c0 .018-.01.034-.028.04l-.005.005a.054.054 0 0 1-.07-.018c-.015-.023-.005-.055.02-.068.028-.014.06-.007.076.016a.043.043 0 0 1 .007.025zm-.247.15c0 .016-.01.032-.028.044l-.005.002a.054.054 0 0 1-.07-.018c-.015-.023-.005-.055.02-.069.027-.013.06-.006.075.016a.043.043 0 0 1 .008.025zm-.248.151c0 .016-.01.032-.028.041l-.005.005a.054.054 0 0 1-.07-.019c-.015-.022-.005-.054.02-.068.028-.014.06-.007.075.016a.043.043 0 0 1 .008.025zm-.246.149c0 .018-.01.034-.028.04l-.005.005a.054.054 0 0 1-.07-.018c-.015-.023-.005-.054.02-.068.027-.014.06-.007.075.016a.043.043 0 0 1 .008.025zm-.248.15a.045.045 0 0 1-.026.042l-.005.004a.056.056 0 0 1-.072-.018c-.015-.023-.005-.055.021-.068.026-.014.059-.007.074.016a.042.042 0 0 1 .008.025zm-.251.15a.05.05 0 0 1-.025.042l-.005.004c-.026.014-.058.007-.073-.015a.046.046 0 0 1 .017-.066l.005-.005c.027-.013.059-.007.073.016a.042.042 0 0 1 .008.024zm-.249.15a.05.05 0 0 1-.024.043l-.005.004c-.027.013-.059.007-.073-.015a.046.046 0 0 1 .017-.067l.005-.004c.026-.013.058-.007.073.015a.042.042 0 0 1 .007.025zm-.242.15c0 .017-.01.033-.028.042l-.005.004a.054.054 0 0 1-.07-.018c-.015-.023-.005-.055.02-.068.027-.014.06-.007.075.016a.043.043 0 0 1 .008.025zm-.249.151c0 .016-.01.032-.028.041l-.005.005a.054.054 0 0 1-.07-.018c-.015-.023-.005-.055.02-.069.025-.013.06-.006.075.016a.043.043 0 0 1 .008.025zm-.248.151c0 .016-.01.032-.027.043l-.005.003a.054.054 0 0 1-.07-.019c-.015-.022-.005-.054.02-.068.027-.014.06-.007.075.016a.043.043 0 0 1 .007.025zm-.247.149c0 .018-.01.032-.028.04l-.005.005a.054.054 0 0 1-.07-.018c-.015-.023-.005-.054.02-.068.028-.014.06-.007.075.016a.043.043 0 0 1 .008.025z"/></g><g><g><path fill="#00000b" d="M30.807.148a.058.058 0 0 0-.058-.058 18.379 18.379 0 0 0-13.081 5.418 18.39 18.39 0 0 0-5.418 13.081c0 6.316 5.138 11.454 11.454 11.454 3.914 0 7.101-3.184 7.101-7.1a4.416 4.416 0 0 0-4.41-4.411h-.058a2.75 2.75 0 0 0-2.69 2.746c0 .948.77 1.72 1.719 1.72.598 0 1.084-.486 1.084-1.085a.694.694 0 0 0-.692-.692c-.248 0-.349.202-.349.45a.058.058 0 0 0 .115 0c0-.184.052-.335.236-.335.32 0 .58.26.58.579a.973.973 0 0 1-.972.972c-.887 0-1.607-.72-1.607-1.607 0-.704.274-1.364.772-1.862a2.614 2.614 0 0 1 1.862-.771h.037a4.302 4.302 0 0 1 4.26 4.297 6.996 6.996 0 0 1-6.988 6.988c-6.255 0-11.341-5.088-11.341-11.34 0-10.14 8.25-18.389 18.386-18.389a.057.057 0 0 0 .058-.055z"/></g><g><path fill="#e2a917" d="M23.683 30.173c-6.347 0-11.513-5.193-11.513-11.576 0-4.962 1.922-9.63 5.414-13.144C21.074 1.943 25.716.01 30.654.01a.24.24 0 1 1 0 .478c-9.93 0-18.006 8.122-18.006 18.107 0 6.12 4.951 11.097 11.035 11.097 3.71 0 6.73-3.036 6.73-6.768 0-1.085-.42-2.108-1.181-2.88a4.037 4.037 0 0 0-2.852-1.211h-.035c-.647 0-1.256.253-1.714.714-.458.46-.71 1.07-.71 1.723 0 .78.63 1.414 1.406 1.414.43 0 .78-.351.78-.784a.392.392 0 0 0-.391-.392c-.018 0-.026.004-.026.004s-.026.03-.026.146a.24.24 0 1 1-.48 0c0-.382.207-.63.528-.63a.87.87 0 0 1 .867.872c0 .696-.564 1.264-1.256 1.264a1.89 1.89 0 0 1-1.884-1.894c0-.768.296-1.491.831-2.04a2.875 2.875 0 0 1 2.011-.875h.062c2.506 0 4.545 2.05 4.545 4.57.002 3.996-3.23 7.248-7.205 7.248z"/></g></g><g><path fill="#252525" d="M62.693 30.128H42.69L60.622 1.856l-16.705-.022L43.92 0l20.025.026-17.928 28.27h16.677z"/></g><g transform="rotate(-34.793 53 15)"><path fill="#252525" d="M53.125-1.17h.35v32.402h-.35z"/></g><g><path fill="#e2a917" d="M62.643 34.969h-.466l-.435-1.204h-.897l-.433 1.204h-.466l1.231-3.405h.235zm-1.344-2.448l-.29.802h.579zm-4.2-.957h.505l.887 1.541.888-1.541h.508l-1.176 2.038v1.367h-.439v-1.367zm-.066 3.405h-.466l-.435-1.204h-.897l-.433 1.204h-.466l1.231-3.405h.235zm-1.344-2.448l-.29.802h.58zm-3.262 2.448h-.439v-3.405h.439v1.072l.8-1.072h.556l-1.043 1.4 1.297 2.005h-.532l-1.05-1.643-.028.036zm-2.497-2.093a.76.76 0 0 1-.224-.557c0-.216.077-.403.232-.56a.761.761 0 0 1 .563-.235c.218 0 .405.078.561.23.088.086.16.221.22.408l-.398.157a.775.775 0 0 0-.131-.254.345.345 0 0 0-.25-.102c-.1 0-.182.036-.252.104a.344.344 0 0 0-.105.252c0 .1.036.183.105.253.078.078.185.147.323.21.266.086.492.224.677.41.208.205.311.456.311.75 0 .295-.103.545-.311.752a1.02 1.02 0 0 1-.748.312c-.293 0-.543-.105-.75-.312-.164-.165-.27-.396-.313-.686l.427-.155c.027.25.093.43.198.533a.598.598 0 0 0 .438.183.603.603 0 0 0 .44-.183.603.603 0 0 0 .183-.442.61.61 0 0 0-.183-.441c-.117-.12-.26-.211-.428-.28a1.502 1.502 0 0 1-.585-.347zm-2.44-1.312h.44v2.963h1.213v.442H47.49zm-3.24.776a1.25 1.25 0 0 0-.378.917c0 .36.127.665.379.917.253.254.557.38.914.38s.662-.128.916-.38c.252-.254.379-.56.379-.917s-.127-.663-.379-.917a1.243 1.243 0 0 0-.914-.38c-.357 0-.665.128-.916.38zm2.136-.31c.338.339.508.75.508 1.227 0 .48-.168.888-.508 1.23-.338.339-.748.51-1.224.51-.479 0-.886-.171-1.226-.51a1.68 1.68 0 0 1-.508-1.23c0-.48.17-.888.508-1.227.34-.341.75-.51 1.226-.51.478 0 .886.169 1.224.51zm-5.939-.466h.465l.88 2.44.884-2.44h.468l-1.233 3.405h-.235zm-2.794.441v-.441h2.368l-1.707 2.963h1.612v.442h-2.37l1.705-2.964zm-2.022 2.964h-.468l-.437-1.204h-.9l-.434 1.204h-.468l1.233-3.405h.238zm-1.355-2.448l-.29.802h.58zm-3.266 2.448h-.438v-3.405h.438v1.555h1.047v-1.555h.44v3.405h-.44V33.56H31.01zm-2.494-2.093a.758.758 0 0 1-.225-.557.77.77 0 0 1 .233-.56.766.766 0 0 1 .566-.235.78.78 0 0 1 .564.23c.087.086.16.221.22.408l-.4.157a.774.774 0 0 0-.131-.254.348.348 0 0 0-.251-.102.35.35 0 0 0-.253.104.344.344 0 0 0-.106.252c0 .1.036.183.106.253.077.078.185.147.324.21.267.086.494.224.68.41.209.205.313.456.313.75 0 .295-.104.545-.313.752a1.027 1.027 0 0 1-.751.312c-.295 0-.546-.105-.753-.312-.166-.165-.271-.396-.315-.686l.428-.155c.028.25.094.43.2.533a.602.602 0 0 0 .44.183.607.607 0 0 0 .442-.183.602.602 0 0 0 .183-.442.608.608 0 0 0-.183-.441 1.27 1.27 0 0 0-.43-.28 1.51 1.51 0 0 1-.588-.347zm-.825 2.093h-.468l-.437-1.204h-.9l-.434 1.204h-.468l1.235-3.405h.236zm-1.353-2.448l-.29.802h.58zm-3.383.952l1.097-1.91h.4v3.406h-.44v-2.46l-1.059 1.84-1.063-1.84v2.46h-.44v-3.405h.405zm-6.32-1.91h.504l.883 1.542.886-1.541h.505l-1.171 2.038v1.367h-.437v-1.367zm-1.737.985h.286a.276.276 0 0 0 .168-.074.25.25 0 0 0 .076-.192.266.266 0 0 0-.08-.199.278.278 0 0 0-.202-.078l-.248-.002zm0 1.98h.43v-.006c.092-.006.203-.08.338-.22a.767.767 0 0 0 .222-.552c0-.21-.074-.39-.222-.538a.726.726 0 0 0-.534-.225h-.234zm.754-2.754c.139.14.21.309.21.506 0 .202-.101.328-.305.375.146.022.313.128.501.315.189.189.282.45.282.783 0 .335-.117.623-.35.866-.22.228-.44.344-.66.346v.004h-.87v-3.405h.686c.196 0 .365.07.506.21z"/></g><g><path fill="#252525" d="M39.79 30.128H37.8l.117-25.822-1.493 2.377H34.12L38.318.08h1.471z"/></g><g><path fill="#252525" d="M5.677 30.105H3.688l.117-25.803-1.49 2.373-2.305.002L4.206.08h1.471z"/></g><g><path fill="#252525" d="M12.605 31.604h.325l-1.32 3.351h-.326zm-3.08 1.77c-.277 0-.42.16-.42.488v.284c0 .348.153.512.42.512.268 0 .417-.164.42-.512v-.284c0-.328-.142-.487-.42-.487zm0-1.469c-.261 0-.42.159-.42.502v.162c0 .328.157.47.42.47.262 0 .42-.144.42-.47v-.162c0-.343-.156-.502-.42-.502zm-.005-.335c.515 0 .787.311.785.829v.105c0 .341-.119.589-.38.69.275.11.38.373.38.708v.25c0 .515-.266.837-.785.837-.518 0-.784-.32-.784-.837v-.25c0-.34.107-.593.386-.708-.271-.105-.386-.35-.386-.69v-.105c0-.518.27-.829.784-.829zm-1.674 3.385v-2.74a1.023 1.023 0 0 1-.464.142v-.307c.365-.016.49-.212.575-.446h.258v3.351zm-1.8-1.777c-.272 0-.397.183-.397.484v.502c0 .301.123.484.396.484.268 0 .397-.183.397-.484v-.502c0-.301-.129-.484-.397-.484zm0-1.608c.517 0 .757.325.753.837v.061h-.35v-.085c0-.301-.122-.478-.396-.478-.281 0-.406.183-.406.541v.752c.09-.23.273-.359.541-.359.43 0 .623.311.623.795v.508c0 .512-.254.847-.766.847-.517 0-.771-.335-.771-.847v-1.71c0-.53.24-.862.771-.862zm-1.488 2.921h.359v.464h-.359zm-.934.464v-2.74a1.023 1.023 0 0 1-.464.142v-.307c.365-.016.49-.212.575-.446h.258v3.351z"/></g><g transform="rotate(90 21.5 18.5)"><path fill="#e2a917" d="M21.376 9.26h.308v18.722h-.308z"/></g></g></g></svg>