<svg xmlns="http://www.w3.org/2000/svg" width="25" height="26" viewBox="0 0 25 26"><g><g opacity=".3"><g opacity=".3"><path d="M1.465 4.163a2.2 2.2 0 0 1 2.198-2.198h17.684a2.2 2.2 0 0 1 2.198 2.198v17.684a2.2 2.2 0 0 1-2.198 2.198H3.663a2.2 2.2 0 0 1-2.198-2.198zM3.662 25.5h17.676A3.666 3.666 0 0 0 25 21.838V4.162A3.666 3.666 0 0 0 21.338.5H3.662A3.666 3.666 0 0 0 0 4.162v17.676A3.666 3.666 0 0 0 3.662 25.5z"/></g><g opacity=".3"><path d="M12.507 7.875a5.138 5.138 0 0 1 5.132 5.132 5.138 5.138 0 0 1-5.132 5.132 5.138 5.138 0 0 1-5.132-5.132 5.138 5.138 0 0 1 5.132-5.132zm-.005 11.719a6.6 6.6 0 0 0 6.592-6.592 6.6 6.6 0 0 0-6.592-6.592 6.6 6.6 0 0 0-6.592 6.592 6.6 6.6 0 0 0 6.592 6.592z"/></g><g opacity=".3"><path d="M19.832 4.945a.738.738 0 0 1 0 1.475.738.738 0 0 1 0-1.475zm-.005 2.93a2.2 2.2 0 0 0 2.198-2.198 2.2 2.2 0 0 0-2.198-2.197 2.2 2.2 0 0 0-2.197 2.197 2.2 2.2 0 0 0 2.197 2.198z"/></g></g></g></svg>