<svg xmlns="http://www.w3.org/2000/svg" width="30" height="30" viewBox="0 0 30 30"><g><g><g><path fill="#d8d8d8" d="M28.241 21.88a6.37 6.37 0 0 1-6.362 6.361H8.121a6.37 6.37 0 0 1-6.362-6.361V8.12A6.37 6.37 0 0 1 8.12 1.76h13.758a6.37 6.37 0 0 1 6.362 6.362zM21.88 0H8.121C3.643 0 0 3.643 0 8.12v13.76C0 26.357 3.643 30 8.12 30h13.76c4.477 0 8.12-3.643 8.12-8.12V8.12C30 3.644 26.357 0 21.88 0z"/></g><g><path fill="#d8d8d8" d="M15.003 21.448a6.453 6.453 0 0 1-6.445-6.445 6.453 6.453 0 0 1 6.445-6.445 6.453 6.453 0 0 1 6.445 6.445 6.452 6.452 0 0 1-6.445 6.445zm0-14.648C10.48 6.8 6.8 10.48 6.8 15.003s3.68 8.203 8.203 8.203 8.203-3.68 8.203-8.203S19.526 6.8 15.003 6.8z"/></g><g><path fill="#d8d8d8" d="M23.404 6.969a.668.668 0 0 1-.669-.665c0-.367.3-.665.669-.665.369 0 .669.298.669.665 0 .367-.3.665-.67.665zm0-3.089a2.427 2.427 0 0 0-2.424 2.424 2.427 2.427 0 0 0 2.424 2.424 2.427 2.427 0 0 0 2.424-2.424 2.427 2.427 0 0 0-2.424-2.424z"/></g></g></g></svg>