<?xml version="1.0" encoding="UTF-8"?>
<svg width="25px" height="25px" viewBox="0 0 25 25" version="1.1" xmlns="http://www.w3.org/2000/svg" xmlns:xlink="http://www.w3.org/1999/xlink">
    <!-- Generator: Sketch 60.1 (88133) - https://sketch.com -->
    <title>insta</title>
    <desc>Created with Sketch.</desc>
    <g id="Дизайн" stroke="none" stroke-width="1" fill="none" fill-rule="evenodd" opacity="1">
        <g id="Kit" transform="translate(-1689.000000, -2653.000000)" fill="#FFFFFF" fill-rule="nonzero">
            <g id="insta" transform="translate(1689.000000, 2653.000000)">
                <path d="M3.66210938,25 L21.3378906,25 C23.3572006,25 25,23.3572006 25,21.3378906 L25,3.66210938 C25,1.64279937 23.3572006,0 21.3378906,0 L3.66210938,0 C1.64279937,0 0,1.64279937 0,3.66210938 L0,21.3378906 C0,23.3572006 1.64279937,25 3.66210938,25 Z M1.46484375,3.66210938 C1.46484375,2.45056152 2.45056152,1.46484375 3.66210938,1.46484375 L21.3378906,1.46484375 C22.5494385,1.46484375 23.5351562,2.45056152 23.5351562,3.66210938 L23.5351562,21.3378906 C23.5351562,22.5494385 22.5494385,23.5351562 21.3378906,23.5351562 L3.66210938,23.5351562 C2.45056152,23.5351562 1.46484375,22.5494385 1.46484375,21.3378906 L1.46484375,3.66210938 Z" id="Shape"></path>
                <path d="M12.5,19.0917969 C16.1346436,19.0917969 19.0917969,16.1346436 19.0917969,12.5 C19.0917969,8.86535645 16.1346436,5.90820312 12.5,5.90820312 C8.86535645,5.90820312 5.90820312,8.86535645 5.90820312,12.5 C5.90820312,16.1346436 8.86535645,19.0917969 12.5,19.0917969 Z M12.5,7.37304688 C15.3270722,7.37304688 17.6269531,9.67292783 17.6269531,12.5 C17.6269531,15.3270722 15.3270722,17.6269531 12.5,17.6269531 C9.67292783,17.6269531 7.37304688,15.3270722 7.37304688,12.5 C7.37304688,9.67292783 9.67292783,7.37304688 12.5,7.37304688 Z" id="Shape"></path>
                <path d="M19.8242188,7.37304688 C21.0357666,7.37304688 22.0214844,6.3873291 22.0214844,5.17578125 C22.0214844,3.9642334 21.0357666,2.97851562 19.8242188,2.97851562 C18.6126709,2.97851562 17.6269531,3.9642334 17.6269531,5.17578125 C17.6269531,6.3873291 18.6126709,7.37304688 19.8242188,7.37304688 Z M19.8242188,4.44335938 C20.2280044,4.44335938 20.5566406,4.77199556 20.5566406,5.17578125 C20.5566406,5.57956694 20.2280044,5.90820312 19.8242188,5.90820312 C19.4204331,5.90820312 19.0917969,5.57956694 19.0917969,5.17578125 C19.0917969,4.77199556 19.4204331,4.44335938 19.8242188,4.44335938 Z" id="Shape"></path>
            </g>
        </g>
    </g>
</svg>