<?xml version="1.0" encoding="UTF-8"?>
<svg width="105px" height="66px" viewBox="0 0 105 66" version="1.1" xmlns="http://www.w3.org/2000/svg" xmlns:xlink="http://www.w3.org/1999/xlink">
    <!-- Generator: Sketch 60.1 (88133) - https://sketch.com -->
    <title>logo</title>
    <desc>Created with Sketch.</desc>
    <defs>
        <polygon id="path-1" points="1.13686838e-13 65.8634538 104.587149 65.8634538 104.587149 0.643373494 1.13686838e-13 0.643373494"></polygon>
    </defs>
    <g id="Дизайн" stroke="none" stroke-width="1" fill="none" fill-rule="evenodd">
        <g id="Kit" transform="translate(-219.000000, -2632.000000)">
            <g id="logo" transform="translate(219.000000, 2632.000000)">
                <polygon id="Fill-1" fill="#FFFFFF" points="0 22.1428112 0 46.3235341 14.5742972 46.3235341 14.5742972 41.2126908 5.87309237 41.2126908 5.87309237 36.6078715 14.3204819 36.6078715 14.3204819 31.4962249 5.87309237 31.4962249 5.87309237 27.2544578 14.5742972 27.2544578 14.5742972 22.1428112"></polygon>
                <polygon id="Fill-2" fill="#FFFFFF" points="32.6266667 46.3235341 17.7985542 46.3235341 17.7985542 22.1428112 23.6724498 22.1428112 23.6724498 41.2126908 30.7045783 41.2126908 30.7045783 22.1428112 36.5784739 22.1428112 36.5784739 41.2126908 38.499759 41.2126908 38.499759 49.8239357 32.6266667 49.8239357"></polygon>
                <polygon id="Fill-3" fill="#FFFFFF" points="53.1077912 46.3235341 48.2861044 37.477751 46.7640161 40.0151004 46.7640161 46.3235341 40.8901205 46.3235341 40.8901205 22.1428112 46.7640161 22.1428112 46.7640161 32.3661044 52.744739 22.1428112 59.5608032 22.1428112 51.9840964 33.4536546 60.0322892 46.3235341"></polygon>
                <polygon id="Fill-4" fill="#F37920" points="0.422168675 13.5830522 0.422168675 18.0553414 2.08481928 18.0553414 2.08481928 17.6063454 0.924176707 17.6063454 0.924176707 15.9902811 2.03823293 15.9902811 2.03823293 15.5412851 0.924176707 15.5412851 0.924176707 14.0320482 2.08481928 14.0320482 2.08481928 13.5830522"></polygon>
                <g id="Group-73" transform="translate(0.000000, 0.159598)">
                    <path d="M3.1702008,17.446747 L4.3573494,17.446747 L4.3573494,13.8724498 L3.72682731,13.8724498 L3.59911647,15.8234538 C3.5388755,16.7021687 3.39108434,17.1857028 3.1702008,17.446747 L3.1702008,17.446747 Z M2.47220884,17.4941365 C2.8015261,17.4403213 3.00232932,17.3326908 3.10353414,15.7768675 L3.25052209,13.4234538 L4.86016064,13.4234538 L4.86016064,17.446747 L5.26176707,17.446747 L5.26176707,18.7206426 L4.75253012,18.7206426 L4.75253012,17.8965462 L2.97582329,17.8965462 L2.97582329,18.7206426 L2.47220884,18.7206426 L2.47220884,17.4941365 Z" id="Fill-5" fill="#F37920"></path>
                    <polygon id="Fill-7" fill="#F37920" points="5.83116466 17.8962249 5.83116466 13.4239357 6.34040161 13.4239357 6.34040161 16.5821687 7.40626506 13.4239357 7.90987952 13.4239357 7.90987952 17.8962249 7.40626506 17.8962249 7.40626506 14.677751 6.31389558 17.8962249"></polygon>
                    <polygon id="Fill-9" fill="#F37920" points="10.3285141 17.8962249 10.3285141 15.8239357 9.25542169 15.8239357 9.25542169 17.8962249 8.75341365 17.8962249 8.75341365 13.4239357 9.25542169 13.4239357 9.25542169 15.3685141 10.3285141 15.3685141 10.3285141 13.4239357 10.8313253 13.4239357 10.8313253 17.8962249"></polygon>
                    <mask id="mask-2" fill="white">
                        <use xlink:href="#path-1"></use>
                    </mask>
                    <g id="Clip-12"></g>
                    <path d="M14.1028112,17.8955823 L14.6056225,17.8955823 L14.6056225,13.4232932 L14.1028112,13.4232932 L14.1028112,17.8955823 Z M12.1783133,15.6771084 L12.1783133,17.4465863 L12.546988,17.4465863 C12.9421687,17.4465863 13.1373494,17.0779116 13.1373494,16.562249 C13.1373494,16.0457831 12.9421687,15.6771084 12.546988,15.6771084 L12.1783133,15.6771084 Z M12.1783133,13.4232932 L12.1783133,15.2273092 L12.5935743,15.2273092 C13.3317269,15.2273092 13.6594378,15.8441767 13.6594378,16.562249 C13.6594378,17.2795181 13.3317269,17.8963855 12.5935743,17.8963855 L11.675502,17.8963855 L11.675502,13.4232932 L12.1783133,13.4232932 Z" id="Fill-11" fill="#F37920" mask="url(#mask-2)"></path>
                    <path d="M16.4808032,13.0745382 C16.1595181,13.0745382 15.8639357,12.9138956 15.6832129,12.6657028 L15.9241767,12.477751 C16.0446586,12.6592771 16.2727711,12.7733333 16.4808032,12.7733333 C16.695261,12.7733333 16.9233735,12.6592771 17.0374297,12.477751 L17.2791968,12.6657028 C17.0984739,12.9138956 16.8093173,13.0745382 16.4808032,13.0745382 L16.4808032,13.0745382 Z M15.4478715,17.8962249 L15.4478715,13.4239357 L15.9579116,13.4239357 L15.9579116,16.5821687 L17.0237751,13.4239357 L17.5273896,13.4239357 L17.5273896,17.8962249 L17.0237751,17.8962249 L17.0237751,14.677751 L15.9306024,17.8962249 L15.4478715,17.8962249 Z" id="Fill-13" fill="#F37920" mask="url(#mask-2)"></path>
                    <polygon id="Fill-14" fill="#F37920" mask="url(#mask-2)" points="21.4946185 17.8962249 19.5227309 17.8962249 19.5227309 13.4239357 20.0255422 13.4239357 20.0255422 17.4464257 21.0986345 17.4464257 21.0986345 13.4239357 21.602249 13.4239357 21.602249 17.4464257 22.0038554 17.4464257 22.0038554 18.7211245 21.4946185 18.7211245"></polygon>
                    <polygon id="Fill-15" fill="#F37920" mask="url(#mask-2)" points="22.5727711 17.8962249 22.5727711 13.4239357 24.2354217 13.4239357 24.2354217 13.8729317 23.0755823 13.8729317 23.0755823 15.3821687 24.1888353 15.3821687 24.1888353 15.8311647 23.0755823 15.8311647 23.0755823 17.4464257 24.2354217 17.4464257 24.2354217 17.8962249"></polygon>
                    <polygon id="Fill-16" fill="#F37920" mask="url(#mask-2)" points="26.5076305 17.8962249 26.5076305 15.8239357 25.4353414 15.8239357 25.4353414 17.8962249 24.9325301 17.8962249 24.9325301 13.4239357 25.4353414 13.4239357 25.4353414 15.3685141 26.5076305 15.3685141 26.5076305 13.4239357 27.0104418 13.4239357 27.0104418 17.8962249"></polygon>
                    <polygon id="Fill-17" fill="#F37920" mask="url(#mask-2)" points="28.2564659 17.8962249 28.2564659 13.8729317 27.5528514 13.8729317 27.5528514 13.4239357 29.4701205 13.4239357 29.4701205 13.8729317 28.766506 13.8729317 28.766506 17.8962249"></polygon>
                    <path d="M31.4743775,14.7578313 C31.4743775,14.2413655 31.28,13.8726908 30.8840161,13.8726908 L30.5153414,13.8726908 L30.5153414,15.6429719 L30.8840161,15.6429719 C31.28,15.6429719 31.4743775,15.2742972 31.4743775,14.7578313 L31.4743775,14.7578313 Z M30.0125301,17.8959839 L30.0125301,13.4236948 L30.9306024,13.4236948 C31.668755,13.4236948 31.9972691,14.039759 31.9972691,14.7578313 C31.9972691,15.4751004 31.668755,16.0927711 30.9306024,16.0927711 L30.5153414,16.0927711 L30.5153414,17.8959839 L30.0125301,17.8959839 Z" id="Fill-18" fill="#F37920" mask="url(#mask-2)"></path>
                    <polygon id="Fill-19" fill="#F37920" mask="url(#mask-2)" points="35.482249 17.8962249 34.5633735 15.9580723 34.2613655 16.5355823 34.2613655 17.8962249 33.7585542 17.8962249 33.7585542 13.4239357 34.2613655 13.4239357 34.2613655 15.7508434 35.4083534 13.4239357 35.9786345 13.4239357 34.8453012 15.5492369 36.0653815 17.8962249"></polygon>
                    <path d="M37.3580723,14.0272289 L36.9428112,16.4208032 L37.7741365,16.4208032 L37.3580723,14.0272289 Z M38.0159036,17.8963052 L37.8343775,16.8706024 L36.8825703,16.8706024 L36.7010442,17.8963052 L36.1845783,17.8963052 L37.0632932,13.4240161 L37.6464257,13.4240161 L38.5315663,17.8963052 L38.0159036,17.8963052 Z" id="Fill-20" fill="#F37920" mask="url(#mask-2)"></path>
                    <path d="M39.3888353,17.446747 L40.5759839,17.446747 L40.5759839,13.8724498 L39.9454618,13.8724498 L39.817751,15.8234538 C39.75751,16.7021687 39.6097189,17.1857028 39.3888353,17.446747 L39.3888353,17.446747 Z M38.6908434,17.4941365 C39.0201606,17.4403213 39.2217671,17.3326908 39.3221687,15.7768675 L39.4699598,13.4234538 L41.0787952,13.4234538 L41.0787952,17.446747 L41.4804016,17.446747 L41.4804016,18.7206426 L40.9719679,18.7206426 L40.9719679,17.8965462 L39.1944578,17.8965462 L39.1944578,18.7206426 L38.6908434,18.7206426 L38.6908434,17.4941365 Z" id="Fill-21" fill="#F37920" mask="url(#mask-2)"></path>
                    <path d="M42.8476305,14.0272289 L42.4315663,16.4208032 L43.2636948,16.4208032 L42.8476305,14.0272289 Z M43.5046586,17.8963052 L43.3239357,16.8706024 L42.3713253,16.8706024 L42.1906024,17.8963052 L41.6741365,17.8963052 L42.5528514,13.4240161 L43.1359839,13.4240161 L44.0211245,17.8963052 L43.5046586,17.8963052 Z" id="Fill-22" fill="#F37920" mask="url(#mask-2)"></path>
                    <path d="M44.3544578,15.6634538 C44.3544578,14.362249 44.6837751,13.3493976 45.5215261,13.3493976 C46.0918072,13.3493976 46.3199197,13.7919679 46.4468273,14.2080321 L46.0315663,14.3694779 C45.9239357,14.0200803 45.8034538,13.8056225 45.5215261,13.8056225 C45.0524498,13.8056225 44.8781526,14.6104418 44.8781526,15.6634538 C44.8781526,16.7164659 45.0524498,17.5204819 45.5215261,17.5204819 C45.8371888,17.5204819 45.9640964,17.2257028 46.0444177,16.8433735 L46.4669076,16.9975904 C46.3536546,17.4803213 46.1118876,17.9767068 45.5215261,17.9767068 C44.6837751,17.9767068 44.3544578,16.9646586 44.3544578,15.6634538" id="Fill-23" fill="#F37920" mask="url(#mask-2)"></path>
                    <polygon id="Fill-24" fill="#F37920" mask="url(#mask-2)" points="47.5048996 17.8962249 47.5048996 13.8729317 46.8012851 13.8729317 46.8012851 13.4239357 48.7193574 13.4239357 48.7193574 13.8729317 48.0149398 13.8729317 48.0149398 17.8962249"></polygon>
                    <path d="M50.7228916,14.7578313 C50.7228916,14.2413655 50.5285141,13.8726908 50.1325301,13.8726908 L49.7638554,13.8726908 L49.7638554,15.6429719 L50.1325301,15.6429719 C50.5285141,15.6429719 50.7228916,15.2742972 50.7228916,14.7578313 L50.7228916,14.7578313 Z M49.2610442,17.8959839 L49.2610442,13.4236948 L50.1791165,13.4236948 C50.9172691,13.4236948 51.2457831,14.039759 51.2457831,14.7578313 C51.2457831,15.4751004 50.9172691,16.0927711 50.1791165,16.0927711 L49.7638554,16.0927711 L49.7638554,17.8959839 L49.2610442,17.8959839 Z" id="Fill-25" fill="#F37920" mask="url(#mask-2)"></path>
                    <path d="M53.5314056,15.6634538 C53.5314056,14.6506024 53.3635341,13.8056225 52.8880321,13.8056225 C52.404498,13.8056225 52.2438554,14.6506024 52.2438554,15.6634538 C52.2438554,16.6626506 52.404498,17.5204819 52.8880321,17.5204819 C53.3635341,17.5204819 53.5314056,16.6626506 53.5314056,15.6634538 M51.7209639,15.6634538 C51.7209639,14.3895582 52.0358233,13.3493976 52.8880321,13.3493976 C53.7322088,13.3493976 54.0542972,14.3895582 54.0542972,15.6634538 C54.0542972,16.9373494 53.7322088,17.9767068 52.8880321,17.9767068 C52.0358233,17.9767068 51.7209639,16.9373494 51.7209639,15.6634538" id="Fill-26" fill="#F37920" mask="url(#mask-2)"></path>
                    <path d="M56.2320482,16.6423293 C56.2320482,16.2134137 56.0641767,15.8310843 55.6553414,15.8310843 L55.2665863,15.8310843 L55.2665863,17.4463454 L55.6553414,17.4463454 C56.0641767,17.4463454 56.2320482,17.1387149 56.2320482,16.6423293 L56.2320482,16.6423293 Z M56.1718072,14.6310843 C56.1718072,14.2077912 56.0376707,13.8728514 55.6288353,13.8728514 L55.2665863,13.8728514 L55.2665863,15.3820884 L55.6288353,15.3820884 C56.0376707,15.3820884 56.1718072,15.06 56.1718072,14.6310843 L56.1718072,14.6310843 Z M54.7637751,17.8961446 L54.7637751,13.4238554 L55.7292369,13.4238554 C56.359759,13.4238554 56.6946988,13.8800803 56.6946988,14.5636145 C56.6946988,15.1266667 56.4665863,15.4624096 56.1115663,15.5893173 C56.5003213,15.6567871 56.7549398,16.1595984 56.7549398,16.6897189 C56.7549398,17.4198394 56.4529317,17.8961446 55.7693976,17.8961446 L54.7637751,17.8961446 Z" id="Fill-27" fill="#F37920" mask="url(#mask-2)"></path>
                    <path d="M59.8923695,17.8955823 L60.3951807,17.8955823 L60.3951807,13.4232932 L59.8923695,13.4232932 L59.8923695,17.8955823 Z M57.9678715,15.6771084 L57.9678715,17.4465863 L58.335743,17.4465863 C58.7325301,17.4465863 58.9269076,17.0779116 58.9269076,16.562249 C58.9269076,16.0457831 58.7325301,15.6771084 58.335743,15.6771084 L57.9678715,15.6771084 Z M57.9678715,13.4232932 L57.9678715,15.2273092 L58.3839357,15.2273092 C59.1212851,15.2273092 59.4497992,15.8441767 59.4497992,16.562249 C59.4497992,17.2795181 59.1212851,17.8963855 58.3839357,17.8963855 L57.4650602,17.8963855 L57.4650602,13.4232932 L57.9678715,13.4232932 Z" id="Fill-28" fill="#F37920" mask="url(#mask-2)"></path>
                    <polygon id="Fill-29" fill="#F37920" mask="url(#mask-2)" points="62.6996787 17.8962249 62.0490763 16.0994378 61.3984739 17.8962249 60.8418474 17.8962249 61.7607229 15.6231325 60.8892369 13.4239357 61.4522892 13.4239357 62.0490763 15.1468273 62.6458635 13.4239357 63.2097189 13.4239357 62.3374297 15.6167068 63.2627309 17.8962249"></polygon>
                    <path d="M66.3192771,14.7578313 C66.3192771,14.2413655 66.1248996,13.8726908 65.7289157,13.8726908 L65.360241,13.8726908 L65.360241,15.6429719 L65.7289157,15.6429719 C66.1248996,15.6429719 66.3192771,15.2742972 66.3192771,14.7578313 L66.3192771,14.7578313 Z M64.8574297,17.8959839 L64.8574297,13.4236948 L65.775502,13.4236948 C66.5136546,13.4236948 66.8421687,14.039759 66.8421687,14.7578313 C66.8421687,15.4751004 66.5136546,16.0927711 65.775502,16.0927711 L65.360241,16.0927711 L65.360241,17.8959839 L64.8574297,17.8959839 Z" id="Fill-30" fill="#F37920" mask="url(#mask-2)"></path>
                    <path d="M68.2492369,14.0272289 L67.8331727,16.4208032 L68.6653012,16.4208032 L68.2492369,14.0272289 Z M68.9062651,17.8963052 L68.7255422,16.8706024 L67.7729317,16.8706024 L67.5922088,17.8963052 L67.075743,17.8963052 L67.9536546,13.4240161 L68.5375904,13.4240161 L69.4227309,17.8963052 L68.9062651,17.8963052 Z" id="Fill-31" fill="#F37920" mask="url(#mask-2)"></path>
                    <path d="M70.3937349,15.6767871 L70.3937349,17.4470683 L70.7624096,17.4470683 C71.1583936,17.4470683 71.3527711,17.0783936 71.3527711,16.5619277 C71.3527711,16.0454618 71.1583936,15.6767871 70.7624096,15.6767871 L70.3937349,15.6767871 Z M71.6483534,13.4237751 L71.6483534,13.8727711 L70.3937349,13.8727711 L70.3937349,15.226988 L70.8097992,15.226988 C71.5471486,15.226988 71.8756627,15.8438554 71.8756627,16.5619277 C71.8756627,17.2791968 71.5471486,17.8960643 70.8097992,17.8960643 L69.8909237,17.8960643 L69.8909237,13.4237751 L71.6483534,13.4237751 Z" id="Fill-32" fill="#F37920" mask="url(#mask-2)"></path>
                    <path d="M74.1608032,15.6634538 C74.1608032,14.6506024 73.9929317,13.8056225 73.5174297,13.8056225 C73.0338956,13.8056225 72.873253,14.6506024 72.873253,15.6634538 C72.873253,16.6626506 73.0338956,17.5204819 73.5174297,17.5204819 C73.9929317,17.5204819 74.1608032,16.6626506 74.1608032,15.6634538 M72.3503614,15.6634538 C72.3503614,14.3895582 72.6652209,13.3493976 73.5174297,13.3493976 C74.3616064,13.3493976 74.6836948,14.3895582 74.6836948,15.6634538 C74.6836948,16.9373494 74.3616064,17.9767068 73.5174297,17.9767068 C72.6652209,17.9767068 72.3503614,16.9373494 72.3503614,15.6634538" id="Fill-33" fill="#F37920" mask="url(#mask-2)"></path>
                    <polygon id="Fill-34" fill="#F37920" mask="url(#mask-2)" points="75.7950201 17.8962249 75.7950201 13.8729317 75.0914056 13.8729317 75.0914056 13.4239357 77.0094779 13.4239357 77.0094779 13.8729317 76.3050602 13.8729317 76.3050602 17.8962249"></polygon>
                    <polygon id="Fill-35" fill="#FFFFFF" mask="url(#mask-2)" points="83.184739 11.7076305 91.3975904 11.7076305 91.3975904 10.335743 83.184739 10.335743"></polygon>
                    <polygon id="Fill-36" fill="#FFFFFF" mask="url(#mask-2)" points="83.184739 8.58795181 91.3975904 8.58795181 91.3975904 5.45863454 83.184739 5.45863454"></polygon>
                    <polygon id="Fill-37" fill="#FFFFFF" mask="url(#mask-2)" points="84.0594378 13.2666667 90.5220884 13.2666667 90.5220884 11.8947791 84.0594378 11.8947791"></polygon>
                    <polygon id="Fill-38" fill="#F37920" mask="url(#mask-2)" points="84.9421687 15.151004 89.6393574 15.151004 89.6393574 13.4538153 84.9421687 13.4538153"></polygon>
                    <polygon id="Fill-39" fill="#F37920" mask="url(#mask-2)" points="84.9421687 42.1076305 89.6393574 42.1076305 89.6393574 40.411245 84.9421687 40.411245"></polygon>
                    <polygon id="Fill-40" fill="#F37920" mask="url(#mask-2)" points="86.2385542 40.2240964 88.3421687 40.2240964 88.3421687 28.8618474 86.2385542 28.8618474"></polygon>
                    <polygon id="Fill-41" fill="#F37920" mask="url(#mask-2)" points="85.8618474 56.4538153 88.7196787 56.4538153 88.7196787 42.2963855 85.8618474 42.2963855"></polygon>
                    <polygon id="Fill-42" fill="#F37920" mask="url(#mask-2)" points="86.2567871 57.5548594 85.8616064 56.6416064 88.7194378 56.6416064 88.3250602 57.5548594"></polygon>
                    <polygon id="Fill-43" fill="#FFFFFF" mask="url(#mask-2)" points="84.0594378 10.1477912 90.5220884 10.1477912 90.5220884 8.77590361 84.0594378 8.77590361"></polygon>
                    <path d="M87.2906024,1.51076305 C86.3114859,1.51076305 85.5146988,2.26658635 85.5146988,3.19670683 C85.5146988,4.1260241 86.3114859,4.8826506 87.2906024,4.8826506 C88.2697189,4.8826506 89.066506,4.1260241 89.066506,3.19670683 C89.066506,2.26658635 88.2697189,1.51076305 87.2906024,1.51076305" id="Fill-44" fill="#FFFFFF" mask="url(#mask-2)"></path>
                    <path d="M87.2906024,5.07028112 C86.2030522,5.07028112 85.3163052,4.23012048 85.3163052,3.19638554 C85.3163052,2.16345382 86.2030522,1.32248996 87.2906024,1.32248996 C88.3789558,1.32248996 89.2648996,2.16345382 89.2648996,3.19638554 C89.2648996,4.23012048 88.3789558,5.07028112 87.2906024,5.07028112 M89.9355823,4.94578313 L89.9355823,3.15461847 C89.9355823,1.74176707 88.7074699,0.602008032 87.2094779,0.644578313 C85.7620884,0.686345382 84.6456225,1.88473896 84.6456225,3.25983936 L84.6456225,4.94578313 C84.6456225,5.22851406 84.4038554,5.45823293 84.1050602,5.45823293 L90.4761446,5.45823293 C90.1781526,5.45823293 89.9355823,5.22851406 89.9355823,4.94578313" id="Fill-45" fill="#FFFFFF" mask="url(#mask-2)"></path>
                    <path d="M82.5787952,7.27911647 L82.3587149,7.27911647 C82.128996,7.27911647 81.9426506,7.0935743 81.9426506,6.86385542 L81.9426506,5.87349398 C81.9426506,5.64457831 82.128996,5.45823293 82.3587149,5.45823293 L82.5787952,5.45823293 C82.8085141,5.45823293 82.9940562,5.64457831 82.9940562,5.87349398 L82.9940562,6.86385542 C82.9940562,7.0935743 82.8085141,7.27911647 82.5787952,7.27911647" id="Fill-46" fill="#FFFFFF" mask="url(#mask-2)"></path>
                    <path d="M92.2306827,7.27911647 L92.0106024,7.27911647 C91.7808835,7.27911647 91.5945382,7.0935743 91.5945382,6.86385542 L91.5945382,5.87349398 C91.5945382,5.64457831 91.7808835,5.45823293 92.0106024,5.45823293 L92.2306827,5.45823293 C92.4604016,5.45823293 92.6459438,5.64457831 92.6459438,5.87349398 L92.6459438,6.86385542 C92.6459438,7.0935743 92.4604016,7.27911647 92.2306827,7.27911647" id="Fill-47" fill="#FFFFFF" mask="url(#mask-2)"></path>
                    <path d="M90.4850602,4.17493976 L90.1051406,4.17493976 L90.1051406,2.92032129 L90.4850602,2.92032129 C90.6714056,2.92032129 90.8224096,3.06409639 90.8224096,3.24080321 L90.8224096,3.85445783 C90.8224096,4.03116466 90.6714056,4.17493976 90.4850602,4.17493976" id="Fill-48" fill="#FFFFFF" mask="url(#mask-2)"></path>
                    <polygon id="Fill-49" fill="#F37920" mask="url(#mask-2)" points="85.0457831 40.2240964 86.0313253 40.2240964 86.0313253 15.3389558 85.0457831 15.3389558"></polygon>
                    <polygon id="Fill-50" fill="#F37920" mask="url(#mask-2)" points="88.5277108 40.2240964 89.513253 40.2240964 89.513253 15.3389558 88.5277108 15.3389558"></polygon>
                    <path d="M90.1905221,41.7587952 L90.0684337,41.7587952 C89.9407229,41.7587952 89.8371084,41.6551807 89.8371084,41.5274699 L89.8371084,40.9917269 C89.8371084,40.8648193 89.9407229,40.7612048 90.0684337,40.7612048 L90.1905221,40.7612048 C90.3182329,40.7612048 90.4218474,40.8648193 90.4218474,40.9917269 L90.4218474,41.5274699 C90.4218474,41.6551807 90.3182329,41.7587952 90.1905221,41.7587952" id="Fill-51" fill="#F37920" mask="url(#mask-2)"></path>
                    <polygon id="Fill-52" fill="#F37920" mask="url(#mask-2)" points="85.8779116 59.8144578 88.7196787 59.8144578 88.7196787 59.124498 85.8779116 59.124498"></polygon>
                    <polygon id="Fill-53" fill="#F37920" mask="url(#mask-2)" points="70.0080321 53.0827309 72.8497992 53.0827309 72.8497992 52.5839357 70.0080321 52.5839357"></polygon>
                    <polygon id="Fill-54" fill="#F37920" mask="url(#mask-2)" points="84.7499598 13.4542169 83.6985542 13.4542169 82.9764659 15.1514056 84.7499598 15.1514056"></polygon>
                    <polygon id="Fill-55" fill="#F37920" mask="url(#mask-2)" points="84.8488353 15.453253 77.6006426 37.5359839 78.651245 37.4355823 84.8488353 18.9769478"></polygon>
                    <polygon id="Fill-56" fill="#F37920" mask="url(#mask-2)" points="82.9270683 15.3387149 84.0595984 15.3387149 76.5800803 37.6214458 75.3873092 37.735502"></polygon>
                    <polygon id="Fill-57" fill="#F37920" mask="url(#mask-2)" points="75.3110843 37.9451406 78.6508434 37.633494 78.0773494 39.4326908 74.6540562 39.8053815"></polygon>
                    <polygon id="Fill-58" fill="#F37920" mask="url(#mask-2)" points="75.0149398 39.9641767 71.1611245 51.0035341 71.1611245 52.3971084 72.8366265 52.3971084 77.3804016 39.7063454"></polygon>
                    <polygon id="Fill-59" fill="#F37920" mask="url(#mask-2)" points="70.8980723 53.2705221 70.0000803 55.8472289 70.4490763 59.0279518 72.5101205 53.2705221"></polygon>
                    <polygon id="Fill-60" fill="#F37920" mask="url(#mask-2)" points="80.1295582 27.6771084 80.664498 27.6771084 77.3978313 37.535743 76.7721285 37.6337349"></polygon>
                    <polygon id="Fill-61" fill="#F37920" mask="url(#mask-2)" points="101.737349 53.0827309 104.579116 53.0827309 104.579116 52.5839357 101.737349 52.5839357"></polygon>
                    <polygon id="Fill-62" fill="#F37920" mask="url(#mask-2)" points="89.8371084 13.4542169 90.8885141 13.4542169 91.6106024 15.1514056 89.8371084 15.1514056"></polygon>
                    <polygon id="Fill-63" fill="#F37920" mask="url(#mask-2)" points="89.7383133 15.453253 96.986506 37.5359839 95.9359036 37.4355823 89.7383133 18.9769478"></polygon>
                    <polygon id="Fill-64" fill="#F37920" mask="url(#mask-2)" points="91.6600803 15.3387149 90.5283534 15.3387149 98.0070683 37.6214458 99.1998394 37.735502"></polygon>
                    <polygon id="Fill-65" fill="#F37920" mask="url(#mask-2)" points="99.2760643 37.9451406 95.9363052 37.633494 96.5097992 39.4326908 99.9330924 39.8053815"></polygon>
                    <polygon id="Fill-66" fill="#F37920" mask="url(#mask-2)" points="99.5722088 39.9641767 103.426024 51.0035341 103.426024 52.3971084 101.750522 52.3971084 97.206747 39.7063454"></polygon>
                    <polygon id="Fill-67" fill="#F37920" mask="url(#mask-2)" points="103.688996 53.2705221 104.586988 55.8472289 104.137992 59.0279518 102.076948 53.2705221"></polygon>
                    <polygon id="Fill-68" fill="#F37920" mask="url(#mask-2)" points="94.4575904 27.6771084 93.9226506 27.6771084 97.1893173 37.535743 97.8150201 37.6337349"></polygon>
                    <polygon id="Fill-69" fill="#F37920" mask="url(#mask-2)" points="86.4554217 58.9365462 88.1253012 58.9365462 88.1253012 57.7421687 86.4554217 57.7421687"></polygon>
                    <polygon id="Fill-70" fill="#F37920" mask="url(#mask-2)" points="86.4560643 60.0020884 86.4560643 62.8767871 87.2906024 65.8631325 88.1259438 62.8767871 88.1259438 60.0020884"></polygon>
                    <path d="M83.9216867,4.19172691 L84.4502008,4.19172691 L84.4502008,3.26803213 C84.4502008,2.6784739 84.6502008,2.12184739 84.9875502,1.6664257 L83.9216867,1.6664257 C83.4638554,1.6664257 83.0927711,2.01823293 83.0927711,2.45277108 L83.0927711,3.40538153 C83.0927711,3.83991968 83.4638554,4.19172691 83.9216867,4.19172691" id="Fill-71" fill="#FFFFFF" mask="url(#mask-2)"></path>
                    <path d="M70.7251406,32.7501205 L67.6078715,32.7501205 L67.6078715,27.0946988 L70.7251406,27.0946988 C72.2841767,27.0946988 73.3717269,28.1469076 73.3717269,29.9228112 C73.3717269,31.6987149 72.2841767,32.7501205 70.7251406,32.7501205 L70.7251406,32.7501205 Z M78.7146988,26.6240161 C77.6697189,23.9284337 75.2584739,21.9830522 71.4496386,21.9830522 L61.7339759,21.9830522 L61.7339759,46.1637751 L67.6078715,46.1637751 L67.6078715,37.8625703 L71.4496386,37.8625703 C72.8994378,37.8625703 74.1404016,37.5758233 75.1885944,37.084257 L78.7146988,26.6240161 Z" id="Fill-72" fill="#FFFFFF" mask="url(#mask-2)"></path>
                </g>
            </g>
        </g>
    </g>
</svg>