<?xml version="1.0" encoding="UTF-8"?>
<svg width="24px" height="18px" viewBox="0 0 24 18" version="1.1" xmlns="http://www.w3.org/2000/svg" xmlns:xlink="http://www.w3.org/1999/xlink">
    <!-- Generator: Sketch 60.1 (88133) - https://sketch.com -->
    <title>mail</title>
    <desc>Created with Sketch.</desc>
    <g id="Дизайн" stroke="none" stroke-width="1" fill="none" fill-rule="evenodd">
        <g id="Kit" transform="translate(-457.000000, -2656.000000)" fill="#F37920" fill-rule="nonzero">
            <path d="M478.890625,2656 L459.109375,2656 C457.947719,2656 457,2656.93212 457,2658.07692 L457,2671.92308 C457,2673.064 457.9435,2674 459.109375,2674 L478.890625,2674 C480.049375,2674 481,2673.07102 481,2671.92308 L481,2658.07692 C481,2656.936 480.0565,2656 478.890625,2656 Z M478.599344,2657.38462 L469.044719,2666.79229 L459.407453,2657.38462 L478.599344,2657.38462 Z M458.40625,2671.63637 L458.40625,2658.35703 L465.178703,2664.96811 L458.40625,2671.63637 Z M459.400609,2672.61538 L466.177328,2665.94292 L468.551875,2668.26086 C468.82675,2668.5292 469.270328,2668.52832 469.544078,2668.25874 L471.859375,2665.97906 L478.599391,2672.61538 L459.400609,2672.61538 Z M479.59375,2671.63632 L472.853734,2665 L479.59375,2658.36363 L479.59375,2671.63632 Z" id="mail"></path>
        </g>
    </g>
</svg>