<svg xmlns="http://www.w3.org/2000/svg" width="87" height="120" viewBox="0 0 87 120"><g><g><path fill="#f37920" d="M55.648 55.068c3.305-3.395 4.957-7.459 4.957-12.193s-1.675-8.776-5.024-12.126c-3.35-3.35-7.392-5.024-12.126-5.024-4.734 0-8.776 1.675-12.126 5.024-3.35 3.35-5.024 7.392-5.024 12.126 0 4.734 1.697 8.798 5.091 12.193 3.395 3.394 7.459 5.091 12.193 5.091s8.754-1.697 12.059-5.091zm7.77 42.07c5.092-7.056 9.335-13.733 12.73-20.03 3.393-6.297 5.94-12.237 7.636-17.82 1.697-5.583 2.546-10.786 2.546-15.61 0-5.448-.826-10.785-2.479-16.01-1.652-5.226-4.22-9.893-7.704-14.002-3.483-4.108-7.883-7.413-13.197-9.914C57.635 1.25 51.315 0 43.99 0c-5.894 0-11.477 1.161-16.747 3.484-5.27 2.322-9.87 5.47-13.8 9.445-3.93 3.975-7.057 8.62-9.38 13.935C1.742 32.179.58 37.784.58 43.679c0 6.342 1.34 12.773 4.02 19.294 2.68 6.52 6.073 12.93 10.182 19.226a188.526 188.526 0 0 0 13.533 18.222c4.21 5.015 8.225 9.751 12.042 14.208l1.892 2.205 2.278 2.546.536.536c.09-.09.2-.179.335-.268l.072-.054c.086-.071.129-.142.129-.214 6.788-7.771 12.728-15.185 17.82-22.241zm-1.607-72.284c5.002 5.047 7.503 11.098 7.503 18.155 0 7.146-2.501 13.22-7.503 18.222-5.002 5.002-11.076 7.503-18.222 7.503-7.057 0-13.108-2.501-18.155-7.503-5.047-5.002-7.57-11.076-7.57-18.222 0-7.057 2.523-13.108 7.57-18.155 5.047-5.047 11.098-7.57 18.155-7.57 7.146 0 13.22 2.523 18.222 7.57z"/></g></g></svg>