<svg xmlns="http://www.w3.org/2000/svg" width="25" height="25" viewBox="0 0 25 25"><g><g opacity="1"><g opacity="1"><path fill="#1f1a4e" d="M1.465 3.663a2.2 2.2 0 0 1 2.198-2.198h17.684a2.2 2.2 0 0 1 2.198 2.198v17.684a2.2 2.2 0 0 1-2.198 2.198H3.663a2.2 2.2 0 0 1-2.198-2.198zM3.662 25h17.676A3.666 3.666 0 0 0 25 21.338V3.662A3.666 3.666 0 0 0 21.338 0H3.662A3.666 3.666 0 0 0 0 3.662v17.676A3.666 3.666 0 0 0 3.662 25z"/></g><g opacity="1"><path fill="#1f1a4e" d="M12.507 7.375a5.138 5.138 0 0 1 5.132 5.132 5.138 5.138 0 0 1-5.132 5.132 5.138 5.138 0 0 1-5.132-5.132 5.138 5.138 0 0 1 5.132-5.132zm-.005 11.719a6.6 6.6 0 0 0 6.592-6.592 6.6 6.6 0 0 0-6.592-6.592 6.6 6.6 0 0 0-6.592 6.592 6.6 6.6 0 0 0 6.592 6.592z"/></g><g opacity="1"><path fill="#1f1a4e" d="M19.832 4.445a.738.738 0 0 1 0 1.475.738.738 0 0 1 0-1.475zm-.005 2.93a2.2 2.2 0 0 0 2.198-2.198 2.2 2.2 0 0 0-2.198-2.197 2.2 2.2 0 0 0-2.197 2.197 2.2 2.2 0 0 0 2.197 2.198z"/></g></g></g></svg>