<svg xmlns="http://www.w3.org/2000/svg" width="25" height="25" viewBox="0 0 25 25"><g><g opacity="1"><g opacity="1"><path fill="#1f1a4e" d="M1.465 3.663a2.2 2.2 0 0 1 2.198-2.198h17.684a2.2 2.2 0 0 1 2.198 2.198v17.684a2.2 2.2 0 0 1-2.198 2.198h-5.13v-5.96h3.552l.977-5.862h-4.528v-1.465h4.396V4.396h-5.13c-2.827 0-5.128 2.3-5.128 5.13v2.197H7.425v5.862h2.93v5.96H3.664a2.2 2.2 0 0 1-2.198-2.198zM3.662 25h8.154v-8.887h-2.93v-2.93h2.93V9.522A3.666 3.666 0 0 1 15.48 5.86h3.662v2.93h-2.93c-.808 0-1.465.657-1.465 1.465v2.93h4.262l-.488 2.93h-3.774V25h6.592A3.666 3.666 0 0 0 25 21.338V3.662A3.666 3.666 0 0 0 21.338 0H3.662A3.666 3.666 0 0 0 0 3.662v17.676A3.666 3.666 0 0 0 3.662 25z"/></g></g></g></svg>