<?xml version="1.0" encoding="UTF-8"?>
<svg width="13px" height="23px" viewBox="0 0 13 23" version="1.1" xmlns="http://www.w3.org/2000/svg" xmlns:xlink="http://www.w3.org/1999/xlink">
    <!-- Generator: Sketch 60.1 (88133) - https://sketch.com -->
    <title>mouse</title>
    <desc>Created with Sketch.</desc>
    <g id="Дизайн" stroke="none" stroke-width="1" fill="none" fill-rule="evenodd">
        <g id="Kit" transform="translate(-2299.000000, -2654.000000)" fill="#1F1A4E" fill-rule="nonzero">
            <g id="mouse" transform="translate(2299.000000, 2654.000000)">
                <path d="M6.54513889,0 C5.6423566,0 4.79601089,0.168455347 4.00607639,0.505371094 C3.21614188,0.842286841 2.52401918,1.30273146 1.9296875,1.88671875 C1.33535582,2.47070604 0.865163767,3.15201434 0.519097222,3.93066406 C0.173030677,4.70931379 0,5.54036017 0,6.42382812 L0,16.5761719 C0,17.4596398 0.173030677,18.2906862 0.519097222,19.0693359 C0.865163767,19.8479857 1.33535582,20.529294 1.9296875,21.1132812 C2.52401918,21.6972685 3.21614188,22.1577132 4.00607639,22.4946289 C4.79601089,22.8315447 5.6423566,23 6.54513889,23 C7.43287481,23 8.2679359,22.8315447 9.05034722,22.4946289 C9.83275854,22.1577132 10.5173582,21.6972685 11.1041667,21.1132812 C11.6909752,20.529294 12.1536441,19.8479857 12.4921875,19.0693359 C12.8307309,18.2906862 13,17.4596398 13,16.5761719 L13,6.42382812 C13,5.54036017 12.8307309,4.70931379 12.4921875,3.93066406 C12.1536441,3.15201434 11.6909752,2.47070604 11.1041667,1.88671875 C10.5173582,1.30273146 9.83275854,0.842286841 9.05034722,0.505371094 C8.2679359,0.168455347 7.43287481,0 6.54513889,0 Z M11.5555556,16.5761719 C11.5555556,17.2649774 11.4239018,17.9125946 11.1605903,18.519043 C10.8972788,19.1254913 10.5399328,19.6533181 10.0885417,20.1025391 C9.63715052,20.5517601 9.10677388,20.907388 8.49739583,21.1694336 C7.88801779,21.4314792 7.23727198,21.5625 6.54513889,21.5625 C5.8530058,21.5625 5.19849845,21.4314792 4.58159722,21.1694336 C3.96469599,20.907388 3.42303474,20.5517601 2.95659722,20.1025391 C2.4901597,19.6533181 2.12152913,19.1254913 1.85069444,18.519043 C1.57985976,17.9125946 1.44444444,17.2649774 1.44444444,16.5761719 L1.44444444,6.42382812 C1.44444444,5.7350226 1.57985976,5.08740538 1.85069444,4.48095703 C2.12152913,3.87450869 2.4901597,3.34668193 2.95659722,2.89746094 C3.42303474,2.44823994 3.96469599,2.09261199 4.58159722,1.83056641 C5.19849845,1.56852083 5.8530058,1.4375 6.54513889,1.4375 C7.23727198,1.4375 7.88801779,1.56852083 8.49739583,1.83056641 C9.10677388,2.09261199 9.63715052,2.44823994 10.0885417,2.89746094 C10.5399328,3.34668193 10.8972788,3.87450869 11.1605903,4.48095703 C11.4239018,5.08740538 11.5555556,5.7350226 11.5555556,6.42382812 L11.5555556,16.5761719 Z M6.5,4.3125 C6.7106492,4.3125 6.88367988,4.38362559 7.01909722,4.52587891 C7.15451457,4.66813222 7.22222222,4.83658757 7.22222222,5.03125 L7.22222222,8.625 C7.22222222,8.81966243 7.15451457,8.98811778 7.01909722,9.13037109 C6.88367988,9.27262441 6.7106492,9.34375 6.5,9.34375 C6.30439717,9.34375 6.13512803,9.27262441 5.9921875,9.13037109 C5.84924697,8.98811778 5.77777778,8.81966243 5.77777778,8.625 L5.77777778,5.03125 C5.77777778,4.83658757 5.84924697,4.66813222 5.9921875,4.52587891 C6.13512803,4.38362559 6.30439717,4.3125 6.5,4.3125 Z" id=""></path>
            </g>
        </g>
    </g>
</svg>