<svg xmlns="http://www.w3.org/2000/svg" width="26" height="25" viewBox="0 0 26 25"><defs><clipPath id="bph7a"><path fill="#fff" d="M.889 2.91c-1.555 2.419-.785 4.183.155 7.448.423 1.478 1.095 2.947 2.016 4.406a25.115 25.115 0 0 0 3.37 4.148c1.862 1.882 3.844 3.336 5.947 4.364 2.102 1.027 4.123 1.54 6.062 1.54 1.881 0 2.494.598 3.991-.363 1.805-1.19 2.765-2.333 2.88-3.427.096-.787-.173-1.488-.806-2.103-.807-.825-1.594-1.497-2.362-2.016-1.094-.768-2.054-1.152-2.88-1.152-.25 0-.49.038-.72.115-.288.077-.58.24-.878.49-.298.25-.754.682-1.368 1.296-.614.595-1.008.96-1.18 1.095a.41.41 0 0 1-.231.057c-.442 0-1.123-.336-2.045-1.008-.73-.518-1.68-1.334-2.85-2.448-1.383-1.44-2.333-2.573-2.852-3.399-.557-.883-.739-1.46-.547-1.728.115-.173.48-.566 1.094-1.181A24.413 24.413 0 0 0 8.967 7.69c.259-.307.427-.605.504-.893.288-.902.01-2.006-.835-3.312C8.079 2.621 7.34 1.728 6.418.806 5.881.27 5.266 0 4.575 0 3.385 0 2.156.97.89 2.91z"/></clipPath></defs><g><g transform="rotate(360 13 12.5)"><path fill="none" stroke="#4a4a4a" stroke-miterlimit="50" stroke-width="3" d="M.889 2.91c-1.555 2.419-.785 4.183.155 7.448.423 1.478 1.095 2.947 2.016 4.406a25.115 25.115 0 0 0 3.37 4.148c1.862 1.882 3.844 3.336 5.947 4.364 2.102 1.027 4.123 1.54 6.062 1.54 1.881 0 2.494.598 3.991-.363 1.805-1.19 2.765-2.333 2.88-3.427.096-.787-.173-1.488-.806-2.103-.807-.825-1.594-1.497-2.362-2.016-1.094-.768-2.054-1.152-2.88-1.152-.25 0-.49.038-.72.115-.288.077-.58.24-.878.49-.298.25-.754.682-1.368 1.296-.614.595-1.008.96-1.18 1.095a.41.41 0 0 1-.231.057c-.442 0-1.123-.336-2.045-1.008-.73-.518-1.68-1.334-2.85-2.448-1.383-1.44-2.333-2.573-2.852-3.399-.557-.883-.739-1.46-.547-1.728.115-.173.48-.566 1.094-1.181A24.413 24.413 0 0 0 8.967 7.69c.259-.307.427-.605.504-.893.288-.902.01-2.006-.835-3.312C8.079 2.621 7.34 1.728 6.418.806 5.881.27 5.266 0 4.575 0 3.385 0 2.156.97.89 2.91z" clip-path="url(&quot;#bph7a&quot;)"/></g></g></svg>