<?xml version="1.0" encoding="UTF-8"?>
<svg width="12px" height="24px" viewBox="0 0 12 24" version="1.1" xmlns="http://www.w3.org/2000/svg" xmlns:xlink="http://www.w3.org/1999/xlink">
    <!-- Generator: Sketch 60.1 (88133) - https://sketch.com -->
    <title>phone</title>
    <desc>Created with Sketch.</desc>
    <g id="Дизайн" stroke="none" stroke-width="1" fill="none" fill-rule="evenodd">
        <g id="Kit" transform="translate(-385.000000, -2653.000000)" fill="#F37920" fill-rule="nonzero">
            <g id="phone" transform="translate(385.000000, 2653.000000)">
                <path d="M12,22.1319714 L12,1.86312564 C12,0.838406537 11.3080054,0 10.4531886,0 L1.5468114,0 C0.696065129,0 0,0.833503575 0,1.86312564 L0,22.1368744 C0,23.1615935 0.691994573,24 1.5468114,24 L10.4531886,24 C11.3039349,23.995097 12,23.1615935 12,22.1319714 Z M0.997286296,4.3195097 L10.9986431,4.3195097 L10.9986431,17.9595506 L0.997286296,17.9595506 L0.997286296,4.3195097 Z M1.5468114,1.20122574 L10.4531886,1.20122574 C10.7544098,1.20122574 11.0027137,1.49540347 11.0027137,1.86312564 L11.0027137,3.11828396 L0.997286296,3.11828396 L0.997286296,1.86312564 C0.997286296,1.49540347 1.24559023,1.20122574 1.5468114,1.20122574 Z M0.997286296,22.1319714 L0.997286296,19.1558733 L10.9986431,19.1558733 L10.9986431,22.1319714 C10.9986431,22.4947906 10.7544098,22.7938713 10.449118,22.7938713 L1.5468114,22.7938713 C1.24559023,22.7938713 0.997286296,22.4996936 0.997286296,22.1319714 Z" id="Shape"></path>
                <path d="M7.04061224,20.4 L5.01204082,20.4 C4.7344898,20.4 4.51,20.6693878 4.51,21.002449 C4.51,21.3355102 4.7344898,21.604898 5.01204082,21.604898 L7.04061224,21.604898 C7.31816327,21.604898 7.54265306,21.3355102 7.54265306,21.002449 C7.54265306,20.6693878 7.31816327,20.4 7.04061224,20.4 Z" id="Path"></path>
            </g>
        </g>
    </g>
</svg>