<svg xmlns="http://www.w3.org/2000/svg" width="15" height="20" viewBox="0 0 15 20"><g><g><g><path fill="#f37920" d="M10.229 14.45a53.14 53.14 0 0 1-2.9 3.771 53.099 53.099 0 0 1-2.892-3.762C2.3 11.386 1.17 8.92 1.17 7.33a6.168 6.168 0 0 1 6.16-6.16 6.168 6.168 0 0 1 6.161 6.16c0 1.59-1.127 4.052-3.261 7.12zM7.329 0C3.29 0 0 3.288 0 7.33c0 1.857 1.17 4.48 3.477 7.797a52.31 52.31 0 0 0 3.416 4.38L7.33 20l.437-.493a52.384 52.384 0 0 0 3.416-4.38c2.307-3.317 3.477-5.94 3.477-7.797C14.66 3.288 11.372 0 7.33 0z"/></g><g><path fill="#f37920" d="M7.326 10.193a3.16 3.16 0 0 1-3.155-3.157 3.16 3.16 0 0 1 3.155-3.157 3.16 3.16 0 0 1 3.156 3.157 3.16 3.16 0 0 1-3.156 3.157zm0-7.483A4.33 4.33 0 0 0 3 7.036a4.331 4.331 0 0 0 4.326 4.326 4.331 4.331 0 0 0 4.326-4.326A4.33 4.33 0 0 0 7.326 2.71z"/></g></g></g></svg>