<?xml version="1.0" encoding="UTF-8"?>
<svg width="15px" height="20px" viewBox="0 0 15 20" version="1.1" xmlns="http://www.w3.org/2000/svg" xmlns:xlink="http://www.w3.org/1999/xlink">
    <!-- Generator: Sketch 60.1 (88133) - https://sketch.com -->
    <title>point_line</title>
    <desc>Created with Sketch.</desc>
    <g id="Дизайн" stroke="none" stroke-width="1" fill="none" fill-rule="evenodd">
        <g id="Kit" transform="translate(-2444.000000, -2655.000000)" fill="#F37920" fill-rule="nonzero">
            <g id="point_line" transform="translate(2444.000000, 2655.000000)">
                <path d="M7.32986449,0 C3.28811645,0 0,3.28811645 0,7.32986449 C0,9.18655395 1.16989137,11.809845 3.47732543,15.1269531 C5.16387938,17.5517273 6.82266234,19.4281006 6.89254762,19.5068359 L7.32986449,20 L7.76733398,19.5068359 C7.83706664,19.4281006 9.49584961,17.5517273 11.1825562,15.1269531 C13.4898377,11.809845 14.6598816,9.18655395 14.6598816,7.32986449 C14.6598816,3.28811645 11.3716125,0 7.32986449,0 Z M10.2290344,14.449768 C9.08905031,16.0897827 7.93685914,17.5012207 7.32986449,18.221283 C6.72439574,17.5032043 5.57647703,16.097107 4.43725586,14.4592285 C2.29934691,11.3858032 1.16928102,8.92044066 1.16928102,7.32986449 C1.16928102,3.93295289 3.93295289,1.16928102 7.32986449,1.16928102 C10.7269287,1.16928102 13.490448,3.93295289 13.490448,7.32986449 C13.490448,8.91876219 12.3626709,11.3807678 10.2290344,14.449768 Z" id="Shape"></path>
                <path d="M7.32986449,2.70904539 C4.94445801,2.70904539 3.00384523,4.6496582 3.00384523,7.03506469 C3.00384523,9.42047117 4.94445801,11.3612366 7.32986449,11.3612366 C9.71542359,11.3612366 11.6560364,9.42047117 11.6560364,7.03506469 C11.6560364,4.6496582 9.71542359,2.70904539 7.32986449,2.70904539 Z M7.32986449,10.1919555 C5.58929445,10.1919555 4.17312621,8.77578734 4.17312621,7.03506469 C4.17312621,5.29449461 5.58929445,3.87832641 7.32986449,3.87832641 C9.07058715,3.87832641 10.4867554,5.29449461 10.4867554,7.03506469 C10.4867554,8.77578734 9.07058715,10.1919555 7.32986449,10.1919555 Z" id="Shape"></path>
            </g>
        </g>
    </g>
</svg>