<?xml version="1.0" encoding="UTF-8"?>
<svg width="86px" height="120px" viewBox="0 0 86 120" version="1.1" xmlns="http://www.w3.org/2000/svg" xmlns:xlink="http://www.w3.org/1999/xlink">
    <!-- Generator: Sketch 60.1 (88133) - https://sketch.com -->
    <title>point</title>
    <desc>Created with Sketch.</desc>
    <g id="Дизайн" stroke="none" stroke-width="1" fill="none" fill-rule="evenodd">
        <g id="Kit" transform="translate(-2519.000000, -2605.000000)" fill="#F37920" fill-rule="nonzero">
            <path d="M2562.41094,2605 C2569.73545,2605 2576.05499,2606.25051 2581.36973,2608.75156 C2586.68447,2611.25262 2591.08358,2614.55753 2594.56719,2618.66641 C2598.0508,2622.77528 2600.61881,2627.44236 2602.27129,2632.66777 C2603.92377,2637.89319 2604.75,2643.23018 2604.75,2648.67891 C2604.75,2653.50237 2603.90144,2658.70538 2602.2043,2664.28809 C2600.50715,2669.8708 2597.96148,2675.81071 2594.56719,2682.10801 C2591.1729,2688.40531 2586.9301,2695.08213 2581.83867,2702.13867 C2576.74724,2709.19522 2570.80733,2716.60895 2564.01875,2724.38008 C2564.01875,2724.45154 2563.97588,2724.523 2563.89013,2724.59446 L2563.81777,2724.64805 C2563.68379,2724.73737 2563.57214,2724.82669 2563.48281,2724.91602 L2562.94688,2724.38008 L2560.66914,2721.83438 L2558.77695,2719.6291 C2554.95976,2715.17206 2550.94572,2710.43616 2546.73477,2705.42129 C2541.82198,2699.57061 2537.31122,2693.49671 2533.20234,2687.19942 C2529.09347,2680.90212 2525.69923,2674.49326 2523.01953,2667.97266 C2520.33983,2661.45205 2519,2655.02087 2519,2648.67891 C2519,2642.78357 2520.16119,2637.17861 2522.48359,2631.86387 C2524.806,2626.54913 2527.93227,2621.90438 2531.8625,2617.92949 C2535.79273,2613.9546 2540.39281,2610.806 2545.66289,2608.48359 C2550.93297,2606.16119 2556.5156,2605 2562.41094,2605 Z M2562.00899,2622.28398 C2554.95244,2622.28398 2548.90087,2624.80733 2543.8541,2629.8541 C2538.80733,2634.90087 2536.28398,2640.95244 2536.28398,2648.00899 C2536.28398,2655.15485 2538.80733,2661.22875 2543.8541,2666.23086 C2548.90087,2671.23297 2554.95244,2673.73399 2562.00899,2673.73399 C2569.15485,2673.73399 2575.22875,2671.23297 2580.23086,2666.23086 C2585.23297,2661.22875 2587.73399,2655.15485 2587.73399,2648.00899 C2587.73399,2640.95244 2585.23297,2634.90087 2580.23086,2629.8541 C2575.22875,2624.80733 2569.15485,2622.28398 2562.00899,2622.28398 Z M2562.00899,2665.15899 C2557.27485,2665.15899 2553.21069,2663.46187 2549.81641,2660.06758 C2546.42212,2656.67329 2544.725,2652.60914 2544.725,2647.875 C2544.725,2643.14086 2546.39979,2639.09904 2549.74941,2635.74941 C2553.09904,2632.39979 2557.14086,2630.725 2561.875,2630.725 C2566.60914,2630.725 2570.65096,2632.39979 2574.00059,2635.74941 C2577.35021,2639.09904 2579.025,2643.14086 2579.025,2647.875 C2579.025,2652.60914 2577.37254,2656.67329 2574.06758,2660.06758 C2570.76261,2663.46187 2566.74312,2665.15899 2562.00899,2665.15899 Z" id="point"></path>
        </g>
    </g>
</svg>