<svg xmlns="http://www.w3.org/2000/svg" width="15" height="14" viewBox="0 0 15 14"><g><g><path fill="#fff" d="M1.449 14c-.271 0-.5-.094-.688-.281a.935.935 0 0 1-.281-.688V9.547c0-.146.052-.274.156-.383A.508.508 0 0 1 1.02 9c.151 0 .279.055.383.164.104.11.156.237.156.383v3.047a.318.318 0 0 0 .328.328h11.188a.318.318 0 0 0 .328-.328V9.547c0-.146.052-.274.156-.383A.508.508 0 0 1 13.941 9c.151 0 .279.057.383.172.104.104.156.229.156.375v3.484c0 .26-.094.487-.281.68a.922.922 0 0 1-.688.289zm5.66-2.75a.5.5 0 0 1-.164-.375V1.844L5.432 3.359a.51.51 0 0 1-.375.157.51.51 0 0 1-.374-.157.521.521 0 0 1-.156-.382c0-.151.052-.28.156-.383L7.116.156A.51.51 0 0 1 7.491 0a.51.51 0 0 1 .374.156l2.433 2.438a.521.521 0 0 1 .156.383.521.521 0 0 1-.156.382.51.51 0 0 1-.374.157.563.563 0 0 1-.39-.157L8.037 1.844v9.031a.5.5 0 0 1-.164.375.536.536 0 0 1-.382.156.536.536 0 0 1-.383-.156z"/></g></g></svg>