<?xml version="1.0" encoding="UTF-8"?>
<svg width="12px" height="12px" viewBox="0 0 12 12" version="1.1" xmlns="http://www.w3.org/2000/svg" xmlns:xlink="http://www.w3.org/1999/xlink">
    <!-- Generator: Sketch 60.1 (88133) - https://sketch.com -->
    <title>viber</title>
    <desc>Created with Sketch.</desc>
    <g id="Дизайн" stroke="none" stroke-width="1" fill="none" fill-rule="evenodd">
        <g id="Kit" transform="translate(-1617.000000, -2659.000000)" fill="#F37920" fill-rule="nonzero">
            <g id="viber" transform="translate(1617.000000, 2659.000000)">
                <path d="M10.2955628,1.70443725 C9.19638061,0.605255133 7.73529052,0 6.18072511,0 C6.18063354,0 6.18026733,0 6.18017578,0 C5.41131591,0 4.66204833,0.148956305 3.95333862,0.442565906 C3.24453736,0.736175531 2.60952759,1.16070558 2.0657959,1.70443725 C0.966705328,2.80352784 0.361450195,4.26489258 0.361450195,5.81927489 C0.361450195,6.74624634 0.585113531,7.66744995 1.00891113,8.4882202 L0.0307617188,11.2825928 C-0.0381774844,11.4797058 0.0106201172,11.6939392 0.158386219,11.8416138 C0.261749273,11.9450684 0.397796625,12 0.537689203,12 C0.59765625,12 0.658264172,11.9899292 0.717407227,11.9692383 L3.5117798,10.9911804 C4.33255005,11.414978 5.25375366,11.6386414 6.18072511,11.6386414 C7.73510742,11.6386414 9.19638061,11.0332947 10.2955628,9.9342041 C11.3946533,8.83511353 11.9999986,7.37374877 11.9999986,5.81936646 C11.9999986,4.26489258 11.3947449,2.80352784 10.2955628,1.70443725 Z M9.79788209,9.43652344 C8.83172606,10.402771 7.54705809,10.9347839 6.18072511,10.9347839 C5.34484863,10.9347839 4.51446534,10.7280579 3.77929688,10.3367615 C3.64599609,10.2658997 3.48843384,10.2537232 3.34698488,10.3032532 L0.808227539,11.1917725 L1.69683839,8.65301512 C1.74636841,8.51138306 1.73410034,8.35382081 1.66323853,8.22061158 C1.2720337,7.48562623 1.06521607,6.65524291 1.06521607,5.81927489 C1.06521607,4.45294191 1.59732056,3.16827394 2.56347656,2.20211791 C3.52954102,1.23605346 4.81402589,0.703948969 6.18026733,0.703765875 L6.18072511,0.703765875 C7.54714966,0.703765875 8.83172606,1.23587037 9.79788209,2.20211791 C10.7641296,3.16827394 11.2962341,4.45285034 11.2962341,5.81927489 C11.2962341,7.18569947 10.7641296,8.47036744 9.79788209,9.43652344 Z" id="Shape"></path>
                <path d="M8.34338379,6.33911133 C8.07568359,6.07141113 7.64007567,6.07141113 7.3723755,6.33911133 L7.07958984,6.63189698 C6.35256959,6.2357483 5.7642517,5.64743041 5.36801147,4.92041016 L5.66079713,4.6276245 C5.92858887,4.35992433 5.92858887,3.92431641 5.66079713,3.65661621 L4.87179565,2.86761473 C4.60409545,2.59991456 4.16848755,2.59991456 3.90078736,2.86761473 L3.2696228,3.4987793 C2.90808105,3.86032104 2.89004517,4.48187255 3.21881105,5.24899291 C3.50427246,5.91503906 4.02667238,6.64709473 4.68978881,7.31021119 C5.35290527,7.97332762 6.08496094,8.49572754 6.75100709,8.78118895 C7.11547852,8.93737793 7.44699096,9.01528931 7.73345948,9.01528931 C8.04995728,9.01528931 8.31143189,8.92016602 8.5012207,8.7303772 L9.13238527,8.09912109 L9.13238527,8.09921264 C9.26211548,7.96948242 9.33352662,7.79708862 9.33352662,7.61370848 C9.33352662,7.43023683 9.26211548,7.25784302 9.13238527,7.12820435 L8.34338379,6.33911133 Z M8.00354004,8.23269654 C7.9003601,8.33587645 7.58303834,8.37203979 7.02832031,8.13436889 C6.44256591,7.8833313 5.78878784,7.41384888 5.18746948,6.81253052 C4.58615112,6.21121216 4.11676027,5.55752564 3.86572266,4.97177123 C3.62796021,4.41705323 3.66412355,4.0996399 3.76730346,3.99645996 L4.38638306,3.37738036 L5.1510315,4.14212037 L4.7845459,4.50869752 C4.61883544,4.67440795 4.5788269,4.9257202 4.68511964,5.13409425 C5.16696166,6.07891847 5.92108153,6.83303834 6.86590575,7.31488036 C7.07437134,7.4211731 7.32568359,7.38125611 7.49139403,7.2154541 L7.85787963,6.8489685 L8.62261964,7.61370848 L8.00354004,8.23269654 Z" id="Shape"></path>
            </g>
        </g>
    </g>
</svg>