<svg xmlns="http://www.w3.org/2000/svg" width="70" height="61" viewBox="0 0 70 61"><g><g opacity=".7"><g opacity=".7"><path fill="#8e0807" d="M57.382 36.916c-2.223 0-4.024-2.615-4.024-4.113 0-1.499 1.801-1.313 4.024-1.313 2.222 0 4.023 1.215 4.023 2.713s-1.801 2.713-4.023 2.713zm-.224 14.91a.473.473 0 0 1-.766.253c-1.651-1.387-4.46-2.308-7.684-2.308-3.223 0-6.032.921-7.684 2.308a.475.475 0 0 1-.765-.254 7.844 7.844 0 0 1-.22-1.804c0-4.784 3.881-8.662 8.67-8.662 4.788 0 8.67 3.878 8.67 8.662 0 .624-.085 1.223-.221 1.804zm11.466-31.63a1.771 1.771 0 0 0-2.306-1.236c-4.118 1.447-10.47 2.378-17.615 2.378-1.737 0-3.411-.067-5.034-.171-.84 3.792-2.18 7.274-3.893 10.34.083-.003.162-.017.246-.017 2.22 0 4.02-.185 4.02 1.31 0 1.496-1.8 4.106-4.02 4.106-1.293 0-2.431-.418-3.166-1.057-2.219 2.754-4.811 4.927-7.666 6.363 3.219 10.834 10.744 18.434 19.513 18.434 11.699 0 21.183-13.525 21.183-30.21 0-3.598-.45-7.042-1.262-10.24z"/></g><g opacity=".7"><path fill="#8e0807" d="M25.844 16.82c0-1.501 1.8-4.12 4.02-4.12 2.22 0 4.019 1.216 4.019 2.717 0 1.5-1.8 2.718-4.02 2.718-2.22 0-4.02.185-4.02-1.315zm-4.661 19.336c-4.784 0-8.662-3.881-8.662-8.668 0-.624.084-1.224.22-1.806a.476.476 0 0 1 .312-.34.476.476 0 0 1 .452.087c1.65 1.387 4.458 2.309 7.678 2.309 3.22 0 6.027-.922 7.677-2.31a.474.474 0 0 1 .764.254c.137.582.22 1.182.22 1.806.001 4.787-3.877 8.668-8.661 8.668zm-12.7-20.739c0-1.5 1.799-2.717 4.02-2.717 2.22 0 4.019 2.619 4.019 4.12 0 1.5-1.8 1.315-4.02 1.315-2.22 0-4.02-1.217-4.02-2.718zm33.882-3.76c0-3.6-.449-7.043-1.261-10.24A1.77 1.77 0 0 0 38.797.18c-4.117 1.447-10.47 2.377-17.614 2.377-7.145 0-13.498-.93-17.615-2.377a1.784 1.784 0 0 0-1.425.11c-.438.236-.76.644-.882 1.126A41.645 41.645 0 0 0 0 11.656c0 16.685 9.484 30.21 21.183 30.21s21.182-13.525 21.182-30.21z"/></g></g></g></svg>