<svg xmlns="http://www.w3.org/2000/svg" width="70" height="64" viewBox="0 0 70 64"><g><g opacity=".7"><g opacity=".7"><path fill="#8e0807" d="M14.826 51.35H10.61a5.987 5.987 0 0 0-5.98 5.98v.072a5.987 5.987 0 0 0 5.98 5.98h2.688a5.623 5.623 0 0 0 5.616-5.616V37.627h14.404v7.843h-4.216a5.988 5.988 0 0 0-5.98 5.98v.072a5.988 5.988 0 0 0 5.98 5.981h2.688a5.622 5.622 0 0 0 5.616-5.616V24.72h-22.58z"/></g><g opacity=".7"><path fill="#8e0807" d="M56.377 33.01l-.022-4.374-.014-15.63 2.444-.002a11.224 11.224 0 0 0 7.77-3.18c2.15-2.076 3.327-4.818 3.313-7.72L69.858.07H52.24l.024 26.544-4.224.02a5.942 5.942 0 0 0-4.22 1.773 5.942 5.942 0 0 0-1.73 4.237v.072a5.987 5.987 0 0 0 5.98 5.951h.03l2.687-.013a5.622 5.622 0 0 0 5.589-5.644z"/></g><g opacity=".7"><path fill="#8e0807" d="M65.652 34.194a13.32 13.32 0 0 1-3.931 10.174 13.316 13.316 0 0 1-10.224 3.8l-.267 4.078a17.408 17.408 0 0 0 13.363-4.969 17.416 17.416 0 0 0 5.142-13.297z"/></g><g opacity=".7"><path fill="#8e0807" d="M51.937 41.575l-.267 4.08a10.815 10.815 0 0 0 8.285-3.08 10.793 10.793 0 0 0 3.187-8.245l-4.083.214a6.705 6.705 0 0 1-1.976 5.12 6.706 6.706 0 0 1-5.146 1.91z"/></g><g opacity=".7"><path fill="#8e0807" d="M8.038 17.446a13.325 13.325 0 0 1 10.224-3.8l.267-4.079a17.413 17.413 0 0 0-13.363 4.97A17.412 17.412 0 0 0 .024 27.834l4.083-.214a13.317 13.317 0 0 1 3.93-10.174z"/></g><g opacity=".7"><path fill="#8e0807" d="M17.74 20.243l.266-4.08a10.793 10.793 0 0 0-8.284 3.08 10.796 10.796 0 0 0-3.187 8.244l4.082-.214a6.705 6.705 0 0 1 1.977-5.12 6.707 6.707 0 0 1 5.145-1.91z"/></g></g></g></svg>