<svg xmlns="http://www.w3.org/2000/svg" width="16" height="18" viewBox="0 0 16 18"><g><g><path fill="#8e0807" d="M5.333 8.113v1.784H3.541V8.113zm3.532 0v1.784h-1.74V8.113zm3.594 0v1.784h-1.792V8.113zm1.749-6.339c.484 0 .903.18 1.259.54.355.361.533.787.533 1.277v12.635c0 .49-.178.909-.533 1.255-.356.346-.775.519-1.259.519H1.792c-.498 0-.92-.173-1.27-.52A1.704 1.704 0 0 1 0 16.227V3.591c0-.49.174-.916.523-1.276a1.7 1.7 0 0 1 1.269-.541h.875V0h1.792v1.774h7.082V0h1.792v1.774zm0 14.452v-9.93H1.792v9.93z"/></g></g></svg>