<svg xmlns="http://www.w3.org/2000/svg" width="20" height="18" viewBox="0 0 20 18"><g><g><g transform="rotate(-45 9.5 9)"><path fill="#c1c1c1" d="M-1.712 9.793a1.244 1.244 0 0 1-.216-.346A1.117 1.117 0 0 1-2 9.028c0-.143.024-.279.072-.406a.929.929 0 0 1 .553-.55c.128-.048.264-.072.408-.072h21.934c.144 0 .28.024.408.072a.934.934 0 0 1 .553.55c.048.127.072.263.072.406 0 .16-.024.299-.072.419-.048.12-.12.235-.216.346a.934.934 0 0 1-.337.215 1.158 1.158 0 0 1-.408.072H-.967c-.144 0-.28-.024-.408-.072a.934.934 0 0 1-.337-.215z"/></g><g transform="rotate(45 10.5 9)"><path fill="#c1c1c1" d="M21.712 8.287a.929.929 0 0 1 .216.335c.048.127.072.263.072.406 0 .144-.024.28-.072.407a.929.929 0 0 1-.553.55 1.158 1.158 0 0 1-.408.071H-.967c-.144 0-.28-.024-.408-.071a.934.934 0 0 1-.553-.55A1.143 1.143 0 0 1-2 9.028c0-.143.024-.279.072-.406a.929.929 0 0 1 .553-.55c.128-.048.264-.072.408-.072h21.934c.144 0 .28.024.408.072.128.048.24.12.337.215z"/></g></g></g></svg>