<svg xmlns="http://www.w3.org/2000/svg" width="36" height="40" viewBox="0 0 36 40"><g><g><path fill="#8e0807" d="M28.448 31.925c-2.476 0-4.49-2.04-4.49-4.546 0-2.507 2.014-4.547 4.49-4.547 2.476 0 4.49 2.04 4.49 4.547 0 2.506-2.014 4.546-4.49 4.546zm4.465-23.007c-.863.399-2.41 1.049-4.553 1.693-2.901.873-7.473 1.9-13.256 2.06V8.454c8.357-.226 14.656-2.25 17.809-3.51zM7.553 36.9c-2.477 0-4.491-2.04-4.491-4.546 0-2.507 2.014-4.546 4.49-4.546 2.476 0 4.49 2.04 4.49 4.546 0 2.507-2.014 4.546-4.49 4.546zM33.736 1.195c-.08.042-8.074 4.18-20.164 4.18h-1.53V26.21a7.451 7.451 0 0 0-4.49-1.502C3.387 24.708 0 28.138 0 32.354 0 36.57 3.388 40 7.552 40s7.552-3.43 7.552-7.646V15.77c8.57-.217 14.74-2.216 17.834-3.487v8.951a7.451 7.451 0 0 0-4.49-1.502c-4.164 0-7.552 3.43-7.552 7.646 0 4.216 3.388 7.646 7.552 7.646S36 31.595 36 27.379V0z"/></g></g></svg>