<svg xmlns="http://www.w3.org/2000/svg" width="50" height="50" viewBox="0 0 50 50"><g><g opacity=".9"><path fill="#ececec" d="M25 0c4.567 0 8.794 1.142 12.68 3.425 3.766 2.164 6.731 5.129 8.895 8.895C48.858 16.206 50 20.433 50 25s-1.142 8.794-3.425 12.68c-2.164 3.766-5.129 6.731-8.895 8.895C33.794 48.858 29.567 50 25 50s-8.794-1.142-12.68-3.425c-3.766-2.204-6.731-5.189-8.895-8.955C1.142 33.734 0 29.527 0 25c0-4.527 1.142-8.734 3.425-12.62C5.63 8.614 8.614 5.629 12.38 3.425 16.266 1.142 20.473 0 25 0zm-5.048 36.238L34.986 25 19.952 13.702z"/></g></g></svg>