<?xml version="1.0" encoding="UTF-8"?>
<svg width="10px" height="20px" viewBox="0 0 10 20" version="1.1" xmlns="http://www.w3.org/2000/svg" xmlns:xlink="http://www.w3.org/1999/xlink">
    <!-- Generator: Sketch 58 (84663) - https://sketch.com -->
    <title> copy</title>
    <desc>Created with Sketch.</desc>
    <g id="Page-1" stroke="none" stroke-width="1" fill="none" fill-rule="evenodd">
        <g id="О-нас-XS-" transform="translate(-350.000000, -1393.000000)" fill="#8E0807" fill-rule="nonzero">
            <g id="Group-3" transform="translate(-142.000000, 1328.000000)">
                <path d="M501.380692,65 C501.465696,65 501.544626,65.0162918 501.617486,65.0488759 C501.690346,65.0814599 501.757134,65.1303353 501.817851,65.1955034 C501.939284,65.3258397 502,65.4854992 502,65.6744868 C502,65.8634744 501.939284,66.0231339 501.817851,66.1534702 L493.51184,75.0684262 L501.708561,83.8660802 C501.829995,83.9964164 501.89071,84.1528176 501.89071,84.3352884 C501.89071,84.5177591 501.829995,84.6741603 501.708561,84.8044966 C501.587128,84.9348328 501.438374,85 501.262295,85 C501.086216,85 500.937463,84.9348328 500.816029,84.8044966 L492.182149,75.5376344 C492.060716,75.4072981 492,75.250897 492,75.0684262 C492,74.8859554 492.060716,74.7295543 492.182149,74.599218 L500.943534,65.1955034 C501.00425,65.1303353 501.074074,65.0814599 501.153005,65.0488759 C501.231937,65.0162918 501.307832,65 501.380692,65 Z" id="-copy" transform="translate(497.000000, 75.000000) scale(-1, 1) translate(-497.000000, -75.000000) "></path>
            </g>
        </g>
    </g>
</svg>