<?xml version="1.0" encoding="UTF-8"?>
<svg width="24px" height="18px" viewBox="0 0 24 18" version="1.1" xmlns="http://www.w3.org/2000/svg" xmlns:xlink="http://www.w3.org/1999/xlink">
    <!-- Generator: Sketch 58 (84663) - https://sketch.com -->
    <title>Group 3</title>
    <desc>Created with Sketch.</desc>
    <g id="Symbols" stroke="none" stroke-width="1" fill="none" fill-rule="evenodd">
        <g id="шапка-мобайл" transform="translate(-15.000000, -24.000000)" fill="#C1C1C1" fill-rule="nonzero">
            <g id="Group" transform="translate(15.000000, 15.000000)">
                <g id="Group-3" transform="translate(0.000000, 9.000000)">
                    <path d="M0.288288288,10.0432946 C0.192191712,9.9317113 0.12012036,9.81614458 0.0720720721,9.69659101 C0.0240237838,9.57703743 0,9.43756036 0,9.27815559 C0,9.1346913 0.0240237838,8.99919929 0.0720720721,8.87167547 C0.12012036,8.74415166 0.192191712,8.63257 0.288288288,8.53692714 C0.384384865,8.44128428 0.496495856,8.36955321 0.624624625,8.32173179 C0.752753393,8.27391036 0.888888168,8.25 1.03303303,8.25 L22.966967,8.25 C23.1111118,8.25 23.2472466,8.27391036 23.3753754,8.32173179 C23.5035041,8.36955321 23.6156151,8.44128428 23.7117117,8.53692714 C23.8078083,8.63257 23.8798796,8.74415166 23.9279279,8.87167547 C23.9759762,8.99919929 24,9.1346913 24,9.27815559 C24,9.43756036 23.9759762,9.57703743 23.9279279,9.69659101 C23.8798796,9.81614458 23.8078083,9.9317113 23.7117117,10.0432946 C23.6156151,10.1389375 23.5035041,10.2106686 23.3753754,10.25849 C23.2472466,10.3063114 23.1111118,10.3302218 22.966967,10.3302218 L1.03303303,10.3302218 C0.888888168,10.3302218 0.752753393,10.3063114 0.624624625,10.25849 C0.496495856,10.2106686 0.384384865,10.1389375 0.288288288,10.0432946 Z" id="Path"></path>
                    <path d="M23.7117117,15.2869271 C23.8078083,15.38257 23.8798796,15.4941517 23.9279279,15.6216755 C23.9759762,15.7491993 24,15.8846913 24,16.0281556 C24,16.1716199 23.9759762,16.3071119 23.9279279,16.4346357 C23.8798796,16.5621595 23.8078083,16.6737412 23.7117117,16.769384 C23.6156151,16.8650269 23.5035041,16.936758 23.3753754,16.9845794 C23.2472466,17.0324008 23.1111118,17.0563112 22.966967,17.0563112 L1.03303303,17.0563112 C0.888888168,17.0563112 0.752753393,17.0324008 0.624624625,16.9845794 C0.496495856,16.936758 0.384384865,16.8650269 0.288288288,16.769384 C0.192191712,16.6737412 0.12012036,16.5621595 0.0720720721,16.4346357 C0.0240237838,16.3071119 0,16.1716199 0,16.0281556 C0,15.8846913 0.0240237838,15.7491993 0.0720720721,15.6216755 C0.12012036,15.4941517 0.192191712,15.38257 0.288288288,15.2869271 C0.384384865,15.1912843 0.496495856,15.1195532 0.624624625,15.0717318 C0.752753393,15.0239104 0.888888168,15 1.03303303,15 L22.966967,15 C23.1111118,15 23.2472466,15.0239104 23.3753754,15.0717318 C23.5035041,15.1195532 23.6156151,15.1912843 23.7117117,15.2869271 Z" id="Path"></path>
                    <circle id="Oval" cx="12.375" cy="1.875" r="1.875"></circle>
                </g>
            </g>
        </g>
    </g>
</svg>