<?xml version="1.0" encoding="UTF-8"?>
<svg width="30px" height="30px" viewBox="0 0 30 30" version="1.1" xmlns="http://www.w3.org/2000/svg" xmlns:xlink="http://www.w3.org/1999/xlink">
    <!-- Generator: Sketch 58 (84663) - https://sketch.com -->
    <title>Shape</title>
    <desc>Created with Sketch.</desc>
    <g id="Symbols" stroke="none" stroke-width="1" fill="none" fill-rule="evenodd" opacity="0.200000003">
        <g id="Мобайл-фут" transform="translate(-331.000000, -330.000000)" fill="#636363" fill-rule="nonzero">
            <path d="M358.988813,337.47055 C357.647428,335.172529 355.827926,333.353035 353.529827,332.011725 C351.231317,330.670484 348.722173,330 346.000479,330 C343.279058,330 340.769162,330.670484 338.471063,332.011725 C336.172827,333.35283 334.353324,335.172324 333.01194,337.47055 C331.670487,339.768912 331,342.278797 331,345 C331,347.72134 331.670692,350.230814 333.011735,352.529314 C334.353051,354.827334 336.172553,356.646828 338.470789,357.988275 C340.769162,359.329448 343.278853,360 346.000205,360 C348.721557,360 351.231522,359.329448 353.529758,357.988275 C355.827857,356.647307 357.647291,354.827334 358.988539,352.529314 C360.329581,350.23102 361,347.721203 361,345 C361,342.278523 360.329581,339.76857 358.988813,337.47055 Z M351.786526,345.863026 L350.603741,346.982909 C350.45668,347.121851 350.282854,347.191438 350.08198,347.191438 C349.881025,347.191438 349.706874,347.121851 349.560219,346.982909 L346.000289,343.613034 L342.440683,346.982909 C342.293825,347.121851 342.119918,347.191438 341.918922,347.191438 C341.717885,347.191438 341.543938,347.121851 341.397039,346.982909 L340.214376,345.863026 C340.067477,345.724353 339.994007,345.559382 339.994007,345.369115 C339.994007,345.179117 340.067477,345.014377 340.214376,344.875166 L345.47869,339.891997 C345.625589,339.752939 345.799455,339.683468 346.000451,339.683468 C346.201447,339.683468 346.375638,339.752939 346.522171,339.891997 L351.786526,344.875166 C351.933263,345.014377 352.006814,345.179078 352.006814,345.369115 C352.006814,345.559344 351.933425,345.724314 351.786526,345.863026 Z" id="Shape"></path>
        </g>
    </g>
</svg>