<?xml version="1.0" encoding="UTF-8"?>
<svg width="16px" height="18px" viewBox="0 0 16 18" version="1.1" xmlns="http://www.w3.org/2000/svg" xmlns:xlink="http://www.w3.org/1999/xlink">
    <!-- Generator: Sketch 58 (84663) - https://sketch.com -->
    <title></title>
    <desc>Created with Sketch.</desc>
    <g id="Page-1" stroke="none" stroke-width="1" fill="none" fill-rule="evenodd">
        <g id="Мероприятие-XL" transform="translate(-735.000000, -285.000000)" fill="#8E0807" fill-rule="nonzero">
            <g id="Group-4" transform="translate(735.000000, 198.000000)">
                <g id="Group-2" transform="translate(0.000000, 80.000000)">
                    <path d="M14.208,23.2259615 L14.208,13.2956731 L1.792,13.2956731 L1.792,23.2259615 L14.208,23.2259615 Z M14.208,8.77403846 C14.691558,8.77403846 15.1111093,8.95432512 15.4666667,9.31490385 C15.822224,9.67548257 16,10.1009591 16,10.5913462 L16,23.2259615 C16,23.7163486 15.822224,24.1346137 15.4666667,24.4807692 C15.1111093,24.8269248 14.691558,25 14.208,25 L1.792,25 C1.29421973,25 0.871112853,24.8269248 0.522666667,24.4807692 C0.17422048,24.1346137 0,23.7163486 0,23.2259615 L0,10.5913462 C0,10.1009591 0.17422048,9.67548257 0.522666667,9.31490385 C0.871112853,8.95432512 1.29421973,8.77403846 1.792,8.77403846 L2.66666667,8.77403846 L2.66666667,7 L4.45866667,7 L4.45866667,8.77403846 L11.5413333,8.77403846 L11.5413333,7 L13.3333333,7 L13.3333333,8.77403846 L14.208,8.77403846 Z M12.4586667,15.1129808 L12.4586667,16.8870192 L10.6666667,16.8870192 L10.6666667,15.1129808 L12.4586667,15.1129808 Z M8.87466667,15.1129808 L8.87466667,16.8870192 L7.12533333,16.8870192 L7.12533333,15.1129808 L8.87466667,15.1129808 Z M5.33333333,15.1129808 L5.33333333,16.8870192 L3.54133333,16.8870192 L3.54133333,15.1129808 L5.33333333,15.1129808 Z" id=""></path>
                </g>
            </g>
        </g>
    </g>
</svg>