<?xml version="1.0" encoding="UTF-8"?>
<svg width="10px" height="10px" viewBox="0 0 10 10" version="1.1" xmlns="http://www.w3.org/2000/svg" xmlns:xlink="http://www.w3.org/1999/xlink">
    <!-- Generator: Sketch 58 (84663) - https://sketch.com -->
    <title></title>
    <desc>Created with Sketch.</desc>
    <g id="Symbols" stroke="none" stroke-width="1" fill="none" fill-rule="evenodd">
        <g id="Футер" transform="translate(-1147.000000, -314.000000)" fill="#C1C1C1" fill-rule="nonzero">
            <g id="Group-18" transform="translate(1082.000000, 35.000000)">
                <g id="Group-6" transform="translate(65.000000, 275.000000)">
                    <path d="M5.26442308,6.48798077 L5.26442308,9.12019231 L7.51201923,10.4543269 L7.13942308,11.0913462 L4.50721154,9.49278846 L4.50721154,6.48798077 L5.26442308,6.48798077 Z M5,13.0144231 C5.72115745,13.0144231 6.39422764,12.83013 7.01923077,12.4615385 C7.62820817,12.1089726 8.1089726,11.6282082 8.46153846,11.0192308 C8.83013005,10.3942276 9.01442308,9.72115745 9.01442308,9 C9.01442308,8.27884255 8.83013005,7.60577236 8.46153846,6.98076923 C8.1089726,6.37179183 7.62820817,5.8910274 7.01923077,5.53846154 C6.39422764,5.16986995 5.72115745,4.98557692 5,4.98557692 C4.27884255,4.98557692 3.60577236,5.16986995 2.98076923,5.53846154 C2.37179183,5.8910274 1.8910274,6.37179183 1.53846154,6.98076923 C1.16986995,7.60577236 0.985576923,8.27884255 0.985576923,9 C0.985576923,9.72115745 1.16986995,10.3942276 1.53846154,11.0192308 C1.8910274,11.6282082 2.37179183,12.1089726 2.98076923,12.4615385 C3.60577236,12.83013 4.27884255,13.0144231 5,13.0144231 Z M5,4 C5.91346611,4 6.75881022,4.2283631 7.53605769,4.68509615 C8.28926659,5.11779063 8.88220937,5.71073341 9.31490385,6.46394231 C9.7716369,7.24118978 10,8.08653389 10,9 C10,9.91346611 9.7716369,10.7588102 9.31490385,11.5360577 C8.88220937,12.2892666 8.28926659,12.8822094 7.53605769,13.3149038 C6.75881022,13.7716369 5.91346611,14 5,14 C4.08653389,14 3.24118978,13.7716369 2.46394231,13.3149038 C1.71073341,12.8741965 1.11779063,12.2772474 0.685096154,11.5240385 C0.228363101,10.746791 0,9.90545325 0,9 C0,8.09454675 0.228363101,7.25320901 0.685096154,6.47596154 C1.12580349,5.72275264 1.72275264,5.12580349 2.47596154,4.68509615 C3.25320901,4.2283631 4.09454675,4 5,4 Z" id=""></path>
                </g>
            </g>
        </g>
    </g>
</svg>