<?xml version="1.0" encoding="UTF-8"?>
<svg width="24px" height="24px" viewBox="0 0 24 24" version="1.1" xmlns="http://www.w3.org/2000/svg" xmlns:xlink="http://www.w3.org/1999/xlink">
    <!-- Generator: Sketch 58 (84663) - https://sketch.com -->
    <title></title>
    <desc>Created with Sketch.</desc>
    <g id="Symbols" stroke="none" stroke-width="1" fill="none" fill-rule="evenodd">
        <g id="Футер" transform="translate(-1139.000000, -260.000000)" fill="#C1C1C1" fill-rule="nonzero">
            <g id="Group-18" transform="translate(1082.000000, 35.000000)">
                <g id="Group-16" transform="translate(0.000000, 189.000000)">
                    <g id="Group-14" transform="translate(4.000000, 36.000000)">
                        <path d="M72.5,0 C74.984375,0 77,2.015625 77,4.5 L77,19.5 C77,21.984375 74.984375,24 72.5,24 L69.5625,24 L69.5625,14.703125 L72.671875,14.703125 L73.140625,11.078125 L69.5625,11.078125 L69.5625,8.765625 C69.5625,7.75752315 69.8233025,7.06817987 71.1960035,7.01850026 L73.265625,7 L73.265625,3.765625 L73.1270362,3.74845679 C72.6819059,3.69907407 71.6510417,3.625 70.484375,3.625 C67.71875,3.625 65.8125,5.3125 65.8125,8.40625 L65.8125,11.078125 L62.6875,11.078125 L62.6875,14.703125 L65.8125,14.703125 L65.8125,24 L57.5,24 C55.015625,24 53,21.984375 53,19.5 L53,4.5 C53,2.015625 55.015625,0 57.5,0 L72.5,0 Z" id=""></path>
                    </g>
                </g>
            </g>
        </g>
    </g>
</svg>