<?xml version="1.0" encoding="UTF-8"?>
<svg width="25px" height="24px" viewBox="0 0 25 24" version="1.1" xmlns="http://www.w3.org/2000/svg" xmlns:xlink="http://www.w3.org/1999/xlink">
    <!-- Generator: Sketch 58 (84663) - https://sketch.com -->
    <title>1384031</title>
    <desc>Created with Sketch.</desc>
    <g id="Symbols" stroke="none" stroke-width="1" fill="none" fill-rule="evenodd">
        <g id="Футер" transform="translate(-1086.000000, -260.000000)" fill="#C1C1C1" fill-rule="nonzero">
            <g id="Group-18" transform="translate(1082.000000, 35.000000)">
                <g id="Group-16" transform="translate(0.000000, 189.000000)">
                    <g id="Group-14" transform="translate(4.000000, 36.000000)">
                        <g id="1384031">
                            <path d="M24.3004237,7.04091279 C24.2443093,5.76843884 24.0384958,4.89362442 23.7436672,4.135586 C23.4395166,3.33094679 22.9715926,2.61055437 22.358539,2.01168937 C21.7595598,1.40350421 21.0342776,0.93091805 20.2388068,0.631576895 C19.4762368,0.336804473 18.6058251,0.131030264 17.3331083,0.0749266337 C16.0508869,0.01407158 15.6438296,0 12.3917577,0 C9.13968591,0 8.73262857,0.01407158 7.45515949,0.0701752105 C6.18244275,0.126278841 5.3074614,0.332235739 4.54946106,0.626825471 C3.74448559,0.93091805 3.02395572,1.39875279 2.42497645,2.01168937 C1.81667524,2.61055437 1.34418163,3.33569821 1.04460063,4.13101726 C0.749771964,4.89362442 0.543958492,5.76368742 0.487844156,7.03616136 C0.426977491,8.31813816 0.412903226,8.72511784 0.412903226,11.9765693 C0.412903226,15.2280207 0.426977491,15.6350004 0.483091826,16.9122257 C0.539206162,18.1846997 0.745202359,19.0595141 1.04003103,19.8175525 C1.34418163,20.6221917 1.81667524,21.3425842 2.42497645,21.9414492 C3.02395572,22.5496343 3.74923792,23.0222205 4.54470873,23.3215616 C5.3074614,23.616334 6.17769042,23.8221083 7.45058989,23.8782119 C8.72787624,23.9344982 9.1351163,23.9483871 12.3871881,23.9483871 C15.63926,23.9483871 16.0463173,23.9344982 17.3237864,23.8782119 C18.5965031,23.8221083 19.4714845,23.616334 20.2294848,23.3215616 C21.839253,22.6993049 23.1119698,21.4268309 23.7343452,19.8175525 C24.0289912,19.0549454 24.2349874,18.1846997 24.2911017,16.9122257 C24.3472161,15.6350004 24.3612903,15.2280207 24.3612903,11.9765693 C24.3612903,8.72511784 24.356538,8.31813816 24.3004237,7.04091279 Z M22.1434036,16.8186588 C22.0918589,17.9882456 21.8953674,18.6198225 21.731594,19.0408738 C21.3291062,20.0841818 20.5009173,20.9122127 19.4574102,21.3146237 C19.0362786,21.4783658 18.4000116,21.6748199 17.2347712,21.7261721 C15.9713764,21.7824584 15.5924676,21.7963473 12.3965101,21.7963473 C9.20055258,21.7963473 8.81689144,21.7824584 7.55806623,21.7261721 C6.38825622,21.6748199 5.75655881,21.4783658 5.33542721,21.3146237 C4.8161412,21.1227384 4.34346486,20.8186458 3.95980373,20.4209863 C3.56206832,20.0326469 3.25791772,19.5648122 3.06599579,19.0456252 C2.90222239,18.6245739 2.70573085,17.9882456 2.65436884,16.8234102 C2.59807178,15.5602564 2.58418024,15.1812372 2.58418024,11.9858894 C2.58418024,8.79054163 2.59807178,8.40695368 2.65436884,7.14855131 C2.70573085,5.97896447 2.90222239,5.34738758 3.06599579,4.92633632 C3.25791772,4.40696668 3.56206832,3.93456321 3.96455605,3.55079258 C4.3527868,3.15313305 4.8207108,2.84904047 5.34017954,2.65733784 C5.76131114,2.49359568 6.39776088,2.29714163 7.56281856,2.24560674 C8.82621337,2.18950311 9.20530491,2.17543153 12.4010797,2.17543153 C15.6017895,2.17543153 15.9806983,2.18950311 17.2395235,2.24560674 C18.4093335,2.29714163 19.0410309,2.49359568 19.4621625,2.65733784 C19.9814486,2.84904047 20.4541249,3.15313305 20.837786,3.55079258 C21.2355214,3.93913195 21.539672,4.40696668 21.731594,4.92633632 C21.8953674,5.34738758 22.0918589,5.98353321 22.1434036,7.14855131 C22.199518,8.4117051 22.2135922,8.79054163 22.2135922,11.9858894 C22.2135922,15.1812372 22.199518,15.555505 22.1434036,16.8186588 Z" id="Shape"></path>
                            <path d="M12.3870968,5.78064516 C8.96780323,5.78064516 6.19354839,8.55471608 6.19354839,11.9741935 C6.19354839,15.393671 8.96780323,18.1677419 12.3870968,18.1677419 C15.8065742,18.1677419 18.5806452,15.393671 18.5806452,11.9741935 C18.5806452,8.55471608 15.8065742,5.78064516 12.3870968,5.78064516 Z M12.3870968,15.9917944 C10.1688335,15.9917944 8.3694959,14.1926407 8.3694959,11.9741935 C8.3694959,9.75574637 10.1688335,7.95659268 12.3870968,7.95659268 C14.6055439,7.95659268 16.4046976,9.75574637 16.4046976,11.9741935 C16.4046976,14.1926407 14.6055439,15.9917944 12.3870968,15.9917944 L12.3870968,15.9917944 Z" id="Shape"></path>
                            <path d="M20.2322581,5.36774194 C20.2322581,6.05179843 19.6776402,6.60645161 18.9934696,6.60645161 C18.3094566,6.60645161 17.7548387,6.05179843 17.7548387,5.36774194 C17.7548387,4.68352784 18.3094566,4.12903226 18.9934696,4.12903226 C19.6776402,4.12903226 20.2322581,4.68352784 20.2322581,5.36774194 L20.2322581,5.36774194 Z" id="Path"></path>
                        </g>
                    </g>
                </g>
            </g>
        </g>
    </g>
</svg>