
<svg width="16px" height="16px" viewBox="0 0 16 16" version="1.1" xmlns="http://www.w3.org/2000/svg" xmlns:xlink="http://www.w3.org/1999/xlink">
    <g id="Symbols" stroke="none" stroke-width="1" fill="none" fill-rule="evenodd">
        <g id="head" transform="translate(-1312.000000, -25.000000)" fill="#C1C1C1" fill-rule="nonzero">
            <path d="M1317.96982,35.0740741 C1318.71605,35.0740741 1319.40375,34.887519 1320.03292,34.5144033 C1320.6621,34.1412876 1321.15958,33.6401495 1321.52538,33.0109739 C1321.89118,32.3817984 1322.07407,31.6941052 1322.07407,30.9478738 C1322.07407,30.2016424 1321.89118,29.5139492 1321.52538,28.8847737 C1321.15958,28.2555981 1320.6621,27.758118 1320.03292,27.3923182 C1319.40375,27.0265185 1318.71605,26.8436214 1317.96982,26.8436214 C1317.22359,26.8436214 1316.5359,27.0265185 1315.90672,27.3923182 C1315.27755,27.758118 1314.77641,28.2555981 1314.40329,28.8847737 C1314.03018,29.5139492 1313.84362,30.2016424 1313.84362,30.9478738 C1313.84362,31.6941052 1314.03018,32.3817984 1314.40329,33.0109739 C1314.77641,33.6401495 1315.27755,34.1412876 1315.90672,34.5144033 C1316.5359,34.887519 1317.22359,35.0740741 1317.96982,35.0740741 Z M1323.45679,35.0740741 L1328,39.617284 L1326.61728,41 L1322.07407,36.4348422 L1322.07407,35.7105624 L1321.8107,35.4691358 C1321.29858,35.9227275 1320.70965,36.270232 1320.0439,36.5116598 C1319.37814,36.7530876 1318.68679,36.8737997 1317.96982,36.8737997 C1316.88705,36.8737997 1315.88844,36.6104279 1314.97394,36.0836763 C1314.05944,35.5569247 1313.33882,34.8472838 1312.81207,33.9547325 C1312.27069,33.0329172 1312,32.030641 1312,30.9478738 C1312,29.8651066 1312.26703,28.8664883 1312.8011,27.951989 C1313.33516,27.0374897 1314.05944,26.3168724 1314.97394,25.7901235 C1315.88844,25.2633719 1316.88705,25 1317.96982,25 C1319.05259,25 1320.05487,25.2706877 1320.97668,25.8120713 C1321.86923,26.3388229 1322.57521,27.0557796 1323.09465,27.962963 C1323.61409,28.8701463 1323.8738,29.8651066 1323.8738,30.9478738 C1323.8738,31.6794733 1323.75309,32.3781402 1323.51166,33.0438957 C1323.27023,33.7096512 1322.92273,34.29858 1322.46914,34.8106996 L1322.71056,35.0740741 L1323.45679,35.0740741 Z" id=""></path>
        </g>
    </g>
</svg>