<?xml version="1.0" encoding="UTF-8"?>
<svg width="24px" height="24px" viewBox="0 0 24 24" version="1.1" xmlns="http://www.w3.org/2000/svg" xmlns:xlink="http://www.w3.org/1999/xlink">
    <!-- Generator: Sketch 58 (84663) - https://sketch.com -->
    <title></title>
    <desc>Created with Sketch.</desc>
    <g id="Symbols" stroke="none" stroke-width="1" fill="none" fill-rule="evenodd">
        <g id="Футер" transform="translate(-1251.000000, -260.000000)" fill="#C1C1C1" fill-rule="nonzero">
            <g id="Group-18" transform="translate(1082.000000, 35.000000)">
                <g id="Group-16" transform="translate(0.000000, 189.000000)">
                    <g id="Group-14" transform="translate(4.000000, 36.000000)">
                        <path d="M177,0 C183.629464,0 189,5.37053571 189,12 C189,18.6294643 183.629464,24 177,24 C170.370536,24 165,18.6294643 165,12 C165,5.37053571 170.370536,0 177,0 Z M182.892857,8.22321429 C183.066964,7.40625 182.598214,7.08482143 182.0625,7.28571429 L182.0625,7.28571429 L170.491071,11.7455357 C169.700893,12.0535714 169.714286,12.4955357 170.357143,12.6964286 L170.357143,12.6964286 L173.316964,13.6205357 L180.1875,9.29464286 C180.508929,9.08035714 180.803571,9.20089286 180.5625,9.41517857 L180.5625,9.41517857 L175.004464,14.4375 L174.790179,17.4910714 C175.098214,17.4910714 175.232143,17.3571429 175.392857,17.1964286 L175.392857,17.1964286 L176.839286,15.8035714 L179.839286,18.0133929 C180.388393,18.3214286 180.776786,18.1607143 180.924107,17.5044643 L180.924107,17.5044643 Z" id=""></path>
                    </g>
                </g>
            </g>
        </g>
    </g>
</svg>