<svg xmlns="http://www.w3.org/2000/svg" width="70" height="70" viewBox="0 0 70 70"><g><g opacity=".7"><g opacity=".7"><path fill="#8e0807" d="M61.52 5.24h-8.202v5.355h-4.101V5.24h-4.102v5.355h-4.101V5.24h-4.102v5.355H32.81V5.24h-4.102v5.355h-4.1V5.24h-4.102v5.355h-4.101V5.24h-4.102v5.355H8.203V5.24H0v14.174h61.52z"/></g><g opacity=".7"><path fill="#8e0807" d="M34.393 51.747H8.203V31.514h45.115v2.751a19.748 19.748 0 0 1 8.203 1.419V23.51H0v35.241h34.803a19.84 19.84 0 0 1-.41-7.004z"/></g><g opacity=".7"><path fill="#8e0807" d="M28.65 43.69h4.122v3.965H28.65z"/></g><g opacity=".7"><path fill="#8e0807" d="M20.43 43.69h4.122v3.965H20.43z"/></g><g opacity=".7"><path fill="#8e0807" d="M20.43 35.62h4.122v3.965H20.43z"/></g><g opacity=".7"><path fill="#8e0807" d="M12.3 43.69h4.02v3.965H12.3z"/></g><g opacity=".7"><path fill="#8e0807" d="M28.65 35.62h4.122v3.965H28.65z"/></g><g opacity=".7"><path fill="#8e0807" d="M12.3 35.62h4.02v3.965H12.3z"/></g><g opacity=".7"><path fill="#8e0807" d="M40.992 35.62H36.87v3.965h3.714a19.2 19.2 0 0 1 .408-.37z"/></g><g opacity=".7"><path fill="#8e0807" d="M8.2 0h4.102v5.24H8.2z"/></g><g opacity=".7"><path fill="#8e0807" d="M16.41 0h4.101v5.24H16.41z"/></g><g opacity=".7"><path fill="#8e0807" d="M24.61 0h4.101v5.24H24.61z"/></g><g opacity=".7"><path fill="#8e0807" d="M32.81 0h4.102v5.24H32.81z"/></g><g opacity=".7"><path fill="#8e0807" d="M41.01 0h4.101v5.24H41.01z"/></g><g opacity=".7"><path fill="#8e0807" d="M49.22 0h4.101v5.24H49.22z"/></g><g opacity=".7"><path fill="#8e0807" d="M52.416 59.984l-5.34-5.339 2.9-2.9 2.44 2.44 5.83-5.83 2.9 2.9zM38.22 54.111c0 8.763 7.129 15.891 15.891 15.891 8.763 0 15.891-7.128 15.891-15.891 0-8.762-7.128-15.891-15.89-15.891-8.763 0-15.892 7.129-15.892 15.89z"/></g></g></g></svg>