<svg xmlns="http://www.w3.org/2000/svg" width="15" height="21" viewBox="0 0 15 21"><g><g><path fill="#8e0807" d="M7.5 0c1.375 0 2.637.328 3.789.984a7.488 7.488 0 0 1 2.706 2.65A7.128 7.128 0 0 1 15 7.346c0 1.026-.258 2.204-.773 3.534-.447 1.127-1.065 2.347-1.856 3.66a48.23 48.23 0 0 1-2.242 3.255 39.446 39.446 0 0 1-1.856 2.323L7.5 21l-.773-.883a39.446 39.446 0 0 1-1.856-2.323 48.23 48.23 0 0 1-2.242-3.256c-.79-1.312-1.41-2.532-1.856-3.66C.258 9.55 0 8.372 0 7.346c0-1.346.335-2.583 1.005-3.71A7.488 7.488 0 0 1 3.711.985C4.863.327 6.125 0 7.5 0zm-.005 9.945c.48 0 .926-.118 1.338-.354a2.68 2.68 0 0 0 .977-.946c.24-.396.36-.829.36-1.3 0-.471-.12-.909-.36-1.313a2.647 2.647 0 0 0-.977-.959 2.647 2.647 0 0 0-1.338-.353c-.48 0-.922.118-1.325.353a2.678 2.678 0 0 0-.964.96c-.24.403-.36.84-.36 1.312 0 .724.257 1.338.771 1.843.515.504 1.14.757 1.878.757z"/></g></g></svg>