<svg xmlns="http://www.w3.org/2000/svg" width="41" height="40" viewBox="0 0 41 40"><g><g><path fill="#8e0807" d="M37.076 33.56v3.319H30.01c0-.862-.703-1.56-1.57-1.56-.867 0-1.57.698-1.57 1.56H3.16V33.56c2.706-.695 4.71-3.141 4.71-6.045 0-2.903-2.004-5.35-4.71-6.045v-3.318h23.71c0 .862.703 1.56 1.57 1.56.867 0 1.57-.698 1.57-1.56h7.066v3.318c-2.706.695-4.71 3.142-4.71 6.045 0 2.904 2.004 5.35 4.71 6.045zM21.393 8.475a1.574 1.574 0 0 0 2.07.71 1.555 1.555 0 0 0 .767-2.04l6.38-2.99 1.455 3.074a6.203 6.203 0 0 0-1.279 7.802H7.403zm17.253 15.92h1.57V15.03h-4.004c-1.731 0-3.14-1.4-3.14-3.121 0-1.168.649-2.23 1.693-2.77l1.338-.693L32.104 0 .057 15.024l.003.007H.02v9.363h1.57c1.732 0 3.14 1.4 3.14 3.121s-1.408 3.122-3.14 3.122H.02V40h40.196v-9.364h-1.57c-1.732 0-3.14-1.4-3.14-3.12 0-1.722 1.408-3.122 3.14-3.122z"/></g></g></svg>