<svg xmlns="http://www.w3.org/2000/svg" width="13" height="13" viewBox="0 0 13 13"><g><g transform="rotate(360 6.5 6.5)"><path fill="none" stroke="#e2ab1c" stroke-miterlimit="50" d="M1.386 2.263c-.675 1.051-.341 1.818.068 3.235.183.642.475 1.28.875 1.914.409.634.896 1.234 1.463 1.801.81.817 1.67 1.45 2.583 1.895.913.446 1.79.67 2.633.67.817 0 1.083.259 1.733-.158.784-.517 1.2-1.013 1.25-1.489.042-.342-.074-.646-.35-.913a6.683 6.683 0 0 0-1.025-.875c-.475-.334-.892-.5-1.25-.5a.982.982 0 0 0-.313.05 1.008 1.008 0 0 0-.382.212c-.129.108-.327.296-.594.563a9.061 9.061 0 0 1-.513.475.178.178 0 0 1-.1.025c-.191 0-.487-.146-.888-.438-.317-.225-.73-.58-1.238-1.063-.6-.625-1.013-1.117-1.238-1.476-.242-.384-.321-.634-.238-.75.05-.076.209-.246.476-.513a10.6 10.6 0 0 0 .556-.588c.113-.134.186-.263.219-.388.125-.392.004-.871-.363-1.438a7.161 7.161 0 0 0-.963-1.164c-.233-.233-.5-.35-.8-.35-.517 0-1.05.421-1.601 1.263z"/></g></g></svg>