<svg xmlns="http://www.w3.org/2000/svg"  viewBox="0 0 99 54"><g><g><g><path fill="#fff" d="M12.567 43.306c-.328.35-.497.755-.497 1.224 0 .488.169.896.497 1.224.35.35.767.528 1.255.528.466 0 .874-.178 1.223-.528.329-.328.497-.736.497-1.224 0-.466-.168-.874-.497-1.224-.328-.31-.736-.466-1.223-.466-.51 0-.927.16-1.255.466z"/></g><g><path fill="#e2a917" d="M19.302.492h28.012v45.654H19.302zM47.79.02H18.83v46.589h28.96z"/></g><g><g><path fill="#00000b" d="M19.083 46.349V28.806h17.553v17.543zm-.043.043h17.632V28.76H19.04z"/></g><g><path fill="#e2a917" d="M19.203 28.916h17.316V46.23H19.203zm17.586 17.586V28.64H18.93v17.862z"/></g></g><g><g><path fill="#00000b" d="M40.876 35.45v-6.647h6.637v6.647zm-.046.046h6.736V28.76H40.83z"/></g><g><path fill="#e2a917" d="M40.993 28.92h6.42v6.417h-6.42zm6.69-.27H40.72v6.963h6.963z"/></g></g><g><g><path fill="#00000b" d="M36.713 35.45v-6.647h10.81v6.647zm-.043.046h10.896V28.76H36.67z"/></g><g><path fill="#e2a917" d="M36.83 28.92h10.582v6.417H36.83zm10.853-.27H36.56v6.963h11.123z"/></g></g><g><g><path fill="#00000b" d="M36.713 35.458v-2.495h4.083v2.495zm-.043.036h4.163V32.92H36.67z"/></g><g><path fill="#e2a917" d="M36.83 33.077h3.847v2.248H36.83zm4.12-.267h-4.39v2.8h4.39z"/></g></g><g><g><path fill="#00000b" d="M39.293 35.443V33.94h1.513v1.503zm-.043.046h1.589V33.9H39.25z"/></g><g><path fill="#e2a917" d="M39.4 34.054h1.276v1.276H39.4zm1.546-.264H39.13v1.816h1.816z"/></g></g><g><g><path fill="#00000b" d="M39.948 34.43v-1.412h1.411v1.411zm-.068.067h1.547V32.95H39.88z"/></g><g><path fill="#e2a917" d="M40.093 33.152h.85v.855h-.85zm1.204-.342H39.75v1.547h1.547z"/></g></g><g><g><path fill="#00000b" d="M39.46 34.43v-1.412h1.32v1.411zm-.11.067h1.547V32.95H39.35z"/></g><g><path fill="#e2a917" d="M39.65 33.152h.54v.855h-.54zm1.047-.342H39.15v1.547h1.547z"/></g></g><g><path fill="#e2a917" d="M47.41 46.267c0 .025-.01.051-.035.07a.066.066 0 0 1-.096-.026l-.003-.008c-.02-.04-.01-.087.022-.11a.066.066 0 0 1 .097.026l.006.008c.006.01.01.025.01.04zm-.222-.389c0 .03-.01.054-.032.065a.078.078 0 0 1-.106-.025l-.007-.007c-.02-.036-.007-.08.029-.101.035-.022.084-.007.106.029.007.01.01.025.01.04zm-.247-.381a.099.099 0 0 1-.032.07.066.066 0 0 1-.096-.026l-.007-.008c-.019-.04-.01-.087.023-.11a.066.066 0 0 1 .096.026l.006.008c.007.01.01.025.01.04zm-.222-.389c0 .026-.014.055-.032.065a.078.078 0 0 1-.106-.025l-.007-.007c-.021-.036-.007-.08.028-.101.035-.022.085-.007.106.029.007.01.01.025.01.04zm-.248-.39a.074.074 0 0 1-.035.066c-.035.02-.077.01-.096-.024l-.003-.007c-.02-.038-.01-.082.022-.103.036-.02.077-.01.096.024l.007.007c.006.01.01.024.01.037zm-.222-.38c0 .026-.014.051-.032.065a.078.078 0 0 1-.106-.025l-.007-.007c-.02-.036-.007-.08.029-.101.035-.022.084-.007.106.029.007.01.01.025.01.04zm-.246-.383a.08.08 0 0 1-.03.065.07.07 0 0 1-.099-.025l-.006-.007a.077.077 0 0 1 .026-.101c.033-.022.079-.008.099.028.006.011.01.026.01.04zm-.226-.39c0 .026-.011.055-.032.065a.078.078 0 0 1-.106-.025l-.007-.007c-.021-.036-.007-.08.028-.101.035-.022.085-.007.106.029.007.01.01.025.01.04zm-.247-.377c0 .026-.01.053-.03.069a.067.067 0 0 1-.098-.027l-.007-.008a.085.085 0 0 1 .027-.107c.032-.024.079-.008.098.03.007.012.01.027.01.043zm-.223-.392c0 .028-.014.054-.035.065a.078.078 0 0 1-.106-.026l-.004-.007c-.02-.036-.007-.08.029-.1.035-.023.084-.008.106.028.007.01.01.025.01.04zm-.246-.378a.1.1 0 0 1-.03.069.067.067 0 0 1-.099-.027l-.006-.008a.085.085 0 0 1 .026-.107c.033-.023.08-.008.099.03.006.012.01.027.01.043zm-.24-.39c0 .025-.01.054-.032.07a.066.066 0 0 1-.097-.026l-.006-.008c-.02-.04-.01-.087.022-.11a.066.066 0 0 1 .097.026l.006.007c.006.011.01.026.01.04zm-.23-.384c0 .031-.013.058-.03.07a.067.067 0 0 1-.098-.027l-.007-.008a.085.085 0 0 1 .026-.108c.033-.023.08-.007.1.031.006.012.01.027.01.042zm-.227-.386a.106.106 0 0 1-.031.07c-.039.021-.085.01-.106-.026l-.007-.008c-.02-.04-.01-.087.025-.11.039-.021.084-.01.105.026l.004.008c.007.01.01.025.01.04zm-.245-.38a.08.08 0 0 1-.033.069c-.033.023-.076.012-.096-.027l-.006-.008a.085.085 0 0 1 .026-.107c.033-.023.08-.008.099.03.007.012.01.027.01.043zm-.24-.397c0 .028-.01.056-.032.063-.036.021-.077.01-.096-.024l-.007-.007c-.02-.035-.01-.081.023-.102.035-.021.076-.01.096.025l.006.007c.006.01.01.024.01.038zm-.23-.376a.09.09 0 0 1-.033.069.067.067 0 0 1-.099-.027l-.003-.008a.085.085 0 0 1 .027-.107c.032-.024.079-.008.098.03.007.012.01.027.01.043zm-.236-.39c0 .025-.013.05-.033.065-.036.02-.08.01-.1-.025l-.002-.008a.075.075 0 0 1 .026-.1c.033-.025.08-.007.099.029.006.01.01.025.01.04zm-.226-.38a.097.097 0 0 1-.032.069c-.039.023-.085.011-.106-.027l-.007-.008a.082.082 0 0 1 .028-.107c.036-.023.085-.008.106.03.007.012.01.027.01.043zm-.233-.387c0 .027-.015.058-.036.07-.039.023-.085.011-.106-.027l-.003-.008a.082.082 0 0 1 .028-.108c.035-.023.085-.007.106.031.007.012.01.027.01.042zm-.24-.39a.08.08 0 0 1-.038.07.07.07 0 0 1-.1-.026l-.007-.007c-.02-.04-.01-.088.024-.11.038-.022.083-.01.103.026l.007.007c.007.011.01.026.01.04zm-.243-.38c0 .027-.01.054-.03.07a.067.067 0 0 1-.099-.027l-.006-.008a.085.085 0 0 1 .026-.108c.033-.023.08-.007.099.031.007.012.01.027.01.042zm-.24-.392c0 .024-.01.048-.036.065-.035.02-.076.01-.096-.024l-.003-.007c-.02-.037-.01-.082.023-.102.035-.021.076-.01.096.023l.006.007c.006.01.01.024.01.038zm-.233-.38c0 .034-.01.06-.03.069a.067.067 0 0 1-.098-.027l-.007-.008a.085.085 0 0 1 .027-.108c.033-.023.079-.007.099.031.006.012.01.027.01.042zm-.237-.387a.099.099 0 0 1-.032.069.066.066 0 0 1-.096-.026l-.006-.007c-.02-.04-.01-.088.022-.11a.066.066 0 0 1 .096.026l.007.007c.006.011.01.026.01.04zm-.232-.38a.1.1 0 0 1-.03.069.067.067 0 0 1-.099-.027l-.006-.008a.085.085 0 0 1 .026-.107c.033-.024.08-.008.099.03.007.012.01.027.01.043zm-.237-.392a.09.09 0 0 1-.03.064.07.07 0 0 1-.098-.025l-.007-.007a.077.077 0 0 1 .027-.1c.033-.023.079-.008.098.028.007.01.01.025.01.04zm-.233-.382c0 .031-.013.058-.03.07a.067.067 0 0 1-.098-.027l-.007-.008a.085.085 0 0 1 .027-.108c.033-.023.079-.007.098.031.007.012.01.027.01.042zm-.226-.388c0 .025-.01.05-.032.065a.078.078 0 0 1-.106-.026l-.007-.007c-.02-.036-.007-.08.029-.1.035-.023.084-.008.106.028.007.01.01.025.01.04zm-.236-.382c0 .027-.01.054-.032.07a.075.075 0 0 1-.106-.027l-.007-.008a.082.082 0 0 1 .028-.108c.036-.023.085-.007.106.031.007.012.01.027.01.042zm-.247-.388a.08.08 0 0 1-.03.065c-.035.021-.078.01-.098-.026l-.007-.007a.077.077 0 0 1 .027-.1c.033-.022.079-.008.099.028.006.01.01.025.01.04zm-.226-.388c0 .033-.014.059-.035.07-.037.022-.082.01-.103-.026l-.007-.007c-.02-.04-.01-.088.024-.11.038-.022.083-.01.103.026l.007.007c.007.011.01.026.01.04zm-.243-.385a.09.09 0 0 1-.03.065.07.07 0 0 1-.099-.026l-.006-.007a.077.077 0 0 1 .026-.1c.033-.022.08-.008.099.028.007.01.01.025.01.04zm-.227-.387a.088.088 0 0 1-.035.065c-.039.02-.084.01-.105-.024l-.004-.007c-.02-.038-.01-.082.025-.103.035-.02.08-.01.102.024l.007.007c.007.01.01.024.01.038zm-.243-.383c0 .029-.013.054-.03.065-.036.021-.078.01-.098-.026l-.007-.007a.077.077 0 0 1 .027-.1c.033-.022.079-.008.098.028.007.01.01.025.01.04zm-.24-.385c0 .03-.01.055-.032.07a.066.066 0 0 1-.096-.026l-.006-.007c-.02-.04-.01-.088.022-.11a.066.066 0 0 1 .096.026l.007.007c.006.011.01.026.01.04zm-.232-.385a.08.08 0 0 1-.03.065c-.036.021-.079.01-.099-.025l-.006-.008a.077.077 0 0 1 .026-.1c.033-.022.08-.008.1.028.006.011.009.025.009.04zm-.226-.387c0 .026-.01.05-.032.065a.078.078 0 0 1-.106-.025l-.007-.007c-.021-.036-.007-.08.028-.101.036-.022.085-.007.106.029.007.01.01.025.01.04zm-.244-.383a.09.09 0 0 1-.03.065.07.07 0 0 1-.098-.025l-.007-.008a.077.077 0 0 1 .027-.1c.033-.022.079-.008.099.028.006.011.01.025.01.04zm-.226-.39c0 .033-.014.058-.031.065a.078.078 0 0 1-.106-.025l-.007-.007c-.022-.036-.007-.08.028-.101.035-.022.085-.007.106.029.007.01.01.025.01.04zm-.246-.378a.1.1 0 0 1-.03.07.067.067 0 0 1-.099-.027l-.006-.008a.085.085 0 0 1 .026-.108c.033-.023.08-.007.1.031.006.012.009.027.009.042zm-.236-.389a.09.09 0 0 1-.03.065c-.036.022-.08.011-.099-.025l-.007-.007a.077.077 0 0 1 .027-.101c.033-.022.079-.007.099.029.006.01.01.025.01.04zm-.231-.388c0 .028-.014.053-.034.063a.069.069 0 0 1-.097-.024l-.003-.007a.076.076 0 0 1 .023-.102.069.069 0 0 1 .097.025l.004.007c.006.01.01.024.01.038zm-.239-.385c0 .03-.01.055-.03.065-.036.022-.079.011-.099-.025l-.006-.007a.077.077 0 0 1 .026-.101c.033-.022.08-.007.1.029.006.01.009.025.009.04zm-.24-.385c0 .025-.01.05-.032.063-.035.021-.077.01-.096-.024l-.007-.007c-.019-.035-.01-.08.023-.102.035-.02.077-.01.096.025l.006.007c.007.01.01.024.01.038zm-.22-.384c0 .025-.013.05-.031.064a.078.078 0 0 1-.106-.025l-.007-.007c-.021-.036-.007-.08.028-.101.036-.022.085-.007.106.029.007.01.01.025.01.04zm-.236-.387a.088.088 0 0 1-.035.065.075.075 0 0 1-.102-.024l-.007-.007c-.021-.038-.01-.082.024-.103.039-.02.085-.01.106.024l.003.007c.007.01.01.024.01.038zm-.246-.38a.09.09 0 0 1-.03.065.07.07 0 0 1-.098-.026l-.007-.007a.077.077 0 0 1 .026-.1c.033-.022.08-.008.1.028.006.01.01.025.01.04zm-.226-.39c0 .025-.014.05-.032.065a.078.078 0 0 1-.106-.025l-.007-.007c-.021-.036-.007-.08.028-.101.036-.022.085-.008.106.028.007.011.011.026.011.04zm-.243-.383a.09.09 0 0 1-.03.065.07.07 0 0 1-.099-.026l-.007-.007a.077.077 0 0 1 .027-.1c.033-.022.079-.008.099.028.006.01.01.025.01.04zm-.227-.387c0 .029-.01.054-.035.065a.078.078 0 0 1-.106-.025l-.003-.007c-.021-.036-.007-.08.028-.101.035-.022.085-.008.106.029.007.01.01.025.01.04zm-.24-.381a.08.08 0 0 1-.037.07c-.038.021-.083.01-.103-.026l-.004-.008c-.02-.04-.01-.087.024-.11.038-.021.083-.01.103.026l.007.008c.007.01.01.025.01.04zm-.229-.389c0 .026-.014.05-.035.065a.078.078 0 0 1-.106-.025l-.004-.007c-.021-.036-.007-.08.028-.101.036-.022.085-.007.106.029.007.01.011.025.011.04zm-.24-.39a.078.078 0 0 1-.034.065c-.038.02-.083.01-.103-.024l-.007-.006c-.02-.038-.01-.083.024-.103.037-.02.082-.01.103.024l.007.007c.006.01.01.024.01.037zm-.233-.38c0 .026-.014.05-.031.065-.04.022-.085.011-.106-.025l-.007-.007c-.022-.036-.007-.08.028-.101.035-.022.085-.007.106.029.007.01.01.025.01.04zm-.24-.381a.09.09 0 0 1-.037.07c-.038.021-.083.01-.103-.026l-.004-.008c-.02-.04-.01-.087.024-.11.038-.021.083-.01.103.026l.007.008c.007.01.01.025.01.04zm-.242-.392a.09.09 0 0 1-.03.065.07.07 0 0 1-.099-.025l-.006-.007a.077.077 0 0 1 .026-.101c.033-.022.079-.007.099.029.006.01.01.025.01.04zm-.233-.378c0 .027-.01.054-.03.07a.067.067 0 0 1-.099-.027l-.006-.008a.085.085 0 0 1 .026-.108c.033-.023.079-.007.099.031.006.012.01.027.01.042zm-.237-.389a.08.08 0 0 1-.03.065.07.07 0 0 1-.098-.025l-.007-.007a.077.077 0 0 1 .026-.101c.033-.022.08-.007.1.029.006.01.01.025.01.04zm-.233-.38a.1.1 0 0 1-.03.069.067.067 0 0 1-.098-.027l-.007-.008a.085.085 0 0 1 .026-.108c.033-.023.08-.007.1.031.006.012.01.027.01.042zm-.24-.39a.099.099 0 0 1-.032.069.066.066 0 0 1-.096-.026l-.007-.007c-.019-.04-.01-.088.023-.11a.066.066 0 0 1 .096.026l.006.007c.007.011.01.026.01.04zm-.222-.389c0 .029-.014.054-.032.065a.078.078 0 0 1-.106-.025l-.007-.008c-.021-.036-.007-.079.028-.1.035-.022.085-.008.106.028.007.011.01.026.01.04zm-.24-.381a.096.096 0 0 1-.035.069c-.038.022-.082.01-.103-.026l-.007-.007c-.02-.04-.01-.088.024-.11.038-.021.083-.01.103.026l.007.007c.007.011.01.026.01.04zm-.233-.38a.097.097 0 0 1-.032.069c-.039.023-.084.011-.106-.027l-.007-.008a.082.082 0 0 1 .029-.107c.035-.024.084-.008.105.03.008.012.011.027.011.043zm-.24-.399c0 .027-.01.051-.038.065a.072.072 0 0 1-.1-.024l-.006-.007c-.02-.037-.01-.082.024-.102.038-.021.082-.01.103.024l.007.006c.007.01.01.024.01.038zm-.23-.375c0 .027-.01.054-.035.07a.071.071 0 0 1-.102-.027l-.007-.008a.082.082 0 0 1 .028-.108c.035-.023.085-.007.106.031.007.012.01.027.01.042zm-.243-.388c0 .025-.013.05-.033.065a.07.07 0 0 1-.099-.026l-.003-.007a.077.077 0 0 1 .026-.1c.033-.022.08-.008.1.028.006.01.01.025.01.04zm-.226-.382a.097.097 0 0 1-.032.07.075.075 0 0 1-.106-.027l-.007-.008a.082.082 0 0 1 .029-.108c.035-.023.084-.007.106.031.007.012.01.027.01.042zm-.246-.386a.1.1 0 0 1-.03.07.067.067 0 0 1-.099-.027l-.006-.008a.085.085 0 0 1 .026-.108c.033-.023.08-.008.099.03.006.012.01.028.01.043zm-.224-.39a.078.078 0 0 1-.036.063.077.077 0 0 1-.104-.025l-.004-.007a.073.073 0 0 1 .025-.102.077.077 0 0 1 .104.025l.004.007a.07.07 0 0 1 .01.039zm-.239-.38a.088.088 0 0 1-.035.07.075.075 0 0 1-.106-.027l-.004-.008a.082.082 0 0 1 .029-.108c.035-.023.084-.008.106.03.007.012.01.028.01.043zm-.247-.392c0 .024-.01.048-.03.065-.035.02-.078.01-.098-.024l-.006-.007c-.02-.038-.01-.082.023-.103a.067.067 0 0 1 .095.024l.006.007c.007.01.01.024.01.038zm-.232-.38c0 .03-.01.057-.03.068a.067.067 0 0 1-.099-.027l-.006-.007a.085.085 0 0 1 .026-.108c.033-.023.08-.008.099.03.007.012.01.028.01.043zm-.237-.39a.08.08 0 0 1-.03.065c-.036.022-.078.011-.098-.025l-.007-.007a.077.077 0 0 1 .027-.101c.032-.022.079-.007.098.029.007.01.01.025.01.04zm-.233-.378a.1.1 0 0 1-.03.07.067.067 0 0 1-.098-.027l-.007-.008a.085.085 0 0 1 .026-.108c.033-.023.08-.007.1.031.006.012.01.027.01.042zm-.236-.392c0 .03-.013.05-.03.065-.036.022-.079.011-.099-.025l-.006-.007a.077.077 0 0 1 .026-.101c.033-.022.08-.007.099.029.006.01.01.025.01.04zm-.227-.388a.078.078 0 0 1-.035.063c-.039.021-.084.01-.105-.024l-.004-.007a.074.074 0 0 1 .025-.102c.038-.02.084-.01.105.025l.003.007a.07.07 0 0 1 .011.038zm-.246-.382a.09.09 0 0 1-.03.065c-.036.022-.078.011-.098-.025l-.007-.007a.077.077 0 0 1 .027-.101c.033-.022.079-.007.098.029.007.01.01.025.01.04zm-.24-.39c0 .024-.01.052-.035.066a.065.065 0 0 1-.093-.024l-.006-.007c-.02-.038-.01-.082.022-.103.035-.02.077-.01.096.024l.007.007c.006.01.01.024.01.037zm-.222-.38c0 .026-.01.051-.032.065a.078.078 0 0 1-.106-.025l-.007-.007c-.021-.036-.007-.08.028-.101.036-.022.085-.007.106.029.007.01.01.025.01.04zm-.233-.39c0 .03-.01.055-.032.066-.039.021-.085.01-.106-.025l-.007-.008c-.021-.036-.007-.079.028-.1.035-.022.085-.008.106.028.007.011.01.026.01.04zm-.244-.377a.1.1 0 0 1-.03.07.067.067 0 0 1-.098-.028l-.007-.007a.085.085 0 0 1 .027-.108c.032-.023.079-.008.098.03.007.012.01.028.01.043zm-.226-.384a.097.097 0 0 1-.032.07c-.038.023-.084.011-.106-.027l-.007-.008a.082.082 0 0 1 .029-.108c.035-.023.084-.007.106.031.007.012.01.027.01.042zm-.246-.386c0 .03-.013.058-.03.07a.067.067 0 0 1-.099-.028l-.006-.007a.085.085 0 0 1 .026-.108c.033-.023.08-.008.099.03.007.012.01.028.01.043zm-.237-.392c0 .025-.013.05-.033.065-.036.022-.079.01-.098-.025l-.004-.007a.077.077 0 0 1 .027-.101c.033-.022.079-.008.098.028.007.011.01.026.01.04zm-.226-.381c0 .025-.01.05-.032.069-.039.022-.084.01-.105-.026l-.007-.007c-.021-.04-.01-.088.024-.11a.072.072 0 0 1 .102.026l.007.007c.007.011.01.026.01.04zm-.246-.389a.08.08 0 0 1-.03.065c-.036.022-.079.01-.099-.025l-.006-.007a.077.077 0 0 1 .026-.101c.033-.022.08-.008.1.028.006.011.009.026.009.04zm-.227-.381c0 .025-.01.05-.034.069-.038.022-.083.011-.103-.026l-.007-.007c-.02-.04-.01-.088.024-.11.038-.021.082-.01.103.026l.007.007c.007.011.01.026.01.04zm-.23-.389c0 .025-.013.054-.031.065-.039.022-.085.01-.106-.025l-.007-.007c-.021-.036-.007-.08.028-.101.035-.022.085-.008.106.029.007.01.01.025.01.04zm-.236-.39a.096.096 0 0 1-.032.065c-.039.02-.084.01-.105-.024l-.007-.007c-.021-.037-.01-.082.024-.102.035-.02.081-.01.102.024l.007.007c.007.01.01.024.01.037zm-.25-.376a.088.088 0 0 1-.032.068.065.065 0 0 1-.096-.027l-.006-.007c-.02-.037-.01-.086.022-.108a.065.065 0 0 1 .096.026l.007.007c.006.011.01.026.01.041zM26 11.197a.084.084 0 0 1-.032.065c-.038.02-.084.01-.105-.024l-.007-.006c-.02-.038-.01-.083.025-.103.035-.02.08-.01.102.024l.007.007c.007.01.01.024.01.037zm-.246-.383c0 .026-.01.054-.03.065-.035.022-.078.011-.098-.025l-.007-.007a.077.077 0 0 1 .027-.101c.033-.022.079-.007.099.029.006.01.01.025.01.04zm-.226-.378c0 .027-.01.054-.031.07-.04.023-.085.011-.106-.027l-.008-.008a.082.082 0 0 1 .029-.108c.035-.023.085-.008.106.03.007.012.01.028.01.043zm-.236-.392c0 .03-.01.054-.035.065a.074.074 0 0 1-.103-.025l-.007-.007c-.021-.036-.007-.08.028-.101.036-.022.085-.007.106.029.007.01.011.025.011.04zm-.244-.387a.09.09 0 0 1-.032.066c-.036.02-.077.01-.096-.024l-.007-.007c-.02-.038-.01-.083.023-.103.035-.02.076-.01.096.024l.006.007c.006.01.01.024.01.037zm-.226-.38a.09.09 0 0 1-.035.069c-.037.022-.082.01-.103-.026l-.006-.007c-.021-.04-.01-.088.024-.11.037-.022.082-.01.103.026l.006.007c.007.011.01.026.01.04zm-.233-.393a.096.096 0 0 1-.032.066c-.039.02-.084.01-.105-.024l-.007-.007c-.021-.038-.01-.083.024-.103.035-.02.08-.01.102.024l.007.007c.007.01.01.024.01.037zm-.237-.378a.095.095 0 0 1-.035.07c-.038.022-.084.01-.105-.026l-.004-.007c-.02-.04-.01-.088.025-.11.038-.022.084-.01.105.026l.004.007c.007.011.01.026.01.04zm-.246-.38a.1.1 0 0 1-.03.07.067.067 0 0 1-.098-.027l-.007-.008a.085.085 0 0 1 .027-.108c.033-.023.079-.007.099.031.006.012.01.027.01.042zm-.226-.39c0 .028-.01.059-.031.07a.075.075 0 0 1-.106-.027l-.007-.007a.082.082 0 0 1 .028-.108c.035-.023.085-.008.106.03.007.012.01.028.01.043zm-.246-.388c0 .025-.01.05-.033.065a.066.066 0 0 1-.095-.025l-.007-.007a.077.077 0 0 1 .026-.101c.033-.022.08-.008.1.028.006.011.01.026.01.04zm-.223-.381c0 .03-.01.058-.032.07-.039.022-.085.01-.106-.028l-.007-.007a.082.082 0 0 1 .028-.108c.036-.023.085-.008.106.03.007.012.011.028.011.043zm-.244-.392a.1.1 0 0 1-.03.065c-.036.02-.078.01-.098-.024l-.007-.007c-.02-.038-.01-.082.023-.103a.067.067 0 0 1 .095.024l.007.007c.006.01.01.024.01.038zm-.23-.387a.078.078 0 0 1-.037.065c-.038.02-.083.01-.103-.024l-.004-.007c-.02-.037-.01-.082.024-.102.038-.02.083-.01.103.024l.007.006c.007.01.01.024.01.038zm-.236-.38c0 .028-.013.054-.034.069-.038.021-.082.01-.103-.026l-.007-.007c-.02-.04-.01-.088.024-.11.038-.022.083-.011.103.026l.007.007c.007.01.01.025.01.04zm-.246-.39a.084.084 0 0 1-.035.065c-.036.02-.077.01-.096-.024l-.004-.007c-.019-.037-.01-.082.023-.102.035-.02.077-.01.096.024l.006.007c.007.01.01.024.01.037zm-.232-.38a.08.08 0 0 1-.03.065c-.036.022-.08.011-.099-.025l-.007-.007a.077.077 0 0 1 .027-.101c.033-.022.079-.007.099.029.006.01.01.025.01.04zm-.237-.39c0 .026-.01.055-.033.066a.066.066 0 0 1-.095-.026l-.007-.007a.077.077 0 0 1 .026-.1c.033-.022.08-.008.1.028.006.01.01.025.01.04zm-.226-.383c0 .026-.01.05-.032.065-.039.022-.084.011-.106-.025l-.007-.007c-.02-.036-.007-.08.029-.101.035-.022.084-.007.106.029.007.01.01.025.01.04zm-.23-.378a.097.097 0 0 1-.032.07c-.039.023-.085.011-.106-.027l-.007-.008a.082.082 0 0 1 .028-.108c.036-.023.085-.007.106.031.007.012.011.027.011.042zm-.24-.39a.096.096 0 0 1-.035.07c-.037.022-.082.01-.102-.026l-.007-.007c-.02-.04-.01-.088.024-.11.037-.022.082-.01.103.026l.007.007c.006.011.01.026.01.04zm-.244-.392a.079.079 0 0 1-.032.065c-.037.021-.08.01-.099-.024l-.003-.006c-.02-.038-.01-.083.023-.103a.067.067 0 0 1 .095.024l.006.007c.007.01.01.024.01.037zm-.229-.386a.078.078 0 0 1-.034.065c-.038.02-.082.01-.103-.024l-.007-.007c-.02-.038-.01-.082.024-.103.038-.02.083-.01.103.024l.007.007c.007.01.01.024.01.038zm-.243-.384c0 .024-.01.048-.03.066-.036.02-.078.01-.098-.024l-.006-.007c-.02-.038-.01-.083.022-.103a.067.067 0 0 1 .096.024l.006.007c.007.01.01.024.01.037zm-.225-.38c0 .026-.011.05-.036.065a.074.074 0 0 1-.102-.025l-.007-.007c-.021-.036-.007-.08.028-.101.035-.022.085-.007.106.029.007.01.01.025.01.04zm-.247-.39c0 .03-.01.059-.03.066-.036.021-.079.01-.098-.025l-.007-.008a.077.077 0 0 1 .026-.1c.033-.022.08-.008.1.028.006.011.01.025.01.04zm-.223-.377a.097.097 0 0 1-.032.07c-.039.022-.084.01-.106-.028l-.007-.007a.082.082 0 0 1 .029-.108c.035-.023.084-.008.105.03.008.012.011.028.011.043zm-.243-.384a.1.1 0 0 1-.03.07.067.067 0 0 1-.099-.027l-.007-.008a.085.085 0 0 1 .027-.108c.033-.023.079-.007.099.031.006.012.01.027.01.042zm-.24-.395a.09.09 0 0 1-.033.065c-.035.02-.076.01-.096-.024L19.26.443c-.02-.037-.01-.082.022-.102.036-.021.077-.01.096.024l.007.006c.006.01.01.024.01.038z"/></g><g><path fill="#e2a917" d="M47.582 29c0 .022-.01.045-.039.059l-.007.006a.074.074 0 0 1-.099-.026c-.021-.033-.007-.08.028-.099.04-.02.085-.01.106.023.007.01.01.023.01.036zm-.38.238c0 .024-.018.049-.04.067l-.006.003c-.036.021-.078.007-.1-.028-.02-.035-.006-.085.029-.106a.079.079 0 0 1 .106.025c.007.01.01.024.01.039zm-.382.228c0 .023-.015.046-.036.063l-.007.003a.076.076 0 0 1-.1-.026c-.025-.033-.007-.08.028-.1.036-.019.083-.009.104.024.007.01.01.023.01.036zm-.385.23a.069.069 0 0 1-.04.06l-.006.006a.074.074 0 0 1-.1-.026c-.02-.033-.006-.08.03-.099.034-.02.084-.01.105.023.007.01.01.023.01.036zm-.384.233c0 .023-.014.043-.039.06l-.007.006a.074.074 0 0 1-.099-.026c-.02-.033-.007-.08.029-.099.035-.02.084-.01.106.023.007.01.01.023.01.036zm-.38.239c0 .02-.014.045-.039.063l-.007.007c-.035.021-.078.007-.099-.028-.021-.035-.007-.085.028-.106a.079.079 0 0 1 .106.025c.007.01.01.024.01.039zm-.387.23c0 .024-.01.05-.038.063l-.008.007c-.035.021-.077.007-.098-.028-.022-.035-.007-.085.028-.106a.079.079 0 0 1 .106.025c.007.01.01.025.01.039zm-.383.23c0 .025-.01.05-.039.063l-.007.007c-.035.022-.078.008-.099-.028-.021-.035-.007-.084.028-.106.04-.02.085-.01.106.025.007.01.01.025.01.039zm-.373.229c0 .023-.011.046-.041.059l-.008.006a.082.082 0 0 1-.105-.026c-.023-.033-.008-.079.03-.099.041-.02.09-.01.113.023a.06.06 0 0 1 .011.037zm-.382.23c0 .026-.015.05-.04.059l-.008.007a.08.08 0 0 1-.105-.027c-.026-.033-.007-.079.03-.099.041-.02.09-.01.112.024a.06.06 0 0 1 .011.036zm-.392.233a.069.069 0 0 1-.04.059l-.006.007a.074.074 0 0 1-.1-.027c-.02-.033-.006-.079.03-.098.034-.02.084-.01.105.023.007.01.01.023.01.036zm-.384.238c0 .025-.014.05-.039.063l-.007.007c-.035.022-.077.007-.098-.028-.022-.035-.008-.084.028-.106a.079.079 0 0 1 .106.025c.007.01.01.025.01.039zm-.38.229c0 .023-.018.046-.039.059l-.007.006a.074.074 0 0 1-.099-.026c-.021-.033-.007-.079.028-.099.036-.02.085-.01.106.023.007.01.01.023.01.037zm-.373.23c0 .023-.015.046-.042.059l-.007.007a.082.082 0 0 1-.106-.027c-.022-.033-.007-.079.03-.099.038-.02.091-.01.114.024a.06.06 0 0 1 .01.036zm-.395.233a.069.069 0 0 1-.039.059l-.007.007a.073.073 0 0 1-.098-.027c-.024-.033-.007-.079.028-.098.039-.02.084-.01.105.023.007.01.01.023.01.036zm-.375.238c0 .025-.011.05-.041.063l-.008.007a.079.079 0 0 1-.105-.028c-.023-.035-.008-.084.03-.106.041-.02.09-.01.113.025.007.01.01.025.01.039zm-.38.23c0 .028-.012.053-.042.064l-.007.007a.079.079 0 0 1-.106-.029c-.022-.035-.007-.084.03-.105.038-.022.09-.011.113.024.008.01.012.025.012.04zm-.394.233c0 .025-.01.05-.04.067l-.006.004c-.035.021-.078.007-.099-.028-.021-.036-.007-.085.028-.106a.079.079 0 0 1 .106.025c.007.01.01.024.01.038zm-.373.229c0 .023-.015.043-.042.059l-.007.007a.082.082 0 0 1-.105-.027c-.023-.033-.008-.079.03-.098.037-.02.09-.01.113.023a.06.06 0 0 1 .01.036zm-.382.238c0 .021-.015.046-.038.063l-.008.007a.08.08 0 0 1-.106-.028c-.027-.035-.008-.084.03-.106a.084.084 0 0 1 .11.025c.008.01.012.025.012.039zm-.382.23c0 .021-.015.046-.042.064l-.007.007a.079.079 0 0 1-.106-.029c-.022-.035-.007-.084.03-.105.038-.022.091-.011.114.024.007.01.01.025.01.04zm-.394.23c0 .025-.014.05-.039.064l-.007.007c-.035.02-.078.007-.099-.028-.02-.036-.007-.085.029-.106a.079.079 0 0 1 .105.024c.008.011.011.025.011.04zm-.373.234c0 .024-.015.049-.041.063l-.008.007a.079.079 0 0 1-.105-.028c-.023-.035-.008-.085.03-.106.041-.021.09-.01.113.025.007.01.011.024.011.039zm-.38.23a.066.066 0 0 1-.042.063l-.007.007a.079.079 0 0 1-.106-.028c-.022-.035-.007-.085.03-.106.038-.02.09-.01.114.025.007.01.01.025.01.039zm-.399.228c0 .023-.01.046-.038.06l-.007.006a.073.073 0 0 1-.098-.026c-.024-.033-.007-.08.028-.099.039-.02.084-.01.105.023.007.01.01.023.01.036zm-.371.238c0 .025-.011.05-.042.064l-.007.007a.079.079 0 0 1-.106-.028c-.022-.036-.007-.085.03-.106.042-.021.091-.01.114.024.007.011.01.025.01.04zm-.394.23c0 .029-.01.053-.039.064l-.007.007c-.035.021-.078.007-.099-.028-.021-.036-.007-.085.028-.106a.079.079 0 0 1 .106.025c.007.01.01.024.01.038zm-.38.234c0 .024-.015.05-.04.063l-.006.007c-.036.021-.078.007-.1-.028-.02-.035-.006-.085.029-.106a.079.079 0 0 1 .106.025c.007.01.01.025.01.039zm-.384.228a.069.069 0 0 1-.039.06l-.007.006a.074.074 0 0 1-.099-.026c-.02-.033-.007-.08.029-.099.035-.02.084-.01.106.023.007.01.01.023.01.036zm-.371.233c0 .023-.015.046-.038.06l-.008.006a.084.084 0 0 1-.107-.026c-.026-.033-.007-.08.03-.099.04-.02.089-.01.112.023a.06.06 0 0 1 .011.036zm-.396.23a.069.069 0 0 1-.039.06l-.007.006a.074.074 0 0 1-.099-.026c-.02-.033-.007-.079.029-.099.039-.02.084-.01.106.023.007.01.01.023.01.036zm-.384.238c0 .025-.014.05-.034.063l-.007.007c-.038.021-.083.01-.103-.024-.02-.039-.01-.084.024-.105l.007-.004c.038-.02.082-.01.103.025.007.01.01.024.01.038zm-.38.23c0 .022-.014.042-.038.058l-.007.007a.074.074 0 0 1-.1-.026c-.02-.033-.006-.08.029-.099.039-.02.085-.01.106.023.007.01.01.023.01.036zm-.386.23c0 .022-.01.045-.039.059l-.007.006a.074.074 0 0 1-.099-.026c-.021-.033-.007-.08.028-.099.04-.02.085-.01.106.023.007.01.01.023.01.036zm-.38.232c0 .02-.011.043-.04.06l-.006.006a.074.074 0 0 1-.1-.026c-.02-.033-.006-.079.03-.099.034-.02.084-.01.105.023.007.01.01.023.01.036zm-.384.23c0 .024-.01.047-.039.06l-.007.006a.074.074 0 0 1-.099-.026c-.02-.033-.007-.079.029-.099.035-.02.084-.01.106.023.007.01.01.023.01.037zm-.374.239c0 .025-.015.05-.041.067l-.008.003a.078.078 0 0 1-.104-.028c-.026-.035-.008-.084.03-.106.04-.02.09-.01.112.025.007.01.01.025.01.039zm-.393.23c0 .025-.014.05-.039.064l-.007.007c-.035.02-.077.007-.098-.029-.022-.035-.008-.084.028-.105.039-.022.085-.011.106.024.007.01.01.025.01.039zm-.373.227c0 .022-.015.044-.037.06l-.007.007c-.04.02-.088.01-.11-.023a.066.066 0 0 1 .026-.095l.007-.007c.04-.02.088-.01.11.022.007.01.01.023.01.036zm-.38.235c0 .023-.015.046-.041.059l-.008.006a.082.082 0 0 1-.105-.026c-.023-.033-.008-.079.03-.099.037-.02.09-.01.113.023a.06.06 0 0 1 .011.037zm-.384.23c0 .026-.015.05-.041.06l-.008.006a.082.082 0 0 1-.105-.027c-.023-.033-.007-.079.03-.098.042-.02.09-.01.113.023a.06.06 0 0 1 .011.036zm-.395.238a.08.08 0 0 1-.036.067l-.007.004c-.035.02-.078.007-.1-.029-.025-.035-.007-.084.029-.105a.076.076 0 0 1 .104.024.07.07 0 0 1 .01.039zm-.371.229c0 .023-.012.046-.042.059l-.007.006a.082.082 0 0 1-.106-.026c-.022-.033-.007-.079.03-.099.038-.02.09-.01.113.023a.06.06 0 0 1 .012.037zm-.384.233c0 .023-.011.046-.041.059l-.008.006a.082.082 0 0 1-.105-.026c-.023-.033-.008-.079.03-.099.038-.02.09-.01.113.023a.06.06 0 0 1 .011.037zm-.394.23c0 .023-.01.046-.039.06l-.007.006a.074.074 0 0 1-.098-.027c-.022-.033-.007-.079.028-.098.039-.02.085-.01.106.023.007.01.01.023.01.036zm-.38.238c0 .025-.014.05-.039.063l-.007.008c-.035.02-.078.007-.099-.029-.021-.035-.007-.084.028-.105a.079.079 0 0 1 .106.024c.007.01.011.025.011.039zm-.38.233c0 .025-.015.046-.037.067l-.007.004c-.036.02-.08.007-.1-.028-.023-.036-.008-.085.028-.106a.077.077 0 0 1 .105.024.07.07 0 0 1 .01.04zm-.377.23c0 .025-.015.05-.041.064l-.008.007a.079.079 0 0 1-.105-.028c-.023-.036-.007-.085.03-.106.038-.021.09-.01.113.025.008.01.011.024.011.038zm-.387.227c0 .02-.014.042-.04.06l-.007.007c-.037.02-.084.01-.106-.022a.066.066 0 0 1 .025-.096l.008-.007c.04-.019.087-.01.11.023.007.01.01.022.01.035zm-.387.232a.069.069 0 0 1-.039.06l-.007.006a.074.074 0 0 1-.098-.026c-.022-.033-.008-.08.028-.1.039-.019.085-.009.106.024.007.01.01.023.01.036zm-.386.23c0 .027-.01.05-.039.06l-.007.006a.074.074 0 0 1-.099-.026c-.021-.033-.007-.08.028-.099.04-.02.085-.01.106.023.007.01.01.023.01.036zm-.38.238a.08.08 0 0 1-.037.067l-.007.004c-.036.021-.08.007-.101-.028-.022-.036-.007-.085.029-.106a.077.077 0 0 1 .105.025.07.07 0 0 1 .01.038zm-.377.234c0 .024-.01.049-.041.063l-.007.007a.079.079 0 0 1-.106-.028c-.023-.035-.007-.085.03-.106.042-.021.09-.01.113.025.008.01.011.024.011.039zm-.38.228c0 .023-.015.046-.041.06l-.008.006a.082.082 0 0 1-.105-.026c-.023-.033-.008-.08.03-.1.041-.019.09-.009.113.024a.06.06 0 0 1 .011.036zm-.394.23a.069.069 0 0 1-.039.06l-.007.006a.074.074 0 0 1-.099-.026c-.02-.033-.007-.08.029-.099.035-.02.084-.01.106.023.007.01.01.023.01.036zm-.377.236c0 .024-.014.048-.04.065l-.007.007a.08.08 0 0 1-.106-.024c-.022-.037-.011-.082.025-.103l.008-.006c.04-.021.087-.01.11.024.007.01.01.024.01.037zm-.385.236a.09.09 0 0 1-.036.067l-.007.003c-.036.021-.079.007-.1-.028-.025-.035-.007-.085.029-.106a.076.076 0 0 1 .103.025.07.07 0 0 1 .011.039zm-.375.23a.066.066 0 0 1-.041.063l-.008.007a.079.079 0 0 1-.105-.028c-.023-.035-.008-.085.03-.106.042-.02.09-.01.113.025.008.01.011.025.011.039zm-.394.228a.069.069 0 0 1-.038.06l-.007.006a.074.074 0 0 1-.1-.026c-.02-.033-.006-.08.029-.099.039-.02.085-.01.106.023.007.01.01.023.01.036zm-.376.233c0 .023-.01.046-.041.06l-.008.006a.082.082 0 0 1-.105-.026c-.023-.033-.007-.08.03-.099.042-.02.09-.01.113.023a.06.06 0 0 1 .011.036zm-.38.239c0 .024-.011.045-.041.063l-.008.007a.079.079 0 0 1-.105-.028c-.023-.035-.008-.085.03-.106.041-.021.09-.01.113.025.007.01.011.024.011.039zm-.394.23c0 .024-.01.046-.039.063l-.007.007c-.035.021-.077.007-.099-.028-.02-.035-.007-.085.029-.106.039-.02.084-.01.106.025.007.01.01.025.01.039zm-.377.226c0 .02-.014.042-.036.061l-.008.007c-.04.019-.088.01-.11-.023a.066.066 0 0 1 .026-.096l.007-.006c.04-.02.088-.01.11.022.008.01.011.023.011.035zm-.377.232c0 .024-.016.047-.039.063l-.007.003a.084.084 0 0 1-.107-.026c-.027-.033-.008-.079.03-.099.039-.02.088-.01.111.023a.06.06 0 0 1 .012.036zm-.383.23c0 .027-.015.05-.041.06l-.008.006a.082.082 0 0 1-.105-.026c-.023-.033-.008-.079.03-.099.041-.02.09-.01.113.023a.06.06 0 0 1 .011.037zm-.393.234c0 .023-.015.046-.04.062l-.006.004a.074.074 0 0 1-.1-.027c-.02-.033-.006-.079.029-.099.039-.02.085-.01.106.024.007.01.01.023.01.036zm-.373.238c0 .025-.015.05-.042.063l-.007.007a.079.079 0 0 1-.106-.028c-.022-.035-.007-.084.03-.106.042-.02.09-.01.113.025.008.01.012.025.012.039zm-.38.23a.066.066 0 0 1-.042.064l-.008.007a.079.079 0 0 1-.105-.029c-.023-.035-.008-.084.03-.105.041-.021.09-.01.113.024.008.01.011.025.011.04zm-.384.229a.064.064 0 0 1-.039.059l-.008.006a.085.085 0 0 1-.108-.026c-.023-.033-.007-.079.031-.099.039-.02.089-.01.112.023a.06.06 0 0 1 .012.037zm-.401.23c0 .023-.01.046-.034.062l-.007.006c-.038.02-.083.01-.103-.022-.02-.036-.01-.077.024-.096l.007-.007c.037-.019.082-.01.103.023.006.01.01.022.01.035zm-.384.239c0 .024-.01.048-.034.065l-.007.007c-.037.02-.082.01-.103-.024-.02-.038-.01-.082.024-.103l.007-.007c.038-.02.083-.01.103.024.007.01.01.024.01.038zm-.376.232c0 .025-.014.05-.039.064l-.007.007c-.035.02-.078.007-.099-.029-.02-.035-.007-.084.028-.105.04-.022.085-.011.106.024.007.01.011.025.011.04zm-.383.229a.069.069 0 0 1-.04.059l-.006.007a.074.074 0 0 1-.1-.027c-.02-.033-.006-.079.03-.099.034-.02.084-.01.105.023.007.01.01.024.01.037zm-.373.233c0 .023-.015.046-.042.062l-.007.004a.082.082 0 0 1-.106-.027c-.022-.033-.007-.079.03-.098.042-.02.09-.01.113.023a.06.06 0 0 1 .012.036zm-.394.23c0 .026-.014.046-.04.06l-.006.006a.074.074 0 0 1-.1-.027c-.02-.032-.006-.079.03-.098.038-.02.084-.01.105.023.007.01.01.023.01.036z"/></g><g><g><path fill="#00000b" d="M47.655.229c0-.05-.04-.089-.089-.089-7.644 0-14.83 2.975-20.236 8.38-5.401 5.408-8.38 12.592-8.38 20.236 0 9.77 7.948 17.718 17.718 17.718 6.055 0 10.984-4.926 10.984-10.985a6.831 6.831 0 0 0-6.822-6.822h-.089a4.255 4.255 0 0 0-4.162 4.249 2.663 2.663 0 0 0 2.66 2.66c.926 0 1.677-.752 1.677-1.679 0-.589-.482-1.07-1.07-1.07-.384 0-.54.313-.54.696a.089.089 0 0 0 .178 0c0-.285.08-.518.365-.518.493 0 .895.402.895.895 0 .829-.675 1.503-1.503 1.503a2.486 2.486 0 0 1-2.484-2.484c0-1.09.423-2.11 1.193-2.88a4.044 4.044 0 0 1 2.88-1.194h.058c3.638.03 6.59 3 6.59 6.647 0 5.96-4.85 10.81-10.81 10.81-9.675 0-17.543-7.87-17.543-17.543 0-15.684 12.76-28.444 28.441-28.444.05 0 .09-.04.09-.086z"/></g><g><path fill="#e2a917" d="M36.64 46.68c-9.82 0-17.81-8.035-17.81-17.909 0-7.675 2.972-14.895 8.374-20.33C32.603 3.01 39.784.02 47.422.02a.37.37 0 1 1 0 .74c-15.359 0-27.853 12.564-27.853 28.008 0 9.466 7.66 17.166 17.07 17.166 5.74 0 10.412-4.697 10.412-10.47 0-1.677-.65-3.26-1.829-4.453a6.245 6.245 0 0 0-4.41-1.875h-.056c-1 0-1.942.393-2.65 1.105a3.75 3.75 0 0 0-1.098 2.665c0 1.206.975 2.187 2.175 2.187.665 0 1.205-.543 1.205-1.211a.606.606 0 0 0-.604-.608c-.028 0-.04.006-.04.006s-.04.046-.04.227a.37.37 0 1 1-.742 0c0-.592.319-.975.816-.975.739 0 1.34.604 1.34 1.35a1.95 1.95 0 0 1-1.942 1.954 2.924 2.924 0 0 1-2.914-2.93c0-1.187.457-2.307 1.286-3.156a4.447 4.447 0 0 1 3.11-1.353h.096c3.876 0 7.03 3.172 7.03 7.07.003 6.181-4.997 11.212-11.144 11.212z"/></g></g><g><path fill="#fff" d="M96.981 46.604H66.04L93.779 2.87l-25.84-.034L67.942 0l30.975.04-27.733 43.73h25.797z"/></g><g transform="rotate(-34.793 82 23.5)"><path fill="#fff" d="M82.189-1.81h.542v50.121h-.542z"/></g><g><path fill="#e2a917" d="M96.908 54.069h-.723l-.675-1.856h-1.393l-.672 1.856h-.724l1.911-5.252h.365zm-2.1-3.767l-.442 1.23h.885zm-6.492-1.485h.783l1.37 2.378 1.375-2.378h.785l-1.819 3.145v2.107h-.678v-2.107zm-.085 5.252h-.724l-.675-1.856h-1.393l-.672 1.856h-.723l1.91-5.252h.366zm-2.1-3.767l-.443 1.23h.885zM81.09 54.07h-.678v-5.252h.678v1.654l1.239-1.654h.859l-1.614 2.16 2.006 3.092h-.822l-1.626-2.534-.042.055zm-3.862-3.227a1.17 1.17 0 0 1-.347-.859c0-.334.12-.623.359-.865.24-.242.53-.362.871-.362.337 0 .626.12.868.356.135.132.249.34.34.629l-.616.242c-.074-.2-.141-.331-.202-.393a.535.535 0 0 0-.387-.156.54.54 0 0 0-.39.16.53.53 0 0 0-.162.39.53.53 0 0 0 .163.389c.12.12.285.227.5.325.41.132.76.343 1.046.632.322.316.481.702.481 1.156 0 .454-.16.84-.481 1.16a1.58 1.58 0 0 1-1.157.481c-.454 0-.84-.162-1.16-.481-.254-.255-.417-.61-.484-1.059l.66-.239c.042.387.144.663.306.822a.927.927 0 0 0 .678.282c.267 0 .49-.095.681-.282a.929.929 0 0 0 .282-.68.939.939 0 0 0-.282-.682 1.955 1.955 0 0 0-.662-.432 2.325 2.325 0 0 1-.905-.534zm-3.773-2.025h.678v4.571h1.877v.681h-2.555zm-5.013 1.203c-.39.39-.585.862-.585 1.417s.196 1.028.585 1.417c.393.393.862.586 1.415.586.552 0 1.024-.196 1.417-.586.39-.392.586-.865.586-1.417s-.197-1.024-.586-1.417a1.924 1.924 0 0 0-1.414-.586c-.553 0-1.028.196-1.418.586zm3.316-.482c.525.525.789 1.16.789 1.9 0 .741-.261 1.373-.789 1.9a2.592 2.592 0 0 1-1.898.79 2.599 2.599 0 0 1-1.902-.79 2.594 2.594 0 0 1-.789-1.9c0-.743.264-1.375.789-1.9a2.592 2.592 0 0 1 1.902-.788c.742 0 1.374.26 1.898.788zm-9.199-.72h.72l1.369 3.763 1.371-3.764h.727l-1.914 5.252h-.365zm-4.322.68v-.68H61.9l-2.642 4.57h2.494v.681h-3.665l2.638-4.57zm-3.129 4.571h-.724l-.675-1.856h-1.392l-.672 1.856h-.724l1.908-5.252h.368zm-2.1-3.767l-.443 1.23h.886zm-5.047 3.767h-.678v-5.252h.678v2.4h1.62v-2.4h.68v5.252h-.68v-2.172h-1.62zm-3.862-3.227a1.17 1.17 0 0 1-.347-.859c0-.334.12-.623.36-.865.239-.242.53-.362.87-.362.338 0 .626.12.869.356.135.132.248.34.34.629l-.616.242c-.074-.2-.142-.331-.203-.393a.535.535 0 0 0-.386-.156.54.54 0 0 0-.39.16.53.53 0 0 0-.163.39.53.53 0 0 0 .163.389c.12.12.285.227.5.325.411.132.76.343 1.046.632.322.316.482.702.482 1.156 0 .454-.16.84-.482 1.16a1.58 1.58 0 0 1-1.156.481c-.454 0-.84-.162-1.16-.481-.255-.255-.417-.61-.485-1.059l.66-.239c.043.387.144.663.307.822a.927.927 0 0 0 .678.282c.266 0 .49-.095.68-.282a.929.929 0 0 0 .283-.68.939.939 0 0 0-.282-.682 1.955 1.955 0 0 0-.663-.432 2.325 2.325 0 0 1-.905-.534zm-1.273 3.227h-.724l-.675-1.856h-1.392l-.672 1.856h-.724l1.911-5.252h.365zm-2.097-3.767l-.443 1.23h.886zm-5.223 1.46l1.7-2.945h.62v5.252h-.682v-3.794l-1.641 2.837-1.648-2.837v3.794h-.682v-5.252h.627zm-9.781-2.945h.782l1.371 2.378 1.375-2.378h.785l-1.82 3.145v2.107h-.677v-2.107zm-2.687 1.513h.442a.43.43 0 0 0 .26-.114.377.377 0 0 0 .117-.291.402.402 0 0 0-.123-.304.433.433 0 0 0-.313-.12l-.383-.003zm0 3.045h.666v-.01c.14-.008.312-.121.521-.335a1.16 1.16 0 0 0 .344-.84c0-.32-.114-.596-.344-.822a1.13 1.13 0 0 0-.825-.342h-.362zm1.166-4.232c.214.214.325.475.325.779 0 .313-.157.506-.473.58.227.033.485.196.776.484.292.292.436.693.436 1.209 0 .515-.181.96-.54 1.334-.34.353-.68.53-1.021.534v.006H22.36v-5.252h1.061c.304 0 .565.108.783.326z"/></g><g><path fill="#fff" d="M61.55 46.601h-3.077l.181-39.944-2.31 3.678H52.78L59.274.12h2.276z"/></g><g><path fill="#fff" d="M8.777 46.564H5.7l.181-39.913-2.307 3.671-3.564.003L6.5.12h2.277z"/></g><g><path fill="#fff" d="M19.492 48.882h.501l-2.035 5.194h-.5zm-4.755 2.74c-.43 0-.65.245-.65.748v.435c0 .534.235.786.65.786.414 0 .644-.252.65-.786v-.435c0-.503-.221-.749-.65-.749zm0-2.274c-.405 0-.65.246-.65.776v.252c0 .506.242.727.65.727.404 0 .65-.224.65-.727v-.252c0-.53-.242-.776-.65-.776zm0-.518c.8 0 1.223.482 1.22 1.282v.163c0 .527-.184.91-.592 1.067.43.169.592.577.592 1.095v.387c0 .797-.414 1.294-1.22 1.294-.807 0-1.221-.494-1.221-1.294v-.387c0-.524.165-.917.6-1.095-.422-.162-.6-.543-.6-1.067v-.163c0-.8.42-1.282 1.22-1.282zm-2.599 5.246V49.83a1.581 1.581 0 0 1-.717.221v-.476c.564-.025.757-.33.89-.692h.398v5.194zm-2.785-2.758c-.42 0-.613.282-.613.748v.776c0 .466.19.749.613.749.414 0 .614-.283.614-.749v-.776c0-.466-.2-.748-.614-.748zm0-2.488c.8 0 1.172.503 1.166 1.294v.096h-.54v-.132c0-.467-.19-.74-.614-.74-.435 0-.628.283-.628.838v1.162c.14-.355.423-.555.837-.555.666 0 .963.482.963 1.23v.785c0 .792-.392 1.31-1.184 1.31-.8 0-1.193-.518-1.193-1.31v-2.644c0-.822.371-1.334 1.193-1.334zm-2.3 4.518h.555v.718h-.555zm-1.445.728V49.83a1.581 1.581 0 0 1-.718.221v-.476c.564-.025.758-.33.89-.692h.398v5.194z"/></g><g transform="rotate(90 33 29.5)"><path fill="#e2a917" d="M33.072 14.32h.476v28.96h-.476z"/></g></g></g></svg>