<svg xmlns="http://www.w3.org/2000/svg" width="50" height="36" viewBox="0 0 50 36"><g><g><path fill="#fff" d="M25 0c10.519 0 17.494.502 17.494.502.977.112 3.125.112 5.022 2.12 0 0 1.535 1.507 1.981 4.967.53 4.046.503 8.091.503 8.091v3.795s.027 4.046-.503 8.091c-.446 3.432-1.98 4.967-1.98 4.967-1.898 1.98-4.046 1.98-5.023 2.092 0 0-6.975.53-17.494.53-13.002-.111-16.992-.502-16.992-.502-1.116-.195-3.627-.14-5.524-2.12 0 0-1.535-1.535-1.981-4.967-.53-4.045-.503-8.09-.503-8.09V15.68s-.027-4.045.503-8.09c.446-3.46 1.98-4.967 1.98-4.967C4.382.613 6.53.613 7.507.503 7.506.502 14.48 0 25 0zm-5.162 24.05l13.504-6.974-13.504-7.06z"/></g></g></svg>